<?xml version="1.0" standalone="no"?>
<!DOCTYPE svg PUBLIC "-//W3C//DTD SVG 1.1//EN" "http://www.w3.org/Graphics/SVG/1.1/DTD/svg11.dtd">
<svg xmlns="http://www.w3.org/2000/svg">
<defs >
<font id="Tourney" horiz-adv-x="1181" ><font-face
    font-family="Tourney Thin Light"
    units-per-em="2000"
    panose-1="0 0 0 0 0 0 0 0 0 0"
    ascent="1800"
    descent="-400"
    alphabetic="0" />
<glyph unicode=" " horiz-adv-x="550" />
<glyph unicode="!" horiz-adv-x="558" d="M85 388L170 1079L245 1428H531L456 1079L247 388H85ZM144 459H221L394 1070L456 1361H293L231 1070L144 459ZM-73 0L-11 294H303L241 0H-73ZM4 62H192L227 232H39L4 62Z" />
<glyph unicode="&quot;" horiz-adv-x="860" d="M246 946L236 1118L296 1400H598L538 1118L454 946H246ZM305 1001H421L477 1127L522 1341H349L304 1127L305 1001ZM576 946L566 1118L626 1400H928L868 1118L784 946H576ZM635 1001H751L807 1127L852 1341H679L634
1127L635 1001Z" />
<glyph unicode="#" horiz-adv-x="1344" d="M82 0L177 298H15L67 544H255L350 846H187L239 1092H427L526 1400H811L712 1092H875L974 1400H1259L1160 1092H1327L1275 846H1083L988 544H1155L1103 298H909L814 0H530L625 298H461L366 0H82ZM455 489L588 903H882L749
489H455ZM540 544H704L798 846H635L540 544ZM157 55H318L412 352H706L612 55H772L866 352H1064L1093 489H909L1042 903H1238L1267 1040H1087L1185 1347H1025L926 1040H633L731 1347H571L472 1040H283L254 903H428L295 489H109L79 352H252L157 55Z" />
<glyph unicode="$" horiz-adv-x="1282" d="M319 -96L339 0H189L27 206L81 458H364L339 344L387 283H697L771 344L807 514L759 575H317L155 781L243 1194L493 1400H637L657 1496H938L918 1400H1054L1216 1194L1162 942H879L904 1056L856 1117H571L496 1056L467
919L516 858H958L1120 652L1025 206L775 0H620L600 -96H319ZM388 -51H549L572 60H759L971 235L1054 623L916 799H473L399 893L440 1086L552 1179H895L969 1086L951 1000H1113L1149 1166L1011 1341H844L868 1452H707L683 1341H507L295 1166L220 813L355 637H801L875
544L826 315L713 222H349L275 315L294 403H132L96 235L234 60H411L388 -51Z" />
<glyph unicode="%" horiz-adv-x="1556" d="M35 0L1338 1400H1561L258 0H35ZM134 53H254L1460 1345H1340L134 53ZM249 709L145 841L236 1268L396 1400H753L857 1268L766 841L606 709H249ZM282 751H594L728 862L809 1247L723 1358H409L275 1246L194 864L282 751ZM349
847L299 910L361 1201L436 1263H655L704 1202L642 907L567 847H349ZM376 890H556L603 929L656 1180L626 1219H446L398 1180L345 929L376 890ZM786 -79L682 53L773 480L933 612H1290L1394 480L1303 53L1143 -79H786ZM819 -37H1131L1264 74L1346 459L1260 570H946L811
458L730 76L819 -37ZM885 59L835 122L897 413L972 475H1192L1241 414L1178 119L1103 59H885ZM912 102H1092L1140 141L1193 392L1162 431H982L935 392L882 141L912 102Z" />
<glyph unicode="&amp;" horiz-adv-x="1282" d="M199 -1L37 205L114 567L411 814L296 970L343 1193L593 1399H827L989 1193L942 970L757 809L882 634L898 708H1142L1061 327L764 -1H199ZM358 282H641L730 371L544 628L356 470L325 324L358 282ZM330 223L264 304L304
489L561 712L806 371L666 223H330ZM241 61H739L1014 364L1075 653H939L911 521L898 505L679 811L884 988L924 1174L791 1341H603L400 1174L360 988L487 814L166 542L100 235L241 61ZM606 918L522 1042L537 1112L622 1185H706L761 1112L746 1043L606 918ZM625 1002L697
1068L701 1083L674 1124H629L586 1083L582 1068L625 1002Z" />
<glyph unicode="&apos;" horiz-adv-x="534" d="M246 946L236 1118L296 1400H598L538 1118L454 946H246ZM305 1001H421L477 1127L522 1341H349L304 1127L305 1001Z" />
<glyph unicode="(" horiz-adv-x="784" d="M162 -400L-6 -186L306 1286L566 1500H953L583 1202L305 -102L549 -400H162ZM200 -336H415L237 -118L522 1224L793 1442H578L364 1266L60 -160L200 -336Z" />
<glyph unicode=")" horiz-adv-x="784" d="M226 -400H-161L209 -102L487 1202L243 1500H630L798 1286L486 -186L226 -400ZM216 -336L430 -160L733 1266L594 1442H378L556 1224L271 -118L0 -336H216Z" />
<glyph unicode="*" horiz-adv-x="804" d="M227 896L251 1009L132 939L53 1116L213 1208L91 1304L243 1479L335 1407L361 1528H579L554 1408L675 1479L753 1304L589 1208L711 1116L556 939L468 1007L445 896H227ZM290 953H406L438 1103L554 1012L636 1105L501 1209L680
1315L638 1407L484 1316L516 1472H400L367 1314L250 1406L170 1313L302 1209L126 1107L168 1013L322 1105L290 953Z" />
<glyph unicode="+" horiz-adv-x="836" d="M223 288L263 476H75L129 732H317L357 920H613L573 732H761L707 476H519L479 288H223ZM292 347H435L474 531H661L691 674H504L543 859H401L361 674H179L149 531H331L292 347Z" />
<glyph unicode="," horiz-adv-x="558" d="M72 -160L168 0H120L182 294H484L426 19L263 -160H72ZM156 -109H248L374 36L415 229H225L190 61H248L243 36L156 -109Z" />
<glyph unicode="-" horiz-adv-x="836" d="M75 476L129 732H761L707 476H75ZM149 531H661L691 674H179L149 531Z" />
<glyph unicode="." horiz-adv-x="558" d="M91 0L153 294H467L405 0H91ZM168 62H356L391 232H203L168 62Z" />
<glyph unicode="/" horiz-adv-x="624" d="M-143 -201L469 1500H752L140 -201H-143ZM-62 -142H100L672 1442H510L-62 -142Z" />
<glyph unicode="0" horiz-adv-x="1125" d="M132 0L-30 206L180 1194L430 1400H993L1155 1194L945 206L695 0H132ZM370 283H637L711 344L818 851L370 283ZM299 224L288 261L876 1015L906 999L761 317L648 224H299ZM171 62H681L892 237L1090 1166L952 1341H442L231
1166L33 237L171 62ZM221 417L363 1086L475 1179H815L826 1142L249 401L221 417ZM311 571L742 1117H489L414 1056L311 571Z" />
<glyph unicode="1" horiz-adv-x="969" d="M-73 0L-13 283H253L420 1069L138 994L205 1305L585 1400H773L535 283H805L745 0H-73ZM5 59H692L727 221H463L701 1339H586L255 1255L216 1076L499 1153L301 221H39L5 59Z" />
<glyph unicode="2" horiz-adv-x="1080" d="M-74 0L49 577L299 783H680L754 844L799 1056L751 1117H507L433 1056L402 913H120L180 1194L430 1400H948L1110 1194L1006 706L756 500H375L302 439L268 283H916L856 0H-74ZM1 60H804L839 222H198L250 470L363 563H740L954
739L1045 1168L907 1342H449L237 1168L195 972H357L381 1088L494 1180H792L866 1088L809 819L694 725H318L105 549L1 60Z" />
<glyph unicode="3" horiz-adv-x="1073" d="M132 0L-30 206L28 477H310L281 344L329 283H566L640 344L673 497L625 558H409L469 840H684L760 907L792 1056L744 1117H507L433 1056L404 923H122L180 1194L430 1400H941L1103 1194L1011 763L935 700L984 635L893 206L643
0H132ZM174 62H628L840 237L919 604L843 699L959 795L1038 1166L899 1341H446L234 1166L193 977H355L378 1086L491 1179H785L859 1086L815 878L699 780H508L474 619H665L739 525L695 317L582 224H289L215 317L238 423H76L36 237L174 62Z" />
<glyph unicode="4" horiz-adv-x="1088" d="M440 0L508 321H-31L39 648L590 1400H1021L852 604H1018L957 321H791L723 0H440ZM514 55H676L745 377H917L952 539H779L949 1341H616L99 641L43 377H583L514 55ZM258 539L282 651L657 1162H749L617 539H258ZM341 604H569L672
1091H663L350 649L341 604Z" />
<glyph unicode="5" horiz-adv-x="1086" d="M132 0L-30 206L24 458H306L281 344L329 283H579L653 344L717 643L669 704H429L322 608H55L224 1400H1155L1095 1117H446L412 957L448 987H866L1028 780L906 206L656 0H132ZM177 59H640L852 235L962 752L824 928H445L350
850H330L399 1179H1047L1082 1341H272L129 668H313L427 766H710L784 673L708 315L594 221H292L215 318L234 408H73L36 238L177 59Z" />
<glyph unicode="6" horiz-adv-x="1082" d="M132 0L-30 206L180 1194L430 1400H944L1107 1194L1062 981H779L795 1056L747 1117H507L433 1056L403 918L440 948H854L1016 742L902 206L652 0H132ZM292 223L215 318L276 601L429 726H697L771 633L704 316L591 223H292ZM329
283H575L649 344L705 604L657 665H431L333 585L281 344L329 283ZM177 61H636L848 236L950 713L812 888H441L315 785L379 1086L492 1179H787L861 1086L848 1029H1010L1040 1166L901 1341H447L235 1166L37 238L177 61Z" />
<glyph unicode="7" horiz-adv-x="984" d="M-65 0L698 965L731 1117H129L189 1400H1073L967 905L274 0H-65ZM55 55H246L910 919L1000 1339H235L200 1177H804L755 951L55 55Z" />
<glyph unicode="8" horiz-adv-x="1080" d="M132 0L-30 206L61 633L169 719L98 808L180 1194L430 1400H948L1110 1194L1028 808L919 717L991 633L900 206L650 0H132ZM290 223L216 316L264 544L379 638H676L750 544L702 316L589 223H290ZM175 61H635L847 236L927
612L839 718L973 828L1045 1164L906 1339H447L235 1164L163 828L250 719L117 612L37 236L175 61ZM413 800L340 897L379 1084L492 1177H791L865 1084L826 897L710 800H413ZM329 283H573L647 344L684 516L636 577H392L318 516L281 344L329 283ZM453 860H695L771 926L799
1056L751 1117H507L433 1056L405 926L453 860Z" />
<glyph unicode="9" horiz-adv-x="1082" d="M950 1400L1112 1194L902 206L652 0H138L-25 206L20 419H303L287 344L335 283H575L649 344L679 482L642 452H228L66 658L180 1194L430 1400H950ZM790 1177L867 1082L806 799L653 674H385L311 767L378 1084L491 1177H790ZM753
1117H507L433 1056L377 796L425 735H651L749 815L801 1056L753 1117ZM905 1339H446L234 1164L132 687L270 512H641L767 615L703 314L590 221H295L221 314L234 371H72L42 234L181 59H635L847 234L1045 1162L905 1339Z" />
<glyph unicode=":" horiz-adv-x="558" d="M151 787L213 1081H527L465 787H151ZM228 849H416L451 1019H263L228 849ZM239 0L301 294H615L553 0H239ZM316 62H504L539 232H351L316 62Z" />
<glyph unicode=";" horiz-adv-x="558" d="M205 -160L301 0H253L315 294H617L559 19L396 -160H205ZM289 -109H381L507 36L548 229H358L323 61H381L376 36L289 -109ZM151 787L213 1081H527L465 787H151ZM228 849H416L451 1019H263L228 849Z" />
<glyph unicode="&lt;" horiz-adv-x="826" d="M588 -2L75 417L148 763L840 1186L764 827L352 590V590L664 358L588 -2ZM552 118L595 319L286 551L302 628L711 863L754 1064L190 723L133 455L552 118Z" />
<glyph unicode="=" horiz-adv-x="836" d="M75 276L129 532H761L707 276H75ZM149 331H661L691 474H179L149 331ZM75 676L129 932H761L707 676H75ZM149 731H661L691 874H179L149 731Z" />
<glyph unicode="&gt;" horiz-adv-x="826" d="M-14 -2L62 358L474 590V590L162 827L238 1186L750 763L677 417L-14 -2ZM72 118L635 455L692 723L273 1064L231 863L539 628L522 551L114 319L72 118Z" />
<glyph unicode="?" horiz-adv-x="1100" d="M363 379L407 587L732 854L775 1056L726 1117H576L501 1056L476 942H194L248 1194L498 1400H924L1086 1194L988 735L664 467L646 379H363ZM348 61H530L565 223H383L348 61ZM275 0L335 283H636L576 0H275ZM436 432H598L610
491L934 760L1020 1165L882 1340H517L305 1165L270 1000H432L450 1085L562 1178H767L840 1085L785 827L462 558L436 432Z" />
<glyph unicode="@" horiz-adv-x="1834" d="M151 -68L-18 146L222 1274L481 1488H1673L1842 1274L1678 502L1418 288H1164L1105 366L1010 288H606L438 502L528 928L788 1142H1212L1380 928L1316 626L1351 582H1357L1410 626L1517 1130L1467 1194H563L485 1130L307
290L357 226H1407L1345 -68H151ZM196 -5H1300L1335 163H314L237 259L429 1160L547 1257H1507L1584 1160L1465 601L1363 517H1314L1248 601L1310 895L1169 1083H807L588 902L508 531L652 349H999L1126 455L1208 349H1397L1618 531L1769 1243L1626 1425H499L278 1243L52
177L196 -5ZM758 517L692 601L741 833L841 915H1063L1128 826L1080 601L978 517H758ZM793 582H969L1022 626L1060 804L1025 848H849L796 804L758 626L793 582Z" />
<glyph unicode="A" horiz-adv-x="1288" d="M-34 0L220 1194L470 1400H1116L1278 1194L1024 0H742L830 412H336L248 0H-34ZM42 64H203L289 471H902L816 64H978L1213 1168L1074 1342H488L277 1168L42 64ZM396 694H890L967 1056L919 1117H547L473 1056L396 694ZM324
633L421 1088L534 1180H960L1034 1088L937 633H324Z" />
<glyph unicode="B" horiz-adv-x="1273" d="M-24 0L274 1400H1056L1218 1194L1142 837L1034 748L1140 613L1053 206L803 0H-24ZM52 59H785L999 235L1074 590L955 743H943L1086 861L1152 1167L1013 1342H324L52 59ZM248 221L336 635H803L897 517L854 315L740 221H248ZM370
797L451 1180H899L973 1087L939 927L779 797H370ZM319 283H725L799 344L829 485L760 573H381L319 283ZM441 856H764L885 955L907 1056L859 1117H497L441 856Z" />
<glyph unicode="C" horiz-adv-x="1244" d="M162 0L0 206L210 1194L460 1400H1081L1244 1194L1176 872H893L932 1056L884 1117H538L464 1056L312 344L360 283H706L780 344L819 528H1102L1034 206L783 0H162ZM204 61H767L980 235L1031 473H869L835 315L722 223H319L245
315L409 1086L522 1179H925L999 1086L965 929H1127L1178 1166L1039 1341H476L264 1166L66 235L204 61Z" />
<glyph unicode="D" horiz-adv-x="1289" d="M-24 0L274 1400H1107L1269 1194L1059 206L809 0H-24ZM319 283H732L806 344L958 1056L910 1117H497L319 283ZM50 60H792L1004 235L1202 1164L1064 1339H322L50 60ZM247 222L449 1177H949L1023 1084L860 315L747 222H247Z" />
<glyph unicode="E" horiz-adv-x="1140" d="M-34 0L264 1400H1174L1114 1117H487L429 848H987L927 565H369L309 283H936L876 0H-34ZM41 62H835L869 224H238L323 626H885L920 788H357L440 1179H1072L1106 1341H313L41 62Z" />
<glyph unicode="F" horiz-adv-x="1080" d="M-34 0L264 1400H1154L1094 1117H487L429 848H998L938 565H369L249 0H-34ZM39 59H201L322 627H891L926 789H356L439 1179H1047L1082 1341H311L39 59Z" />
<glyph unicode="G" horiz-adv-x="1278" d="M172 0L10 206L220 1194L470 1400H1106L1268 1194L1214 942H932L957 1056L909 1117H546L472 1054L321 343L368 283H731L805 344L835 482H558L618 764H1177L1058 206L808 0H172ZM215 62H792L1005 237L1104 703H665L631
541H907L860 317L747 224H330L255 315L419 1086L532 1179H949L1023 1086L1005 1000H1167L1203 1166L1064 1341H487L275 1166L77 237L215 62Z" />
<glyph unicode="H" horiz-adv-x="1295" d="M-24 0L274 1400H557L439 848H919L1037 1400H1319L1021 0H739L859 565H379L259 0H-24ZM50 59H212L332 627H933L813 59H974L1246 1341H1085L968 789H367L484 1341H322L50 59Z" />
<glyph unicode="I" horiz-adv-x="1059" d="M-34 0L26 283H300L478 1117H204L264 1400H1093L1033 1117H760L582 283H855L795 0H-34ZM39 60H748L783 222H506L709 1179H986L1020 1341H311L276 1179H547L345 222H74L39 60Z" />
<glyph unicode="J" horiz-adv-x="1216" d="M173 0L10 206L86 563H369L322 344L370 283H668L742 344L907 1117H395L455 1400H1250L996 206L745 0H173ZM216 63H732L944 237L1178 1341H500L466 1179H982L799 318L686 225H330L256 318L296 504H134L77 237L216 63Z" />
<glyph unicode="K" horiz-adv-x="1298" d="M-24 0L274 1400H557L439 848H788L933 967L1025 1400H1308L1190 848L1020 708L1130 565L1010 0H727L822 447L728 565H379L259 0H-24ZM49 61H211L332 629H772L890 478L801 61H963L1066 545L939 711L1135 873L1235 1341H1073L987
939L808 791H367L483 1341H321L49 61Z" />
<glyph unicode="L" horiz-adv-x="1091" d="M-24 0L274 1400H557L319 283H927L867 0H-24ZM50 60H820L855 222H246L484 1341H322L50 60Z" />
<glyph unicode="M" horiz-adv-x="1741" d="M-24 0L274 1400H822L780 407H828L1208 1400H1765L1467 0H1184L1421 1116H1382L999 120H497L537 1116H496L259 0H-24ZM49 60H211L449 1177H595L560 185H957L1348 1177H1495L1257 60H1419L1691 1340H1250L862 350H723L758
1340H321L49 60Z" />
<glyph unicode="N" horiz-adv-x="1465" d="M49 59H211L449 1176H600L710 60H1144L1416 1341H1254L1017 225H864L756 1339H321L49 59ZM-24 0L274 1400H817L916 287H969L1206 1400H1489L1191 0H648L547 1116H496L259 0H-24Z" />
<glyph unicode="O" horiz-adv-x="1306" d="M172 0L10 206L220 1194L470 1400H1134L1296 1194L1086 206L836 0H172ZM370 283H758L832 344L984 1056L936 1117H548L474 1056L322 344L370 283ZM215 62H819L1032 237L1230 1166L1091 1341H487L276 1166L78 237L215 62ZM331
224L257 317L420 1086L533 1179H976L1050 1086L887 317L774 224H331Z" />
<glyph unicode="P" horiz-adv-x="1258" d="M-24 0L274 1400H1105L1267 1194L1150 643L877 418H348L259 0H-24ZM47 54H209L300 480H864L1098 674L1203 1166L1065 1341H321L47 54ZM408 701H799L897 781L956 1056L908 1117H497L408 701ZM334 642L448 1179H950L1024
1086L954 753L817 642H334Z" />
<glyph unicode="Q" horiz-adv-x="1342" d="M835 -242L645 0H172L10 206L220 1194L470 1400H1160L1322 1194L1112 206L965 85L1068 -50L835 -242ZM860 -166L992 -57L871 99H892L1058 237L1256 1166L1118 1341H487L275 1166L78 237L215 62H682L860 -166ZM370 283H784L859
344L1010 1056L961 1117H547L473 1056L322 344L370 283ZM330 224L257 317L420 1086L533 1179H1004L1077 1086L913 317L801 224H330Z" />
<glyph unicode="R" horiz-adv-x="1309" d="M-24 0L274 1400H1137L1299 1194L1207 760L1061 648L1155 515L1045 0H762L850 415L772 515H369L259 0H-24ZM50 59H212L321 578H811L917 437L837 59H999L1090 491L976 653L1150 784L1231 1166L1093 1340H322L50 59ZM429
798H871L945 860L987 1056L939 1117H497L429 798ZM356 740L449 1178H978L1052 1086L999 838L871 740H356Z" />
<glyph unicode="S" horiz-adv-x="1302" d="M172 0L10 206L64 458H347L322 344L370 283H754L828 344L861 498L813 559H297L135 765L226 1194L476 1400H1111L1273 1194L1219 942H936L961 1056L913 1117H554L479 1056L446 903L495 842H1011L1173 636L1082 206L832
0H172ZM213 60H814L1025 235L1106 614L974 783H454L381 875L425 1085L537 1177H956L1027 1088L1008 998H1170L1207 1168L1072 1339H492L280 1165L202 796L340 619H859L927 536L880 315L768 222H328L257 311L276 402H114L77 231L213 60Z" />
<glyph unicode="T" horiz-adv-x="1126" d="M273 0L511 1117H164L224 1400H1200L1140 1117H793L555 0H273ZM346 59H507L745 1179H1094L1129 1341H269L235 1179H583L346 59Z" />
<glyph unicode="U" horiz-adv-x="1328" d="M172 0L10 206L264 1400H547L322 344L370 283H780L854 344L1079 1400H1362L1108 206L858 0H172ZM215 60H842L1053 234L1289 1341H1127L909 314L796 222H330L255 314L473 1341H311L76 234L215 60Z" />
<glyph unicode="V" horiz-adv-x="1338" d="M352 0L56 376L274 1400H557L368 514L529 311H644L890 514L1079 1400H1362L1144 376L688 0H352ZM395 60H672L1089 404L1289 1341H1127L945 484L644 237H499L301 484L483 1341H321L122 404L395 60Z" />
<glyph unicode="W" horiz-adv-x="1738" d="M274 1400H557L320 284H364L741 1280H1243L1199 284H1242L1479 1400H1762L1464 0H913L960 993H912L537 0H-24L274 1400ZM321 1340L49 60H494L877 1050H1017L980 60H1416L1688 1340H1526L1289 223H1142L1178 1215H780L397
223H245L483 1340H321Z" />
<glyph unicode="X" horiz-adv-x="1353" d="M-24 0L86 515L320 708L167 898L274 1400H557L476 1017L608 848H807L1012 1017L1094 1400H1377L1270 898L1039 708L1188 515L1079 0H796L880 397L747 565H548L344 397L259 0H-24ZM50 60H212L288 419L538 627H782L945
419L869 60H1031L1121 485L951 709L1215 927L1303 1341H1141L1068 993L819 789H573L410 993L484 1341H322L234 927L408 707L141 485L50 60Z" />
<glyph unicode="Y" horiz-adv-x="1294" d="M356 0L450 443L132 825L254 1400H537L436 927L650 674H631L954 927L1055 1400H1338L1216 825L733 443L639 0H356ZM429 59H591L678 468L1160 849L1264 1341H1102L1008 902L627 603H624L371 904L463 1341H301L196 846L515
465L429 59Z" />
<glyph unicode="Z" horiz-adv-x="1123" d="M34 61H823L858 223H249L282 380L1017 981L1093 1341H322L287 1179H884L853 1032L112 426L34 61ZM-44 0L52 448L790 1053L804 1117H214L274 1400H1167L1072 956L342 359L326 283H929L869 0H-44Z" />
<glyph unicode="[" horiz-adv-x="656" d="M-100 -400L304 1500H796L733 1206H535L257 -106H455L392 -400H-100ZM-23 -334H342L378 -166H181L485 1269H682L718 1437H353L-23 -334Z" />
<glyph unicode="\" horiz-adv-x="624" d="M390 -201H107L219 1500H502L390 -201ZM335 -142L436 1442H274L173 -142H335Z" />
<glyph unicode="]" horiz-adv-x="656" d="M358 -400H-134L-71 -106H127L405 1206H207L270 1500H762L358 -400ZM309 -334L686 1437H320L284 1269H482L177 -166H-20L-56 -334H309Z" />
<glyph unicode="^" horiz-adv-x="912" d="M14 980L360 1428H653L801 980H508L457 1199V1199L308 980H14ZM121 1031H283L454 1277H493L557 1031H719L607 1376H383L121 1031Z" />
<glyph unicode="_" horiz-adv-x="1156" d="M75 -256L129 0H1081L1027 -256H75ZM149 -198H981L1011 -56H179L149 -198Z" />
<glyph unicode="`" horiz-adv-x="688" d="M562 1112H315L87 1376H374L562 1112ZM468 1153L339 1334H192L344 1153H468Z" />
<glyph unicode="a" horiz-adv-x="1253" d="M201 0L39 206L100 491L349 697H893L902 736L854 797H179L239 1080H1052L1214 874L1072 206L822 0H201ZM359 222L285 315L304 406L397 484H912L877 319L760 222H359ZM244 60H806L1022 239L1151 845L1012 1021H290L256
859H898L972 765L945 639H364L155 467L106 235L244 60ZM399 283H744L818 344L835 424H409L358 382L350 344L399 283Z" />
<glyph unicode="b" horiz-adv-x="1166" d="M173 0L9 206L284 1500H567L474 1061L498 1080H964L1127 874L985 206L735 0H173ZM332 221L255 317L344 739L493 860H810L882 771L785 317L667 221H332ZM370 283H658L732 344L815 736L767 798H498L401 717L322 344L370
283ZM217 59H713L931 237L1061 850L924 1022H498L385 929L494 1441H332L76 237L217 59Z" />
<glyph unicode="c" horiz-adv-x="1250" d="M201 0L39 206L181 874L431 1080H1195L1135 797H509L435 736L351 344L399 283H1025L965 0H201ZM248 60H918L952 222H363L286 319L381 765L495 859H1087L1122 1021H449L236 845L106 237L248 60Z" />
<glyph unicode="d" horiz-adv-x="1256" d="M765 0H203L39 206L181 874L432 1080H898L914 1061L1007 1500H1290L1015 206L765 0ZM699 221H363L286 317L383 771L493 860H811L906 739L817 317L699 221ZM688 283L762 344L841 717L778 798H509L435 736L352 344L400
283H688ZM745 59L962 237L1218 1441H1056L947 929L873 1022H447L238 850L108 237L249 59H745Z" />
<glyph unicode="e" horiz-adv-x="1253" d="M1052 1080L1214 874L1153 589L904 383H360L351 344L399 283H1074L1014 0H201L39 206L181 874L431 1080H1052ZM894 858L968 765L949 674L856 596H341L376 761L493 858H894ZM1009 1020H447L231 841L102 235L241 59H963L997
221H355L281 315L308 441H889L1098 613L1147 845L1009 1020ZM854 797H509L435 736L418 656H844L895 698L903 736L854 797Z" />
<glyph unicode="f" horiz-adv-x="950" d="M129 0L298 798H96L156 1080H358L404 1294L653 1500H1043L988 1237H719L665 1192L641 1080H954L894 798H581L412 0H129ZM201 59H363L533 858H849L883 1020H567L609 1213L707 1295H942L974 1443H670L459 1270L405 1020H204L170
858H371L201 59Z" />
<glyph unicode="g" horiz-adv-x="1255" d="M-40 -400L20 -118H582L680 -37L692 20L668 0H201L39 206L181 874L430 1080H993L1156 874L928 -194L679 -400H-40ZM32 -341H655L879 -155L1090 843L950 1022H448L235 846L106 240L247 61H663L784 160L737 -63L596 -179H67L32
-341ZM362 223L285 320L380 767L494 860H835L913 763L827 363L656 223H362ZM399 283H648L769 383L844 737L795 798H508L434 737L351 344L399 283Z" />
<glyph unicode="h" horiz-adv-x="1166" d="M-34 0L284 1499H567L474 1061L497 1080H964L1126 874L941 0H658L814 736L766 798H498L401 717L249 0H-34ZM39 60H201L346 741L490 859H811L882 769L731 60H893L1061 849L926 1021H496L387 932L495 1440H333L39 60Z" />
<glyph unicode="i" horiz-adv-x="972" d="M486 1237L541 1500H863L808 1237H486ZM564 1293H752L786 1449H598L564 1293ZM-4 0L56 283H323L432 797H165L225 1080H774L605 283H872L812 0H-4ZM68 60H764L799 222H528L698 1021H272L238 859H502L367 222H103L68 60Z" />
<glyph unicode="j" horiz-adv-x="767" d="M-217 -400L-157 -118H94L191 -37L369 798H38L98 1080H712L441 -194L191 -400H-217ZM-141 -337H176L387 -161L639 1020H144L109 859H442L245 -69L117 -176H-107L-141 -337ZM462 1236L518 1500H801L745 1236H462ZM535 1293H697L730
1449H568L535 1293Z" />
<glyph unicode="k" horiz-adv-x="1139" d="M-24 0L274 1400H557L403 678H607L752 797L812 1080H1095L1009 678L839 538L949 395L865 0H582L641 277L547 395H343L259 0H-24ZM49 61H211L296 457H589L707 306L655 61H817L883 372L757 538L953 700L1021 1022H859L805
767L625 619H330L483 1341H321L49 61Z" />
<glyph unicode="l" horiz-adv-x="913" d="M-69 0L-9 283H261L459 1217H189L249 1500H801L543 283H813L753 0H-69ZM3 60H705L740 222H468L727 1441H297L262 1279H531L306 222H38L3 60Z" />
<glyph unicode="m" horiz-adv-x="1613" d="M-5 0L181 874L431 1080H818L900 978L1025 1080H1412L1574 874L1388 0H1105L1262 736L1214 797H1064L990 736L846 60H563L707 736L659 797H509L435 736L278 0H-5ZM69 60H231L381 765L495 859H695L773 762L636 117H798L935
762L1053 859H1254L1329 765L1179 60H1341L1508 845L1369 1021H1033L883 898L785 1021H449L236 845L69 60Z" />
<glyph unicode="n" horiz-adv-x="1180" d="M-5 0L181 874L431 1080H979L1141 874L955 0H673L830 736L782 797H508L434 736L277 0H-5ZM69 60H230L380 764L494 858H822L896 765L746 60H908L1075 845L936 1020H449L236 844L69 60Z" />
<glyph unicode="o" horiz-adv-x="1257" d="M201 0L39 206L181 874L431 1080H1056L1218 874L1076 206L826 0H201ZM248 60H809L1021 235L1151 845L1013 1020H449L236 844L107 239L248 60ZM363 222L286 319L381 764L495 858H898L972 765L877 315L763 222H363ZM399
283H748L822 344L906 736L858 797H509L435 736L351 344L399 283Z" />
<glyph unicode="p" horiz-adv-x="1188" d="M-115 -378L151 874L401 1080H987L1149 874L1007 206L757 0H267L253 20L168 -378H-115ZM-42 -318H120L221 157L294 64H744L957 239L1085 845L947 1020H421L204 841L-42 -318ZM389 283H680L754 344L837 736L789 798H479L405
736L326 363L389 283ZM358 226L261 347L349 762L467 858H832L906 765L811 319L698 226H358Z" />
<glyph unicode="q" horiz-adv-x="1278" d="M913 -378H630L715 20L691 0H201L39 206L181 874L431 1080H1017L1179 874L913 -378ZM866 -318L1112 841L971 1020H445L233 845L104 239L242 64H692L805 157L704 -318H866ZM691 283L788 363L867 736L819 798H509L435 736L352
344L400 283H691ZM698 226H357L283 319L377 765L492 858H857L933 762L845 347L698 226Z" />
<glyph unicode="r" horiz-adv-x="1148" d="M-5 0L55 282H249L356 783L344 798H167L227 1080H480L531 1000L625 1080H1014L1186 861L923 649L817 797H703L629 736L532 281H726L666 0H-5ZM66 60H622L656 221H458L575 769L681 856H863L950 735L1101 858L977 1018H635L515
918L446 1018H270L236 857H377L419 798L296 221H100L66 60Z" />
<glyph unicode="s" horiz-adv-x="1203" d="M5 0L65 283H695L769 344L768 339L722 399H286L124 605L181 874L431 1080H1188L1128 797H508L434 736L435 742L483 681H917L1079 475L1022 206L772 0H5ZM78 62H759L967 234L1014 451L877 622H437L371 708L384 769L491
858H1081L1116 1020H446L236 847L190 630L323 461H763L833 373L820 313L713 224H112L78 62Z" />
<glyph unicode="t" horiz-adv-x="935" d="M179 0L349 798H100L160 1080H409L467 1354H750L692 1080H940L880 798H632L522 283H763L703 0H179ZM253 60H656L690 221H449L584 859H833L868 1021H619L677 1294H515L457 1021H207L172 859H422L253 60Z" />
<glyph unicode="u" horiz-adv-x="1202" d="M201 0L39 206L225 1080H508L351 344L399 283H693L767 344L924 1080H1207L1021 206L771 0H201ZM247 61H755L968 239L1134 1020H972L823 319L709 223H362L285 319L434 1020H272L106 239L247 61Z" />
<glyph unicode="v" horiz-adv-x="1200" d="M168 0L160 1080H469L459 284H636L961 1080H1270L806 0H168ZM232 61H769L1180 1021H1004L672 226H400L404 1020H227L232 61Z" />
<glyph unicode="w" horiz-adv-x="1613" d="M225 1080H508L351 344L399 283H549L623 344L767 1020H1050L906 344L954 283H1104L1178 344L1335 1080H1618L1432 206L1182 0H795L714 102L588 0H201L39 206L225 1080ZM273 1020L106 235L244 59H580L731 182L829 59H1164L1378
235L1545 1020H1383L1233 315L1118 221H918L840 318L977 963H815L678 318L560 221H360L285 315L435 1020H273Z" />
<glyph unicode="x" horiz-adv-x="1252" d="M-5 0L73 365L294 548L150 728L225 1080H508L459 847L582 688H732L924 847L974 1080H1257L1181 728L963 548L1104 365L1027 0H744L796 247L672 405H522L331 247L278 0H-5ZM69 60H231L276 269L513 466H707L861 269L817
60H979L1037 335L875 549L1126 755L1183 1020H1021L978 822L744 628H547L393 822L435 1020H273L217 755L382 547L128 335L69 60Z" />
<glyph unicode="y" horiz-adv-x="1251" d="M202 0L40 206L225 1080H508L352 344L400 283H645L766 383L914 1080H1196L925 -194L676 -400H-39L21 -118H579L677 -37L689 20L665 0H202ZM40 -341H654L874 -158L1124 1021H963L823 363L652 223H358L286 316L435 1021H273L106
236L243 61H659L780 160L731 -66L595 -179H75L40 -341Z" />
<glyph unicode="z" horiz-adv-x="1070" d="M78 61H800L835 223H316L340 336L925 695L994 1020H289L254 858H760L737 744L145 378L78 61ZM-5 0L80 399L673 767L680 797H184L244 1080H1075L988 673L404 315L397 283H905L845 0H-5Z" />
<glyph unicode="{" horiz-adv-x="822" d="M272 362L123 -339H488L524 -171H327L439 357L314 551L521 745L633 1271H830L866 1439H501L352 740L151 551L272 362ZM504 362L405 -106H603L540 -400H48L208 351L80 551L293 751L452 1500H944L881 1206H683L584 740L383
551L504 362Z" />
<glyph unicode="|" horiz-adv-x="618" d="M-43 -428L367 1500H661L251 -428H-43ZM33 -369H201L586 1440H418L33 -369Z" />
<glyph unicode="}" horiz-adv-x="822" d="M470 362L671 551L550 740L699 1439H334L298 1271H495L384 745L508 551L301 357L189 -171H-8L-44 -339H321L470 362ZM238 362L439 551L318 740L417 1206H219L282 1500H774L615 751L742 551L530 351L370 -400H-122L-59
-106H139L238 362Z" />
<glyph unicode="~" horiz-adv-x="780" d="M86 509L115 645L250 757H428L472 701H490L502 757H694L665 621L530 509H352L308 565H290L278 509H86ZM143 551H243L249 583L284 613H335L384 554H516L625 645L639 716H539L533 684L498 653H444L396 713H266L158 622L143 551Z" />
<glyph unicode="&#xa0;" horiz-adv-x="550" />
<glyph unicode="&#xa1;" horiz-adv-x="558" d="M265 1012H427L342 321L268 -28H-18L56 321L265 1012ZM294 941L121 330L59 39H222L284 330L370 941H294ZM274 1400H588L525 1106H211L274 1400ZM324 1338L288 1168H476L512 1338H324Z" />
<glyph unicode="&#xa2;" horiz-adv-x="1178" d="M291 0L324 154H232L70 360L214 1040L464 1246H556L589 1400H893L860 1246H948L1110 1040L1061 810H778L798 902L750 963H542L468 902L382 498L430 437H638L712 498L732 590H1015L966 360L716 154H628L595 0H291ZM365
50H541L576 215H697L910 390L940 532H778L765 470L651 377H393L317 473L414 931L529 1025H789L863 932L850 870H1012L1042 1012L904 1187H783L818 1352H642L607 1187H482L269 1011L138 393L279 215H400L365 50Z" />
<glyph unicode="&#xa3;" horiz-adv-x="1204" d="M-74 0L-14 283H106L180 344L223 546H64L119 802H278L361 1194L611 1400H1238L1178 1117H689L615 1056L561 802H751L696 546H506L450 283H996L936 0H-74ZM-10 61H892L926 223H338L385 261L457 601H650L681 744H488L560
1086L674 1179H1134L1169 1341H626L415 1167L326 744H169L138 601H295L234 316L121 223H24L-10 61Z" />
<glyph unicode="&#xa4;" horiz-adv-x="1240" d="M48 8L-94 189L85 337L74 351L185 874L202 888L82 1040L302 1221L422 1069L435 1080H993L1003 1067L1190 1221L1332 1040L1146 886L1155 874L1044 351L1034 343L1156 189L936 8L815 162L794 145H236L228 156L48
8ZM434 428H716L790 489L843 736L795 797H513L439 736L386 489L434 428ZM67 92L251 243L284 205H777L829 245L955 91L1077 191L952 348L989 380L1088 843L1061 880L1255 1038L1174 1141L979 980L946 1020H453L409 984L284 1139L162 1038L286 881L240 843L143 386L174
345L-11 191L67 92ZM399 367L321 464L385 764L501 858H835L909 765L845 460L731 367H399Z" />
<glyph unicode="&#xa5;" horiz-adv-x="1220" d="M319 0L334 70H161L213 316H386L393 347H220L267 569L116 750L254 1400H537L420 852L598 644L864 852L981 1400H1264L1126 750L900 571L852 347H676L669 316H845L793 70H617L602 0H319ZM392 59H554L568 125H745L774
262H597L626 396H803L834 544H780L1070 773L1190 1341H1028L920 827L582 564H579L354 827L463 1341H301L180 773L372 544H321L289 396H464L435 262H262L232 125H406L392 59Z" />
<glyph unicode="&#xa6;" horiz-adv-x="619" d="M190 665L368 1500H662L484 665H190ZM265 724H435L587 1441H418L265 724ZM-36 -400L142 435H436L258 -400H-36ZM39 -341H209L361 376H192L39 -341Z" />
<glyph unicode="&#xa7;" horiz-adv-x="1166" d="M-54 -189L6 94H569L641 153L596 210H227L65 416L122 685L200 749L149 812L206 1081L456 1287H1146L1086 1004H533L462 946L508 888H875L1037 682L980 413L904 350L953 286L896 17L646 -189H-54ZM19 -127H633L841
45L888 262L816 351L925 441L972 658L835 829H462L396 915L409 976L516 1065H1039L1074 1227H471L261 1054L215 837L286 748L177 658L131 441L264 272H637L707 184L693 124L587 35H53L19 -127ZM424 492H656L725 549L680 606H446L378 550L424 492ZM378 433L312 519L325
580L431 668H721L791 580L778 520L674 433H378Z" />
<glyph unicode="&#xa8;" horiz-adv-x="944" d="M552 1132L596 1342H808L764 1132H552ZM136 1132L180 1342H392L348 1132H136ZM196 1181H307L330 1293H220L196 1181ZM613 1181H724L747 1293H636L613 1181Z" />
<glyph unicode="&#xa9;" horiz-adv-x="1618" d="M209 -28L41 186L259 1214L519 1428H1429L1597 1214L1379 186L1119 -28H209ZM249 37H1108L1326 217L1532 1185L1390 1365H532L313 1185L107 217L249 37ZM355 205L280 300L450 1103L566 1197H1284L1359 1103L1189
300L1074 205H355ZM586 352H911L1074 490L1097 599H971L960 552L875 479H677L616 556L676 840L767 915H968L1022 841L1012 795H1139L1162 905L1057 1041H730L563 904L476 493L586 352ZM396 266H1058L1135 330L1293 1070L1242 1134H580L503 1070L345 330L396 266ZM545
300L418 464L518 934L714 1096H1094L1222 934L1182 746H950L966 820L933 864H779L726 820L674 576L708 532H862L914 576L930 652H1162L1122 464L925 300H545Z" />
<glyph unicode="&#xaa;" horiz-adv-x="885" d="M280 717L176 850L215 1033L376 1166H726L732 1191L701 1230H266L305 1412H828L933 1280L841 850L680 717H280ZM382 860L335 920L347 978L407 1029H738L716 922L640 860H382ZM308 756H670L809 871L892 1261L803 1374H338L316
1270H729L777 1210L760 1128H385L251 1018L219 868L308 756ZM408 899H630L678 939L689 990H414L382 963L376 939L408 899Z" />
<glyph unicode="&#xab;" horiz-adv-x="1200" d="M979 216L584 466L647 759L1147 1003L1084 710L845 612V612L1042 510L979 216ZM949 312L983 474L762 593L771 632L1041 748L1076 910L691 725L644 500L949 312ZM737 216L342 466L405 759L905 1003L842 710L603 612V612L800
510L737 216ZM707 312L741 474L520 593L529 632L799 748L834 910L449 725L402 500L707 312Z" />
<glyph unicode="&#xac;" horiz-adv-x="1128" d="M1085 883L969 335H686L742 600H101L161 883H1085ZM1013 822H208L173 660H816L760 395H922L1013 822Z" />
<glyph unicode="&#xad;" horiz-adv-x="836" d="M75 476L129 732H761L707 476H75ZM149 531H661L691 674H179L149 531Z" />
<glyph unicode="&#xae;" horiz-adv-x="1382" d="M212 262L44 476L200 1214L460 1428H1170L1338 1214L1182 476L922 262H212ZM248 311H907L1125 491L1273 1185L1131 1365H473L254 1185L107 491L248 311ZM352 472L277 567L393 1109L509 1204H1027L1103 1109L987
567L871 472H352ZM396 546H858L936 610L1036 1080L986 1144H524L446 1080L346 610L396 546ZM390 602L463 946L660 1108H870L1000 942L779 784L707 876H725L671 832L622 602H390ZM453 651H580L624 857L705 923H748L801 855L922 943L838 1050H668L511 920L453 651Z"
/>
<glyph unicode="&#xaf;" horiz-adv-x="836" d="M75 1119L129 1375H761L707 1119H75ZM149 1174H661L691 1317H179L149 1174Z" />
<glyph unicode="&#xb0;" horiz-adv-x="884" d="M278 709L174 841L265 1268L425 1400H825L929 1268L838 841L678 709H278ZM308 747H667L802 859L886 1250L797 1362H436L300 1249L217 862L308 747ZM381 851L332 913L393 1198L466 1258H724L771 1199L710 911L637
851H381ZM404 890H628L675 929L729 1180L698 1219H475L427 1180L374 929L404 890Z" />
<glyph unicode="&#xb1;" horiz-adv-x="940" d="M276 538L316 726H128L182 982H370L410 1170H666L626 982H814L760 726H572L532 538H276ZM345 597H488L527 781H714L744 924H557L596 1109H454L414 924H232L202 781H384L345 597ZM128 235L182 491H814L760 235H128ZM202
290H714L744 433H232L202 290Z" />
<glyph unicode="&#xb2;" horiz-adv-x="513" d="M103 830L154 1068L260 1153H391L415 1173L433 1257L417 1277H342L318 1257L305 1195H181L207 1315L313 1400H499L569 1316L526 1117L420 1030H290L265 1009L254 953H491L464 830H103ZM139 859H440L454 924H219L240
1022L285 1060H413L501 1132L537 1302L480 1372H321L233 1302L217 1224H283L293 1270L338 1307H436L463 1270L441 1162L396 1125H268L181 1055L139 859Z" />
<glyph unicode="&#xb3;" horiz-adv-x="511" d="M190 830L122 917L146 1031H269L257 973L272 953H348L372 973L385 1034L369 1053H289L315 1176H395L420 1198L432 1257L416 1277H340L317 1257L305 1199H181L205 1313L312 1400H498L566 1313L529 1140L499 1115L518
1089L482 917L376 830H190ZM210 859H370L456 931L487 1075L457 1114L504 1154L536 1300L478 1372H318L231 1300L215 1226H281L291 1270L335 1306H435L463 1270L445 1185L401 1148H334L319 1082H386L415 1046L397 961L354 925H254L225 961L235 1004H168L152 931L210
859Z" />
<glyph unicode="&#xb4;" horiz-adv-x="688" d="M54 1112L354 1376H641L301 1112H54ZM165 1153H290L518 1334H371L165 1153Z" />
<glyph unicode="&#xb5;" horiz-adv-x="1142" d="M-95 -428L225 1080H508L352 344L400 283H634L708 344L864 1080H1147L961 206L712 0H279L188 -428H-95ZM-22 -369H140L239 103L299 61H695L909 239L1075 1020H913L763 319L649 223H362L285 319L435 1020H273L-22 -369Z" />
<glyph unicode="&#xb6;" horiz-adv-x="1335" d="M372 -234L511 418H290L113 643L230 1194L480 1400H1369L1021 -234H738L1026 1118H944L656 -234H372ZM446 -175H607L896 1180H1100L812 -175H972L1295 1340H508L297 1166L191 674L344 481L491 487L459 574L571 1102L629
1180H734L446 -175Z" />
<glyph unicode="&#xb7;" horiz-adv-x="558" d="M91 588L153 882H467L405 588H91ZM168 650H356L391 820H203L168 650Z" />
<glyph unicode="&#xb8;" horiz-adv-x="638" d="M40 -349L73 -192H278L315 -160L292 -130H158L191 27H435L558 -160L355 -349H40ZM95 -309H337L500 -160L399 -13H229L213 -90H323L373 -160L294 -232H111L95 -309Z" />
<glyph unicode="&#xb9;" horiz-adv-x="467" d="M103 830L130 953H225L289 1254L188 1226L217 1362L363 1400H444L349 953H446L419 830H103ZM140 858H394L408 924H314L409 1372H363L241 1339L225 1265L326 1296L247 924H154L140 858Z" />
<glyph unicode="&#xba;" horiz-adv-x="884" d="M278 709L174 841L265 1268L425 1400H825L929 1268L838 841L678 709H278ZM308 747H667L802 859L886 1250L797 1362H436L300 1249L217 862L308 747ZM381 851L332 913L393 1198L466 1258H724L771 1199L710 911L637
851H381ZM404 890H628L675 929L729 1180L698 1219H475L427 1180L374 929L404 890Z" />
<glyph unicode="&#xbb;" horiz-adv-x="1200" d="M53 216L116 510L357 612V612L158 710L221 1003L617 759L554 466L53 216ZM125 312L510 500L557 725L252 910L218 748L439 632L431 593L160 474L125 312ZM551 216L614 510L855 612V612L656 710L719 1003L1115 759L1052
466L551 216ZM623 312L1008 500L1055 725L750 910L716 748L937 632L929 593L658 474L623 312Z" />
<glyph unicode="&#xbc;" horiz-adv-x="1022" d="M103 830L130 953H225L289 1254L188 1226L217 1362L363 1400H444L349 953H446L419 830H103ZM140 858H394L408 924H314L409 1372H363L241 1339L225 1265L326 1296L247 924H154L140 858ZM-87 0L953 1400H1107L68 0H-87ZM-30
29H56L1055 1374H969L-30 29ZM642 0L670 128H482L511 264L691 570H887L819 252H877L851 128H793L765 0H642ZM642 252H696L735 436H738L645 265L642 252ZM677 26H743L770 155H831L845 222H785L852 542H704L539 258L517 156H705L677 26ZM604 222L613 265L728 469H771L718
222H604Z" />
<glyph unicode="&#xbd;" horiz-adv-x="1066" d="M103 830L130 953H225L289 1254L188 1226L217 1362L363 1400H444L349 953H446L419 830H103ZM140 858H394L408 924H314L409 1372H363L241 1339L225 1265L326 1296L247 924H154L140 858ZM-87 0L953 1400H1107L68 0H-87ZM-30
29H56L1055 1374H969L-30 29ZM480 0L531 238L637 323H768L792 343L810 427L794 447H719L695 427L682 365H558L584 485L690 570H876L946 486L903 287L797 200H667L642 179L631 123H868L841 0H480ZM516 29H817L831 94H596L617 192L662 230H790L878 302L914 472L857
542H698L610 472L594 394H660L670 440L715 477H813L840 440L818 332L773 295H645L558 225L516 29Z" />
<glyph unicode="&#xbe;" horiz-adv-x="1066" d="M190 830L122 917L146 1031H269L257 973L272 953H348L372 973L385 1034L369 1053H289L315 1176H395L420 1198L432 1257L416 1277H340L317 1257L305 1199H181L205 1313L312 1400H498L566 1313L529 1140L499 1115L518
1089L482 917L376 830H190ZM210 859H370L456 931L487 1075L457 1114L504 1154L536 1300L478 1372H318L231 1300L215 1226H281L291 1270L335 1306H435L463 1270L445 1185L401 1148H334L319 1082H386L415 1046L397 961L354 925H254L225 961L235 1004H168L152 931L210
859ZM-43 0L997 1400H1151L112 0H-43ZM14 29H100L1099 1374H1013L14 29ZM686 0L714 128H526L555 264L735 570H931L863 252H921L895 128H837L809 0H686ZM686 252H740L779 436H782L689 265L686 252ZM721 26H787L814 155H875L889 222H829L896 542H748L583 258L561
156H749L721 26ZM648 222L657 265L772 469H815L762 222H648Z" />
<glyph unicode="&#xbf;" horiz-adv-x="1100" d="M755 1021L711 813L386 546L343 344L392 283H542L617 344L642 458H924L870 206L620 0H194L32 206L130 665L454 933L472 1021H755ZM770 1339H588L553 1177H735L770 1339ZM843 1400L783 1117H482L542 1400H843ZM682
968H520L508 909L184 640L98 235L236 60H601L813 235L848 400H686L668 315L556 222H351L278 315L333 573L656 842L682 968Z" />
<glyph unicode="&#xc0;" horiz-adv-x="1288" d="M-34 0L220 1194L470 1400H1116L1278 1194L1024 0H742L830 412H336L248 0H-34ZM42 64H203L289 471H902L816 64H978L1213 1168L1074 1342H488L277 1168L42 64ZM396 694H890L967 1056L919 1117H547L473 1056L396 694ZM324
633L421 1088L534 1180H960L1034 1088L937 633H324ZM923 1432H676L448 1696H735L923 1432ZM829 1473L700 1654H553L705 1473H829Z" />
<glyph unicode="&#xc1;" horiz-adv-x="1311" d="M-94 0L573 1400H1081L1157 0H832L822 296H366L232 0H-94ZM3 58H189L324 353H890L902 58H1087L1020 1340H609L3 58ZM386 496L696 1179H862L890 496H386ZM477 552H821L803 1116H726L477 552ZM719 1432L1019 1696H1306L966
1432H719ZM830 1473H955L1183 1654H1036L830 1473Z" />
<glyph unicode="&#xc2;" horiz-adv-x="1311" d="M-94 0L573 1400H1081L1157 0H832L822 296H366L232 0H-94ZM3 58H189L324 353H890L902 58H1087L1020 1340H609L3 58ZM386 496L696 1179H862L890 496H386ZM477 552H821L803 1116H726L477 552ZM765 1716H1017L1181
1432H904L854 1540L758 1432H481L765 1716ZM786 1671L597 1481H743L849 1599H881L938 1481H1084L976 1671H786Z" />
<glyph unicode="&#xc3;" horiz-adv-x="1288" d="M-34 0L220 1194L470 1400H1116L1278 1194L1024 0H742L830 412H336L248 0H-34ZM42 64H203L289 471H902L816 64H978L1213 1168L1074 1342H488L277 1168L42 64ZM396 694H890L967 1056L919 1117H547L473 1056L396 694ZM324
633L421 1088L534 1180H960L1034 1088L937 633H324ZM524 1432L553 1568L688 1680H866L910 1624H928L940 1680H1132L1103 1544L968 1432H790L746 1488H728L716 1432H524ZM581 1474H681L687 1506L722 1536H773L822 1477H954L1063 1568L1077 1639H977L971 1607L936
1576H882L834 1636H704L596 1545L581 1474Z" />
<glyph unicode="&#xc4;" horiz-adv-x="1288" d="M-34 0L220 1194L470 1400H1116L1278 1194L1024 0H742L830 412H336L248 0H-34ZM42 64H203L289 471H902L816 64H978L1213 1168L1074 1342H488L277 1168L42 64ZM396 694H890L967 1056L919 1117H547L473 1056L396 694ZM324
633L421 1088L534 1180H960L1034 1088L937 633H324ZM905 1452L949 1662H1161L1117 1452H905ZM489 1452L533 1662H745L701 1452H489ZM549 1501H660L683 1613H573L549 1501ZM966 1501H1077L1100 1613H989L966 1501Z" />
<glyph unicode="&#xc5;" horiz-adv-x="1288" d="M-34 0L220 1194L470 1400H1116L1278 1194L1024 0H742L830 412H336L248 0H-34ZM42 64H203L289 471H902L816 64H978L1213 1168L1074 1342H488L277 1168L42 64ZM396 694H890L967 1056L919 1117H547L473 1056L396 694ZM324
633L421 1088L534 1180H960L1034 1088L937 633H324ZM710 1430L632 1527L669 1701L788 1799H971L1048 1701L1011 1527L893 1430H710ZM741 1474H882L974 1550L1001 1681L942 1757H800L709 1681L681 1550L741 1474ZM802 1562L780 1590L791 1641L824 1668H880L902 1641L891
1590L858 1562H802ZM829 1598H846L855 1606L859 1623L852 1630H835L826 1623L822 1606L829 1598Z" />
<glyph unicode="&#xc6;" horiz-adv-x="1934" d="M-119 0L774 1400H1921L1861 1117H1311L1253 848H1765L1705 565H1193L1133 283H1683L1623 0H790L878 412H449L188 0H-119ZM-27 55H148L413 469H951L863 55H1585L1619 217H1060L1146 627H1667L1702 789H1181L1265
1185H1825L1859 1347H803L-27 55ZM515 631L871 1185H1103L985 631H515ZM625 694H938L1028 1117H895L625 694Z" />
<glyph unicode="&#xc7;" horiz-adv-x="1211" d="M231 -349L264 -192H469L506 -160L483 -130H349L376 0H219L57 206L267 1194L517 1400H1064L1227 1194L1159 872H876L915 1056L867 1117H595L521 1056L369 344L417 283H689L763 344L803 528H1086L1017 206L766 0H644L749
-160L546 -349H231ZM286 -309H528L691 -160L591 -13H563L579 61H751L963 235L1014 473H852L818 315L705 223H376L302 315L466 1086L579 1179H908L982 1086L948 929H1110L1161 1166L1023 1341H533L321 1166L123 235L261 61H436L404 -90H514L564 -160L485 -232H302L286
-309Z" />
<glyph unicode="&#xc8;" horiz-adv-x="1140" d="M-34 0L264 1400H1174L1114 1117H487L429 848H987L927 565H369L309 283H936L876 0H-34ZM41 62H835L869 224H238L323 626H885L920 788H357L440 1179H1072L1106 1341H313L41 62ZM840 1432H593L365 1696H652L840 1432ZM746
1473L617 1654H470L622 1473H746Z" />
<glyph unicode="&#xc9;" horiz-adv-x="1140" d="M-34 0L264 1400H1174L1114 1117H487L429 848H987L927 565H369L309 283H936L876 0H-34ZM41 62H835L869 224H238L323 626H885L920 788H357L440 1179H1072L1106 1341H313L41 62ZM601 1432L901 1696H1188L848 1432H601ZM712
1473H837L1065 1654H918L712 1473Z" />
<glyph unicode="&#xca;" horiz-adv-x="1140" d="M-34 0L264 1400H1174L1114 1117H487L429 848H987L927 565H369L309 283H936L876 0H-34ZM41 62H835L869 224H238L323 626H885L920 788H357L440 1179H1072L1106 1341H313L41 62ZM647 1716H899L1063 1432H786L736 1540L640
1432H363L647 1716ZM668 1671L479 1481H625L731 1599H763L820 1481H966L858 1671H668Z" />
<glyph unicode="&#xcb;" horiz-adv-x="1140" d="M-34 0L264 1400H1174L1114 1117H487L429 848H987L927 565H369L309 283H936L876 0H-34ZM41 62H835L869 224H238L323 626H885L920 788H357L440 1179H1072L1106 1341H313L41 62ZM822 1452L866 1662H1078L1034 1452H822ZM406
1452L450 1662H662L618 1452H406ZM466 1501H577L600 1613H490L466 1501ZM883 1501H994L1017 1613H906L883 1501Z" />
<glyph unicode="&#xcc;" horiz-adv-x="1059" d="M-34 0L26 283H300L478 1117H204L264 1400H1093L1033 1117H760L582 283H855L795 0H-34ZM39 60H748L783 222H506L709 1179H986L1020 1341H311L276 1179H547L345 222H74L39 60ZM808 1432H561L333 1696H620L808 1432ZM714
1473L585 1654H438L590 1473H714Z" />
<glyph unicode="&#xcd;" horiz-adv-x="1059" d="M-34 0L26 283H300L478 1117H204L264 1400H1093L1033 1117H760L582 283H855L795 0H-34ZM39 60H748L783 222H506L709 1179H986L1020 1341H311L276 1179H547L345 222H74L39 60ZM569 1432L869 1696H1156L816 1432H569ZM680
1473H805L1033 1654H886L680 1473Z" />
<glyph unicode="&#xce;" horiz-adv-x="1059" d="M-34 0L26 283H300L478 1117H204L264 1400H1093L1033 1117H760L582 283H855L795 0H-34ZM39 60H748L783 222H506L709 1179H986L1020 1341H311L276 1179H547L345 222H74L39 60ZM615 1716H867L1031 1432H754L704 1540L608
1432H331L615 1716ZM636 1671L447 1481H593L699 1599H731L788 1481H934L826 1671H636Z" />
<glyph unicode="&#xcf;" horiz-adv-x="1059" d="M-34 0L26 283H300L478 1117H204L264 1400H1093L1033 1117H760L582 283H855L795 0H-34ZM39 60H748L783 222H506L709 1179H986L1020 1341H311L276 1179H547L345 222H74L39 60ZM790 1452L834 1662H1046L1002 1452H790ZM374
1452L418 1662H630L586 1452H374ZM434 1501H545L568 1613H458L434 1501ZM851 1501H962L985 1613H874L851 1501Z" />
<glyph unicode="&#xd0;" horiz-adv-x="1223" d="M29 0L149 562H-24L30 818H203L327 1400H1086L1248 1194L1038 206L788 0H29ZM103 60H771L983 235L1181 1164L1043 1339H375L252 761H79L48 617H221L103 60ZM300 222L383 617H642L672 761H414L502 1177H928L1002
1084L839 315L726 222H300ZM372 283H711L785 344L937 1056L889 1117H550L486 818H742L688 562H432L372 283Z" />
<glyph unicode="&#xd1;" horiz-adv-x="1465" d="M49 59H211L449 1176H600L710 60H1144L1416 1341H1254L1017 225H864L756 1339H321L49 59ZM-24 0L274 1400H817L916 287H969L1206 1400H1489L1191 0H648L547 1116H496L259 0H-24ZM642 1432L671 1568L806 1680H984L1028
1624H1046L1058 1680H1250L1221 1544L1086 1432H908L864 1488H846L834 1432H642ZM699 1474H799L805 1506L840 1536H891L940 1477H1072L1181 1568L1195 1639H1095L1089 1607L1054 1576H1000L952 1636H822L714 1545L699 1474Z" />
<glyph unicode="&#xd2;" horiz-adv-x="1306" d="M172 0L10 206L220 1194L470 1400H1134L1296 1194L1086 206L836 0H172ZM370 283H758L832 344L984 1056L936 1117H548L474 1056L322 344L370 283ZM215 62H819L1032 237L1230 1166L1091 1341H487L276 1166L78 237L215
62ZM331 224L257 317L420 1086L533 1179H976L1050 1086L887 317L774 224H331ZM931 1432H684L456 1696H743L931 1432ZM837 1473L708 1654H561L713 1473H837Z" />
<glyph unicode="&#xd3;" horiz-adv-x="1306" d="M172 0L10 206L220 1194L470 1400H1134L1296 1194L1086 206L836 0H172ZM370 283H758L832 344L984 1056L936 1117H548L474 1056L322 344L370 283ZM215 62H819L1032 237L1230 1166L1091 1341H487L276 1166L78 237L215
62ZM331 224L257 317L420 1086L533 1179H976L1050 1086L887 317L774 224H331ZM692 1432L992 1696H1279L939 1432H692ZM803 1473H928L1156 1654H1009L803 1473Z" />
<glyph unicode="&#xd4;" horiz-adv-x="1306" d="M172 0L10 206L220 1194L470 1400H1134L1296 1194L1086 206L836 0H172ZM370 283H758L832 344L984 1056L936 1117H548L474 1056L322 344L370 283ZM215 62H819L1032 237L1230 1166L1091 1341H487L276 1166L78 237L215
62ZM331 224L257 317L420 1086L533 1179H976L1050 1086L887 317L774 224H331ZM738 1716H990L1154 1432H877L827 1540L731 1432H454L738 1716ZM759 1671L570 1481H716L822 1599H854L911 1481H1057L949 1671H759Z" />
<glyph unicode="&#xd5;" horiz-adv-x="1306" d="M172 0L10 206L220 1194L470 1400H1134L1296 1194L1086 206L836 0H172ZM370 283H758L832 344L984 1056L936 1117H548L474 1056L322 344L370 283ZM215 62H819L1032 237L1230 1166L1091 1341H487L276 1166L78 237L215
62ZM331 224L257 317L420 1086L533 1179H976L1050 1086L887 317L774 224H331ZM532 1432L561 1568L696 1680H874L918 1624H936L948 1680H1140L1111 1544L976 1432H798L754 1488H736L724 1432H532ZM589 1474H689L695 1506L730 1536H781L830 1477H962L1071 1568L1085
1639H985L979 1607L944 1576H890L842 1636H712L604 1545L589 1474Z" />
<glyph unicode="&#xd6;" horiz-adv-x="1306" d="M172 0L10 206L220 1194L470 1400H1134L1296 1194L1086 206L836 0H172ZM370 283H758L832 344L984 1056L936 1117H548L474 1056L322 344L370 283ZM215 62H819L1032 237L1230 1166L1091 1341H487L276 1166L78 237L215
62ZM331 224L257 317L420 1086L533 1179H976L1050 1086L887 317L774 224H331ZM913 1452L957 1662H1169L1125 1452H913ZM497 1452L541 1662H753L709 1452H497ZM557 1501H668L691 1613H581L557 1501ZM974 1501H1085L1108 1613H997L974 1501Z" />
<glyph unicode="&#xd7;" horiz-adv-x="836" d="M486 278L381 411L220 278L77 459L239 592L134 724L353 905L458 773L619 905L762 724L601 592L705 459L486 278ZM501 359L624 461L521 591L681 722L602 824L442 692L339 823L216 721L319 591L163 462L242 360L399
490L501 359Z" />
<glyph unicode="&#xd8;" horiz-adv-x="1390" d="M143 -53L-24 86L71 188L55 206L265 1194L515 1400H1159L1172 1384L1246 1465L1414 1328L1307 1211L1321 1194L1111 206L861 0H217L206 15L143 -53ZM452 283H783L857 344L962 837L452 283ZM396 217L345 240L1053
1011L1056 967L916 310L803 217H396ZM137 12L219 101L254 55H849L1061 231L1261 1173L1234 1206L1342 1322L1249 1397L1160 1300L1124 1347H528L316 1173L115 231L143 196L45 89L137 12ZM324 389L321 435L461 1093L574 1185H983L1034 1162L324 389ZM413 560L926
1118H594L518 1056L413 560Z" />
<glyph unicode="&#xd9;" horiz-adv-x="1328" d="M172 0L10 206L264 1400H547L322 344L370 283H780L854 344L1079 1400H1362L1108 206L858 0H172ZM215 60H842L1053 234L1289 1341H1127L909 314L796 222H330L255 314L473 1341H311L76 234L215 60ZM943 1432H696L468
1696H755L943 1432ZM849 1473L720 1654H573L725 1473H849Z" />
<glyph unicode="&#xda;" horiz-adv-x="1328" d="M172 0L10 206L264 1400H547L322 344L370 283H780L854 344L1079 1400H1362L1108 206L858 0H172ZM215 60H842L1053 234L1289 1341H1127L909 314L796 222H330L255 314L473 1341H311L76 234L215 60ZM704 1432L1004
1696H1291L951 1432H704ZM815 1473H940L1168 1654H1021L815 1473Z" />
<glyph unicode="&#xdb;" horiz-adv-x="1328" d="M172 0L10 206L264 1400H547L322 344L370 283H780L854 344L1079 1400H1362L1108 206L858 0H172ZM215 60H842L1053 234L1289 1341H1127L909 314L796 222H330L255 314L473 1341H311L76 234L215 60ZM750 1716H1002L1166
1432H889L839 1540L743 1432H466L750 1716ZM771 1671L582 1481H728L834 1599H866L923 1481H1069L961 1671H771Z" />
<glyph unicode="&#xdc;" horiz-adv-x="1328" d="M172 0L10 206L264 1400H547L322 344L370 283H780L854 344L1079 1400H1362L1108 206L858 0H172ZM215 60H842L1053 234L1289 1341H1127L909 314L796 222H330L255 314L473 1341H311L76 234L215 60ZM925 1452L969 1662H1181L1137
1452H925ZM509 1452L553 1662H765L721 1452H509ZM569 1501H680L703 1613H593L569 1501ZM986 1501H1097L1120 1613H1009L986 1501Z" />
<glyph unicode="&#xdd;" horiz-adv-x="1294" d="M356 0L450 443L132 825L254 1400H537L436 927L650 674H631L954 927L1055 1400H1338L1216 825L733 443L639 0H356ZM429 59H591L678 468L1160 849L1264 1341H1102L1008 902L627 603H624L371 904L463 1341H301L196
846L515 465L429 59ZM686 1432L986 1696H1273L933 1432H686ZM797 1473H922L1150 1654H1003L797 1473Z" />
<glyph unicode="&#xde;" horiz-adv-x="1132" d="M-44 0L254 1400H537L469 1080H901L1064 874L990 526L739 320H307L239 0H-44ZM29 59H191L259 381H718L935 560L997 850L861 1022H395L464 1343H302L29 59ZM294 543L361 860H746L818 771L791 640L673 543H294ZM367
603H662L736 664L752 736L704 798H409L367 603Z" />
<glyph unicode="&#xdf;" horiz-adv-x="1306" d="M-39 0L215 1194L465 1400H1124L1286 1194L1210 837L1102 748L1223 593L1145 226L871 0H496L556 283H793L892 364L913 465L784 629L832 856L953 955L975 1056L927 1117H543L469 1056L244 0H-39ZM33 61H195L414 1091L517
1177H977L1042 1091L1008 928L892 832L853 652L978 493L944 332L809 223H598L564 62H857L1089 250L1156 565L1029 728L1037 764L1155 861L1222 1172L1093 1339H469L270 1174L33 61Z" />
<glyph unicode="&#xe0;" horiz-adv-x="1253" d="M201 0L39 206L100 491L349 697H893L902 736L854 797H179L239 1080H1052L1214 874L1072 206L822 0H201ZM359 222L285 315L304 406L397 484H912L877 319L760 222H359ZM244 60H806L1022 239L1151 845L1012 1021H290L256
859H898L972 765L945 639H364L155 467L106 235L244 60ZM399 283H744L818 344L835 424H409L358 382L350 344L399 283ZM872 1112H625L397 1376H684L872 1112ZM778 1153L649 1334H502L654 1153H778Z" />
<glyph unicode="&#xe1;" horiz-adv-x="1253" d="M201 0L39 206L100 491L349 697H893L902 736L854 797H179L239 1080H1052L1214 874L1072 206L822 0H201ZM359 222L285 315L304 406L397 484H912L877 319L760 222H359ZM244 60H806L1022 239L1151 845L1012 1021H290L256
859H898L972 765L945 639H364L155 467L106 235L244 60ZM399 283H744L818 344L835 424H409L358 382L350 344L399 283ZM633 1112L933 1376H1220L880 1112H633ZM744 1153H869L1097 1334H950L744 1153Z" />
<glyph unicode="&#xe2;" horiz-adv-x="1253" d="M201 0L39 206L100 491L349 697H893L902 736L854 797H179L239 1080H1052L1214 874L1072 206L822 0H201ZM359 222L285 315L304 406L397 484H912L877 319L760 222H359ZM244 60H806L1022 239L1151 845L1012 1021H290L256
859H898L972 765L945 639H364L155 467L106 235L244 60ZM399 283H744L818 344L835 424H409L358 382L350 344L399 283ZM679 1396H931L1095 1112H818L768 1220L672 1112H395L679 1396ZM700 1351L511 1161H657L763 1279H795L852 1161H998L890 1351H700Z" />
<glyph unicode="&#xe3;" horiz-adv-x="1253" d="M201 0L39 206L100 491L349 697H893L902 736L854 797H179L239 1080H1052L1214 874L1072 206L822 0H201ZM359 222L285 315L304 406L397 484H912L877 319L760 222H359ZM244 60H806L1022 239L1151 845L1012 1021H290L256
859H898L972 765L945 639H364L155 467L106 235L244 60ZM399 283H744L818 344L835 424H409L358 382L350 344L399 283ZM473 1112L502 1248L637 1360H815L859 1304H877L889 1360H1081L1052 1224L917 1112H739L695 1168H677L665 1112H473ZM530 1154H630L636 1186L671
1216H722L771 1157H903L1012 1248L1026 1319H926L920 1287L885 1256H831L783 1316H653L545 1225L530 1154Z" />
<glyph unicode="&#xe4;" horiz-adv-x="1253" d="M201 0L39 206L100 491L349 697H893L902 736L854 797H179L239 1080H1052L1214 874L1072 206L822 0H201ZM359 222L285 315L304 406L397 484H912L877 319L760 222H359ZM244 60H806L1022 239L1151 845L1012 1021H290L256
859H898L972 765L945 639H364L155 467L106 235L244 60ZM399 283H744L818 344L835 424H409L358 382L350 344L399 283ZM854 1132L898 1342H1110L1066 1132H854ZM438 1132L482 1342H694L650 1132H438ZM498 1181H609L632 1293H522L498 1181ZM915 1181H1026L1049 1293H938L915
1181Z" />
<glyph unicode="&#xe5;" horiz-adv-x="1253" d="M201 0L39 206L100 491L349 697H893L902 736L854 797H179L239 1080H1052L1214 874L1072 206L822 0H201ZM359 222L285 315L304 406L397 484H912L877 319L760 222H359ZM244 60H806L1022 239L1151 845L1012 1021H290L256
859H898L972 765L945 639H364L155 467L106 235L244 60ZM399 283H744L818 344L835 424H409L358 382L350 344L399 283ZM659 1110L581 1207L618 1381L737 1479H920L997 1381L960 1207L842 1110H659ZM690 1154H831L923 1230L950 1361L891 1437H749L658 1361L630 1230L690
1154ZM751 1242L729 1270L740 1321L773 1348H829L851 1321L840 1270L807 1242H751ZM778 1278H795L804 1286L808 1303L801 1310H784L775 1303L771 1286L778 1278Z" />
<glyph unicode="&#xe6;" horiz-adv-x="1790" d="M224 0L62 206L122 486L371 692H713L793 757L789 736L740 797H533L376 669L189 861L454 1080H939L992 1013L1073 1080H1558L1720 874L1658 582L1411 388H1069L989 323L993 344L1042 283H1249L1406 411L1593 219L1328
0H843L790 67L709 0H224ZM262 62H689L809 161L887 62H1321L1511 219L1404 330L1275 224H1001L926 318L929 331L1070 447H1405L1608 608L1659 841L1520 1018H1093L973 920L895 1018H461L271 862L378 750L507 856H781L856 762L853 749L712 633H377L172 464L123 237L262
62ZM377 224L302 317L321 405L410 479H697L816 577L762 321L644 224H377ZM966 503L1020 760L1138 856H1405L1480 763L1461 675L1372 601H1085L966 503ZM423 283H630L705 344L726 440L703 421H433L382 379L374 344L423 283ZM1056 640L1079 659H1349L1400 701L1408
736L1359 797H1152L1077 736L1056 640Z" />
<glyph unicode="&#xe7;" horiz-adv-x="1148" d="M233 -349L266 -192H471L508 -160L485 -130H351L378 0H255L93 206L235 874L485 1080H969L1131 874L1083 650H800L819 736L771 797H563L489 736L405 344L453 283H661L735 344L754 430H1037L989 206L739 0H646L751
-160L548 -349H233ZM288 -309H530L693 -160L593 -13H565L581 60H722L935 236L965 377H803L790 316L676 222H417L340 319L435 765L549 859H811L886 766L873 704H1035L1065 846L927 1021H503L290 845L160 237L302 60H438L406 -90H516L566 -160L487 -232H304L288 -309Z"
/>
<glyph unicode="&#xe8;" horiz-adv-x="1253" d="M1052 1080L1214 874L1153 589L904 383H360L351 344L399 283H1074L1014 0H201L39 206L181 874L431 1080H1052ZM894 858L968 765L949 674L856 596H341L376 761L493 858H894ZM1009 1020H447L231 841L102 235L241 59H963L997
221H355L281 315L308 441H889L1098 613L1147 845L1009 1020ZM854 797H509L435 736L418 656H844L895 698L903 736L854 797ZM876 1112H629L401 1376H688L876 1112ZM782 1153L653 1334H506L658 1153H782Z" />
<glyph unicode="&#xe9;" horiz-adv-x="1253" d="M1052 1080L1214 874L1153 589L904 383H360L351 344L399 283H1074L1014 0H201L39 206L181 874L431 1080H1052ZM894 858L968 765L949 674L856 596H341L376 761L493 858H894ZM1009 1020H447L231 841L102 235L241 59H963L997
221H355L281 315L308 441H889L1098 613L1147 845L1009 1020ZM854 797H509L435 736L418 656H844L895 698L903 736L854 797ZM637 1112L937 1376H1224L884 1112H637ZM748 1153H873L1101 1334H954L748 1153Z" />
<glyph unicode="&#xea;" horiz-adv-x="1253" d="M1052 1080L1214 874L1153 589L904 383H360L351 344L399 283H1074L1014 0H201L39 206L181 874L431 1080H1052ZM894 858L968 765L949 674L856 596H341L376 761L493 858H894ZM1009 1020H447L231 841L102 235L241 59H963L997
221H355L281 315L308 441H889L1098 613L1147 845L1009 1020ZM854 797H509L435 736L418 656H844L895 698L903 736L854 797ZM683 1396H935L1099 1112H822L772 1220L676 1112H399L683 1396ZM704 1351L515 1161H661L767 1279H799L856 1161H1002L894 1351H704Z" />
<glyph unicode="&#xeb;" horiz-adv-x="1253" d="M1052 1080L1214 874L1153 589L904 383H360L351 344L399 283H1074L1014 0H201L39 206L181 874L431 1080H1052ZM894 858L968 765L949 674L856 596H341L376 761L493 858H894ZM1009 1020H447L231 841L102 235L241 59H963L997
221H355L281 315L308 441H889L1098 613L1147 845L1009 1020ZM854 797H509L435 736L418 656H844L895 698L903 736L854 797ZM858 1132L902 1342H1114L1070 1132H858ZM442 1132L486 1342H698L654 1132H442ZM502 1181H613L636 1293H526L502 1181ZM919 1181H1030L1053
1293H942L919 1181Z" />
<glyph unicode="&#xec;" horiz-adv-x="990" d="M-1 0L59 283H299L409 797H169L229 1080H751L581 283H821L761 0H-1ZM69 60H718L752 222H505L674 1021H273L238 859H478L344 222H103L69 60ZM739 1112H492L264 1376H551L739 1112ZM645 1153L516 1334H369L521 1153H645Z" />
<glyph unicode="&#xed;" horiz-adv-x="990" d="M-1 0L59 283H299L409 797H169L229 1080H751L581 283H821L761 0H-1ZM69 60H718L752 222H505L674 1021H273L238 859H478L344 222H103L69 60ZM500 1112L800 1376H1087L747 1112H500ZM611 1153H736L964 1334H817L611 1153Z" />
<glyph unicode="&#xee;" horiz-adv-x="990" d="M-1 0L59 283H299L409 797H169L229 1080H751L581 283H821L761 0H-1ZM69 60H718L752 222H505L674 1021H273L238 859H478L344 222H103L69 60ZM546 1396H798L962 1112H685L635 1220L539 1112H262L546 1396ZM567 1351L378
1161H524L630 1279H662L719 1161H865L757 1351H567Z" />
<glyph unicode="&#xef;" horiz-adv-x="990" d="M-1 0L59 283H299L409 797H169L229 1080H751L581 283H821L761 0H-1ZM69 60H718L752 222H505L674 1021H273L238 859H478L344 222H103L69 60ZM721 1132L765 1342H977L933 1132H721ZM305 1132L349 1342H561L517 1132H305ZM365
1181H476L499 1293H389L365 1181ZM782 1181H893L916 1293H805L782 1181Z" />
<glyph unicode="&#xf0;" horiz-adv-x="1120" d="M174 0L12 206L126 742L376 948H563L466 1059L588 1159L398 1400H792L827 1355L906 1420L1009 1302L921 1230L1070 1034L894 206L644 0H174ZM332 223L258 316L325 633L439 726H657L758 601L697 318L581 223H332ZM371
283H567L641 344L692 585L628 665H452L378 604L323 344L371 283ZM218 61H627L842 238L1005 1008L848 1216L940 1293L885 1357L797 1285L749 1349H522L662 1172L541 1074L597 1011L714 1107L832 954L795 780L708 888H394L181 713L80 236L218 61ZM761 908L767 936L686
1037L578 948H730L761 908Z" />
<glyph unicode="&#xf1;" horiz-adv-x="1180" d="M-5 0L181 874L431 1080H979L1141 874L955 0H673L830 736L782 797H508L434 736L277 0H-5ZM69 60H230L380 764L494 858H822L896 765L746 60H908L1075 845L936 1020H449L236 844L69 60ZM442 1112L471 1248L606 1360H784L828
1304H846L858 1360H1050L1021 1224L886 1112H708L664 1168H646L634 1112H442ZM499 1154H599L605 1186L640 1216H691L740 1157H872L981 1248L995 1319H895L889 1287L854 1256H800L752 1316H622L514 1225L499 1154Z" />
<glyph unicode="&#xf2;" horiz-adv-x="1257" d="M201 0L39 206L181 874L431 1080H1056L1218 874L1076 206L826 0H201ZM248 60H809L1021 235L1151 845L1013 1020H449L236 844L107 239L248 60ZM363 222L286 319L381 764L495 858H898L972 765L877 315L763 222H363ZM399
283H748L822 344L906 736L858 797H509L435 736L351 344L399 283ZM873 1112H626L398 1376H685L873 1112ZM779 1153L650 1334H503L655 1153H779Z" />
<glyph unicode="&#xf3;" horiz-adv-x="1257" d="M201 0L39 206L181 874L431 1080H1056L1218 874L1076 206L826 0H201ZM248 60H809L1021 235L1151 845L1013 1020H449L236 844L107 239L248 60ZM363 222L286 319L381 764L495 858H898L972 765L877 315L763 222H363ZM399
283H748L822 344L906 736L858 797H509L435 736L351 344L399 283ZM634 1112L934 1376H1221L881 1112H634ZM745 1153H870L1098 1334H951L745 1153Z" />
<glyph unicode="&#xf4;" horiz-adv-x="1257" d="M201 0L39 206L181 874L431 1080H1056L1218 874L1076 206L826 0H201ZM248 60H809L1021 235L1151 845L1013 1020H449L236 844L107 239L248 60ZM363 222L286 319L381 764L495 858H898L972 765L877 315L763 222H363ZM399
283H748L822 344L906 736L858 797H509L435 736L351 344L399 283ZM680 1396H932L1096 1112H819L769 1220L673 1112H396L680 1396ZM701 1351L512 1161H658L764 1279H796L853 1161H999L891 1351H701Z" />
<glyph unicode="&#xf5;" horiz-adv-x="1257" d="M201 0L39 206L181 874L431 1080H1056L1218 874L1076 206L826 0H201ZM248 60H809L1021 235L1151 845L1013 1020H449L236 844L107 239L248 60ZM363 222L286 319L381 764L495 858H898L972 765L877 315L763 222H363ZM399
283H748L822 344L906 736L858 797H509L435 736L351 344L399 283ZM474 1112L503 1248L638 1360H816L860 1304H878L890 1360H1082L1053 1224L918 1112H740L696 1168H678L666 1112H474ZM531 1154H631L637 1186L672 1216H723L772 1157H904L1013 1248L1027 1319H927L921
1287L886 1256H832L784 1316H654L546 1225L531 1154Z" />
<glyph unicode="&#xf6;" horiz-adv-x="1257" d="M201 0L39 206L181 874L431 1080H1056L1218 874L1076 206L826 0H201ZM248 60H809L1021 235L1151 845L1013 1020H449L236 844L107 239L248 60ZM363 222L286 319L381 764L495 858H898L972 765L877 315L763 222H363ZM399
283H748L822 344L906 736L858 797H509L435 736L351 344L399 283ZM855 1132L899 1342H1111L1067 1132H855ZM439 1132L483 1342H695L651 1132H439ZM499 1181H610L633 1293H523L499 1181ZM916 1181H1027L1050 1293H939L916 1181Z" />
<glyph unicode="&#xf7;" horiz-adv-x="836" d="M75 476L129 732H761L707 476H75ZM149 531H661L691 674H179L149 531ZM287 159L331 369H543L499 159H287ZM347 208H458L481 320H371L347 208ZM287 839L331 1049H543L499 839H287ZM347 888H458L481 1000H371L347 888Z" />
<glyph unicode="&#xf8;" horiz-adv-x="1158" d="M174 -53L7 86L82 166L51 206L193 874L442 1080H927H932L984 1137L1151 1000L1064 906L1089 874L947 206L698 0H223L218 -5L174 -53ZM483 283H619L694 344L738 551L483 283ZM169 12L234 83L256 58H684L891 229L1023
851L987 897L1080 997L988 1071L913 990L889 1022H463L249 851L118 232L160 178L77 89L169 12ZM417 220L376 237L817 711L820 655L746 309L638 220H417ZM323 356L320 419L395 771L508 860H732L777 843L323 356ZM398 510L672 798H521L446 736L398 510Z" />
<glyph unicode="&#xf9;" horiz-adv-x="1202" d="M201 0L39 206L225 1080H508L351 344L399 283H693L767 344L924 1080H1207L1021 206L771 0H201ZM247 61H755L968 239L1134 1020H972L823 319L709 223H362L285 319L434 1020H272L106 239L247 61ZM847 1112H600L372
1376H659L847 1112ZM753 1153L624 1334H477L629 1153H753Z" />
<glyph unicode="&#xfa;" horiz-adv-x="1202" d="M201 0L39 206L225 1080H508L351 344L399 283H693L767 344L924 1080H1207L1021 206L771 0H201ZM247 61H755L968 239L1134 1020H972L823 319L709 223H362L285 319L434 1020H272L106 239L247 61ZM608 1112L908 1376H1195L855
1112H608ZM719 1153H844L1072 1334H925L719 1153Z" />
<glyph unicode="&#xfb;" horiz-adv-x="1202" d="M201 0L39 206L225 1080H508L351 344L399 283H693L767 344L924 1080H1207L1021 206L771 0H201ZM247 61H755L968 239L1134 1020H972L823 319L709 223H362L285 319L434 1020H272L106 239L247 61ZM654 1396H906L1070
1112H793L743 1220L647 1112H370L654 1396ZM675 1351L486 1161H632L738 1279H770L827 1161H973L865 1351H675Z" />
<glyph unicode="&#xfc;" horiz-adv-x="1202" d="M201 0L39 206L225 1080H508L351 344L399 283H693L767 344L924 1080H1207L1021 206L771 0H201ZM247 61H755L968 239L1134 1020H972L823 319L709 223H362L285 319L434 1020H272L106 239L247 61ZM829 1132L873 1342H1085L1041
1132H829ZM413 1132L457 1342H669L625 1132H413ZM473 1181H584L607 1293H497L473 1181ZM890 1181H1001L1024 1293H913L890 1181Z" />
<glyph unicode="&#xfd;" horiz-adv-x="1251" d="M202 0L40 206L225 1080H508L352 344L400 283H645L766 383L914 1080H1196L925 -194L676 -400H-39L21 -118H579L677 -37L689 20L665 0H202ZM40 -341H654L874 -158L1124 1021H963L823 363L652 223H358L286 316L435
1021H273L106 236L243 61H659L780 160L731 -66L595 -179H75L40 -341ZM598 1112L898 1376H1185L845 1112H598ZM709 1153H834L1062 1334H915L709 1153Z" />
<glyph unicode="&#xfe;" horiz-adv-x="1132" d="M-97 -400L307 1500H590L497 1061L521 1080H933L1096 874L954 206L703 0H291L275 19L186 -400H-97ZM411 282H626L700 344L784 736L736 798H521L423 717L348 363L411 282ZM-22 -336H140L244 155L318 62H690L899 234L1031
850L894 1022H522L409 929L518 1441H356L-22 -336ZM381 224L285 346L369 739L516 860H780L852 771L755 314L645 224H381Z" />
<glyph unicode="&#xff;" horiz-adv-x="1251" d="M202 0L40 206L225 1080H508L352 344L400 283H645L766 383L914 1080H1196L925 -194L676 -400H-39L21 -118H579L677 -37L689 20L665 0H202ZM40 -341H654L874 -158L1124 1021H963L823 363L652 223H358L286 316L435
1021H273L106 236L243 61H659L780 160L731 -66L595 -179H75L40 -341ZM819 1132L863 1342H1075L1031 1132H819ZM403 1132L447 1342H659L615 1132H403ZM463 1181H574L597 1293H487L463 1181ZM880 1181H991L1014 1293H903L880 1181Z" />
<glyph unicode="&#x2013;" horiz-adv-x="962" d="M75 476L129 732H887L833 476H75ZM149 531H787L817 674H179L149 531Z" />
<glyph unicode="&#x2014;" horiz-adv-x="1141" d="M75 476L129 732H1066L1012 476H75ZM149 531H966L996 674H179L149 531Z" />
<glyph unicode="&#x2018;" horiz-adv-x="558" d="M652 1400L440 942H169L426 1400H652ZM572 1346H454L260 1005H413L572 1346Z" />
<glyph unicode="&#x2019;" horiz-adv-x="558" d="M165 942L377 1400H648L391 942H165ZM245 996H363L557 1337H404L245 996Z" />
<glyph unicode="&#x201a;" horiz-adv-x="534" d="M246 -184L236 -12L296 270H598L538 -12L454 -184H246ZM305 -129H421L477 -3L522 211H349L304 -3L305 -129Z" />
<glyph unicode="&#x201c;" horiz-adv-x="863" d="M956 1400L744 942H473L730 1400H956ZM876 1346H758L564 1005H717L876 1346ZM636 1400L424 942H153L410 1400H636ZM556 1346H438L244 1005H397L556 1346Z" />
<glyph unicode="&#x201d;" horiz-adv-x="863" d="M165 942L377 1400H648L391 942H165ZM245 996H363L557 1337H404L245 996ZM485 942L697 1400H968L711 942H485ZM565 996H683L877 1337H724L565 996Z" />
<glyph unicode="&#x201e;" horiz-adv-x="909" d="M621 -184L611 -12L671 270H973L913 -12L829 -184H621ZM680 -129H796L852 -3L897 211H724L679 -3L680 -129ZM246 -184L236 -12L296 270H598L538 -12L454 -184H246ZM305 -129H421L477 -3L522 211H349L304 -3L305 -129Z" />
<glyph unicode="&#x2022;" horiz-adv-x="856" d="M234 346L51 562L113 854L388 1070H622L805 854L743 562L468 346H234ZM303 473H453L632 614L672 802L553 943H403L224 802L184 614L303 473Z" />
<glyph unicode="&#x2039;" horiz-adv-x="912" d="M561 216L166 466L229 759L729 1003L666 710L427 612V612L624 510L561 216ZM531 312L565 474L344 593L353 632L623 748L658 910L273 725L226 500L531 312Z" />
<glyph unicode="&#x203a;" horiz-adv-x="912" d="M183 216L246 510L487 612V612L288 710L351 1003L747 759L684 466L183 216ZM255 312L640 500L687 725L382 910L348 748L569 632L561 593L290 474L255 312Z" />
</font>
</defs>
</svg>
