<?xml version="1.0" standalone="no"?>
<!DOCTYPE svg PUBLIC "-//W3C//DTD SVG 1.1//EN" "http://www.w3.org/Graphics/SVG/1.1/DTD/svg11.dtd">
<svg xmlns="http://www.w3.org/2000/svg">
<defs >
<font id="Tourney" horiz-adv-x="1179" ><font-face
    font-family="Tourney Thin Black"
    units-per-em="2000"
    panose-1="0 0 0 0 0 0 0 0 0 0"
    ascent="1800"
    descent="-400"
    alphabetic="0" />
<glyph unicode=" " horiz-adv-x="550" />
<glyph unicode="!" horiz-adv-x="558" d="M196 388L134 1079V1428H420V1079L358 388H196ZM278 574H277L276 1050V1259H277L278 1050V574ZM122 0V294H436V0H122ZM256 142H304V142H256V142Z" />
<glyph unicode="&quot;" horiz-adv-x="860" d="M162 946L116 1118V1400H418V1118L370 946H162ZM270 1054H269V1116L270 1268H271V1116L270 1054ZM492 946L446 1118V1400H748V1118L700 946H492ZM600 1054H599V1116L600 1268H601V1116L600 1054Z" />
<glyph unicode="#" horiz-adv-x="1344" d="M231 0L262 298H100V544H288L319 846H156V1092H344L377 1400H662L629 1092H792L825 1400H1110L1077 1092H1244V846H1052L1021 544H1188V298H994L963 0H679L710 298H546L515 0H231ZM405 418L468 977H935L873 418H405ZM573
544H737L767 846H604L573 544ZM372 112H371L406 419H872L837 112H836L871 419H1091V418H872L934 977H1149V976H934L971 1296H972L935 977H469L505 1296H507L471 977H265V978H469L406 419H207V420H407L372 112Z" />
<glyph unicode="$" horiz-adv-x="1282" d="M488 -96V0H338L132 206V458H415V344L476 283H786L847 344V514L786 575H344L138 781V1194L344 1400H488V1496H769V1400H905L1111 1194V942H828V1056L767 1117H482L420 1056V919L482 858H924L1130 652V206L924 0H769V-96H488ZM626
-16H625V136H840L984 280V590L850 716H406L278 854V1132L412 1266H816L960 1122V1062H959V1122L816 1266H627V1418H628V1266H412L278 1132V854L406 716H850L984 590V280L840 136H422L278 280V348H279V280L422 136H626V-16Z" />
<glyph unicode="%" horiz-adv-x="1555" d="M183 0L1189 1400H1412L406 0H183ZM395 142H394L1199 1259H1200L395 142ZM247 709L115 841V1268L247 1400H604L736 1268V841L604 709H247ZM298 800H560L644 889V1225L560 1311H293L208 1225V889L298 800ZM298 800L208
889V1225L293 1311H560L644 1225V889L560 800H298ZM335 890H515L554 929V1180L515 1219H335L296 1180V929L335 890ZM951 -79L819 53V480L951 612H1308L1440 480V53L1308 -79H951ZM1002 12H1264L1348 101V437L1264 523H997L912 437V101L1002 12ZM1002 12L912 101V437L997
523H1264L1348 437V101L1264 12H1002ZM1039 102H1219L1258 141V392L1219 431H1039L1000 392V141L1039 102Z" />
<glyph unicode="&amp;" horiz-adv-x="1282" d="M348 -1L142 205V567L387 814L238 970V1193L444 1399H678L884 1193V970L734 809L896 634V708H1140V327L913 -1H348ZM447 282H730L800 371L559 628L405 470V324L447 282ZM421 142L269 284V514L556 816L972 364L816
142H421ZM421 142H816L1018 430V598V598V430L972 364L556 816L739 1003V1158L630 1260H490L381 1158V1002L556 816L269 514V284L421 142ZM556 816L381 1002V1158L490 1260H630L739 1158V1003L556 816ZM561 1002L619 1068V1083L584 1124H539L504 1083V1068L561 1002Z"
/>
<glyph unicode="&apos;" horiz-adv-x="534" d="M162 946L116 1118V1400H418V1118L370 946H162ZM270 1054H269V1116L270 1268H271V1116L270 1054Z" />
<glyph unicode="(" horiz-adv-x="784" d="M364 -400L150 -186V1286L364 1500H751L444 1202V-102L751 -400H364ZM425 -265L426 -267L291 -133V1249L425 1381V1380L292 1249V-133L425 -265Z" />
<glyph unicode=")" horiz-adv-x="784" d="M428 -400H41L348 -102V1202L41 1500H428L642 1286V-186L428 -400ZM367 -265L500 -133V1249L367 1380V1381L501 1249V-133L366 -267L367 -265Z" />
<glyph unicode="*" horiz-adv-x="804" d="M294 896V1009L190 939L73 1116L214 1208L71 1304L186 1479L294 1407V1528H512V1408L618 1479L733 1304L590 1208L731 1116L614 939L512 1007V896H294ZM405 1012H404V1212L584 1089H583L403 1212L578 1331V1330L403 1211V1416H404V1212L234
1326V1327L404 1213L227 1092V1093L405 1214V1012Z" />
<glyph unicode="+" horiz-adv-x="836" d="M290 288V476H102V732H290V920H546V732H734V476H546V288H290ZM419 410H418V601H616V600H418V794H419V601H232V602H419V410Z" />
<glyph unicode="," horiz-adv-x="558" d="M120 -160L182 0H134V294H436V19L311 -160H120ZM254 -62H253L296 22V142H248V143H297V22L254 -62Z" />
<glyph unicode="-" horiz-adv-x="836" d="M102 476V732H734V476H102ZM232 602H616V602H232V602Z" />
<glyph unicode="." horiz-adv-x="558" d="M122 0V294H436V0H122ZM256 142H304V142H256V142Z" />
<glyph unicode="/" horiz-adv-x="624" d="M38 -201L288 1500H571L321 -201H38ZM197 -77H196L418 1381H419L197 -77Z" />
<glyph unicode="0" horiz-adv-x="1125" d="M281 0L75 206V1194L281 1400H844L1050 1194V206L844 0H281ZM459 283H726L787 344V838L459 283ZM340 144L267 215L848 1198L915 1127V281L778 144H340ZM340 144H778L915 281V1127L778 1261H340L203 1127V281L340 144ZM203
281V1127L340 1261H778L848 1198L267 215L203 281ZM338 584L653 1117H400L338 1056V584Z" />
<glyph unicode="1" horiz-adv-x="968" d="M75 0V283H341V1069L75 994V1305L435 1400H623V283H893V0H75ZM216 142H750V142H483V1261V1261L202 1182V1182L483 1261V142H216V142Z" />
<glyph unicode="2" horiz-adv-x="1080" d="M75 0V577L281 783H662L723 844V1056L662 1117H418L357 1056V913H75V1194L281 1400H799L1005 1194V706L799 500H418L357 439V283H1005V0H75ZM221 142H863V142H221V508L365 652H735L865 790V1129L725 1259H363L221 1129V1047V1047V1129L363
1259H725L865 1129V790L735 652H365L221 508V142Z" />
<glyph unicode="3" horiz-adv-x="1073" d="M281 0L75 206V477H357V344L418 283H655L716 344V497L655 558H439V840H654L716 907V1056L655 1117H418L357 1056V923H75V1194L281 1400H792L998 1194V763L935 700L998 635V206L792 0H281ZM351 142H728L859 276V556L718
700L859 844V1132L728 1259H345L215 1132V1032V1032V1132L345 1259H728L859 1132V844L718 700H541V700H718L859 556V276L728 142H351L215 276V370V370V276L351 142Z" />
<glyph unicode="4" horiz-adv-x="1088" d="M589 0V321H50V648L441 1400H872V604H1038V321H872V0H589ZM736 142H735V451H936V450H734V1259H536L196 636V451H736V142ZM195 451V636L536 1259H735V451H195ZM361 604H589V1091H580L361 649V604Z" />
<glyph unicode="5" horiz-adv-x="1086" d="M281 0L75 206V458H357V344L418 283H668L729 344V643L668 704H428L342 608H75V1400H1006V1117H357V957L387 987H805L1011 780V206L805 0H281ZM356 138H739L867 264V724L739 850H403L299 748H218V1259H879V1259H218V748H299L403
850H739L867 724V264L739 138H356L218 274V362V362V274L356 138Z" />
<glyph unicode="6" horiz-adv-x="1082" d="M281 0L75 206V1194L281 1400H795L1002 1194V981H719V1056L658 1117H418L357 1056V918L387 948H801L1007 742V206L801 0H281ZM360 142L217 285V618L411 808H727L867 671V279L726 142H360ZM418 283H664L725 344V604L664
665H438L357 585V344L418 283ZM360 142H726L867 279V671L727 808H411L217 618V1125L351 1259H724L858 1125V1082V1082V1125L724 1259H351L217 1125V285L360 142Z" />
<glyph unicode="7" horiz-adv-x="984" d="M84 0L642 965V1117H40V1400H924V905L423 0H84ZM336 142H335L785 933V1259H163V1260H786V933L336 142Z" />
<glyph unicode="8" horiz-adv-x="1080" d="M281 0L75 206V633L165 719L75 808V1194L281 1400H799L1005 1194V808L915 717L1005 633V206L799 0H281ZM349 142L219 274V586L353 720H730L864 586V274L735 142H349ZM349 142H735L864 274V586L730 720L864 854V1127L735
1259H349L219 1127V854L353 720L219 586V274L349 142ZM353 720L219 854V1127L349 1259H735L864 1127V854L730 720H353ZM418 283H662L723 344V516L662 577H418L357 516V344L418 283ZM419 860H661L723 926V1056L662 1117H418L357 1056V926L419 860Z" />
<glyph unicode="9" horiz-adv-x="1082" d="M801 1400L1007 1194V206L801 0H287L80 206V419H363V344L424 283H664L725 344V482L695 452H281L75 658V1194L281 1400H801ZM722 1258L865 1115V782L671 592H355L215 729V1121L356 1258H722ZM664 1117H418L357 1056V796L418
735H644L725 815V1056L664 1117ZM722 1258H356L215 1121V729L355 592H671L865 782V275L731 141H358L224 275V318V318V275L358 141H731L865 275V1115L722 1258Z" />
<glyph unicode=":" horiz-adv-x="558" d="M122 787V1081H436V787H122ZM256 929H304V929H256V929ZM122 0V294H436V0H122ZM256 142H304V142H256V142Z" />
<glyph unicode=";" horiz-adv-x="558" d="M120 -160L182 0H134V294H436V19L311 -160H120ZM254 -62H253L296 22V142H248V143H297V22L254 -62ZM122 787V1081H436V787H122ZM256 929H304V929H256V929Z" />
<glyph unicode="&lt;" horiz-adv-x="826" d="M714 -2L112 417V763L714 1186V827L352 589V591L714 358V-2ZM588 258V257L216 510V664L588 920V919L216 664V510L588 258Z" />
<glyph unicode="=" horiz-adv-x="836" d="M102 276V532H734V276H102ZM232 402H616V402H232V402ZM102 676V932H734V676H102ZM232 802H616V802H232V802Z" />
<glyph unicode="&gt;" horiz-adv-x="826" d="M112 -2V358L474 591V589L112 827V1186L714 763V417L112 -2ZM238 258L610 510V664L238 919V920L610 664V510L238 257V258Z" />
<glyph unicode="?" horiz-adv-x="1100" d="M431 379V587L699 854V1056L637 1117H487L425 1056V942H143V1194L349 1400H775L981 1194V735L714 467V379H431ZM552 142H600V142H552V142ZM424 0V283H725V0H424ZM586 484H585V528L836 790V1114L692 1258H442L298 1114V1062H297V1114L441
1258H692L837 1114V790L586 528V484Z" />
<glyph unicode="@" horiz-adv-x="1834" d="M316 -68L102 146V1274L316 1488H1508L1722 1274V502L1508 288H1254L1178 366L1100 288H696L482 502V928L696 1142H1120L1334 928V626L1378 582H1384L1428 626V1130L1364 1194H460L396 1130V290L460 226H1510V-68H316ZM386
78H1390V78H386L250 214V1204L386 1340H1430L1566 1204V566L1430 430H1322L1186 566V854L1054 1006H766L634 874V566L770 430H1050L1186 566L1322 430H1430L1566 566V1204L1430 1340H386L250 1204V214L386 78ZM770 430L634 566V874L766 1006H1054L1186 854V566L1050
430H770ZM820 582H996L1040 626V804L996 848H820L776 804V626L820 582Z" />
<glyph unicode="A" horiz-adv-x="1288" d="M115 0V1194L321 1400H967L1173 1194V0H891V412H397V0H115ZM256 142H255V549H1037V142H1036V1135L911 1259H381L256 1135V142ZM397 694H891V1056L830 1117H458L397 1056V694ZM255 548V1135L381 1260H911L1037 1135V548H255Z" />
<glyph unicode="B" horiz-adv-x="1273" d="M125 0V1400H907L1113 1194V837L1024 748L1158 613V206L952 0H125ZM269 138H867L1015 286V556L859 712H792L972 914V1119L843 1263H269V138ZM269 138V712H859L1015 556V286L867 138H269ZM269 712V1263H843L972 1119V914L792
712H269ZM408 283H814L875 344V485L787 573H408V283ZM408 856H731L831 955V1056L770 1117H408V856Z" />
<glyph unicode="C" horiz-adv-x="1244" d="M311 0L105 206V1194L311 1400H932L1139 1194V872H856V1056L795 1117H449L388 1056V344L449 283H795L856 344V528H1139V206L932 0H311ZM384 142H862L996 276V396V396V276L862 142H384L245 281V1129L384 1268H856L996
1129V1008V1008V1129L856 1268H384L245 1129V281L384 142Z" />
<glyph unicode="D" horiz-adv-x="1289" d="M125 0V1400H958L1164 1194V206L958 0H125ZM408 283H821L882 344V1056L821 1117H408V283ZM271 142H881L1025 286V1115L881 1259H271V142ZM271 142V1259H881L1025 1115V286L881 142H271Z" />
<glyph unicode="E" horiz-adv-x="1140" d="M115 0V1400H1025V1117H398V848H956V565H398V283H1025V0H115ZM260 142H895V142H260V707H825V707H260V1259H895V1259H260V142Z" />
<glyph unicode="F" horiz-adv-x="1080" d="M115 0V1400H1005V1117H398V848H967V565H398V0H115ZM256 142H255V711H820V710H255V1259H860V1258H256V142Z" />
<glyph unicode="G" horiz-adv-x="1278" d="M321 0L115 206V1194L321 1400H957L1163 1194V942H881V1056L820 1117H457L397 1054V343L457 283H820L881 344V482H604V764H1163V206L957 0H321ZM397 142H882L1022 282V620H753V620H1022V282L882 142H397L257 282V1125L391
1259H892L1022 1125V1072V1072V1125L892 1259H391L257 1125V282L397 142Z" />
<glyph unicode="H" horiz-adv-x="1295" d="M125 0V1400H408V848H888V1400H1170V0H888V565H408V0H125ZM266 142H265V707H1031V142H1030V1259H1031V707H265V1259H266V142Z" />
<glyph unicode="I" horiz-adv-x="1059" d="M115 0V283H389V1117H115V1400H944V1117H671V283H944V0H115ZM241 142H819V142H530V1259H819V1259H241V1259H530V142H241V142Z" />
<glyph unicode="J" horiz-adv-x="1216" d="M322 0L115 206V563H398V344L459 283H757L818 344V1117H306V1400H1101V206L894 0H322ZM392 147H826L966 286V1259H449V1259H966V286L826 147H392L256 283V432V432V283L392 147Z" />
<glyph unicode="K" horiz-adv-x="1298" d="M125 0V1400H408V848H757L876 967V1400H1159V848L1018 708L1159 565V0H876V447L757 565H408V0H125ZM268 142H267V716H833L1019 522V142V142V522L833 716L1019 902V1259V1259V902L833 716H267V1259H268V142Z" />
<glyph unicode="L" horiz-adv-x="1091" d="M125 0V1400H408V283H1016V0H125ZM267 142H880V142H267V1259V1259V142Z" />
<glyph unicode="M" horiz-adv-x="1741" d="M125 0V1400H678L847 407H895L1064 1400H1616V0H1333V1116H1294L1122 120H620L449 1116H408V0H125ZM265 142H264V1259H556L740 277H1000L1184 1259H1474V142H1473V1259H1184L1000 277H740L556 1259H265V142Z" />
<glyph unicode="N" horiz-adv-x="1465" d="M266 142H265V1259H556L910 142H1198V1259H1199V142H910L556 1259H266V142ZM125 0V1400H668L1014 287H1057V1400H1340V0H797L449 1116H408V0H125Z" />
<glyph unicode="O" horiz-adv-x="1306" d="M321 0L115 206V1194L321 1400H985L1191 1194V206L985 0H321ZM459 283H847L908 344V1056L847 1117H459L398 1056V344L459 283ZM394 142H915L1049 276V1125L915 1259H394L260 1125V276L394 142ZM394 142L260 276V1125L394
1259H915L1049 1125V276L915 142H394Z" />
<glyph unicode="P" horiz-adv-x="1258" d="M125 0V1400H956L1162 1194V643L937 418H408V0H125ZM266 142H265V565H877L1029 717V1125L895 1259H266V142ZM408 701H799L880 781V1056L819 1117H408V701ZM265 565V1259H895L1029 1125V717L877 565H265Z" />
<glyph unicode="Q" horiz-adv-x="1343" d="M1036 -242L795 0H321L115 206V1194L321 1400H1011L1217 1194V206L1096 85L1228 -50L1036 -242ZM1057 -67H1056L854 142H937L1078 280V1128L947 1259H389L261 1128V280L399 142H855L1057 -67ZM459 283H873L935 344V1056L873
1117H459L398 1056V344L459 283ZM399 142L260 280V1128L389 1260H947L1079 1128V280L937 142H399Z" />
<glyph unicode="R" horiz-adv-x="1309" d="M125 0V1400H988L1194 1194V760L1072 648L1194 515V0H911V415L811 515H408V0H125ZM268 142H267V663H880L1055 466V142H1054V466L880 663L1047 815V1131L918 1259H268V142ZM408 798H850L911 860V1056L850 1117H408V798ZM267
662V1260H918L1048 1131V815L879 662H267Z" />
<glyph unicode="S" horiz-adv-x="1302" d="M321 0L115 206V458H398V344L459 283H843L904 344V498L843 559H327L121 765V1194L327 1400H962L1168 1194V942H885V1056L824 1117H465L403 1056V903L465 842H981L1187 636V206L981 0H321ZM387 142H896L1040 280V580L926
699H405L264 845V1128L401 1259H899L1025 1128V1072V1072V1128L899 1259H401L264 1128V845L405 699H926L1040 580V280L896 142H387L263 260V328V328V260L387 142Z" />
<glyph unicode="T" horiz-adv-x="1126" d="M422 0V1117H75V1400H1051V1117H704V0H422ZM564 142H563V1259H920V1259H206V1259H564V142Z" />
<glyph unicode="U" horiz-adv-x="1328" d="M321 0L115 206V1400H398V344L459 283H869L930 344V1400H1213V206L1007 0H321ZM390 142H938L1072 271V1259V1259V271L938 142H390L256 273V1259V1259V273L390 142Z" />
<glyph unicode="V" horiz-adv-x="1338" d="M501 0L125 376V1400H408V514L612 311H727L930 514V1400H1213V376L837 0H501ZM570 142H768L1072 441V1259V1259V441L768 142H570L266 443V1259V1259V443L570 142Z" />
<glyph unicode="W" horiz-adv-x="1738" d="M125 1400H408V284H452L618 1280H1120L1287 284H1330V1400H1613V0H1057L893 993H845L681 0H125V1400ZM265 1258V141H559L738 1123H998L1177 141H1470V1258H1471V141H1177L998 1123H738L559 141H264V1258H265Z" />
<glyph unicode="X" horiz-adv-x="1353" d="M125 0V515L318 708L125 898V1400H408V1017L577 848H776L945 1017V1400H1228V898L1037 708L1228 515V0H945V397L776 565H577L408 397V0H125ZM267 142H266V448L519 709H835L1088 448V142H1087V448L835 708L1087 960V1259H1088V960L836
709H519L267 960V1259H268V960L520 708L267 448V142Z" />
<glyph unicode="Y" horiz-adv-x="1294" d="M505 0V443L105 825V1400H388V927L656 674H637L906 927V1400H1189V825L788 443V0H505ZM647 142H646V495L1048 869V1259H1049V869L646 495V495L244 869V1259H245V869L647 495V142Z" />
<glyph unicode="Z" horiz-adv-x="1123" d="M263 142H885V142H263V406L874 1007V1259H262V1259H874V1007L263 406V142ZM105 0V448L715 1053V1117H124V1400H1018V956L414 359V283H1018V0H105Z" />
<glyph unicode="[" horiz-adv-x="656" d="M102 -400V1500H594V1206H396V-106H594V-400H102ZM247 -248H458V-248H247V1356H458V1356H247V-248Z" />
<glyph unicode="\" horiz-adv-x="624" d="M574 -201H291L41 1500H324L574 -201ZM415 -77L193 1381H194L416 -77H415Z" />
<glyph unicode="]" horiz-adv-x="656" d="M560 -400H68V-106H266V1206H68V1500H560V-400ZM415 -248V1356H204V1356H415V-248H204V-248H415Z" />
<glyph unicode="^" horiz-adv-x="912" d="M62 980L312 1428H605L849 980H556L458 1199V1199L356 980H62ZM255 1078H254L382 1328H536L664 1078H663L535 1328H383L255 1078Z" />
<glyph unicode="_" horiz-adv-x="1156" d="M102 -256V0H1054V-256H102ZM232 -126H936V-126H232V-126Z" />
<glyph unicode="`" horiz-adv-x="688" d="M590 1112H343L59 1376H346L590 1112ZM400 1180L280 1306H281L401 1180H400Z" />
<glyph unicode="a" horiz-adv-x="1253" d="M316 0L110 206V491L316 697H860V736L799 797H124V1080H937L1143 874V206L937 0H316ZM389 138L261 264V450L367 556H1004V274L866 138H389ZM389 138H866L1004 274V806L874 934H249V934H874L1004 806V556H367L261 450V264L389
138ZM454 283H799L860 344V424H434L392 382V344L454 283Z" />
<glyph unicode="b" horiz-adv-x="1211" d="M332 0L125 206V1500H408V1061L428 1080H894L1101 874V206L894 0H332ZM404 135L266 271V763L443 939H841L959 823V271L821 135H404ZM469 283H757L818 344V736L757 798H488L408 717V344L469 283ZM404 135H821L959 271V823L841
939H443L266 763V1366V1366V271L404 135Z" />
<glyph unicode="c" horiz-adv-x="1205" d="M316 0L110 206V874L316 1080H1080V797H454L393 736V344L454 283H1080V0H316ZM395 141H953V141H395L253 278V809L387 940H953V940H387L253 809V278L395 141Z" />
<glyph unicode="d" horiz-adv-x="1211" d="M879 0H317L110 206V874L317 1080H783L803 1061V1500H1086V206L879 0ZM807 135H390L252 271V823L370 939H768L945 763V271L807 135ZM742 283L803 344V717L723 798H454L393 736V344L454 283H742ZM807 135L945 271V1366V1366V763L768
939H370L252 823V271L390 135H807Z" />
<glyph unicode="e" horiz-adv-x="1253" d="M937 1080L1143 874V589L937 383H393V344L454 283H1129V0H316L110 206V874L316 1080H937ZM864 942L992 816V630L886 524H249V806L387 942H864ZM864 942H387L249 806V274L379 146H1004V146H379L249 274V524H886L992 630V816L864
942ZM799 797H454L393 736V656H819L861 698V736L799 797Z" />
<glyph unicode="f" horiz-adv-x="983" d="M277 0V798H75V1080H277V1294L483 1500H873V1237H604L560 1192V1080H873V798H560V0H277ZM419 142H418V940H743V940H418V1238L548 1368H743V1367H548L419 1238V940H203V940H419V142Z" />
<glyph unicode="g" horiz-adv-x="1210" d="M160 -400V-118H722L803 -37V20L783 0H316L110 206V874L316 1080H879L1085 874V-194L879 -400H160ZM286 -260H795L949 -94V798L811 940H384L248 804V296L401 142H747L949 334V-94L795 -260H286V-260ZM401 142L248 296V804L384
940H811L949 798V334L747 142H401ZM454 283H703L803 383V737L741 798H454L393 737V344L454 283Z" />
<glyph unicode="h" horiz-adv-x="1210" d="M125 0V1499H408V1061L427 1080H894L1100 874V0H817V736L756 798H488L408 717V0H125ZM272 142H271V770L444 941H837L959 821V142H958V821L837 941H444L271 770V1346H272V142Z" />
<glyph unicode="i" horiz-adv-x="971" d="M337 1237V1500H659V1237H337ZM499 1352H498V1400H499V1352ZM110 0V283H377V797H110V1080H659V283H926V0H110ZM236 142H801V142H513V939H236V939H513V142H236V142Z" />
<glyph unicode="j" horiz-adv-x="724" d="M-15 -400V-118H236L316 -37V798H-15V1080H599V-194L393 -400H-15ZM148 -253H325L458 -113V940H127V941H458V-113L325 -254H148V-253ZM316 1236V1500H599V1236H316ZM459 1352H458V1400H459V1352Z" />
<glyph unicode="k" horiz-adv-x="1139" d="M125 0V1400H408V678H612L731 797V1080H1014V678L873 538L1014 395V0H731V277L612 395H408V0H125ZM268 142H267V539H683L870 344V142H869V344L683 539L870 726V940H871V726L683 539H267V1259H268V142Z" />
<glyph unicode="l" horiz-adv-x="912" d="M45 0V283H315V1217H45V1500H597V283H867V0H45ZM171 142H742V142H451V1359H171V1359H451V142H171V142Z" />
<glyph unicode="m" horiz-adv-x="1613" d="M110 0V874L316 1080H703L807 978L910 1080H1297L1503 874V0H1220V736L1159 797H1009L948 736V60H665V736L604 797H454L393 736V0H110ZM249 142H248V802L386 940H663L807 796V202H806V796L951 940H1228L1366 802V142H1365V802L1228
940H951L807 796L663 940H386L249 802V142Z" />
<glyph unicode="n" horiz-adv-x="1180" d="M110 0V874L316 1080H864L1070 874V0H788V736L727 797H453L392 736V0H110ZM253 142H252V792L400 940H787L933 794V142H932V794L787 940H400L253 792V142Z" />
<glyph unicode="o" horiz-adv-x="1257" d="M316 0L110 206V874L316 1080H941L1147 874V206L941 0H316ZM396 142H873L1004 282V806L873 940H388L255 806V282L396 142ZM396 142L255 282V806L388 940H873L1004 806V282L873 142H396ZM454 283H803L864 344V736L803
797H454L393 736V344L454 283Z" />
<glyph unicode="p" horiz-adv-x="1233" d="M125 -378V874L331 1080H917L1123 874V206L917 0H427L408 20V-378H125ZM268 -240H267V328L451 143H848L988 280V812L858 940H407L268 802V-240ZM488 283H779L840 344V736L779 798H469L408 736V363L488 283ZM451 142L267
328V802L407 940H858L989 812V280L848 142H451Z" />
<glyph unicode="q" horiz-adv-x="1233" d="M1108 -378H825V20L806 0H316L110 206V874L316 1080H902L1108 874V-378ZM965 -240V802L826 940H375L245 812V280L385 143H782L966 328V-240H965ZM745 283L825 363V736L764 798H454L393 736V344L454 283H745ZM782 142H385L244
280V812L375 940H826L966 802V328L782 142Z" />
<glyph unicode="r" horiz-adv-x="1148" d="M110 -1V282H304V783L289 798H112V1080H365L433 1000L510 1080H899L1118 861L900 649L762 797H648L587 736V281H781V-1H110ZM238 142H653V142H444V816L569 940H839L929 840V840L839 940H569L444 816L328 940H238V940H328L445
816V142H238V142Z" />
<glyph unicode="s" horiz-adv-x="1203" d="M120 0V283H750L811 344V339L752 399H316L110 605V874L316 1080H1073V797H453L392 736V742L453 681H887L1093 475V206L887 0H120ZM274 145H828L952 269V426L828 545H366L253 659V816L376 939H919V939H376L253 816V659L366
545H828L952 426V269L828 145H274V145Z" />
<glyph unicode="t" horiz-adv-x="935" d="M294 0V798H45V1080H294V1354H577V1080H825V798H577V283H818V0H294ZM436 143H694V142H436V942H699V941H436V1229V1229V942H172V943H436V143Z" />
<glyph unicode="u" horiz-adv-x="1202" d="M316 0L110 206V1080H393V344L454 283H748L809 344V1080H1092V206L886 0H316ZM396 142H813L952 292V940V940V292L813 142H396L250 293V940V940V293L396 142Z" />
<glyph unicode="v" horiz-adv-x="1200" d="M283 0L45 1080H354L513 284H690L846 1080H1155L921 0H283ZM404 142H803L977 940V940L803 142H404L229 940V940L404 142Z" />
<glyph unicode="w" horiz-adv-x="1613" d="M110 1080H393V344L454 283H604L665 344V1020H948V344L1009 283H1159L1220 344V1080H1503V206L1297 0H910L807 102L703 0H316L110 206V1080ZM249 938V278L386 140H663L807 284L951 140H1228L1365 278V938H1366V278L1228
140H951L806 284V878H807V284L663 140H386L248 278V938H249Z" />
<glyph unicode="x" horiz-adv-x="1252" d="M110 0V365L292 548L110 728V1080H393V847L551 688H701L859 847V1080H1142V728L961 548L1142 365V0H859V247L701 405H551L393 247V0H110ZM254 142H253V298L493 546H759L999 298V142H998V298L759 546L999 786V940H1000V786L759
545H493L253 786V940H254V786L493 546L254 298V142Z" />
<glyph unicode="y" horiz-adv-x="1206" d="M316 0L110 206V1080H393V344L454 283H699L799 383V1080H1081V-194L875 -400H160V-118H718L799 -37V20L779 0H316ZM277 -263H786L944 -101V940V940V342L743 142H388L248 285V940V940V285L388 142H743L944 342V-101L786
-263H277V-263Z" />
<glyph unicode="z" horiz-adv-x="1070" d="M281 142H835V142H281V346L792 724V940H259V940H792V724L281 346V142ZM110 0V399L625 767V797H129V1080H960V673L452 315V283H960V0H110Z" />
<glyph unicode="{" horiz-adv-x="822" d="M389 362V-258H584V-258H389V362L228 551L389 740V1358H604V1358H389V740L228 551L389 362ZM544 362V-106H742V-400H250V351L80 551L250 751V1500H742V1206H544V740L383 551L544 362Z" />
<glyph unicode="|" horiz-adv-x="618" d="M162 -428V1500H456V-428H162ZM311 -306H310V1377H311V-306Z" />
<glyph unicode="}" horiz-adv-x="822" d="M433 362L594 551L433 740V1358H218V1358H433V740L594 551L433 362V-258H238V-258H433V362ZM278 362L439 551L278 740V1206H80V1500H572V751L742 551L572 351V-400H80V-106H278V362Z" />
<glyph unicode="~" horiz-adv-x="780" d="M112 509V645L224 757H402L458 701H476V757H668V621L556 509H378L322 565H304V509H112ZM211 579H210V599L276 671H358L422 597H510L576 669V689H577V669L510 597H422L358 671H276L211 599V579Z" />
<glyph unicode="&#xa0;" horiz-adv-x="550" />
<glyph unicode="&#xa1;" horiz-adv-x="558" d="M196 1012H358L420 321V-28H134V321L196 1012ZM278 826V350L277 141H276V350L277 826H278ZM122 1400H436V1106H122V1400ZM256 1258H257H304H303H256Z" />
<glyph unicode="&#xa2;" horiz-adv-x="1178" d="M440 0V154H348L142 360V1040L348 1246H440V1400H744V1246H832L1038 1040V810H755V902L694 963H486L425 902V498L486 437H694L755 498V590H1038V360L832 154H744V0H440ZM590 96H589V292H749L895 438V470H896V438L749
292H442L286 448V966L434 1114H749L895 968V936H894V968L749 1114H590V1310H591V1114H434L287 966V448L442 292H590V96Z" />
<glyph unicode="&#xa3;" horiz-adv-x="1204" d="M75 0V283H195L256 344V546H97V802H256V1194L462 1400H1089V1117H600L539 1056V802H729V546H539V283H1085V0H75ZM173 143H967V143H263L395 275V669H611V669H395V1128L531 1263H975V1263H531L395 1128V669H227V669H395V275L263
143H173V143Z" />
<glyph unicode="&#xa4;" horiz-adv-x="1240" d="M177 8L-4 189L144 337L130 351V874L144 888L-8 1040L173 1221L325 1069L336 1080H894L907 1067L1061 1221L1242 1040L1088 886L1100 874V351L1092 343L1246 189L1065 8L911 162L894 145H336L325 156L177 8ZM474
428H756L817 489V736L756 797H474L413 736V489L474 428ZM168 185L342 359L416 284H826L901 359L1075 185V185L901 359L959 417V808L897 870L1070 1045V1045L897 870L826 941H408L338 870L163 1045V1045L338 870L273 806V427L342 359L168 185V185ZM416 284L273 427V806L408
941H826L959 808V417L826 284H416Z" />
<glyph unicode="&#xa5;" horiz-adv-x="1220" d="M468 0V70H295V316H468V347H295V569L105 750V1400H388V852L610 644L832 852V1400H1115V750L927 571V347H751V316H927V70H751V0H468ZM608 122V122V195H802V195H608V462H802V462H608L974 794V1276V1276V794L608 462V462L244
794V1276V1276V794L608 462H418V462H608V195H418V195H608V122Z" />
<glyph unicode="&#xa6;" horiz-adv-x="618" d="M162 665V1500H456V665H162ZM308 787V787V1377V1377V787ZM162 -400V435H456V-400H162ZM308 -278V-278V312V312V-278Z" />
<glyph unicode="&#xa7;" horiz-adv-x="1166" d="M135 -189V94H698L757 153L700 210H331L125 416V685L189 749L125 812V1081L331 1287H1021V1004H468L410 946L468 888H835L1041 682V413L978 350L1041 286V17L835 -189H135ZM279 -45H766L904 90V227L772 354L904
486V623L776 747H393L269 866V1023L401 1151H867V1151H401L269 1023V866L393 747L263 617V480L389 354H772L904 227V90L766 -45H279V-45ZM468 492H700L757 549L700 606H466L410 550L468 492ZM389 354L263 480V617L393 747H776L904 623V486L772 354H389Z" />
<glyph unicode="&#xa8;" horiz-adv-x="944" d="M574 1132V1342H786V1132H574ZM158 1132V1342H370V1132H158ZM263 1226H262V1246H263V1226ZM681 1226H680V1246H681V1226Z" />
<glyph unicode="&#xa9;" horiz-adv-x="1618" d="M364 -28L150 186V1214L364 1428H1274L1488 1214V186L1274 -28H364ZM418 126H1222L1352 256V1152L1222 1282H418L288 1152V256L418 126ZM418 126L288 256V1152L418 1282H1222L1352 1152V256L1222 126H418ZM696 414H958L1054
518V550V550V518L958 414H696L582 528V868L688 974H958L1054 870V838V838V870L958 974H688L582 868V528L696 414ZM488 266H1150L1214 330V1070L1150 1134H488L424 1070V330L488 266ZM630 300L468 464V934L630 1096H1010L1172 934V746H940V820L898 864H744L700 820V576L744
532H898L940 576V652H1172V464L1010 300H630Z" />
<glyph unicode="&#xaa;" horiz-adv-x="885" d="M243 717L111 850V1033L243 1166H594V1191L554 1230H120V1412H643L776 1280V850L643 717H243ZM290 806L208 887V1007L276 1075H686V893L598 806H290ZM290 806H598L686 893V1236L603 1318H200V1318H603L686 1236V1075H276L208
1007V887L290 806ZM332 899H554L594 939V990H319L292 963V939L332 899Z" />
<glyph unicode="&#xab;" horiz-adv-x="1200" d="M1063 216L615 466V759L1063 1003V710L844 612V612L1063 510V216ZM965 409V408L715 536V690L965 818V817L715 689V537L965 409ZM821 216L373 466V759L821 1003V710L602 612V612L821 510V216ZM723 409V408L473 536V690L723
818V817L473 689V537L723 409Z" />
<glyph unicode="&#xac;" horiz-adv-x="1128" d="M1026 883V335H743V600H102V883H1026ZM888 742H226V742H888V461V461V742Z" />
<glyph unicode="&#xad;" horiz-adv-x="836" d="M102 476V732H734V476H102ZM232 602H616V602H232V602Z" />
<glyph unicode="&#xae;" horiz-adv-x="1382" d="M336 262L122 476V1214L336 1428H1046L1260 1214V476L1046 262H336ZM390 366H994L1124 496V1152L994 1282H390L260 1152V496L390 366ZM390 366L260 496V1152L390 1282H994L1124 1152V496L994 366H390ZM460 546H922L986
610V1080L922 1144H460L396 1080V610L460 546ZM442 602V946L604 1108H814L979 942L792 784L700 876H718L674 832V602H442ZM559 692H558V888L648 976H771L817 929H816L770 976H648L559 888V692Z" />
<glyph unicode="&#xaf;" horiz-adv-x="836" d="M102 1119V1375H734V1119H102ZM232 1245H616V1245H232V1245Z" />
<glyph unicode="&#xb0;" horiz-adv-x="884" d="M242 709L110 841V1268L242 1400H642L774 1268V841L642 709H242ZM293 800H599L683 889V1225L599 1311H288L203 1225V889L293 800ZM293 800L203 889V1225L288 1311H599L683 1225V889L599 800H293ZM331 890H554L593
929V1180L554 1219H331L292 1180V929L331 890Z" />
<glyph unicode="&#xb1;" horiz-adv-x="836" d="M290 538V726H102V982H290V1170H546V982H734V726H546V538H290ZM419 660H418V851H616V850H418V1044H419V851H232V852H419V660ZM102 235V491H734V235H102ZM232 361H616V361H232V361Z" />
<glyph unicode="&#xb2;" horiz-adv-x="512" d="M75 830V1068L163 1153H294L314 1173V1257L294 1277H219L199 1257V1195H75V1315L163 1400H349L437 1316V1117L349 1030H219L199 1009V953H436V830H75ZM139 892H375V892H139V1038L197 1096H323L375 1151V1287L319
1339H196L139 1287V1254V1254V1287L196 1339H319L375 1287V1151L323 1096H197L139 1038V892Z" />
<glyph unicode="&#xb3;" horiz-adv-x="511" d="M163 830L76 917V1031H199V973L218 953H294L314 973V1034L294 1053H214V1176H294L314 1198V1257L294 1277H218L199 1257V1199H75V1313L163 1400H349L436 1313V1140L411 1115L436 1089V917L349 830H163ZM190 892H322L375
945V1057L318 1115L375 1173V1288L322 1339H188L136 1288V1248V1248V1288L188 1339H322L375 1288V1173L318 1115H258V1115H318L375 1057V945L322 892H190L136 945V983V983V945L190 892Z" />
<glyph unicode="&#xb4;" horiz-adv-x="688" d="M82 1112L326 1376H613L329 1112H82ZM272 1180H271L391 1306H392L272 1180Z" />
<glyph unicode="&#xb5;" horiz-adv-x="1142" d="M110 -428V1080H393V344L454 283H688L749 344V1080H1032V206L826 0H393V-428H110ZM251 -306V-306V287L396 143H753L891 287V954V954V287L753 143H396L251 287V954V954V-306Z" />
<glyph unicode="&#xb6;" horiz-adv-x="1335" d="M546 -234V418H325L100 643V1194L306 1400H1195V-234H912V1118H830V-234H546ZM688 -113V-112V1262H1053V-113V-112V1262H414L277 1132V712L439 550V550L277 712V1132L414 1262H688V-113Z" />
<glyph unicode="&#xb7;" horiz-adv-x="558" d="M122 588V882H436V588H122ZM256 730H304V730H256V730Z" />
<glyph unicode="&#xb8;" horiz-adv-x="638" d="M80 -349V-192H285L315 -160L285 -130H151V27H395L558 -160L395 -349H80ZM186 -272H343L441 -160L343 -50H258V-50H343L441 -160L343 -272H186V-272Z" />
<glyph unicode="&#xb9;" horiz-adv-x="466" d="M75 830V953H170V1254L75 1226V1362L213 1400H294V953H391V830H75ZM136 892H328V892H232V1339V1339L131 1309V1309L232 1339V892H136V892Z" />
<glyph unicode="&#xba;" horiz-adv-x="884" d="M242 709L110 841V1268L242 1400H642L774 1268V841L642 709H242ZM293 800H599L683 889V1225L599 1311H288L203 1225V889L293 800ZM293 800L203 889V1225L288 1311H599L683 1225V889L599 800H293ZM331 890H554L593
929V1180L554 1219H331L292 1180V929L331 890Z" />
<glyph unicode="&#xbb;" horiz-adv-x="1200" d="M137 216V510L356 612V612L137 710V1003L585 759V466L137 216ZM235 409L485 537V689L235 817V818L485 690V536L235 408V409ZM635 216V510L854 612V612L635 710V1003L1083 759V466L635 216ZM733 409L983 537V689L733
817V818L983 690V536L733 408V409Z" />
<glyph unicode="&#xbc;" horiz-adv-x="1021" d="M75 830V953H170V1254L75 1226V1362L213 1400H294V953H391V830H75ZM136 892H328V892H232V1339V1339L131 1309V1309L232 1339V892H136V892ZM61 0L803 1400H957L216 0H61ZM169 53V53L856 1353V1353L169 53ZM790 0V128H602V264L717
570H913V252H971V128H913V0H790ZM736 252H790V436H793L736 265V252ZM853 62V62V185H925V185H853V509H755L665 259V185H853V62ZM665 185V259L755 509H853V185H665Z" />
<glyph unicode="&#xbd;" horiz-adv-x="1064" d="M75 830V953H170V1254L75 1226V1362L213 1400H294V953H391V830H75ZM136 892H328V892H232V1339V1339L131 1309V1309L232 1339V892H136V892ZM61 0L803 1400H957L216 0H61ZM169 53V53L856 1353V1353L169 53ZM627 0V238L715
323H846L866 343V427L846 447H771L751 427V365H627V485L715 570H901L989 486V287L901 200H771L751 179V123H988V0H627ZM691 62H927V62H691V208L749 266H875L927 321V457L871 509H748L691 457V424V424V457L748 509H871L927 457V321L875 266H749L691 208V62Z" />
<glyph unicode="&#xbe;" horiz-adv-x="1066" d="M163 830L76 917V1031H199V973L218 953H294L314 973V1034L294 1053H214V1176H294L314 1198V1257L294 1277H218L199 1257V1199H75V1313L163 1400H349L436 1313V1140L411 1115L436 1089V917L349 830H163ZM190 892H322L375
945V1057L318 1115L375 1173V1288L322 1339H188L136 1288V1248V1248V1288L188 1339H322L375 1288V1173L318 1115H258V1115H318L375 1057V945L322 892H190L136 945V983V983V945L190 892ZM106 0L848 1400H1002L261 0H106ZM214 53V53L901 1353V1353L214 53ZM835 0V128H647V264L762
570H958V252H1016V128H958V0H835ZM781 252H835V436H838L781 265V252ZM898 62V62V185H970V185H898V509H800L710 259V185H898V62ZM710 185V259L800 509H898V185H710Z" />
<glyph unicode="&#xbf;" horiz-adv-x="1100" d="M687 1021V813L419 546V344L481 283H631L693 344V458H975V206L769 0H343L137 206V665L404 933V1021H687ZM566 1258H518V1258H566V1258ZM694 1400V1117H393V1400H694ZM532 916H533V872L282 610V286L426 142H676L820
286V338H821V286L677 142H426L281 286V610L532 872V916Z" />
<glyph unicode="&#xc0;" horiz-adv-x="1288" d="M115 0V1194L321 1400H967L1173 1194V0H891V412H397V0H115ZM256 142H255V549H1037V142H1036V1135L911 1259H381L256 1135V142ZM397 694H891V1056L830 1117H458L397 1056V694ZM255 548V1135L381 1260H911L1037 1135V548H255ZM790
1432H543L259 1696H546L790 1432ZM600 1500L480 1626H481L601 1500H600Z" />
<glyph unicode="&#xc1;" horiz-adv-x="1311" d="M30 0L399 1400H907L1281 0H956L883 296H427L356 0H30ZM221 121V121L299 420H1016L1094 121V121L792 1260H516L221 121ZM299 420L516 1260H792L1016 420H299ZM483 552H827L690 1116H613L483 552ZM530 1432L774 1696H1061L777
1432H530ZM720 1500H719L839 1626H840L720 1500Z" />
<glyph unicode="&#xc2;" horiz-adv-x="1311" d="M30 0L399 1400H907L1281 0H956L883 296H427L356 0H30ZM221 121V121L299 420H1016L1094 121V121L792 1260H516L221 121ZM299 420L516 1260H792L1016 420H299ZM483 552H827L690 1116H613L483 552ZM527 1716H779L1003
1432H726L653 1540L580 1432H303L527 1716ZM594 1638L509 1522V1522L594 1638H708L793 1522V1522L708 1638H594Z" />
<glyph unicode="&#xc3;" horiz-adv-x="1288" d="M115 0V1194L321 1400H967L1173 1194V0H891V412H397V0H115ZM256 142H255V549H1037V142H1036V1135L911 1259H381L256 1135V142ZM397 694H891V1056L830 1117H458L397 1056V694ZM255 548V1135L381 1260H911L1037 1135V548H255ZM366
1432V1568L478 1680H656L712 1624H730V1680H922V1544L810 1432H632L576 1488H558V1432H366ZM465 1502H464V1522L530 1594H612L676 1520H764L830 1592V1612H831V1592L764 1520H676L612 1594H530L465 1522V1502Z" />
<glyph unicode="&#xc4;" horiz-adv-x="1288" d="M115 0V1194L321 1400H967L1173 1194V0H891V412H397V0H115ZM256 142H255V549H1037V142H1036V1135L911 1259H381L256 1135V142ZM397 694H891V1056L830 1117H458L397 1056V694ZM255 548V1135L381 1260H911L1037 1135V548H255ZM748
1452V1662H960V1452H748ZM332 1452V1662H544V1452H332ZM437 1546H436V1566H437V1546ZM855 1546H854V1566H855V1546Z" />
<glyph unicode="&#xc5;" horiz-adv-x="1288" d="M115 0V1194L321 1400H967L1173 1194V0H891V412H397V0H115ZM256 142H255V549H1037V142H1036V1135L911 1259H381L256 1135V142ZM397 694H891V1056L830 1117H458L397 1056V694ZM255 548V1135L381 1260H911L1037 1135V548H255ZM553
1430L455 1527V1701L553 1799H736L834 1701V1527L736 1430H553ZM591 1515H699L751 1566V1666L699 1718H591L539 1666V1566L591 1515ZM591 1515L539 1566V1666L591 1718H699L751 1666V1566L699 1515H591ZM636 1597H653L662 1607V1622L653 1631H636L627 1622V1607L636
1597Z" />
<glyph unicode="&#xc6;" horiz-adv-x="1934" d="M30 0L625 1400H1772V1117H1222V848H1734V565H1222V283H1772V0H939V412H510L337 0H30ZM204 112H203L394 547H1093V127H1675V126H1092V714H1635V713H1092V1275H1675V1274H717L204 112ZM395 546L718 1275H1093V546H395ZM626
694H939V1117H806L626 694Z" />
<glyph unicode="&#xc7;" horiz-adv-x="1211" d="M417 -349V-192H622L652 -160L622 -130H488V0H331L125 206V1194L331 1400H878L1085 1194V872H802V1056L741 1117H469L408 1056V344L469 283H741L802 344V528H1085V206L878 0H756L895 -160L732 -349H417ZM517 -270H685L781
-160L685 -52H589V142H814L944 272V416V416V272L814 142H395L265 272V1132L395 1262H814L944 1132V988V988V1132L814 1262H395L265 1132V272L395 142H589V-52H685L781 -160L685 -270H517V-270Z" />
<glyph unicode="&#xc8;" horiz-adv-x="1140" d="M115 0V1400H1025V1117H398V848H956V565H398V283H1025V0H115ZM260 142H895V142H260V707H825V707H260V1259H895V1259H260V142ZM707 1432H460L176 1696H463L707 1432ZM517 1500L397 1626H398L518 1500H517Z" />
<glyph unicode="&#xc9;" horiz-adv-x="1140" d="M115 0V1400H1025V1117H398V848H956V565H398V283H1025V0H115ZM260 142H895V142H260V707H825V707H260V1259H895V1259H260V142ZM439 1432L683 1696H970L686 1432H439ZM629 1500H628L748 1626H749L629 1500Z" />
<glyph unicode="&#xca;" horiz-adv-x="1140" d="M115 0V1400H1025V1117H398V848H956V565H398V283H1025V0H115ZM260 142H895V142H260V707H825V707H260V1259H895V1259H260V142ZM436 1716H688L912 1432H635L562 1540L489 1432H212L436 1716ZM503 1638L418 1522V1522L503
1638H617L702 1522V1522L617 1638H503Z" />
<glyph unicode="&#xcb;" horiz-adv-x="1140" d="M115 0V1400H1025V1117H398V848H956V565H398V283H1025V0H115ZM260 142H895V142H260V707H825V707H260V1259H895V1259H260V142ZM665 1452V1662H877V1452H665ZM249 1452V1662H461V1452H249ZM354 1546H353V1566H354V1546ZM772
1546H771V1566H772V1546Z" />
<glyph unicode="&#xcc;" horiz-adv-x="1059" d="M115 0V283H389V1117H115V1400H944V1117H671V283H944V0H115ZM241 142H819V142H530V1259H819V1259H241V1259H530V142H241V142ZM675 1432H428L144 1696H431L675 1432ZM485 1500L365 1626H366L486 1500H485Z" />
<glyph unicode="&#xcd;" horiz-adv-x="1059" d="M115 0V283H389V1117H115V1400H944V1117H671V283H944V0H115ZM241 142H819V142H530V1259H819V1259H241V1259H530V142H241V142ZM407 1432L651 1696H938L654 1432H407ZM597 1500H596L716 1626H717L597 1500Z" />
<glyph unicode="&#xce;" horiz-adv-x="1059" d="M115 0V283H389V1117H115V1400H944V1117H671V283H944V0H115ZM241 142H819V142H530V1259H819V1259H241V1259H530V142H241V142ZM404 1716H656L880 1432H603L530 1540L457 1432H180L404 1716ZM471 1638L386 1522V1522L471
1638H585L670 1522V1522L585 1638H471Z" />
<glyph unicode="&#xcf;" horiz-adv-x="1059" d="M115 0V283H389V1117H115V1400H944V1117H671V283H944V0H115ZM241 142H819V142H530V1259H819V1259H241V1259H530V142H241V142ZM633 1452V1662H845V1452H633ZM217 1452V1662H429V1452H217ZM322 1546H321V1566H322V1546ZM740
1546H739V1566H740V1546Z" />
<glyph unicode="&#xd0;" horiz-adv-x="1223" d="M178 0V562H5V818H178V1400H937L1143 1194V206L937 0H178ZM321 142H869L998 276V1122L869 1259H321V687H145V687H321V142ZM321 142V687H589V687H321V1259H869L998 1122V276L869 142H321ZM461 283H800L861 344V1056L800
1117H461V818H717V562H461V283Z" />
<glyph unicode="&#xd1;" horiz-adv-x="1465" d="M266 142H265V1259H556L910 142H1198V1259H1199V142H910L556 1259H266V142ZM125 0V1400H668L1014 287H1057V1400H1340V0H797L449 1116H408V0H125ZM457 1432V1568L569 1680H747L803 1624H821V1680H1013V1544L901
1432H723L667 1488H649V1432H457ZM556 1502H555V1522L621 1594H703L767 1520H855L921 1592V1612H922V1592L855 1520H767L703 1594H621L556 1522V1502Z" />
<glyph unicode="&#xd2;" horiz-adv-x="1306" d="M321 0L115 206V1194L321 1400H985L1191 1194V206L985 0H321ZM459 283H847L908 344V1056L847 1117H459L398 1056V344L459 283ZM394 142H915L1049 276V1125L915 1259H394L260 1125V276L394 142ZM394 142L260 276V1125L394
1259H915L1049 1125V276L915 142H394ZM798 1432H551L267 1696H554L798 1432ZM608 1500L488 1626H489L609 1500H608Z" />
<glyph unicode="&#xd3;" horiz-adv-x="1306" d="M321 0L115 206V1194L321 1400H985L1191 1194V206L985 0H321ZM459 283H847L908 344V1056L847 1117H459L398 1056V344L459 283ZM394 142H915L1049 276V1125L915 1259H394L260 1125V276L394 142ZM394 142L260 276V1125L394
1259H915L1049 1125V276L915 142H394ZM530 1432L774 1696H1061L777 1432H530ZM720 1500H719L839 1626H840L720 1500Z" />
<glyph unicode="&#xd4;" horiz-adv-x="1306" d="M321 0L115 206V1194L321 1400H985L1191 1194V206L985 0H321ZM459 283H847L908 344V1056L847 1117H459L398 1056V344L459 283ZM394 142H915L1049 276V1125L915 1259H394L260 1125V276L394 142ZM394 142L260 276V1125L394
1259H915L1049 1125V276L915 142H394ZM527 1716H779L1003 1432H726L653 1540L580 1432H303L527 1716ZM594 1638L509 1522V1522L594 1638H708L793 1522V1522L708 1638H594Z" />
<glyph unicode="&#xd5;" horiz-adv-x="1306" d="M321 0L115 206V1194L321 1400H985L1191 1194V206L985 0H321ZM459 283H847L908 344V1056L847 1117H459L398 1056V344L459 283ZM394 142H915L1049 276V1125L915 1259H394L260 1125V276L394 142ZM394 142L260 276V1125L394
1259H915L1049 1125V276L915 142H394ZM374 1432V1568L486 1680H664L720 1624H738V1680H930V1544L818 1432H640L584 1488H566V1432H374ZM473 1502H472V1522L538 1594H620L684 1520H772L838 1592V1612H839V1592L772 1520H684L620 1594H538L473 1522V1502Z" />
<glyph unicode="&#xd6;" horiz-adv-x="1306" d="M321 0L115 206V1194L321 1400H985L1191 1194V206L985 0H321ZM459 283H847L908 344V1056L847 1117H459L398 1056V344L459 283ZM394 142H915L1049 276V1125L915 1259H394L260 1125V276L394 142ZM394 142L260 276V1125L394
1259H915L1049 1125V276L915 142H394ZM756 1452V1662H968V1452H756ZM340 1452V1662H552V1452H340ZM445 1546H444V1566H445V1546ZM863 1546H862V1566H863V1546Z" />
<glyph unicode="&#xd7;" horiz-adv-x="836" d="M552 278L419 411L287 278L106 459L239 592L106 724L287 905L419 773L552 905L733 724L600 592L733 459L552 278ZM557 455V454L422 589L562 729V729L422 589L285 726L286 727L422 590L290 458L289 459L422 591L557 455Z" />
<glyph unicode="&#xd8;" horiz-adv-x="1390" d="M304 -53L108 86L181 188L161 206V1194L367 1400H1011L1028 1384L1085 1465L1282 1328L1200 1211L1217 1194V206L1011 0H367L353 15L304 -53ZM542 283H873L934 344V837L542 283ZM428 130L343 210L1041 1197L1092
1144V264L952 130H428ZM253 82L343 210L428 130H952L1092 264V1144L1041 1197L1125 1320V1320L1041 1197L952 1282H428L288 1144V264L343 210L253 82V82ZM343 210L288 264V1144L428 1282H952L1041 1197L343 210ZM444 560L838 1118H506L444 1056V560Z" />
<glyph unicode="&#xd9;" horiz-adv-x="1328" d="M321 0L115 206V1400H398V344L459 283H869L930 344V1400H1213V206L1007 0H321ZM390 142H938L1072 271V1259V1259V271L938 142H390L256 273V1259V1259V273L390 142ZM810 1432H563L279 1696H566L810 1432ZM620 1500L500
1626H501L621 1500H620Z" />
<glyph unicode="&#xda;" horiz-adv-x="1328" d="M321 0L115 206V1400H398V344L459 283H869L930 344V1400H1213V206L1007 0H321ZM390 142H938L1072 271V1259V1259V271L938 142H390L256 273V1259V1259V273L390 142ZM542 1432L786 1696H1073L789 1432H542ZM732 1500H731L851
1626H852L732 1500Z" />
<glyph unicode="&#xdb;" horiz-adv-x="1328" d="M321 0L115 206V1400H398V344L459 283H869L930 344V1400H1213V206L1007 0H321ZM390 142H938L1072 271V1259V1259V271L938 142H390L256 273V1259V1259V273L390 142ZM539 1716H791L1015 1432H738L665 1540L592 1432H315L539
1716ZM606 1638L521 1522V1522L606 1638H720L805 1522V1522L720 1638H606Z" />
<glyph unicode="&#xdc;" horiz-adv-x="1328" d="M321 0L115 206V1400H398V344L459 283H869L930 344V1400H1213V206L1007 0H321ZM390 142H938L1072 271V1259V1259V271L938 142H390L256 273V1259V1259V273L390 142ZM768 1452V1662H980V1452H768ZM352 1452V1662H564V1452H352ZM457
1546H456V1566H457V1546ZM875 1546H874V1566H875V1546Z" />
<glyph unicode="&#xdd;" horiz-adv-x="1294" d="M505 0V443L105 825V1400H388V927L656 674H637L906 927V1400H1189V825L788 443V0H505ZM647 142H646V495L1048 869V1259H1049V869L646 495V495L244 869V1259H245V869L647 495V142ZM524 1432L768 1696H1055L771 1432H524ZM714
1500H713L833 1626H834L714 1500Z" />
<glyph unicode="&#xde;" horiz-adv-x="1132" d="M105 0V1400H388V1080H820L1027 874V526L820 320H388V0H105ZM247 123H246V466H730L882 614V816L750 944H246V1282H247V123ZM246 465V945H750L883 816V614L730 465H246ZM388 603H683L744 664V736L683 798H388V603Z" />
<glyph unicode="&#xdf;" horiz-adv-x="1306" d="M85 0V1194L291 1400H950L1156 1194V837L1067 748L1221 593V226L995 0H620V283H857L938 364V465L774 629V856L874 955V1056L813 1117H429L368 1056V0H85ZM223 142H222V1155L322 1259H919L1014 1150V888L925 797V689L1076
532V277L934 144H728H729H934L1076 277V532L925 689V797L1014 888V1150L919 1259H322L223 1155V142Z" />
<glyph unicode="&#xe0;" horiz-adv-x="1253" d="M316 0L110 206V491L316 697H860V736L799 797H124V1080H937L1143 874V206L937 0H316ZM389 138L261 264V450L367 556H1004V274L866 138H389ZM389 138H866L1004 274V806L874 934H249V934H874L1004 806V556H367L261
450V264L389 138ZM454 283H799L860 344V424H434L392 382V344L454 283ZM773 1112H526L242 1376H529L773 1112ZM583 1180L463 1306H464L584 1180H583Z" />
<glyph unicode="&#xe1;" horiz-adv-x="1253" d="M316 0L110 206V491L316 697H860V736L799 797H124V1080H937L1143 874V206L937 0H316ZM389 138L261 264V450L367 556H1004V274L866 138H389ZM389 138H866L1004 274V806L874 934H249V934H874L1004 806V556H367L261
450V264L389 138ZM454 283H799L860 344V424H434L392 382V344L454 283ZM505 1112L749 1376H1036L752 1112H505ZM695 1180H694L814 1306H815L695 1180Z" />
<glyph unicode="&#xe2;" horiz-adv-x="1253" d="M316 0L110 206V491L316 697H860V736L799 797H124V1080H937L1143 874V206L937 0H316ZM389 138L261 264V450L367 556H1004V274L866 138H389ZM389 138H866L1004 274V806L874 934H249V934H874L1004 806V556H367L261
450V264L389 138ZM454 283H799L860 344V424H434L392 382V344L454 283ZM502 1396H754L978 1112H701L628 1220L555 1112H278L502 1396ZM569 1318L484 1202V1202L569 1318H683L768 1202V1202L683 1318H569Z" />
<glyph unicode="&#xe3;" horiz-adv-x="1253" d="M316 0L110 206V491L316 697H860V736L799 797H124V1080H937L1143 874V206L937 0H316ZM389 138L261 264V450L367 556H1004V274L866 138H389ZM389 138H866L1004 274V806L874 934H249V934H874L1004 806V556H367L261
450V264L389 138ZM454 283H799L860 344V424H434L392 382V344L454 283ZM349 1112V1248L461 1360H639L695 1304H713V1360H905V1224L793 1112H615L559 1168H541V1112H349ZM448 1182H447V1202L513 1274H595L659 1200H747L813 1272V1292H814V1272L747 1200H659L595 1274H513L448
1202V1182Z" />
<glyph unicode="&#xe4;" horiz-adv-x="1253" d="M316 0L110 206V491L316 697H860V736L799 797H124V1080H937L1143 874V206L937 0H316ZM389 138L261 264V450L367 556H1004V274L866 138H389ZM389 138H866L1004 274V806L874 934H249V934H874L1004 806V556H367L261
450V264L389 138ZM454 283H799L860 344V424H434L392 382V344L454 283ZM731 1132V1342H943V1132H731ZM315 1132V1342H527V1132H315ZM420 1226H419V1246H420V1226ZM838 1226H837V1246H838V1226Z" />
<glyph unicode="&#xe5;" horiz-adv-x="1253" d="M316 0L110 206V491L316 697H860V736L799 797H124V1080H937L1143 874V206L937 0H316ZM389 138L261 264V450L367 556H1004V274L866 138H389ZM389 138H866L1004 274V806L874 934H249V934H874L1004 806V556H367L261
450V264L389 138ZM454 283H799L860 344V424H434L392 382V344L454 283ZM536 1110L438 1207V1381L536 1479H719L817 1381V1207L719 1110H536ZM574 1195H682L734 1246V1346L682 1398H574L522 1346V1246L574 1195ZM574 1195L522 1246V1346L574 1398H682L734 1346V1246L682
1195H574ZM619 1277H636L645 1287V1302L636 1311H619L610 1302V1287L619 1277Z" />
<glyph unicode="&#xe6;" horiz-adv-x="1790" d="M339 0L133 206V486L339 692H681L747 757V736L685 797H478L349 669L121 861L339 1080H824L891 1013L958 1080H1443L1649 874V582L1443 388H1101L1035 323V344L1097 283H1304L1433 411L1661 219L1443 0H958L891 67L824
0H339ZM395 140H749L892 283L1030 140H1391L1481 230V230L1391 140H1030L892 283V326L1083 522H1403L1525 641V807L1393 938H1033L892 795L753 939H383L307 863V863L383 939H753L892 795V747L689 554H376L257 438V280L395 140ZM395 140L257 280V438L376 554H689L892
747V283L749 140H395ZM892 326V795L1033 938H1393L1525 807V641L1403 522H1083L892 326ZM478 283H685L747 344V440L728 421H458L416 379V344L478 283ZM1035 640L1054 659H1324L1366 701V736L1304 797H1097L1035 736V640Z" />
<glyph unicode="&#xe7;" horiz-adv-x="1148" d="M385 -349V-192H590L620 -160L590 -130H456V0H333L127 206V874L333 1080H817L1023 874V650H740V736L679 797H471L410 736V344L471 283H679L740 344V430H1023V206L817 0H724L863 -160L700 -349H385ZM485 -270H653L749
-160L653 -52H557V141H750L882 273V305V305V273L750 141H412L270 278V809L404 943H750L882 811V779V779V811L750 943H404L270 809V278L412 141H557V-52H653L749 -160L653 -270H485V-270Z" />
<glyph unicode="&#xe8;" horiz-adv-x="1253" d="M937 1080L1143 874V589L937 383H393V344L454 283H1129V0H316L110 206V874L316 1080H937ZM864 942L992 816V630L886 524H249V806L387 942H864ZM864 942H387L249 806V274L379 146H1004V146H379L249 274V524H886L992
630V816L864 942ZM799 797H454L393 736V656H819L861 698V736L799 797ZM774 1112H527L243 1376H530L774 1112ZM584 1180L464 1306H465L585 1180H584Z" />
<glyph unicode="&#xe9;" horiz-adv-x="1253" d="M937 1080L1143 874V589L937 383H393V344L454 283H1129V0H316L110 206V874L316 1080H937ZM864 942L992 816V630L886 524H249V806L387 942H864ZM864 942H387L249 806V274L379 146H1004V146H379L249 274V524H886L992
630V816L864 942ZM799 797H454L393 736V656H819L861 698V736L799 797ZM506 1112L750 1376H1037L753 1112H506ZM696 1180H695L815 1306H816L696 1180Z" />
<glyph unicode="&#xea;" horiz-adv-x="1253" d="M937 1080L1143 874V589L937 383H393V344L454 283H1129V0H316L110 206V874L316 1080H937ZM864 942L992 816V630L886 524H249V806L387 942H864ZM864 942H387L249 806V274L379 146H1004V146H379L249 274V524H886L992
630V816L864 942ZM799 797H454L393 736V656H819L861 698V736L799 797ZM503 1396H755L979 1112H702L629 1220L556 1112H279L503 1396ZM570 1318L485 1202V1202L570 1318H684L769 1202V1202L684 1318H570Z" />
<glyph unicode="&#xeb;" horiz-adv-x="1253" d="M937 1080L1143 874V589L937 383H393V344L454 283H1129V0H316L110 206V874L316 1080H937ZM864 942L992 816V630L886 524H249V806L387 942H864ZM864 942H387L249 806V274L379 146H1004V146H379L249 274V524H886L992
630V816L864 942ZM799 797H454L393 736V656H819L861 698V736L799 797ZM732 1132V1342H944V1132H732ZM316 1132V1342H528V1132H316ZM421 1226H420V1246H421V1226ZM839 1226H838V1246H839V1226Z" />
<glyph unicode="&#xec;" horiz-adv-x="990" d="M114 0V283H354V797H114V1080H636V283H876V0H114ZM240 142H751V142H490V939H240V939H490V142H240V142ZM640 1112H393L109 1376H396L640 1112ZM450 1180L330 1306H331L451 1180H450Z" />
<glyph unicode="&#xed;" horiz-adv-x="990" d="M114 0V283H354V797H114V1080H636V283H876V0H114ZM240 142H751V142H490V939H240V939H490V142H240V142ZM372 1112L616 1376H903L619 1112H372ZM562 1180H561L681 1306H682L562 1180Z" />
<glyph unicode="&#xee;" horiz-adv-x="990" d="M114 0V283H354V797H114V1080H636V283H876V0H114ZM240 142H751V142H490V939H240V939H490V142H240V142ZM369 1396H621L845 1112H568L495 1220L422 1112H145L369 1396ZM436 1318L351 1202V1202L436 1318H550L635 1202V1202L550
1318H436Z" />
<glyph unicode="&#xef;" horiz-adv-x="990" d="M114 0V283H354V797H114V1080H636V283H876V0H114ZM240 142H751V142H490V939H240V939H490V142H240V142ZM598 1132V1342H810V1132H598ZM182 1132V1342H394V1132H182ZM287 1226H286V1246H287V1226ZM705 1226H704V1246H705V1226Z"
/>
<glyph unicode="&#xf0;" horiz-adv-x="1120" d="M325 0L119 206V742L325 948H512L392 1059L493 1159L251 1400H645L690 1355L755 1420L883 1302L810 1230L1001 1034V206L795 0H325ZM395 142L263 275V676L395 808H674L863 624V288L726 142H395ZM462 283H658L719
344V585L638 665H462L401 604V344L462 283ZM395 142H726L863 288V965L649 1195L729 1275V1275L649 1195L558 1289V1289L649 1195L555 1102V1102L649 1195L863 965V624L674 808H395L263 676V275L395 142ZM719 908V936L616 1037L527 948H679L719 908Z" />
<glyph unicode="&#xf1;" horiz-adv-x="1180" d="M110 0V874L316 1080H864L1070 874V0H788V736L727 797H453L392 736V0H110ZM253 142H252V792L400 940H787L933 794V142H932V794L787 940H400L253 792V142ZM318 1112V1248L430 1360H608L664 1304H682V1360H874V1224L762
1112H584L528 1168H510V1112H318ZM417 1182H416V1202L482 1274H564L628 1200H716L782 1272V1292H783V1272L716 1200H628L564 1274H482L417 1202V1182Z" />
<glyph unicode="&#xf2;" horiz-adv-x="1257" d="M316 0L110 206V874L316 1080H941L1147 874V206L941 0H316ZM396 142H873L1004 282V806L873 940H388L255 806V282L396 142ZM396 142L255 282V806L388 940H873L1004 806V282L873 142H396ZM454 283H803L864 344V736L803
797H454L393 736V344L454 283ZM773 1112H526L242 1376H529L773 1112ZM583 1180L463 1306H464L584 1180H583Z" />
<glyph unicode="&#xf3;" horiz-adv-x="1257" d="M316 0L110 206V874L316 1080H941L1147 874V206L941 0H316ZM396 142H873L1004 282V806L873 940H388L255 806V282L396 142ZM396 142L255 282V806L388 940H873L1004 806V282L873 142H396ZM454 283H803L864 344V736L803
797H454L393 736V344L454 283ZM505 1112L749 1376H1036L752 1112H505ZM695 1180H694L814 1306H815L695 1180Z" />
<glyph unicode="&#xf4;" horiz-adv-x="1257" d="M316 0L110 206V874L316 1080H941L1147 874V206L941 0H316ZM396 142H873L1004 282V806L873 940H388L255 806V282L396 142ZM396 142L255 282V806L388 940H873L1004 806V282L873 142H396ZM454 283H803L864 344V736L803
797H454L393 736V344L454 283ZM502 1396H754L978 1112H701L628 1220L555 1112H278L502 1396ZM569 1318L484 1202V1202L569 1318H683L768 1202V1202L683 1318H569Z" />
<glyph unicode="&#xf5;" horiz-adv-x="1257" d="M316 0L110 206V874L316 1080H941L1147 874V206L941 0H316ZM396 142H873L1004 282V806L873 940H388L255 806V282L396 142ZM396 142L255 282V806L388 940H873L1004 806V282L873 142H396ZM454 283H803L864 344V736L803
797H454L393 736V344L454 283ZM349 1112V1248L461 1360H639L695 1304H713V1360H905V1224L793 1112H615L559 1168H541V1112H349ZM448 1182H447V1202L513 1274H595L659 1200H747L813 1272V1292H814V1272L747 1200H659L595 1274H513L448 1202V1182Z" />
<glyph unicode="&#xf6;" horiz-adv-x="1257" d="M316 0L110 206V874L316 1080H941L1147 874V206L941 0H316ZM396 142H873L1004 282V806L873 940H388L255 806V282L396 142ZM396 142L255 282V806L388 940H873L1004 806V282L873 142H396ZM454 283H803L864 344V736L803
797H454L393 736V344L454 283ZM731 1132V1342H943V1132H731ZM315 1132V1342H527V1132H315ZM420 1226H419V1246H420V1226ZM838 1226H837V1246H838V1226Z" />
<glyph unicode="&#xf7;" horiz-adv-x="836" d="M102 476V732H734V476H102ZM232 602H616V602H232V602ZM309 159V369H521V159H309ZM414 249H413V277H414V249ZM309 839V1049H521V839H309ZM414 929H413V957H414V929Z" />
<glyph unicode="&#xf8;" horiz-adv-x="1158" d="M300 -53L104 86L162 166L122 206V874L328 1080H813H818L858 1137L1054 1000L987 906L1018 874V206L813 0H338L334 -5L300 -53ZM538 283H674L736 344V551L538 283ZM250 82L333 201L394 140H745L871 261V827L815
878L899 999V999L815 878L755 940H400L272 816V262L333 201L250 82V82ZM394 140L333 201L815 878L871 827V261L745 140H394ZM333 201L272 262V816L400 940H755L815 878L333 201ZM405 510L618 798H467L405 736V510Z" />
<glyph unicode="&#xf9;" horiz-adv-x="1202" d="M316 0L110 206V1080H393V344L454 283H748L809 344V1080H1092V206L886 0H316ZM396 142H813L952 292V940V940V292L813 142H396L250 293V940V940V293L396 142ZM748 1112H501L217 1376H504L748 1112ZM558 1180L438
1306H439L559 1180H558Z" />
<glyph unicode="&#xfa;" horiz-adv-x="1202" d="M316 0L110 206V1080H393V344L454 283H748L809 344V1080H1092V206L886 0H316ZM396 142H813L952 292V940V940V292L813 142H396L250 293V940V940V293L396 142ZM480 1112L724 1376H1011L727 1112H480ZM670 1180H669L789
1306H790L670 1180Z" />
<glyph unicode="&#xfb;" horiz-adv-x="1202" d="M316 0L110 206V1080H393V344L454 283H748L809 344V1080H1092V206L886 0H316ZM396 142H813L952 292V940V940V292L813 142H396L250 293V940V940V293L396 142ZM477 1396H729L953 1112H676L603 1220L530 1112H253L477
1396ZM544 1318L459 1202V1202L544 1318H658L743 1202V1202L658 1318H544Z" />
<glyph unicode="&#xfc;" horiz-adv-x="1202" d="M316 0L110 206V1080H393V344L454 283H748L809 344V1080H1092V206L886 0H316ZM396 142H813L952 292V940V940V292L813 142H396L250 293V940V940V293L396 142ZM706 1132V1342H918V1132H706ZM290 1132V1342H502V1132H290ZM395
1226H394V1246H395V1226ZM813 1226H812V1246H813V1226Z" />
<glyph unicode="&#xfd;" horiz-adv-x="1206" d="M316 0L110 206V1080H393V344L454 283H699L799 383V1080H1081V-194L875 -400H160V-118H718L799 -37V20L779 0H316ZM277 -263H786L944 -101V940V940V342L743 142H388L248 285V940V940V285L388 142H743L944 342V-101L786
-263H277V-263ZM470 1112L714 1376H1001L717 1112H470ZM660 1180H659L779 1306H780L660 1180Z" />
<glyph unicode="&#xfe;" horiz-adv-x="1132" d="M105 -400V1500H388V1061L408 1080H820L1027 874V206L820 0H408L388 19V-400H105ZM468 282H683L744 344V736L683 798H468L388 717V363L468 282ZM249 -233H248V325L427 147H752L888 283V810L752 946H427L248 768V1349H249V-233ZM427
147L248 325V768L427 946H752L888 810V283L752 147H427Z" />
<glyph unicode="&#xff;" horiz-adv-x="1206" d="M316 0L110 206V1080H393V344L454 283H699L799 383V1080H1081V-194L875 -400H160V-118H718L799 -37V20L779 0H316ZM277 -263H786L944 -101V940V940V342L743 142H388L248 285V940V940V285L388 142H743L944 342V-101L786
-263H277V-263ZM696 1132V1342H908V1132H696ZM280 1132V1342H492V1132H280ZM385 1226H384V1246H385V1226ZM803 1226H802V1246H803V1226Z" />
<glyph unicode="&#x2013;" horiz-adv-x="962" d="M102 476V732H860V476H102ZM232 602H742V602H232V602Z" />
<glyph unicode="&#x2014;" horiz-adv-x="1141" d="M102 476V732H1039V476H102ZM232 602H921V602H232V602Z" />
<glyph unicode="&#x2018;" horiz-adv-x="558" d="M469 1400L355 942H84L243 1400H469ZM326 1294H327L259 1074H258L326 1294Z" />
<glyph unicode="&#x2019;" horiz-adv-x="558" d="M82 942L196 1400H467L308 942H82ZM225 1048H224L292 1268H293L225 1048Z" />
<glyph unicode="&#x201a;" horiz-adv-x="534" d="M162 -184L116 -12V270H418V-12L370 -184H162ZM270 -76H269V-14L270 138H271V-14L270 -76Z" />
<glyph unicode="&#x201c;" horiz-adv-x="848" d="M772 1400L658 942H387L546 1400H772ZM629 1294H630L562 1074H561L629 1294ZM452 1400L338 942H67L226 1400H452ZM309 1294H310L242 1074H241L309 1294Z" />
<glyph unicode="&#x201d;" horiz-adv-x="848" d="M337 942L451 1400H722L563 942H337ZM480 1048H479L547 1268H548L480 1048ZM402 942L516 1400H787L628 942H402ZM545 1048H544L612 1268H613L545 1048Z" />
<glyph unicode="&#x201e;" horiz-adv-x="909" d="M537 -184L491 -12V270H793V-12L745 -184H537ZM645 -76H644V-14L645 138H646V-14L645 -76ZM162 -184L116 -12V270H418V-12L370 -184H162ZM270 -76H269V-14L270 138H271V-14L270 -76Z" />
<glyph unicode="&#x2022;" horiz-adv-x="856" d="M311 346L82 562V854L311 1070H545L774 854V562L545 346H311ZM430 707V708L429 707V709H430V708L431 709V707H430Z" />
<glyph unicode="&#x2039;" horiz-adv-x="912" d="M645 216L197 466V759L645 1003V710L426 612V612L645 510V216ZM547 409V408L297 536V690L547 818V817L297 689V537L547 409Z" />
<glyph unicode="&#x203a;" horiz-adv-x="912" d="M267 216V510L486 612V612L267 710V1003L715 759V466L267 216ZM365 409L615 537V689L365 817V818L615 690V536L365 408V409Z" />
</font>
</defs>
</svg>
