<?xml version="1.0" standalone="no"?>
<!DOCTYPE svg PUBLIC "-//W3C//DTD SVG 1.1//EN" "http://www.w3.org/Graphics/SVG/1.1/DTD/svg11.dtd">
<svg xmlns="http://www.w3.org/2000/svg">
<defs >
<font id="Tourney" horiz-adv-x="1181" ><font-face
    font-family="Tourney Thin Thin"
    units-per-em="2000"
    panose-1="0 0 0 0 0 0 0 0 0 0"
    ascent="1800"
    descent="-400"
    alphabetic="0" />
<glyph unicode=" " horiz-adv-x="550" />
<glyph unicode="!" horiz-adv-x="558" d="M85 388L170 1079L245 1428H531L456 1079L247 388H85ZM117 416H227L429 1080L497 1400H267L199 1080L117 416ZM-73 0L-11 294H303L241 0H-73ZM-39 28H219L269 266H11L-39 28Z" />
<glyph unicode="&quot;" horiz-adv-x="860" d="M246 946L236 1118L296 1400H598L538 1118L454 946H246ZM273 974H439L512 1126L564 1372H318L266 1126L273 974ZM576 946L566 1118L626 1400H928L868 1118L784 946H576ZM603 974H769L842 1126L894 1372H648L596 1126L603
974Z" />
<glyph unicode="#" horiz-adv-x="1344" d="M82 0L177 298H15L67 544H255L350 846H187L239 1092H427L526 1400H811L712 1092H875L974 1400H1259L1160 1092H1327L1275 846H1083L988 544H1155L1103 298H909L814 0H530L625 298H461L366 0H82ZM501 517L614 873H835L723
517H501ZM540 544H704L798 846H635L540 544ZM120 27H347L441 325H662L569 27H795L889 325H1082L1123 517H949L1062 873H1254L1295 1065H1124L1222 1373H995L897 1065H676L774 1373H547L449 1065H261L220 873H387L274 517H88L47 325H214L120 27Z" />
<glyph unicode="$" horiz-adv-x="1282" d="M319 -96L339 0H189L27 206L81 458H364L339 344L387 283H697L771 344L807 514L759 575H317L155 781L243 1194L493 1400H637L657 1496H938L918 1400H1054L1216 1194L1162 942H879L904 1056L856 1117H571L496 1056L467
919L516 858H958L1120 652L1025 206L775 0H620L600 -96H319ZM352 -69H579L599 27H770L1000 217L1090 640L941 831H498L438 908L472 1067L564 1144H872L933 1067L912 969H1141L1187 1183L1037 1373H885L905 1469H678L658 1373H498L268 1183L185 792L334 602H776L837
525L796 333L703 256H371L310 333L331 431H102L56 217L206 27H372L352 -69Z" />
<glyph unicode="%" horiz-adv-x="1556" d="M35 0L1338 1400H1561L258 0H35ZM81 22H249L1516 1379H1348L81 22ZM249 709L145 841L236 1268L396 1400H753L857 1268L766 841L606 709H249ZM264 732H601L745 852L831 1257L738 1377H401L257 1257L171 852L264 732ZM360
866L320 917L378 1192L440 1243H642L683 1192L625 917L562 866H360ZM376 890H556L603 929L656 1180L626 1219H446L398 1180L345 929L376 890ZM786 -79L682 53L773 480L933 612H1290L1394 480L1303 53L1143 -79H786ZM801 -56H1138L1281 64L1367 469L1275 589H938L793
469L707 64L801 -56ZM896 78L856 129L914 404L976 455H1178L1219 404L1161 129L1098 78H896ZM912 102H1092L1140 141L1193 392L1162 431H982L935 392L882 141L912 102Z" />
<glyph unicode="&amp;" horiz-adv-x="1282" d="M199 -1L37 205L114 567L411 814L296 970L343 1193L593 1399H827L989 1193L942 970L757 809L882 634L898 708H1142L1061 327L764 -1H199ZM358 282H641L730 371L544 628L356 470L325 324L358 282ZM342 255L297 313L333
481L553 669L766 375L650 255H342ZM216 26H754L1036 335L1109 681H919L894 563V563L719 809L917 981L960 1182L810 1372H598L368 1182L325 981L449 813L139 556L66 216L216 26ZM616 959L553 1058L561 1093L623 1151H692L730 1093L722 1058L616 959ZM625 1002L697
1068L701 1083L674 1124H629L586 1083L582 1068L625 1002Z" />
<glyph unicode="&apos;" horiz-adv-x="534" d="M246 946L236 1118L296 1400H598L538 1118L454 946H246ZM273 974H439L512 1126L564 1372H318L266 1126L273 974Z" />
<glyph unicode="(" horiz-adv-x="784" d="M162 -400L-6 -186L306 1286L566 1500H953L583 1202L305 -102L549 -400H162ZM180 -372H486L275 -114L557 1214L878 1472H572L332 1274L24 -174L180 -372Z" />
<glyph unicode=")" horiz-adv-x="784" d="M226 -400H-161L209 -102L487 1202L243 1500H630L798 1286L486 -186L226 -400ZM220 -372L460 -174L768 1274L612 1472H306L517 1214L235 -114L-86 -372H220Z" />
<glyph unicode="*" horiz-adv-x="804" d="M227 896L251 1009L132 939L53 1116L213 1208L91 1304L243 1479L335 1407L361 1528H579L554 1408L675 1479L753 1304L589 1208L711 1116L556 939L468 1007L445 896H227ZM261 924H423L452 1060L556 978L670 1108L539 1208L715
1312L658 1440L515 1356L545 1500H383L352 1354L242 1440L131 1312L263 1208L90 1108L148 978L290 1062L261 924Z" />
<glyph unicode="+" horiz-adv-x="836" d="M223 288L263 476H75L129 732H317L357 920H613L573 732H761L707 476H519L479 288H223ZM257 316H457L497 504H685L727 704H539L579 892H379L339 704H151L109 504H297L257 316Z" />
<glyph unicode="," horiz-adv-x="558" d="M72 -160L168 0H120L182 294H484L426 19L263 -160H72ZM122 -132H254L400 28L450 266H204L154 28H216V28L122 -132Z" />
<glyph unicode="-" horiz-adv-x="836" d="M75 476L129 732H761L707 476H75ZM109 504H685L727 704H151L109 504Z" />
<glyph unicode="." horiz-adv-x="558" d="M91 0L153 294H467L405 0H91ZM125 28H383L433 266H175L125 28Z" />
<glyph unicode="/" horiz-adv-x="624" d="M-143 -201L469 1500H752L140 -201H-143ZM-106 -174H123L715 1473H486L-106 -174Z" />
<glyph unicode="0" horiz-adv-x="1125" d="M132 0L-30 206L180 1194L430 1400H993L1155 1194L945 206L695 0H132ZM370 283H637L711 344L824 878L370 283ZM334 256L340 284L839 936H864L736 333L643 256H334ZM149 27H690L920 217L1126 1183L976 1373H435L205 1183L-1
217L149 27ZM266 484L390 1067L482 1144H778L772 1116L290 484H266ZM305 544L742 1117H489L414 1056L305 544Z" />
<glyph unicode="1" horiz-adv-x="969" d="M-73 0L-13 283H253L420 1069L138 994L205 1305L585 1400H773L535 283H805L745 0H-73ZM-40 27H724L773 256H504L741 1373H583L228 1286L173 1031L455 1108L275 256H9L-40 27Z" />
<glyph unicode="2" horiz-adv-x="1080" d="M-74 0L49 577L299 783H680L754 844L799 1056L751 1117H507L433 1056L402 913H120L180 1194L430 1400H948L1110 1194L1006 706L756 500H375L302 439L268 283H916L856 0H-74ZM-42 27H836L885 256H236L277 450L370 527H751L983
717L1082 1183L931 1373H435L204 1183L152 940H381L408 1067L501 1144H767L828 1067L778 833L685 756H304L72 565L-42 27Z" />
<glyph unicode="3" horiz-adv-x="1073" d="M132 0L-30 206L28 477H310L281 344L329 283H566L640 344L673 497L625 558H409L469 840H684L760 907L792 1056L744 1117H507L433 1056L404 923H122L180 1194L430 1400H941L1103 1194L1011 763L935 700L984 635L893 206L643
0H132ZM149 27H638L869 217L956 623L895 698L988 775L1075 1183L924 1373H435L204 1183L154 950H383L408 1067L501 1144H760L821 1067L785 896L690 813H490L442 585H642L702 508L665 333L572 256H313L252 333L277 450H48L-2 217L149 27Z" />
<glyph unicode="4" horiz-adv-x="1088" d="M440 0L508 321H-31L39 648L590 1400H1021L852 604H1018L957 321H791L723 0H440ZM473 27H702L770 348H936L985 577H819L988 1373H599L64 641L2 348H541L473 27ZM307 577L324 655L654 1119H705L590 577H307ZM341 604H569L672
1091H663L350 649L341 604Z" />
<glyph unicode="5" horiz-adv-x="1086" d="M132 0L-30 206L24 458H306L281 344L329 283H579L653 344L717 643L669 704H429L322 608H55L224 1400H1155L1095 1117H446L412 957L448 987H866L1028 780L906 206L656 0H132ZM149 27H651L881 217L999 769L849 960H453L371
892V892L424 1144H1073L1122 1373H245L88 635H316L424 731H686L746 654L678 333L585 256H313L252 333L273 431H45L-1 217L149 27Z" />
<glyph unicode="6" horiz-adv-x="1082" d="M132 0L-30 206L180 1194L430 1400H944L1107 1194L1062 981H779L795 1056L747 1117H507L433 1056L403 918L440 948H854L1016 742L902 206L652 0H132ZM313 256L252 333L308 596L425 692H673L734 615L674 333L581 256H313ZM329
283H575L649 344L705 604L657 665H431L333 585L281 344L329 283ZM149 27H647L877 217L987 731L837 921H445L363 853L408 1067L501 1144H763L824 1067L811 1008H1040L1078 1183L927 1373H435L205 1183L-1 217L149 27Z" />
<glyph unicode="7" horiz-adv-x="984" d="M-65 0L698 965L731 1117H129L189 1400H1073L967 905L274 0H-65ZM-9 27H264L942 914L1040 1373H210L161 1144H763L723 958L-9 27Z" />
<glyph unicode="8" horiz-adv-x="1080" d="M132 0L-30 206L61 633L169 719L98 808L180 1194L430 1400H948L1110 1194L1028 808L919 717L991 633L900 206L650 0H132ZM313 256L252 333L293 527L387 604H653L713 527L672 333L579 256H313ZM149 27H645L876 217L963
625L884 717L1003 815L1082 1183L931 1373H435L204 1183L125 815L204 719L85 625L-2 217L149 27ZM435 833L376 915L408 1067L501 1144H767L828 1067L796 915L701 833H435ZM329 283H573L647 344L684 516L636 577H392L318 516L281 344L329 283ZM453 860H695L771 926L799
1056L751 1117H507L433 1056L405 926L453 860Z" />
<glyph unicode="9" horiz-adv-x="1082" d="M950 1400L1112 1194L902 206L652 0H138L-25 206L20 419H303L287 344L335 283H575L649 344L679 482L642 452H228L66 658L180 1194L430 1400H950ZM769 1144L830 1067L774 804L657 708H409L348 785L408 1067L501 1144H769ZM753
1117H507L433 1056L377 796L425 735H651L749 815L801 1056L753 1117ZM933 1373H435L205 1183L95 669L245 479H637L719 547L674 333L581 256H319L258 333L271 392H42L4 217L155 27H647L877 217L1083 1183L933 1373Z" />
<glyph unicode=":" horiz-adv-x="558" d="M151 787L213 1081H527L465 787H151ZM185 815H443L493 1053H235L185 815ZM239 0L301 294H615L553 0H239ZM273 28H531L581 266H323L273 28Z" />
<glyph unicode=";" horiz-adv-x="558" d="M205 -160L301 0H253L315 294H617L559 19L396 -160H205ZM255 -132H387L533 28L583 266H337L287 28H349V28L255 -132ZM151 787L213 1081H527L465 787H151ZM185 815H443L493 1053H235L185 815Z" />
<glyph unicode="&lt;" horiz-adv-x="826" d="M588 -2L75 417L148 763L840 1186L764 827L352 590V590L664 358L588 -2ZM571 53L632 340L321 570L330 610L740 844L801 1131L173 748L106 432L571 53Z" />
<glyph unicode="=" horiz-adv-x="836" d="M75 276L129 532H761L707 276H75ZM109 304H685L727 504H151L109 304ZM75 676L129 932H761L707 676H75ZM109 704H685L727 904H151L109 704Z" />
<glyph unicode="&gt;" horiz-adv-x="826" d="M-14 -2L62 358L474 590V590L162 827L238 1186L750 763L677 417L-14 -2ZM25 53L652 432L719 748L255 1131L194 844L504 610L495 570L86 340L25 53Z" />
<glyph unicode="?" horiz-adv-x="1100" d="M363 379L407 587L732 854L775 1056L726 1117H576L501 1056L476 942H194L248 1194L498 1400H924L1086 1194L988 735L664 467L646 379H363ZM307 27H556L605 256H356L307 27ZM275 0L335 283H636L576 0H275ZM396 406H625L640
479L964 746L1057 1183L907 1373H503L273 1183L227 969H456L477 1067L569 1144H743L803 1067L755 842L431 575L396 406Z" />
<glyph unicode="@" horiz-adv-x="1834" d="M151 -68L-18 146L222 1274L481 1488H1673L1842 1274L1678 502L1418 288H1164L1105 366L1010 288H606L438 502L528 928L788 1142H1212L1380 928L1316 626L1351 582H1357L1410 626L1517 1130L1467 1194H563L485 1130L307
290L357 226H1407L1345 -68H151ZM169 -40H1323L1373 198H339L276 278L460 1142L557 1222H1485L1548 1142L1436 614L1363 554H1333L1286 614L1350 916L1194 1114H794L554 916L468 514L624 316H1004L1113 406L1182 316H1412L1652 514L1811 1262L1655 1460H487L247
1262L13 158L169 -40ZM775 554L728 614L771 816L843 876H1043L1091 816L1048 614L975 554H775ZM793 582H969L1022 626L1060 804L1025 848H849L796 804L758 626L793 582Z" />
<glyph unicode="A" horiz-adv-x="1288" d="M-34 0L220 1194L470 1400H1116L1278 1194L1024 0H742L830 412H336L248 0H-34ZM-1 27H227L314 438H862L775 27H1004L1250 1183L1099 1373H475L245 1183L-1 27ZM396 694H890L967 1056L919 1117H547L473 1056L396 694ZM363
667L448 1067L541 1144H935L996 1067L911 667H363Z" />
<glyph unicode="B" horiz-adv-x="1273" d="M-24 0L274 1400H1056L1218 1194L1142 837L1034 748L1140 613L1053 206L803 0H-24ZM9 27H797L1028 217L1110 602L997 748V748L1118 848L1190 1183L1039 1373H295L9 27ZM287 256L360 600H777L859 496L824 333L731 256H287ZM408
829L475 1144H875L936 1067L910 944L769 829H408ZM319 283H725L799 344L829 485L760 573H381L319 283ZM441 856H764L885 955L907 1056L859 1117H497L441 856Z" />
<glyph unicode="C" horiz-adv-x="1244" d="M162 0L0 206L210 1194L460 1400H1081L1244 1194L1176 872H893L932 1056L884 1117H538L464 1056L312 344L360 283H706L780 344L819 528H1102L1034 206L783 0H162ZM179 27H778L1009 217L1070 501H841L805 333L712 256H344L283
333L439 1067L532 1144H900L961 1067L925 899H1154L1215 1183L1064 1373H465L235 1183L29 217L179 27Z" />
<glyph unicode="D" horiz-adv-x="1289" d="M-24 0L274 1400H1107L1269 1194L1059 206L809 0H-24ZM319 283H732L806 344L958 1056L910 1117H497L319 283ZM9 27H804L1034 217L1240 1183L1090 1373H295L9 27ZM287 256L475 1144H926L987 1067L831 333L738 256H287Z" />
<glyph unicode="E" horiz-adv-x="1140" d="M-34 0L264 1400H1174L1114 1117H487L429 848H987L927 565H369L309 283H936L876 0H-34ZM-1 27H855L904 256H277L348 592H906L955 821H397L465 1144H1092L1141 1373H285L-1 27Z" />
<glyph unicode="F" horiz-adv-x="1080" d="M-34 0L264 1400H1154L1094 1117H487L429 848H998L938 565H369L249 0H-34ZM-1 27H228L348 592H917L966 821H397L465 1144H1073L1122 1373H285L-1 27Z" />
<glyph unicode="G" horiz-adv-x="1278" d="M172 0L10 206L220 1194L470 1400H1106L1268 1194L1214 942H932L957 1056L909 1117H546L472 1054L321 343L368 283H731L805 344L835 482H558L618 764H1177L1058 206L808 0H172ZM189 27H803L1034 217L1145 737H639L590
508H867L830 333L737 256H354L291 330L448 1067L541 1144H925L986 1067L965 969H1194L1240 1183L1089 1373H475L245 1183L39 217L189 27Z" />
<glyph unicode="H" horiz-adv-x="1295" d="M-24 0L274 1400H557L439 848H919L1037 1400H1319L1021 0H739L859 565H379L259 0H-24ZM9 27H238L358 592H892L772 27H1000L1286 1373H1058L941 821H407L524 1373H295L9 27Z" />
<glyph unicode="I" horiz-adv-x="1059" d="M-34 0L26 283H300L478 1117H204L264 1400H1093L1033 1117H760L582 283H855L795 0H-34ZM-1 27H774L823 256H550L738 1144H1011L1060 1373H285L236 1144H510L322 256H48L-1 27Z" />
<glyph unicode="J" horiz-adv-x="1216" d="M173 0L10 206L86 563H369L322 344L370 283H668L742 344L907 1117H395L455 1400H1250L996 206L745 0H173ZM190 27H740L971 217L1217 1373H476L427 1144H939L767 333L674 256H354L293 333L336 537H107L39 217L190 27Z" />
<glyph unicode="K" horiz-adv-x="1298" d="M-24 0L274 1400H557L439 848H788L933 967L1025 1400H1308L1190 848L1020 708L1130 565L1010 0H727L822 447L728 565H379L259 0H-24ZM9 27H238L358 592H745L852 458L760 27H989L1101 554L982 708L1166 860L1275 1373H1046L957
956L794 821H407L524 1373H295L9 27Z" />
<glyph unicode="L" horiz-adv-x="1091" d="M-24 0L274 1400H557L319 283H927L867 0H-24ZM9 27H846L895 256H287L524 1373H295L9 27Z" />
<glyph unicode="M" horiz-adv-x="1741" d="M-24 0L274 1400H822L780 407H828L1208 1400H1765L1467 0H1184L1421 1116H1382L999 120H497L537 1116H496L259 0H-24ZM9 27H238L476 1145H565L525 147H979L1365 1145H1455L1217 27H1446L1732 1373H1227L846 379H753L792
1373H295L9 27Z" />
<glyph unicode="N" horiz-adv-x="1465" d="M9 27H238L476 1145H570L674 27H1170L1456 1373H1227L990 259H892L791 1373H295L9 27ZM-24 0L274 1400H817L916 287H969L1206 1400H1489L1191 0H648L547 1116H496L259 0H-24Z" />
<glyph unicode="O" horiz-adv-x="1306" d="M172 0L10 206L220 1194L470 1400H1134L1296 1194L1086 206L836 0H172ZM370 283H758L832 344L984 1056L936 1117H548L474 1056L322 344L370 283ZM189 27H830L1061 217L1267 1183L1116 1373H475L245 1183L39 217L189 27ZM354
256L293 333L449 1067L542 1144H952L1013 1067L857 333L764 256H354Z" />
<glyph unicode="P" horiz-adv-x="1258" d="M-24 0L274 1400H1105L1267 1194L1150 643L877 418H348L259 0H-24ZM9 27H238L327 445H872L1125 655L1238 1183L1088 1373H295L9 27ZM408 701H799L897 781L956 1056L908 1117H497L408 701ZM375 674L475 1144H924L985 1067L922
770L804 674H375Z" />
<glyph unicode="Q" horiz-adv-x="1342" d="M835 -242L645 0H172L10 206L220 1194L470 1400H1160L1322 1194L1112 206L965 85L1068 -50L835 -242ZM844 -204L1030 -50L925 83V83L1087 217L1292 1183L1143 1373H475L244 1183L39 217L189 27H662L844 -204ZM370 283H784L859
344L1010 1056L961 1117H547L473 1056L322 344L370 283ZM353 256L293 333L449 1067L542 1144H979L1039 1067L883 333L790 256H353Z" />
<glyph unicode="R" horiz-adv-x="1309" d="M-24 0L274 1400H1137L1299 1194L1207 760L1061 648L1155 515L1045 0H762L850 415L772 515H369L259 0H-24ZM9 27H238L347 542H789L880 427L795 27H1024L1125 504L1024 648L1182 771L1270 1183L1120 1373H295L9 27ZM429
798H871L945 860L987 1056L939 1117H497L429 798ZM396 771L475 1144H955L1016 1067L969 848L876 771H396Z" />
<glyph unicode="S" horiz-adv-x="1302" d="M172 0L10 206L64 458H347L322 344L370 283H754L828 344L861 498L813 559H297L135 765L226 1194L476 1400H1111L1273 1194L1219 942H936L961 1056L913 1117H554L479 1056L446 903L495 842H1011L1173 636L1082 206L832
0H172ZM189 27H827L1057 217L1144 625L995 817H478L418 891L455 1067L547 1144H929L990 1067L969 969H1198L1244 1183L1094 1373H481L251 1183L164 776L314 585H830L891 513L853 333L760 256H354L293 333L314 431H85L39 217L189 27Z" />
<glyph unicode="T" horiz-adv-x="1126" d="M273 0L511 1117H164L224 1400H1200L1140 1117H793L555 0H273ZM306 27H534L771 1144H1118L1167 1373H245L196 1144H543L306 27Z" />
<glyph unicode="U" horiz-adv-x="1328" d="M172 0L10 206L264 1400H547L322 344L370 283H780L854 344L1079 1400H1362L1108 206L858 0H172ZM189 27H853L1083 217L1329 1373H1100L879 333L786 256H354L293 333L514 1373H285L39 217L189 27Z" />
<glyph unicode="V" horiz-adv-x="1338" d="M352 0L56 376L274 1400H557L368 514L529 311H644L890 514L1079 1400H1362L1144 376L688 0H352ZM369 27H683L1119 387L1329 1373H1100L915 503L643 278H517L339 503L524 1373H295L85 387L369 27Z" />
<glyph unicode="W" horiz-adv-x="1738" d="M274 1400H557L320 284H364L741 1280H1243L1199 284H1242L1479 1400H1762L1464 0H913L960 993H912L537 0H-24L274 1400ZM295 1373L9 27H516L896 1021H987L944 27H1443L1729 1373H1500L1262 255H1171L1213 1253H761L379
255H286L524 1373H295Z" />
<glyph unicode="X" horiz-adv-x="1353" d="M-24 0L86 515L320 708L167 898L274 1400H557L476 1017L608 848H807L1012 1017L1094 1400H1377L1270 898L1039 708L1188 515L1079 0H796L880 397L747 565H548L344 397L259 0H-24ZM9 27H238L319 408L542 592H762L910 408L829
27H1058L1159 504L1001 709L1245 910L1344 1373H1115L1037 1006L814 821H594L446 1006L524 1373H295L197 910L358 707L111 504L9 27Z" />
<glyph unicode="Y" horiz-adv-x="1294" d="M356 0L450 443L132 825L254 1400H537L436 927L650 674H631L954 927L1055 1400H1338L1216 825L733 443L639 0H356ZM389 27H618L709 456L1191 839L1305 1373H1076L978 914L637 647H635L408 917L504 1373H275L161 835L479
452L389 27Z" />
<glyph unicode="Z" horiz-adv-x="1123" d="M-11 27H848L897 256H293L317 370L1049 970L1134 1373H295L246 1144H838L817 1042L76 436L-11 27ZM-44 0L52 448L790 1053L804 1117H214L274 1400H1167L1072 956L342 359L326 283H929L869 0H-44Z" />
<glyph unicode="[" horiz-adv-x="656" d="M-100 -400L304 1500H796L733 1206H535L257 -106H455L392 -400H-100ZM-66 -372H370L421 -134H223L513 1234H711L762 1472H326L-66 -372Z" />
<glyph unicode="\" horiz-adv-x="624" d="M389 -201H106L218 1500H501L389 -201ZM364 -174L472 1473H243L135 -174H364Z" />
<glyph unicode="]" horiz-adv-x="656" d="M358 -400H-134L-71 -106H127L405 1206H207L270 1500H762L358 -400ZM336 -372L728 1472H292L241 1234H439L149 -134H-49L-100 -372H336Z" />
<glyph unicode="^" horiz-adv-x="912" d="M14 980L360 1428H653L801 980H508L457 1199V1199L308 980H14ZM68 1008H296L471 1266V1266L532 1008H760L630 1400H370L68 1008Z" />
<glyph unicode="_" horiz-adv-x="1156" d="M75 -256L129 0H1081L1027 -256H75ZM109 -228H1005L1047 -28H151L109 -228Z" />
<glyph unicode="`" horiz-adv-x="688" d="M562 1112H315L87 1376H374L562 1112ZM504 1140L356 1348H152L332 1140H504Z" />
<glyph unicode="a" horiz-adv-x="1253" d="M201 0L39 206L100 491L349 697H893L902 736L854 797H179L239 1080H1052L1214 874L1072 206L822 0H201ZM382 256L321 333L334 394L404 452H868L843 333L750 256H382ZM218 27H817L1047 217L1185 864L1035 1054H261L213
825H871L931 748L915 671H355L124 480L68 217L218 27ZM399 283H744L818 344L835 424H409L358 382L350 344L399 283Z" />
<glyph unicode="b" horiz-adv-x="1166" d="M173 0L9 206L284 1500H567L474 1061L498 1080H964L1127 874L985 206L735 0H173ZM353 256L292 333L376 728L493 824H784L845 748L756 333L663 256H353ZM370 283H658L732 344L815 736L767 798H498L401 717L322 344L370
283ZM189 27H729L961 217L1098 863L947 1053H503L433 996L535 1473H306L39 217L189 27Z" />
<glyph unicode="c" horiz-adv-x="1250" d="M201 0L39 206L181 874L431 1080H1195L1135 797H509L435 736L351 344L399 283H1025L965 0H201ZM218 27H944L993 256H383L322 333L410 747L503 824H1113L1162 1053H436L206 863L68 217L218 27Z" />
<glyph unicode="d" horiz-adv-x="1256" d="M765 0H203L39 206L181 874L432 1080H898L914 1061L1007 1500H1290L1015 206L765 0ZM693 256H383L322 333L411 748L504 824H795L870 728L786 333L693 256ZM688 283L762 344L841 717L778 798H509L435 736L352 344L400
283H688ZM759 27L991 217L1258 1473H1029L927 996L881 1053H437L206 863L69 217L219 27H759Z" />
<glyph unicode="e" horiz-adv-x="1253" d="M1052 1080L1214 874L1153 589L904 383H360L351 344L399 283H1074L1014 0H201L39 206L181 874L431 1080H1052ZM871 824L932 747L919 686L849 628H385L410 747L503 824H871ZM1035 1053H436L206 863L68 216L218 26H992L1040
255H382L322 332L338 409H898L1129 600L1185 863L1035 1053ZM854 797H509L435 736L418 656H844L895 698L903 736L854 797Z" />
<glyph unicode="f" horiz-adv-x="950" d="M129 0L298 798H96L156 1080H358L404 1294L653 1500H1043L988 1237H719L665 1192L641 1080H954L894 798H581L412 0H129ZM161 27H390L560 824H873L921 1053H608L641 1204L713 1264H966L1011 1473H660L428 1283L379 1053H177L129
824H331L161 27Z" />
<glyph unicode="g" horiz-adv-x="1255" d="M-40 -400L20 -118H582L680 -37L692 20L668 0H201L39 206L181 874L430 1080H993L1156 874L928 -194L679 -400H-40ZM-8 -374H673L904 -183L1126 863L977 1054H436L205 863L68 217L217 27H662L733 85L704 -49L587 -145H41L-8
-374ZM382 256L322 333L410 748L503 825H813L874 748L794 371L653 256H382ZM399 283H648L769 383L844 737L795 798H508L434 737L351 344L399 283Z" />
<glyph unicode="h" horiz-adv-x="1166" d="M-34 0L284 1499H567L474 1061L497 1080H964L1126 874L941 0H658L814 736L766 798H498L401 717L249 0H-34ZM-2 27H227L376 728L493 824H783L844 748L690 27H919L1097 863L948 1053H503L433 996L535 1472H306L-2 27Z" />
<glyph unicode="i" horiz-adv-x="972" d="M486 1237L541 1500H863L808 1237H486ZM518 1264H786L831 1473H563L518 1264ZM-4 0L56 283H323L432 797H165L225 1080H774L605 283H872L812 0H-4ZM28 27H790L839 256H572L741 1053H246L198 824H465L344 256H77L28 27Z" />
<glyph unicode="j" horiz-adv-x="767" d="M-217 -400L-157 -118H94L191 -37L369 798H38L98 1080H712L441 -194L191 -400H-217ZM-184 -373H185L416 -183L679 1053H119L70 825H401L216 -48L99 -145H-136L-184 -373ZM462 1236L518 1500H801L745 1236H462ZM495 1263H724L768
1473H539L495 1263Z" />
<glyph unicode="k" horiz-adv-x="1139" d="M-24 0L274 1400H557L403 678H607L752 797L812 1080H1095L1009 678L839 538L949 395L865 0H582L641 277L547 395H343L259 0H-24ZM9 27H238L322 422H564L670 288L615 27H844L920 384L801 538L985 690L1062 1053H833L776
786L613 651H371L524 1373H295L9 27Z" />
<glyph unicode="l" horiz-adv-x="913" d="M-69 0L-9 283H261L459 1217H189L249 1500H801L543 283H813L753 0H-69ZM-37 27H731L780 256H510L769 1473H271L222 1244H492L282 256H12L-37 27Z" />
<glyph unicode="m" horiz-adv-x="1613" d="M-5 0L181 874L431 1080H818L900 978L1025 1080H1412L1574 874L1388 0H1105L1262 736L1214 797H1064L990 736L846 60H563L707 736L659 797H509L435 736L278 0H-5ZM28 27H257L410 747L503 824H675L736 747L596 87H825L965
747L1058 824H1230L1291 747L1138 27H1367L1545 863L1395 1053H1030L892 940L801 1053H436L206 863L28 27Z" />
<glyph unicode="n" horiz-adv-x="1180" d="M-5 0L181 874L431 1080H979L1141 874L955 0H673L830 736L782 797H508L434 736L277 0H-5ZM28 27H256L409 747L502 824H798L859 747L706 27H934L1112 863L962 1053H436L206 863L28 27Z" />
<glyph unicode="o" horiz-adv-x="1257" d="M201 0L39 206L181 874L431 1080H1056L1218 874L1076 206L826 0H201ZM218 27H821L1051 217L1189 863L1039 1053H436L206 863L68 217L218 27ZM383 256L322 333L410 747L503 824H874L935 747L847 333L754 256H383ZM399
283H748L822 344L906 736L858 797H509L435 736L351 344L399 283Z" />
<glyph unicode="p" horiz-adv-x="1188" d="M-115 -378L151 874L401 1080H987L1149 874L1007 206L757 0H267L253 20L168 -378H-115ZM-82 -351H147L239 85L284 27H752L983 217L1120 863L970 1053H406L176 863L-82 -351ZM389 283H680L754 344L837 736L789 798H479L405
736L326 363L389 283ZM372 256L296 352L380 748L474 824H806L866 748L778 333L685 256H372Z" />
<glyph unicode="q" horiz-adv-x="1278" d="M913 -378H630L715 20L691 0H201L39 206L181 874L431 1080H1017L1179 874L913 -378ZM892 -351L1150 863L1000 1053H436L206 863L69 217L218 27H686L755 85L663 -351H892ZM691 283L788 363L867 736L819 798H509L435 736L352
344L400 283H691ZM696 256H383L322 333L410 748L504 824H836L896 748L812 352L696 256Z" />
<glyph unicode="r" horiz-adv-x="1148" d="M-5 0L55 282H249L356 783L344 798H167L227 1080H480L531 1000L625 1080H1014L1186 861L923 649L817 797H703L629 736L532 281H726L666 0H-5ZM29 27H645L693 254H499L604 747L697 824H834L934 687L1149 862L997 1053H630L520
960L457 1053H248L200 825H362L385 794L270 254H77L29 27Z" />
<glyph unicode="s" horiz-adv-x="1203" d="M5 0L65 283H695L769 344L768 339L722 399H286L124 605L181 874L431 1080H1188L1128 797H508L434 736L435 742L483 681H917L1079 475L1022 206L772 0H5ZM38 27H768L997 217L1050 464L900 654H466L410 728L414 749L502
824H1106L1155 1053H437L206 863L153 616L303 426H737L793 351L789 331L701 256H87L38 27Z" />
<glyph unicode="t" horiz-adv-x="935" d="M179 0L349 798H100L160 1080H409L467 1354H750L692 1080H940L880 798H632L522 283H763L703 0H179ZM212 27H681L729 255H489L610 825H858L907 1053H659L717 1327H488L430 1053H181L132 825H381L212 27Z" />
<glyph unicode="u" horiz-adv-x="1202" d="M201 0L39 206L225 1080H508L351 344L399 283H693L767 344L924 1080H1207L1021 206L771 0H201ZM218 27H766L996 217L1174 1053H945L792 333L699 256H383L322 333L475 1053H246L68 217L218 27Z" />
<glyph unicode="v" horiz-adv-x="1200" d="M168 0L160 1080H469L459 284H636L961 1080H1270L806 0H168ZM194 27H792L1229 1054H980L656 261H432L441 1053H189L194 27Z" />
<glyph unicode="w" horiz-adv-x="1613" d="M225 1080H508L351 344L399 283H549L623 344L767 1020H1050L906 344L954 283H1104L1178 344L1335 1080H1618L1432 206L1182 0H795L714 102L588 0H201L39 206L225 1080ZM246 1053L68 217L218 27H583L722 140L812 27H1177L1407
217L1585 1053H1356L1203 333L1110 256H938L877 333L1017 993H788L648 333L555 256H383L322 333L475 1053H246Z" />
<glyph unicode="x" horiz-adv-x="1252" d="M-5 0L73 365L294 548L150 728L225 1080H508L459 847L582 688H732L924 847L974 1080H1257L1181 728L963 548L1104 365L1027 0H744L796 247L672 405H522L331 247L278 0H-5ZM28 27H257L307 258L516 432H687L826 258L777
27H1006L1075 354L925 550L1157 740L1224 1053H995L948 836L739 661H568L429 836L475 1053H246L180 740L333 547L98 354L28 27Z" />
<glyph unicode="y" horiz-adv-x="1251" d="M202 0L40 206L225 1080H508L352 344L400 283H645L766 383L914 1080H1196L925 -194L676 -400H-39L21 -118H579L677 -37L689 20L665 0H202ZM-6 -374H670L901 -183L1164 1054H936L791 371L650 256H383L323 333L476 1054H247L69
217L218 27H659L730 85L701 -49L584 -145H43L-6 -374Z" />
<glyph unicode="z" horiz-adv-x="1070" d="M28 27H824L873 256H365L381 329L964 685L1042 1053H265L216 824H711L697 754L105 388L28 27ZM-5 0L80 399L673 767L680 797H184L244 1080H1075L988 673L404 315L397 283H905L845 0H-5Z" />
<glyph unicode="{" horiz-adv-x="822" d="M238 362L82 -372H518L569 -134H371L474 351L346 551L559 751L661 1234H859L910 1472H474L318 740L117 551L238 362ZM504 362L405 -106H603L540 -400H48L208 351L80 551L293 751L452 1500H944L881 1206H683L584 740L383
551L504 362Z" />
<glyph unicode="|" horiz-adv-x="618" d="M-43 -428L367 1500H661L251 -428H-43ZM-9 -400H229L627 1472H389L-9 -400Z" />
<glyph unicode="}" horiz-adv-x="822" d="M504 362L705 551L584 740L740 1472H304L253 1234H451L349 751L476 551L264 351L161 -134H-37L-88 -372H348L504 362ZM238 362L439 551L318 740L417 1206H219L282 1500H774L615 751L742 551L530 351L370 -400H-122L-59
-106H139L238 362Z" />
<glyph unicode="~" horiz-adv-x="780" d="M86 509L115 645L250 757H428L472 701H490L502 757H694L665 621L530 509H352L308 565H290L278 509H86ZM120 537H256L264 577L283 593H325L370 537H524L640 633L660 729H524L516 689L497 673H455L410 729H256L140 633L120 537Z" />
<glyph unicode="&#xa0;" horiz-adv-x="550" />
<glyph unicode="&#xa1;" horiz-adv-x="558" d="M265 1012H427L342 321L268 -28H-18L56 321L265 1012ZM285 984L84 320L16 0H246L314 320L395 984H285ZM274 1400H588L525 1106H211L274 1400ZM296 1372L245 1134H503L554 1372H296Z" />
<glyph unicode="&#xa2;" horiz-adv-x="1178" d="M291 0L324 154H232L70 360L214 1040L464 1246H556L589 1400H893L860 1246H948L1110 1040L1061 810H778L798 902L750 963H542L468 902L382 498L430 437H638L712 498L732 590H1015L966 360L716 154H628L595 0H291ZM324
27H574L607 181H711L941 371L982 563H753L737 487L643 410H413L353 487L443 913L537 990H767L827 913L811 837H1040L1081 1029L931 1219H827L860 1373H610L577 1219H469L239 1029L99 371L249 181H357L324 27Z" />
<glyph unicode="&#xa3;" horiz-adv-x="1204" d="M-74 0L-14 283H106L180 344L223 546H64L119 802H278L361 1194L611 1400H1238L1178 1117H689L615 1056L561 802H751L696 546H506L450 283H996L936 0H-74ZM-41 27H915L964 256H418V256L485 574H674L717 774H528L590
1067L685 1144H1156L1205 1373H615L386 1184L299 774H141L98 574H256L205 334L112 256H8L-41 27Z" />
<glyph unicode="&#xa4;" horiz-adv-x="1240" d="M48 8L-94 189L85 337L74 351L185 874L202 888L82 1040L302 1221L422 1069L435 1080H993L1003 1067L1190 1221L1332 1040L1146 886L1155 874L1044 351L1034 343L1156 189L936 8L815 162L794 145H236L228 156L48
8ZM434 428H716L790 489L843 736L795 797H513L439 736L386 489L434 428ZM59 51L233 194L254 172H789L824 197L947 49L1117 190L997 341L1019 361L1125 860L1108 886L1298 1040L1183 1184L993 1027L970 1053H439L414 1033L293 1181L122 1040L242 888L209 861L104
366L125 337L-50 190L59 51ZM419 401L357 478L414 747L509 824H812L872 747L815 478L722 401H419Z" />
<glyph unicode="&#xa5;" horiz-adv-x="1220" d="M319 0L334 70H161L213 316H386L393 347H220L267 569L116 750L254 1400H537L420 852L598 644L864 852L981 1400H1264L1126 750L900 571L852 347H676L669 316H845L793 70H617L602 0H319ZM352 27H581L596 97H772L813
289H637L654 370H830L874 579H870L1101 762L1231 1373H1002L889 840L591 608H589L391 840L504 1373H275L145 762L297 579H296L252 370H425L408 289H236L195 97H367L352 27Z" />
<glyph unicode="&#xa6;" horiz-adv-x="619" d="M190 665L368 1500H662L484 665H190ZM223 692H463L629 1473H389L223 692ZM-36 -400L142 435H436L258 -400H-36ZM-3 -373H237L403 408H163L-3 -373Z" />
<glyph unicode="&#xa7;" horiz-adv-x="1166" d="M-54 -189L6 94H569L641 153L596 210H227L65 416L122 685L200 749L149 812L206 1081L456 1287H1146L1086 1004H533L462 946L508 888H875L1037 682L980 413L904 350L953 286L896 17L646 -189H-54ZM-21 -162H642L871
28L924 275L865 349L955 424L1008 671L858 861H491L435 935L440 956L527 1031H1064L1113 1260H462L231 1070L178 823L237 748L147 674L94 427L244 237H611L667 162L662 142L575 67H28L-21 -162ZM424 492H656L725 549L680 606H446L378 550L424 492ZM407 465L351
539L355 560L441 633H695L751 558L747 538L661 465H407Z" />
<glyph unicode="&#xa8;" horiz-adv-x="944" d="M552 1132L596 1342H808L764 1132H552ZM136 1132L180 1342H392L348 1132H136ZM170 1160H326L358 1314H202L170 1160ZM586 1160H742L774 1314H618L586 1160Z" />
<glyph unicode="&#xa9;" horiz-adv-x="1618" d="M209 -28L41 186L259 1214L519 1428H1429L1597 1214L1379 186L1119 -28H209ZM227 0H1113L1353 198L1567 1202L1411 1400H525L285 1202L71 198L227 0ZM378 238L315 318L477 1082L574 1162H1260L1323 1082L1161 318L1064
238H378ZM563 328H919L1096 476L1128 624H952L939 564L868 504H690L643 564L700 832L773 892H951L996 832L984 774H1160L1191 922L1076 1068H720L543 922L448 476L563 328ZM396 266H1058L1135 330L1293 1070L1242 1134H580L503 1070L345 330L396 266ZM545 300L418
464L518 934L714 1096H1094L1222 934L1182 746H950L966 820L933 864H779L726 820L674 576L708 532H862L914 576L930 652H1162L1122 464L925 300H545Z" />
<glyph unicode="&#xaa;" horiz-adv-x="885" d="M280 717L176 850L215 1033L376 1166H726L732 1191L701 1230H266L305 1412H828L933 1280L841 850L680 717H280ZM397 882L358 931L366 971L411 1008H710L694 931L634 882H397ZM291 734H677L825 857L914 1273L817 1396H319L288
1248H712L750 1199L740 1149H380L231 1026L195 857L291 734ZM408 899H630L678 939L689 990H414L382 963L376 939L408 899Z" />
<glyph unicode="&#xab;" horiz-adv-x="1200" d="M979 216L584 466L647 759L1147 1003L1084 710L845 612V612L1042 510L979 216ZM962 264L1010 492L778 612V612L1060 728L1109 956L671 742L616 482L962 264ZM737 216L342 466L405 759L905 1003L842 710L603 612V612L800
510L737 216ZM720 264L768 492L536 612V612L818 728L867 956L429 742L374 482L720 264Z" />
<glyph unicode="&#xac;" horiz-adv-x="1128" d="M1085 883L969 335H686L742 600H101L161 883H1085ZM1053 856H183L134 627H775L718 362H947L1053 856Z" />
<glyph unicode="&#xad;" horiz-adv-x="836" d="M75 476L129 732H761L707 476H75ZM109 504H685L727 704H151L109 504Z" />
<glyph unicode="&#xae;" horiz-adv-x="1382" d="M212 262L44 476L200 1214L460 1428H1170L1338 1214L1182 476L922 262H212ZM230 290H916L1156 488L1308 1202L1152 1400H466L226 1202L74 488L230 290ZM378 518L315 598L421 1092L518 1172H1004L1067 1092L961 598L864
518H378ZM396 546H858L936 610L1036 1080L986 1144H524L446 1080L346 610L396 546ZM390 602L463 946L660 1108H870L1000 942L779 784L707 876H725L671 832L622 602H390ZM424 630H600L646 844L719 904H725L789 822L959 944L852 1080H666L489 934L424 630Z" />
<glyph unicode="&#xaf;" horiz-adv-x="836" d="M75 1119L129 1375H761L707 1119H75ZM109 1147H685L727 1347H151L109 1147Z" />
<glyph unicode="&#xb0;" horiz-adv-x="884" d="M278 709L174 841L265 1268L425 1400H825L929 1268L838 841L678 709H278ZM289 726H674L822 848L910 1261L814 1383H428L281 1261L193 848L289 726ZM394 873L355 922L411 1187L471 1236H708L747 1187L691 922L632
873H394ZM404 890H628L675 929L729 1180L698 1219H475L427 1180L374 929L404 890Z" />
<glyph unicode="&#xb1;" horiz-adv-x="940" d="M276 538L316 726H128L182 982H370L410 1170H666L626 982H814L760 726H572L532 538H276ZM310 566H510L550 754H738L780 954H592L632 1142H432L392 954H204L162 754H350L310 566ZM128 235L182 491H814L760 235H128ZM162
263H738L780 463H204L162 263Z" />
<glyph unicode="&#xb2;" horiz-adv-x="513" d="M103 830L154 1068L260 1153H391L415 1173L433 1257L417 1277H342L318 1257L305 1195H181L207 1315L313 1400H499L569 1316L526 1117L420 1030H290L265 1009L254 953H491L464 830H103ZM123 846H453L472 937H234L251
1015L288 1046H417L512 1124L551 1308L489 1384H316L221 1308L200 1211H292L303 1263L340 1293H428L449 1263L429 1166L394 1137H264L169 1061L123 846Z" />
<glyph unicode="&#xb3;" horiz-adv-x="511" d="M190 830L122 917L146 1031H269L257 973L272 953H348L372 973L385 1034L369 1053H289L315 1176H395L420 1198L432 1257L416 1277H340L317 1257L305 1199H181L205 1313L312 1400H498L566 1313L529 1140L499 1115L518
1089L482 917L376 830H190ZM201 846H374L468 924L502 1082L478 1114L516 1147L550 1306L488 1384H315L220 1306L200 1215H292L303 1264L338 1293H427L449 1264L433 1191L399 1160H327L307 1069H379L401 1040L385 966L351 937H262L239 966L250 1015H158L138 924L201
846Z" />
<glyph unicode="&#xb4;" horiz-adv-x="688" d="M54 1112L354 1376H641L301 1112H54ZM124 1140H296L564 1348H360L124 1140Z" />
<glyph unicode="&#xb5;" horiz-adv-x="1142" d="M-95 -428L225 1080H508L352 344L400 283H634L708 344L864 1080H1147L961 206L712 0H279L188 -428H-95ZM-62 -400H167L257 27H296H706L937 217L1115 1053H886L732 333L639 256H383L322 333L476 1053H247L-62 -400Z" />
<glyph unicode="&#xb6;" horiz-adv-x="1335" d="M372 -234L511 418H290L113 643L230 1194L480 1400H1369L1021 -234H738L1026 1118H944L656 -234H372ZM406 -206H634L922 1146H1060L772 -206H999L1335 1372H485L255 1183L142 655L307 446H517L529 501L654 1091L666
1146H694L406 -206Z" />
<glyph unicode="&#xb7;" horiz-adv-x="558" d="M91 588L153 882H467L405 588H91ZM125 616H383L433 854H175L125 616Z" />
<glyph unicode="&#xb8;" horiz-adv-x="638" d="M40 -349L73 -192H278L315 -160L292 -130H158L191 27H435L558 -160L355 -349H40ZM72 -322H344L521 -160L412 0H212L190 -103H307L348 -160L283 -219H94L72 -322Z" />
<glyph unicode="&#xb9;" horiz-adv-x="467" d="M103 830L130 953H225L289 1254L188 1226L217 1362L363 1400H444L349 953H446L419 830H103ZM123 846H407L426 937H329L424 1384H361L230 1350L208 1247L309 1277L237 937H142L123 846Z" />
<glyph unicode="&#xba;" horiz-adv-x="884" d="M278 709L174 841L265 1268L425 1400H825L929 1268L838 841L678 709H278ZM289 726H674L822 848L910 1261L814 1383H428L281 1261L193 848L289 726ZM394 873L355 922L411 1187L471 1236H708L747 1187L691 922L632
873H394ZM404 890H628L675 929L729 1180L698 1219H475L427 1180L374 929L404 890Z" />
<glyph unicode="&#xbb;" horiz-adv-x="1200" d="M53 216L116 510L357 612V612L158 710L221 1003L617 759L554 466L53 216ZM92 264L530 482L585 742L239 956L190 728L424 612V612L140 492L92 264ZM551 216L614 510L855 612V612L656 710L719 1003L1115 759L1052
466L551 216ZM590 264L1028 482L1083 742L737 956L688 728L922 612V612L638 492L590 264Z" />
<glyph unicode="&#xbc;" horiz-adv-x="1022" d="M103 830L130 953H225L289 1254L188 1226L217 1362L363 1400H444L349 953H446L419 830H103ZM123 846H407L426 937H329L424 1384H361L230 1350L208 1247L309 1277L237 937H142L123 846ZM-87 0L953 1400H1107L68 0H-87ZM-56
17H64L1080 1385H960L-56 17ZM642 0L670 128H482L511 264L691 570H887L819 252H877L851 128H793L765 0H642ZM642 252H696L735 436H738L645 265L642 252ZM661 16H753L780 144H838L858 236H800L867 554H698L525 256L501 144H688L661 16ZM623 236L629 268L732 453H754L708
236H623Z" />
<glyph unicode="&#xbd;" horiz-adv-x="1066" d="M103 830L130 953H225L289 1254L188 1226L217 1362L363 1400H444L349 953H446L419 830H103ZM123 846H407L426 937H329L424 1384H361L230 1350L208 1247L309 1277L237 937H142L123 846ZM-87 0L953 1400H1107L68 0H-87ZM-56
17H64L1080 1385H960L-56 17ZM480 0L531 238L637 323H768L792 343L810 427L794 447H719L695 427L682 365H558L584 485L690 570H876L946 486L903 287L797 200H667L642 179L631 123H868L841 0H480ZM500 16H830L849 107H611L628 185L665 216H794L889 294L928 478L866
554H693L598 478L577 381H669L680 433L717 463H805L826 433L806 336L771 307H641L546 231L500 16Z" />
<glyph unicode="&#xbe;" horiz-adv-x="1066" d="M190 830L122 917L146 1031H269L257 973L272 953H348L372 973L385 1034L369 1053H289L315 1176H395L420 1198L432 1257L416 1277H340L317 1257L305 1199H181L205 1313L312 1400H498L566 1313L529 1140L499 1115L518
1089L482 917L376 830H190ZM201 846H374L468 924L502 1082L478 1114L516 1147L550 1306L488 1384H315L220 1306L200 1215H292L303 1264L338 1293H427L449 1264L433 1191L399 1160H327L307 1069H379L401 1040L385 966L351 937H262L239 966L250 1015H158L138 924L201
846ZM-43 0L997 1400H1151L112 0H-43ZM-12 17H108L1124 1385H1004L-12 17ZM686 0L714 128H526L555 264L735 570H931L863 252H921L895 128H837L809 0H686ZM686 252H740L779 436H782L689 265L686 252ZM705 16H797L824 144H882L902 236H844L911 554H742L569 256L545
144H732L705 16ZM667 236L673 268L776 453H798L752 236H667Z" />
<glyph unicode="&#xbf;" horiz-adv-x="1100" d="M755 1021L711 813L386 546L343 344L392 283H542L617 344L642 458H924L870 206L620 0H194L32 206L130 665L454 933L472 1021H755ZM811 1373H562L513 1144H762L811 1373ZM843 1400L783 1117H482L542 1400H843ZM722
994H493L478 921L154 654L61 217L211 27H615L845 217L891 431H662L641 333L549 256H375L315 333L363 558L687 825L722 994Z" />
<glyph unicode="&#xc0;" horiz-adv-x="1288" d="M-34 0L220 1194L470 1400H1116L1278 1194L1024 0H742L830 412H336L248 0H-34ZM-1 27H227L314 438H862L775 27H1004L1250 1183L1099 1373H475L245 1183L-1 27ZM396 694H890L967 1056L919 1117H547L473 1056L396
694ZM363 667L448 1067L541 1144H935L996 1067L911 667H363ZM923 1432H676L448 1696H735L923 1432ZM865 1460L717 1668H513L693 1460H865Z" />
<glyph unicode="&#xc1;" horiz-adv-x="1311" d="M-94 0L573 1400H1081L1157 0H832L822 296H366L232 0H-94ZM-50 27H213L348 324H852L863 27H1125L1053 1373H589L-50 27ZM434 524L711 1145H831L852 524H434ZM477 552H821L803 1116H726L477 552ZM719 1432L1019 1696H1306L966
1432H719ZM789 1460H961L1229 1668H1025L789 1460Z" />
<glyph unicode="&#xc2;" horiz-adv-x="1311" d="M-94 0L573 1400H1081L1157 0H832L822 296H366L232 0H-94ZM-50 27H213L348 324H852L863 27H1125L1053 1373H589L-50 27ZM434 524L711 1145H831L852 524H434ZM477 552H821L803 1116H726L477 552ZM765 1716H1017L1181
1432H904L854 1540L758 1432H481L765 1716ZM773 1688L545 1460H749L864 1590V1590L925 1460H1129L997 1688H773Z" />
<glyph unicode="&#xc3;" horiz-adv-x="1288" d="M-34 0L220 1194L470 1400H1116L1278 1194L1024 0H742L830 412H336L248 0H-34ZM-1 27H227L314 438H862L775 27H1004L1250 1183L1099 1373H475L245 1183L-1 27ZM396 694H890L967 1056L919 1117H547L473 1056L396
694ZM363 667L448 1067L541 1144H935L996 1067L911 667H363ZM524 1432L553 1568L688 1680H866L910 1624H928L940 1680H1132L1103 1544L968 1432H790L746 1488H728L716 1432H524ZM558 1460H694L702 1500L721 1516H763L808 1460H962L1078 1556L1098 1652H962L954
1612L935 1596H893L848 1652H694L578 1556L558 1460Z" />
<glyph unicode="&#xc4;" horiz-adv-x="1288" d="M-34 0L220 1194L470 1400H1116L1278 1194L1024 0H742L830 412H336L248 0H-34ZM-1 27H227L314 438H862L775 27H1004L1250 1183L1099 1373H475L245 1183L-1 27ZM396 694H890L967 1056L919 1117H547L473 1056L396
694ZM363 667L448 1067L541 1144H935L996 1067L911 667H363ZM905 1452L949 1662H1161L1117 1452H905ZM489 1452L533 1662H745L701 1452H489ZM523 1480H679L711 1634H555L523 1480ZM939 1480H1095L1127 1634H971L939 1480Z" />
<glyph unicode="&#xc5;" horiz-adv-x="1288" d="M-34 0L220 1194L470 1400H1116L1278 1194L1024 0H742L830 412H336L248 0H-34ZM-1 27H227L314 438H862L775 27H1004L1250 1183L1099 1373H475L245 1183L-1 27ZM396 694H890L967 1056L919 1117H547L473 1056L396
694ZM363 667L448 1067L541 1144H935L996 1067L911 667H363ZM710 1430L632 1527L669 1701L788 1799H971L1048 1701L1011 1527L893 1430H710ZM729 1458H887L987 1542L1018 1689L953 1771H795L695 1689L664 1542L729 1458ZM813 1577L797 1597L805 1633L829 1652H869L884
1633L876 1597L853 1577H813ZM829 1599H846L854 1606L858 1623L852 1630H835L827 1623L823 1606L829 1599Z" />
<glyph unicode="&#xc6;" horiz-adv-x="1934" d="M-119 0L774 1400H1921L1861 1117H1311L1253 848H1765L1705 565H1193L1133 283H1683L1623 0H790L878 412H449L188 0H-119ZM-73 27H175L435 438H910L823 27H1602L1651 256H1101L1172 592H1684L1733 821H1221L1289
1144H1839L1888 1373H786L-73 27ZM579 667L882 1144H1060L959 667H579ZM625 694H938L1028 1117H895L625 694Z" />
<glyph unicode="&#xc7;" horiz-adv-x="1211" d="M231 -349L264 -192H469L506 -160L483 -130H349L376 0H219L57 206L267 1194L517 1400H1064L1227 1194L1159 872H876L915 1056L867 1117H595L521 1056L369 344L417 283H689L763 344L803 528H1086L1017 206L766 0H644L749
-160L546 -349H231ZM263 -322H535L712 -160L604 0H603L609 27H761L992 217L1053 501H824L788 333L695 256H401L340 333L496 1067L589 1144H883L944 1067L908 899H1137L1198 1183L1047 1373H522L292 1183L86 217L236 27H409L381 -103H498L539 -160L474 -219H285L263
-322Z" />
<glyph unicode="&#xc8;" horiz-adv-x="1140" d="M-34 0L264 1400H1174L1114 1117H487L429 848H987L927 565H369L309 283H936L876 0H-34ZM-1 27H855L904 256H277L348 592H906L955 821H397L465 1144H1092L1141 1373H285L-1 27ZM840 1432H593L365 1696H652L840 1432ZM782
1460L634 1668H430L610 1460H782Z" />
<glyph unicode="&#xc9;" horiz-adv-x="1140" d="M-34 0L264 1400H1174L1114 1117H487L429 848H987L927 565H369L309 283H936L876 0H-34ZM-1 27H855L904 256H277L348 592H906L955 821H397L465 1144H1092L1141 1373H285L-1 27ZM601 1432L901 1696H1188L848 1432H601ZM671
1460H843L1111 1668H907L671 1460Z" />
<glyph unicode="&#xca;" horiz-adv-x="1140" d="M-34 0L264 1400H1174L1114 1117H487L429 848H987L927 565H369L309 283H936L876 0H-34ZM-1 27H855L904 256H277L348 592H906L955 821H397L465 1144H1092L1141 1373H285L-1 27ZM647 1716H899L1063 1432H786L736 1540L640
1432H363L647 1716ZM655 1688L427 1460H631L746 1590V1590L807 1460H1011L879 1688H655Z" />
<glyph unicode="&#xcb;" horiz-adv-x="1140" d="M-34 0L264 1400H1174L1114 1117H487L429 848H987L927 565H369L309 283H936L876 0H-34ZM-1 27H855L904 256H277L348 592H906L955 821H397L465 1144H1092L1141 1373H285L-1 27ZM822 1452L866 1662H1078L1034 1452H822ZM406
1452L450 1662H662L618 1452H406ZM440 1480H596L628 1634H472L440 1480ZM856 1480H1012L1044 1634H888L856 1480Z" />
<glyph unicode="&#xcc;" horiz-adv-x="1059" d="M-34 0L26 283H300L478 1117H204L264 1400H1093L1033 1117H760L582 283H855L795 0H-34ZM-1 27H774L823 256H550L738 1144H1011L1060 1373H285L236 1144H510L322 256H48L-1 27ZM808 1432H561L333 1696H620L808 1432ZM750
1460L602 1668H398L578 1460H750Z" />
<glyph unicode="&#xcd;" horiz-adv-x="1059" d="M-34 0L26 283H300L478 1117H204L264 1400H1093L1033 1117H760L582 283H855L795 0H-34ZM-1 27H774L823 256H550L738 1144H1011L1060 1373H285L236 1144H510L322 256H48L-1 27ZM569 1432L869 1696H1156L816 1432H569ZM639
1460H811L1079 1668H875L639 1460Z" />
<glyph unicode="&#xce;" horiz-adv-x="1059" d="M-34 0L26 283H300L478 1117H204L264 1400H1093L1033 1117H760L582 283H855L795 0H-34ZM-1 27H774L823 256H550L738 1144H1011L1060 1373H285L236 1144H510L322 256H48L-1 27ZM615 1716H867L1031 1432H754L704 1540L608
1432H331L615 1716ZM623 1688L395 1460H599L714 1590V1590L775 1460H979L847 1688H623Z" />
<glyph unicode="&#xcf;" horiz-adv-x="1059" d="M-34 0L26 283H300L478 1117H204L264 1400H1093L1033 1117H760L582 283H855L795 0H-34ZM-1 27H774L823 256H550L738 1144H1011L1060 1373H285L236 1144H510L322 256H48L-1 27ZM790 1452L834 1662H1046L1002 1452H790ZM374
1452L418 1662H630L586 1452H374ZM408 1480H564L596 1634H440L408 1480ZM824 1480H980L1012 1634H856L824 1480Z" />
<glyph unicode="&#xd0;" horiz-adv-x="1223" d="M29 0L149 562H-24L30 818H203L327 1400H1086L1248 1194L1038 206L788 0H29ZM62 27H783L1013 217L1219 1183L1069 1373H348L224 791H51L8 589H181L62 27ZM340 256L410 589H666L709 791H453L528 1144H905L966 1067L810
333L717 256H340ZM372 283H711L785 344L937 1056L889 1117H550L486 818H742L688 562H432L372 283Z" />
<glyph unicode="&#xd1;" horiz-adv-x="1465" d="M9 27H238L476 1145H570L674 27H1170L1456 1373H1227L990 259H892L791 1373H295L9 27ZM-24 0L274 1400H817L916 287H969L1206 1400H1489L1191 0H648L547 1116H496L259 0H-24ZM642 1432L671 1568L806 1680H984L1028
1624H1046L1058 1680H1250L1221 1544L1086 1432H908L864 1488H846L834 1432H642ZM676 1460H812L820 1500L839 1516H881L926 1460H1080L1196 1556L1216 1652H1080L1072 1612L1053 1596H1011L966 1652H812L696 1556L676 1460Z" />
<glyph unicode="&#xd2;" horiz-adv-x="1306" d="M172 0L10 206L220 1194L470 1400H1134L1296 1194L1086 206L836 0H172ZM370 283H758L832 344L984 1056L936 1117H548L474 1056L322 344L370 283ZM189 27H830L1061 217L1267 1183L1116 1373H475L245 1183L39 217L189
27ZM354 256L293 333L449 1067L542 1144H952L1013 1067L857 333L764 256H354ZM931 1432H684L456 1696H743L931 1432ZM873 1460L725 1668H521L701 1460H873Z" />
<glyph unicode="&#xd3;" horiz-adv-x="1306" d="M172 0L10 206L220 1194L470 1400H1134L1296 1194L1086 206L836 0H172ZM370 283H758L832 344L984 1056L936 1117H548L474 1056L322 344L370 283ZM189 27H830L1061 217L1267 1183L1116 1373H475L245 1183L39 217L189
27ZM354 256L293 333L449 1067L542 1144H952L1013 1067L857 333L764 256H354ZM692 1432L992 1696H1279L939 1432H692ZM762 1460H934L1202 1668H998L762 1460Z" />
<glyph unicode="&#xd4;" horiz-adv-x="1306" d="M172 0L10 206L220 1194L470 1400H1134L1296 1194L1086 206L836 0H172ZM370 283H758L832 344L984 1056L936 1117H548L474 1056L322 344L370 283ZM189 27H830L1061 217L1267 1183L1116 1373H475L245 1183L39 217L189
27ZM354 256L293 333L449 1067L542 1144H952L1013 1067L857 333L764 256H354ZM738 1716H990L1154 1432H877L827 1540L731 1432H454L738 1716ZM746 1688L518 1460H722L837 1590V1590L898 1460H1102L970 1688H746Z" />
<glyph unicode="&#xd5;" horiz-adv-x="1306" d="M172 0L10 206L220 1194L470 1400H1134L1296 1194L1086 206L836 0H172ZM370 283H758L832 344L984 1056L936 1117H548L474 1056L322 344L370 283ZM189 27H830L1061 217L1267 1183L1116 1373H475L245 1183L39 217L189
27ZM354 256L293 333L449 1067L542 1144H952L1013 1067L857 333L764 256H354ZM532 1432L561 1568L696 1680H874L918 1624H936L948 1680H1140L1111 1544L976 1432H798L754 1488H736L724 1432H532ZM566 1460H702L710 1500L729 1516H771L816 1460H970L1086 1556L1106
1652H970L962 1612L943 1596H901L856 1652H702L586 1556L566 1460Z" />
<glyph unicode="&#xd6;" horiz-adv-x="1306" d="M172 0L10 206L220 1194L470 1400H1134L1296 1194L1086 206L836 0H172ZM370 283H758L832 344L984 1056L936 1117H548L474 1056L322 344L370 283ZM189 27H830L1061 217L1267 1183L1116 1373H475L245 1183L39 217L189
27ZM354 256L293 333L449 1067L542 1144H952L1013 1067L857 333L764 256H354ZM913 1452L957 1662H1169L1125 1452H913ZM497 1452L541 1662H753L709 1452H497ZM531 1480H687L719 1634H563L531 1480ZM947 1480H1103L1135 1634H979L947 1480Z" />
<glyph unicode="&#xd7;" horiz-adv-x="836" d="M486 278L381 411L220 278L77 459L239 592L134 724L353 905L458 773L619 905L762 724L601 592L705 459L486 278ZM494 317L666 459L561 592L722 724L611 866L450 733L345 866L173 724L278 592L117 459L228 317L389
450L494 317Z" />
<glyph unicode="&#xd8;" horiz-adv-x="1390" d="M143 -53L-24 86L71 188L55 206L265 1194L515 1400H1159L1172 1384L1246 1465L1414 1328L1307 1211L1321 1194L1111 206L861 0H217L206 15L143 -53ZM452 283H783L857 344L962 837L452 283ZM440 256H391L1008 927L998
879L882 333L788 256H440ZM145 -15L212 58L235 27H856L1086 218L1291 1183L1270 1208L1375 1321L1245 1427L1166 1341L1142 1373H521L289 1183L84 218L106 191L16 93L145 -15ZM367 469L377 520L494 1068L587 1144H939H987L367 469ZM413 560L926 1118H594L518 1056L413
560Z" />
<glyph unicode="&#xd9;" horiz-adv-x="1328" d="M172 0L10 206L264 1400H547L322 344L370 283H780L854 344L1079 1400H1362L1108 206L858 0H172ZM189 27H853L1083 217L1329 1373H1100L879 333L786 256H354L293 333L514 1373H285L39 217L189 27ZM943 1432H696L468
1696H755L943 1432ZM885 1460L737 1668H533L713 1460H885Z" />
<glyph unicode="&#xda;" horiz-adv-x="1328" d="M172 0L10 206L264 1400H547L322 344L370 283H780L854 344L1079 1400H1362L1108 206L858 0H172ZM189 27H853L1083 217L1329 1373H1100L879 333L786 256H354L293 333L514 1373H285L39 217L189 27ZM704 1432L1004
1696H1291L951 1432H704ZM774 1460H946L1214 1668H1010L774 1460Z" />
<glyph unicode="&#xdb;" horiz-adv-x="1328" d="M172 0L10 206L264 1400H547L322 344L370 283H780L854 344L1079 1400H1362L1108 206L858 0H172ZM189 27H853L1083 217L1329 1373H1100L879 333L786 256H354L293 333L514 1373H285L39 217L189 27ZM750 1716H1002L1166
1432H889L839 1540L743 1432H466L750 1716ZM758 1688L530 1460H734L849 1590V1590L910 1460H1114L982 1688H758Z" />
<glyph unicode="&#xdc;" horiz-adv-x="1328" d="M172 0L10 206L264 1400H547L322 344L370 283H780L854 344L1079 1400H1362L1108 206L858 0H172ZM189 27H853L1083 217L1329 1373H1100L879 333L786 256H354L293 333L514 1373H285L39 217L189 27ZM925 1452L969 1662H1181L1137
1452H925ZM509 1452L553 1662H765L721 1452H509ZM543 1480H699L731 1634H575L543 1480ZM959 1480H1115L1147 1634H991L959 1480Z" />
<glyph unicode="&#xdd;" horiz-adv-x="1294" d="M356 0L450 443L132 825L254 1400H537L436 927L650 674H631L954 927L1055 1400H1338L1216 825L733 443L639 0H356ZM389 27H618L709 456L1191 839L1305 1373H1076L978 914L637 647H635L408 917L504 1373H275L161
835L479 452L389 27ZM686 1432L986 1696H1273L933 1432H686ZM756 1460H928L1196 1668H992L756 1460Z" />
<glyph unicode="&#xde;" horiz-adv-x="1132" d="M-44 0L254 1400H537L469 1080H901L1064 874L990 526L739 320H307L239 0H-44ZM-11 27H218L286 347H734L965 537L1035 863L884 1053H436L504 1373H275L-11 27ZM335 576L387 824H720L781 748L761 653L668 576H335ZM367
603H662L736 664L752 736L704 798H409L367 603Z" />
<glyph unicode="&#xdf;" horiz-adv-x="1306" d="M-39 0L215 1194L465 1400H1124L1286 1194L1210 837L1102 748L1223 593L1145 226L871 0H496L556 283H793L892 364L913 465L784 629L832 856L953 955L975 1056L927 1117H543L469 1056L244 0H-39ZM-6 28H223L444 1067L537
1144H943L1004 1067L978 944L858 844L814 639L942 476L916 353L797 255H578L530 28H866L1121 237L1194 582L1063 748V748L1186 848L1258 1183L1107 1373H470L240 1183L-6 28Z" />
<glyph unicode="&#xe0;" horiz-adv-x="1253" d="M201 0L39 206L100 491L349 697H893L902 736L854 797H179L239 1080H1052L1214 874L1072 206L822 0H201ZM382 256L321 333L334 394L404 452H868L843 333L750 256H382ZM218 27H817L1047 217L1185 864L1035 1054H261L213
825H871L931 748L915 671H355L124 480L68 217L218 27ZM399 283H744L818 344L835 424H409L358 382L350 344L399 283ZM872 1112H625L397 1376H684L872 1112ZM814 1140L666 1348H462L642 1140H814Z" />
<glyph unicode="&#xe1;" horiz-adv-x="1253" d="M201 0L39 206L100 491L349 697H893L902 736L854 797H179L239 1080H1052L1214 874L1072 206L822 0H201ZM382 256L321 333L334 394L404 452H868L843 333L750 256H382ZM218 27H817L1047 217L1185 864L1035 1054H261L213
825H871L931 748L915 671H355L124 480L68 217L218 27ZM399 283H744L818 344L835 424H409L358 382L350 344L399 283ZM633 1112L933 1376H1220L880 1112H633ZM703 1140H875L1143 1348H939L703 1140Z" />
<glyph unicode="&#xe2;" horiz-adv-x="1253" d="M201 0L39 206L100 491L349 697H893L902 736L854 797H179L239 1080H1052L1214 874L1072 206L822 0H201ZM382 256L321 333L334 394L404 452H868L843 333L750 256H382ZM218 27H817L1047 217L1185 864L1035 1054H261L213
825H871L931 748L915 671H355L124 480L68 217L218 27ZM399 283H744L818 344L835 424H409L358 382L350 344L399 283ZM679 1396H931L1095 1112H818L768 1220L672 1112H395L679 1396ZM687 1368L459 1140H663L778 1270V1270L839 1140H1043L911 1368H687Z" />
<glyph unicode="&#xe3;" horiz-adv-x="1253" d="M201 0L39 206L100 491L349 697H893L902 736L854 797H179L239 1080H1052L1214 874L1072 206L822 0H201ZM382 256L321 333L334 394L404 452H868L843 333L750 256H382ZM218 27H817L1047 217L1185 864L1035 1054H261L213
825H871L931 748L915 671H355L124 480L68 217L218 27ZM399 283H744L818 344L835 424H409L358 382L350 344L399 283ZM473 1112L502 1248L637 1360H815L859 1304H877L889 1360H1081L1052 1224L917 1112H739L695 1168H677L665 1112H473ZM507 1140H643L651 1180L670
1196H712L757 1140H911L1027 1236L1047 1332H911L903 1292L884 1276H842L797 1332H643L527 1236L507 1140Z" />
<glyph unicode="&#xe4;" horiz-adv-x="1253" d="M201 0L39 206L100 491L349 697H893L902 736L854 797H179L239 1080H1052L1214 874L1072 206L822 0H201ZM382 256L321 333L334 394L404 452H868L843 333L750 256H382ZM218 27H817L1047 217L1185 864L1035 1054H261L213
825H871L931 748L915 671H355L124 480L68 217L218 27ZM399 283H744L818 344L835 424H409L358 382L350 344L399 283ZM854 1132L898 1342H1110L1066 1132H854ZM438 1132L482 1342H694L650 1132H438ZM472 1160H628L660 1314H504L472 1160ZM888 1160H1044L1076 1314H920L888
1160Z" />
<glyph unicode="&#xe5;" horiz-adv-x="1253" d="M201 0L39 206L100 491L349 697H893L902 736L854 797H179L239 1080H1052L1214 874L1072 206L822 0H201ZM382 256L321 333L334 394L404 452H868L843 333L750 256H382ZM218 27H817L1047 217L1185 864L1035 1054H261L213
825H871L931 748L915 671H355L124 480L68 217L218 27ZM399 283H744L818 344L835 424H409L358 382L350 344L399 283ZM659 1110L581 1207L618 1381L737 1479H920L997 1381L960 1207L842 1110H659ZM678 1138H836L936 1222L967 1369L902 1451H744L644 1369L613 1222L678
1138ZM762 1257L746 1277L754 1313L778 1332H818L833 1313L825 1277L802 1257H762ZM778 1279H795L803 1286L807 1303L801 1310H784L776 1303L772 1286L778 1279Z" />
<glyph unicode="&#xe6;" horiz-adv-x="1790" d="M224 0L62 206L122 486L371 692H713L793 757L789 736L740 797H533L376 669L189 861L454 1080H939L992 1013L1073 1080H1558L1720 874L1658 582L1411 388H1069L989 323L993 344L1042 283H1249L1406 411L1593 219L1328
0H843L790 67L709 0H224ZM242 27H703L799 106L861 27H1322L1553 217L1400 375L1256 256H1025L964 333V334L1062 415H1404L1633 594L1691 863L1540 1053H1079L983 974L921 1053H460L229 863L382 705L526 824H757L818 747V746L720 665H378L146 474L91 217L242 27ZM406
256L345 333L357 390L427 448H696L767 506L730 333L637 256H406ZM1015 574L1052 747L1145 824H1376L1437 747L1425 690L1355 632H1086L1015 574ZM423 283H630L705 344L726 440L703 421H433L382 379L374 344L423 283ZM1056 640L1079 659H1349L1400 701L1408 736L1359
797H1152L1077 736L1056 640Z" />
<glyph unicode="&#xe7;" horiz-adv-x="1148" d="M233 -349L266 -192H471L508 -160L485 -130H351L378 0H255L93 206L235 874L485 1080H969L1131 874L1083 650H800L819 736L771 797H563L489 736L405 344L453 283H661L735 344L754 430H1037L989 206L739 0H646L751
-160L548 -349H233ZM265 -322H537L714 -160L606 0H605L611 27H734L964 217L1004 403H775L760 333L667 256H437L376 333L464 747L557 824H787L848 747L833 677H1062L1102 863L952 1053H490L260 863L122 217L272 27H411L383 -103H500L541 -160L476 -219H287L265 -322Z"
/>
<glyph unicode="&#xe8;" horiz-adv-x="1253" d="M1052 1080L1214 874L1153 589L904 383H360L351 344L399 283H1074L1014 0H201L39 206L181 874L431 1080H1052ZM871 824L932 747L919 686L849 628H385L410 747L503 824H871ZM1035 1053H436L206 863L68 216L218 26H992L1040
255H382L322 332L338 409H898L1129 600L1185 863L1035 1053ZM854 797H509L435 736L418 656H844L895 698L903 736L854 797ZM876 1112H629L401 1376H688L876 1112ZM818 1140L670 1348H466L646 1140H818Z" />
<glyph unicode="&#xe9;" horiz-adv-x="1253" d="M1052 1080L1214 874L1153 589L904 383H360L351 344L399 283H1074L1014 0H201L39 206L181 874L431 1080H1052ZM871 824L932 747L919 686L849 628H385L410 747L503 824H871ZM1035 1053H436L206 863L68 216L218 26H992L1040
255H382L322 332L338 409H898L1129 600L1185 863L1035 1053ZM854 797H509L435 736L418 656H844L895 698L903 736L854 797ZM637 1112L937 1376H1224L884 1112H637ZM707 1140H879L1147 1348H943L707 1140Z" />
<glyph unicode="&#xea;" horiz-adv-x="1253" d="M1052 1080L1214 874L1153 589L904 383H360L351 344L399 283H1074L1014 0H201L39 206L181 874L431 1080H1052ZM871 824L932 747L919 686L849 628H385L410 747L503 824H871ZM1035 1053H436L206 863L68 216L218 26H992L1040
255H382L322 332L338 409H898L1129 600L1185 863L1035 1053ZM854 797H509L435 736L418 656H844L895 698L903 736L854 797ZM683 1396H935L1099 1112H822L772 1220L676 1112H399L683 1396ZM691 1368L463 1140H667L782 1270V1270L843 1140H1047L915 1368H691Z" />
<glyph unicode="&#xeb;" horiz-adv-x="1253" d="M1052 1080L1214 874L1153 589L904 383H360L351 344L399 283H1074L1014 0H201L39 206L181 874L431 1080H1052ZM871 824L932 747L919 686L849 628H385L410 747L503 824H871ZM1035 1053H436L206 863L68 216L218 26H992L1040
255H382L322 332L338 409H898L1129 600L1185 863L1035 1053ZM854 797H509L435 736L418 656H844L895 698L903 736L854 797ZM858 1132L902 1342H1114L1070 1132H858ZM442 1132L486 1342H698L654 1132H442ZM476 1160H632L664 1314H508L476 1160ZM892 1160H1048L1080
1314H924L892 1160Z" />
<glyph unicode="&#xec;" horiz-adv-x="990" d="M-1 0L59 283H299L409 797H169L229 1080H751L581 283H821L761 0H-1ZM32 27H740L789 256H549L718 1053H250L201 824H441L321 256H81L32 27ZM739 1112H492L264 1376H551L739 1112ZM681 1140L533 1348H329L509 1140H681Z" />
<glyph unicode="&#xed;" horiz-adv-x="990" d="M-1 0L59 283H299L409 797H169L229 1080H751L581 283H821L761 0H-1ZM32 27H740L789 256H549L718 1053H250L201 824H441L321 256H81L32 27ZM500 1112L800 1376H1087L747 1112H500ZM570 1140H742L1010 1348H806L570 1140Z" />
<glyph unicode="&#xee;" horiz-adv-x="990" d="M-1 0L59 283H299L409 797H169L229 1080H751L581 283H821L761 0H-1ZM32 27H740L789 256H549L718 1053H250L201 824H441L321 256H81L32 27ZM546 1396H798L962 1112H685L635 1220L539 1112H262L546 1396ZM554 1368L326
1140H530L645 1270V1270L706 1140H910L778 1368H554Z" />
<glyph unicode="&#xef;" horiz-adv-x="990" d="M-1 0L59 283H299L409 797H169L229 1080H751L581 283H821L761 0H-1ZM32 27H740L789 256H549L718 1053H250L201 824H441L321 256H81L32 27ZM721 1132L765 1342H977L933 1132H721ZM305 1132L349 1342H561L517 1132H305ZM339
1160H495L527 1314H371L339 1160ZM755 1160H911L943 1314H787L755 1160Z" />
<glyph unicode="&#xf0;" horiz-adv-x="1120" d="M174 0L12 206L126 742L376 948H563L466 1059L588 1159L398 1400H792L827 1355L906 1420L1009 1302L921 1230L1070 1034L894 206L644 0H174ZM354 256L294 333L354 615L447 692H645L722 596L666 333L572 256H354ZM371
283H567L641 344L692 585L628 665H452L378 604L323 344L371 283ZM191 27H639L869 217L1041 1025L886 1228L975 1301L899 1387L818 1321L777 1373H455L627 1161L502 1060L578 976L696 1073L796 948L774 845L713 921H381L150 731L41 217L191 27ZM761 908L767 936L686
1037L578 948H730L761 908Z" />
<glyph unicode="&#xf1;" horiz-adv-x="1180" d="M-5 0L181 874L431 1080H979L1141 874L955 0H673L830 736L782 797H508L434 736L277 0H-5ZM28 27H256L409 747L502 824H798L859 747L706 27H934L1112 863L962 1053H436L206 863L28 27ZM442 1112L471 1248L606 1360H784L828
1304H846L858 1360H1050L1021 1224L886 1112H708L664 1168H646L634 1112H442ZM476 1140H612L620 1180L639 1196H681L726 1140H880L996 1236L1016 1332H880L872 1292L853 1276H811L766 1332H612L496 1236L476 1140Z" />
<glyph unicode="&#xf2;" horiz-adv-x="1257" d="M201 0L39 206L181 874L431 1080H1056L1218 874L1076 206L826 0H201ZM218 27H821L1051 217L1189 863L1039 1053H436L206 863L68 217L218 27ZM383 256L322 333L410 747L503 824H874L935 747L847 333L754 256H383ZM399
283H748L822 344L906 736L858 797H509L435 736L351 344L399 283ZM873 1112H626L398 1376H685L873 1112ZM815 1140L667 1348H463L643 1140H815Z" />
<glyph unicode="&#xf3;" horiz-adv-x="1257" d="M201 0L39 206L181 874L431 1080H1056L1218 874L1076 206L826 0H201ZM218 27H821L1051 217L1189 863L1039 1053H436L206 863L68 217L218 27ZM383 256L322 333L410 747L503 824H874L935 747L847 333L754 256H383ZM399
283H748L822 344L906 736L858 797H509L435 736L351 344L399 283ZM634 1112L934 1376H1221L881 1112H634ZM704 1140H876L1144 1348H940L704 1140Z" />
<glyph unicode="&#xf4;" horiz-adv-x="1257" d="M201 0L39 206L181 874L431 1080H1056L1218 874L1076 206L826 0H201ZM218 27H821L1051 217L1189 863L1039 1053H436L206 863L68 217L218 27ZM383 256L322 333L410 747L503 824H874L935 747L847 333L754 256H383ZM399
283H748L822 344L906 736L858 797H509L435 736L351 344L399 283ZM680 1396H932L1096 1112H819L769 1220L673 1112H396L680 1396ZM688 1368L460 1140H664L779 1270V1270L840 1140H1044L912 1368H688Z" />
<glyph unicode="&#xf5;" horiz-adv-x="1257" d="M201 0L39 206L181 874L431 1080H1056L1218 874L1076 206L826 0H201ZM218 27H821L1051 217L1189 863L1039 1053H436L206 863L68 217L218 27ZM383 256L322 333L410 747L503 824H874L935 747L847 333L754 256H383ZM399
283H748L822 344L906 736L858 797H509L435 736L351 344L399 283ZM474 1112L503 1248L638 1360H816L860 1304H878L890 1360H1082L1053 1224L918 1112H740L696 1168H678L666 1112H474ZM508 1140H644L652 1180L671 1196H713L758 1140H912L1028 1236L1048 1332H912L904
1292L885 1276H843L798 1332H644L528 1236L508 1140Z" />
<glyph unicode="&#xf6;" horiz-adv-x="1257" d="M201 0L39 206L181 874L431 1080H1056L1218 874L1076 206L826 0H201ZM218 27H821L1051 217L1189 863L1039 1053H436L206 863L68 217L218 27ZM383 256L322 333L410 747L503 824H874L935 747L847 333L754 256H383ZM399
283H748L822 344L906 736L858 797H509L435 736L351 344L399 283ZM855 1132L899 1342H1111L1067 1132H855ZM439 1132L483 1342H695L651 1132H439ZM473 1160H629L661 1314H505L473 1160ZM889 1160H1045L1077 1314H921L889 1160Z" />
<glyph unicode="&#xf7;" horiz-adv-x="836" d="M75 476L129 732H761L707 476H75ZM109 504H685L727 704H151L109 504ZM287 159L331 369H543L499 159H287ZM321 187H477L509 341H353L321 187ZM287 839L331 1049H543L499 839H287ZM321 867H477L509 1021H353L321 867Z" />
<glyph unicode="&#xf8;" horiz-adv-x="1158" d="M174 -53L7 86L82 166L51 206L193 874L442 1080H927H932L984 1137L1151 1000L1064 906L1089 874L947 206L698 0H223L218 -5L174 -53ZM483 283H619L694 344L738 551L483 283ZM175 -15L222 36L231 27H692L923 217L1060
863L1028 903L1113 994L983 1099L923 1034L910 1053H449L217 863L80 217L118 169L46 92L175 -15ZM466 256H425L783 636L770 573L719 333L625 256H466ZM353 425L368 494L422 748L515 824H683H730L353 425ZM398 510L672 798H521L446 736L398 510Z" />
<glyph unicode="&#xf9;" horiz-adv-x="1202" d="M201 0L39 206L225 1080H508L351 344L399 283H693L767 344L924 1080H1207L1021 206L771 0H201ZM218 27H766L996 217L1174 1053H945L792 333L699 256H383L322 333L475 1053H246L68 217L218 27ZM847 1112H600L372
1376H659L847 1112ZM789 1140L641 1348H437L617 1140H789Z" />
<glyph unicode="&#xfa;" horiz-adv-x="1202" d="M201 0L39 206L225 1080H508L351 344L399 283H693L767 344L924 1080H1207L1021 206L771 0H201ZM218 27H766L996 217L1174 1053H945L792 333L699 256H383L322 333L475 1053H246L68 217L218 27ZM608 1112L908 1376H1195L855
1112H608ZM678 1140H850L1118 1348H914L678 1140Z" />
<glyph unicode="&#xfb;" horiz-adv-x="1202" d="M201 0L39 206L225 1080H508L351 344L399 283H693L767 344L924 1080H1207L1021 206L771 0H201ZM218 27H766L996 217L1174 1053H945L792 333L699 256H383L322 333L475 1053H246L68 217L218 27ZM654 1396H906L1070
1112H793L743 1220L647 1112H370L654 1396ZM662 1368L434 1140H638L753 1270V1270L814 1140H1018L886 1368H662Z" />
<glyph unicode="&#xfc;" horiz-adv-x="1202" d="M201 0L39 206L225 1080H508L351 344L399 283H693L767 344L924 1080H1207L1021 206L771 0H201ZM218 27H766L996 217L1174 1053H945L792 333L699 256H383L322 333L475 1053H246L68 217L218 27ZM829 1132L873 1342H1085L1041
1132H829ZM413 1132L457 1342H669L625 1132H413ZM447 1160H603L635 1314H479L447 1160ZM863 1160H1019L1051 1314H895L863 1160Z" />
<glyph unicode="&#xfd;" horiz-adv-x="1251" d="M202 0L40 206L225 1080H508L352 344L400 283H645L766 383L914 1080H1196L925 -194L676 -400H-39L21 -118H579L677 -37L689 20L665 0H202ZM-6 -374H670L901 -183L1164 1054H936L791 371L650 256H383L323 333L476
1054H247L69 217L218 27H659L730 85L701 -49L584 -145H43L-6 -374ZM598 1112L898 1376H1185L845 1112H598ZM668 1140H840L1108 1348H904L668 1140Z" />
<glyph unicode="&#xfe;" horiz-adv-x="1132" d="M-97 -400L307 1500H590L497 1061L521 1080H933L1096 874L954 206L703 0H291L275 19L186 -400H-97ZM411 282H626L700 344L784 736L736 798H521L423 717L348 363L411 282ZM-64 -373H165L262 84L308 27H698L929 217L1067
863L916 1053H526L456 996L557 1473H328L-64 -373ZM395 256L319 352L399 728L515 824H752L813 748L725 332L632 256H395Z" />
<glyph unicode="&#xff;" horiz-adv-x="1251" d="M202 0L40 206L225 1080H508L352 344L400 283H645L766 383L914 1080H1196L925 -194L676 -400H-39L21 -118H579L677 -37L689 20L665 0H202ZM-6 -374H670L901 -183L1164 1054H936L791 371L650 256H383L323 333L476
1054H247L69 217L218 27H659L730 85L701 -49L584 -145H43L-6 -374ZM819 1132L863 1342H1075L1031 1132H819ZM403 1132L447 1342H659L615 1132H403ZM437 1160H593L625 1314H469L437 1160ZM853 1160H1009L1041 1314H885L853 1160Z" />
<glyph unicode="&#x2013;" horiz-adv-x="962" d="M75 476L129 732H887L833 476H75ZM109 504H811L853 704H151L109 504Z" />
<glyph unicode="&#x2014;" horiz-adv-x="1141" d="M75 476L129 732H1066L1012 476H75ZM109 504H990L1032 704H151L109 504Z" />
<glyph unicode="&#x2018;" horiz-adv-x="558" d="M652 1400L440 942H169L426 1400H652ZM610 1372H440L214 970H424L610 1372Z" />
<glyph unicode="&#x2019;" horiz-adv-x="558" d="M165 942L377 1400H648L391 942H165ZM207 970H377L603 1372H393L207 970Z" />
<glyph unicode="&#x201a;" horiz-adv-x="534" d="M246 -184L236 -12L296 270H598L538 -12L454 -184H246ZM273 -156H439L512 -4L564 242H318L266 -4L273 -156Z" />
<glyph unicode="&#x201c;" horiz-adv-x="870" d="M956 1400L744 942H473L730 1400H956ZM914 1372H744L518 970H728L914 1372ZM636 1400L424 942H153L410 1400H636ZM594 1372H424L198 970H408L594 1372Z" />
<glyph unicode="&#x201d;" horiz-adv-x="870" d="M165 942L377 1400H648L391 942H165ZM207 970H377L603 1372H393L207 970ZM485 942L697 1400H968L711 942H485ZM527 970H697L923 1372H713L527 970Z" />
<glyph unicode="&#x201e;" horiz-adv-x="909" d="M621 -184L611 -12L671 270H973L913 -12L829 -184H621ZM648 -156H814L887 -4L939 242H693L641 -4L648 -156ZM246 -184L236 -12L296 270H598L538 -12L454 -184H246ZM273 -156H439L512 -4L564 242H318L266 -4L273 -156Z" />
<glyph unicode="&#x2022;" horiz-adv-x="856" d="M234 346L51 562L113 854L388 1070H622L805 854L743 562L468 346H234ZM251 374H463L718 574L774 842L605 1042H393L138 842L82 574L251 374Z" />
<glyph unicode="&#x2039;" horiz-adv-x="912" d="M561 216L166 466L229 759L729 1003L666 710L427 612V612L624 510L561 216ZM544 264L592 492L360 612V612L642 728L691 956L253 742L198 482L544 264Z" />
<glyph unicode="&#x203a;" horiz-adv-x="912" d="M183 216L246 510L487 612V612L288 710L351 1003L747 759L684 466L183 216ZM222 264L660 482L715 742L369 956L320 728L554 612V612L270 492L222 264Z" />
</font>
</defs>
</svg>
