<?xml version="1.0" standalone="no"?>
<!DOCTYPE svg PUBLIC "-//W3C//DTD SVG 1.1//EN" "http://www.w3.org/Graphics/SVG/1.1/DTD/svg11.dtd">
<svg xmlns="http://www.w3.org/2000/svg">
<defs >
<font id="Tourney" horiz-adv-x="1179" ><font-face
    font-family="Tourney Thin ExtraBold"
    units-per-em="2000"
    panose-1="0 0 0 0 0 0 0 0 0 0"
    ascent="1800"
    descent="-400"
    alphabetic="0" />
<glyph unicode=" " horiz-adv-x="550" />
<glyph unicode="!" horiz-adv-x="558" d="M196 388L134 1079V1428H420V1079L358 388H196ZM276 559H281L285 1050V1272H272V1050L276 559ZM122 0V294H436V0H122ZM256 137H304V153H256V137Z" />
<glyph unicode="&quot;" horiz-adv-x="860" d="M162 946L116 1118V1400H418V1118L370 946H162ZM266 1054H273L277 1123V1273H264V1123L266 1054ZM492 946L446 1118V1400H748V1118L700 946H492ZM596 1054H603L607 1123V1273H594V1123L596 1054Z" />
<glyph unicode="#" horiz-adv-x="1344" d="M231 0L262 298H100V544H288L319 846H156V1092H344L377 1400H662L629 1092H792L825 1400H1110L1077 1092H1244V846H1052L1021 544H1188V298H994L963 0H679L710 298H546L515 0H231ZM413 426L475 970H927L866 426H413ZM573
544H737L767 846H604L573 544ZM365 112H378L412 412H864L830 112H844L878 412H1091V426H880L941 970H1149V983H942L978 1296H965L929 984H477L512 1296H499L464 984H265V970H461L400 426H207V413H399L365 112Z" />
<glyph unicode="$" horiz-adv-x="1282" d="M488 -96V0H338L132 206V458H415V344L476 283H786L847 344V514L786 575H344L138 781V1194L344 1400H488V1496H769V1400H905L1111 1194V942H828V1056L767 1117H482L420 1056V919L482 858H924L1130 652V206L924 0H769V-96H488ZM619
-16H633V131H850L994 275V590L855 725H411L282 858V1128L412 1257H821L956 1123V1062H970V1127L826 1271H634V1418H620V1271H407L268 1132V854L401 711H850L980 586V279L845 145H422L287 279V348H274V275L417 131H619V-16Z" />
<glyph unicode="%" horiz-adv-x="1555" d="M183 0L1189 1400H1412L406 0H183ZM380 129H392L1212 1268H1200L380 129ZM247 709L115 841V1268L247 1400H604L736 1268V841L604 709H247ZM298 795H560L649 886V1226L560 1316H293L203 1225V889L298 795ZM301 804L212
892V1223L296 1307H557L640 1223V889L557 804H301ZM335 890H515L554 929V1180L515 1219H335L296 1180V929L335 890ZM951 -79L819 53V480L951 612H1308L1440 480V53L1308 -79H951ZM1002 7H1264L1353 98V438L1264 528H997L907 437V101L1002 7ZM1005 16L916 104V435L1000
519H1261L1344 435V101L1261 16H1005ZM1039 102H1219L1258 141V392L1219 431H1039L1000 392V141L1039 102Z" />
<glyph unicode="&amp;" horiz-adv-x="1282" d="M348 -1L142 205V567L387 814L238 970V1193L444 1399H678L884 1193V970L734 809L896 634V708H1140V327L913 -1H348ZM447 282H730L800 371L559 628L405 470V324L447 282ZM421 151L278 285V509L556 807L965 364L815
151H421ZM416 137H823L1023 426V598H1010V433L972 376L565 816L747 1003V1158L630 1270H490L374 1158V1002L547 817L264 514V279L416 137ZM556 826L388 1007V1154L497 1256H624L733 1154V1008L556 826ZM561 1002L619 1068V1083L584 1124H539L504 1083V1068L561
1002Z" />
<glyph unicode="&apos;" horiz-adv-x="534" d="M162 946L116 1118V1400H418V1118L370 946H162ZM266 1054H273L277 1123V1273H264V1123L266 1054Z" />
<glyph unicode="(" horiz-adv-x="784" d="M364 -400L150 -186V1286L364 1500H751L444 1202V-102L751 -400H364ZM419 -265L436 -266L299 -130V1246L436 1381H419L285 1249V-133L419 -265Z" />
<glyph unicode=")" horiz-adv-x="784" d="M428 -400H41L348 -102V1202L41 1500H428L642 1286V-186L428 -400ZM374 -265L507 -133V1249L374 1381H357L494 1246V-130L356 -266L374 -265Z" />
<glyph unicode="*" horiz-adv-x="804" d="M294 896V1009L190 939L73 1116L214 1208L71 1304L186 1479L294 1407V1528H512V1408L618 1479L733 1304L590 1208L731 1116L614 939L512 1007V896H294ZM399 1012H410V1200L581 1084L587 1094L414 1212L582 1326L575 1336L410
1224V1416H398V1223L237 1332L230 1322L393 1213L224 1098L231 1088L399 1202V1012Z" />
<glyph unicode="+" horiz-adv-x="836" d="M290 288V476H102V732H290V920H546V732H734V476H546V288H290ZM412 410H425V594H616V607H425V794H412V608H232V594H412V410Z" />
<glyph unicode="," horiz-adv-x="558" d="M120 -160L182 0H134V294H436V19L311 -160H120ZM252 -62H259L311 37V149H248V136H299V37L252 -62Z" />
<glyph unicode="-" horiz-adv-x="836" d="M102 476V732H734V476H102ZM232 594H616V608H232V594Z" />
<glyph unicode="." horiz-adv-x="558" d="M122 0V294H436V0H122ZM256 137H304V153H256V137Z" />
<glyph unicode="/" horiz-adv-x="624" d="M38 -201L288 1500H571L321 -201H38ZM189 -77H203L425 1381H411L189 -77Z" />
<glyph unicode="0" horiz-adv-x="1125" d="M281 0L75 206V1194L281 1400H844L1050 1194V206L844 0H281ZM459 283H726L787 344V818L459 283ZM343 152L278 216L848 1186L907 1126V283L776 152H343ZM338 138H781L921 279V1130L781 1269H338L197 1130V279L338 138ZM211
283V1126L343 1255H776L838 1196L267 226L211 283ZM338 604L653 1117H400L338 1056V604Z" />
<glyph unicode="1" horiz-adv-x="968" d="M75 0V283H341V1069L75 994V1305L435 1400H623V283H893V0H75ZM216 132H750V146H490V1267H476L202 1188V1174L476 1253V146H216V132Z" />
<glyph unicode="2" horiz-adv-x="1080" d="M75 0V577L281 783H662L723 844V1056L662 1117H418L357 1056V913H75V1194L281 1400H799L1005 1194V706L799 500H418L357 439V283H1005V0H75ZM215 134H863V148H229V509L364 643H733L872 786V1133L730 1270H358L215 1133V1042H229V1129L363
1256H725L858 1129V790L728 657H359L215 513V134Z" />
<glyph unicode="3" horiz-adv-x="1073" d="M281 0L75 206V477H357V344L418 283H655L716 344V497L655 558H439V840H654L716 907V1056L655 1117H418L357 1056V923H75V1194L281 1400H792L998 1194V763L935 700L998 635V206L792 0H281ZM348 137H728L866 276V561L728
700L866 839V1132L728 1268H345L208 1132V1032H222V1128L350 1254H723L852 1128V843L716 707H541V693H716L852 557V280L723 151H353L222 280V370H208V276L348 137Z" />
<glyph unicode="4" horiz-adv-x="1088" d="M589 0V321H50V648L441 1400H872V604H1038V321H872V0H589ZM729 127H743V444H936V457H742V1268H533L189 639V444H729V127ZM203 458V639L542 1254H729V458H203ZM361 604H589V1091H580L361 649V604Z" />
<glyph unicode="5" horiz-adv-x="1086" d="M281 0L75 206V458H357V344L418 283H668L729 344V643L668 704H428L342 608H75V1400H1006V1117H357V957L387 987H805L1011 780V206L805 0H281ZM356 131H739L876 267V722L739 858H398L296 757H226V1254H879V1268H212V742H299L403
844H734L862 718V271L734 145H361L223 281V362H209V277L356 131Z" />
<glyph unicode="6" horiz-adv-x="1082" d="M281 0L75 206V1194L281 1400H795L1002 1194V981H719V1056L658 1117H418L357 1056V918L387 948H801L1007 742V206L801 0H281ZM362 150L224 287V615L414 801H726L860 670V281L726 150H362ZM418 283H664L725 344V604L664
665H438L357 585V344L418 283ZM357 136H731L874 277V674L731 815H409L224 634V1125L355 1254H721L851 1125V1077H865V1129L726 1268H350L210 1129V283L357 136Z" />
<glyph unicode="7" horiz-adv-x="984" d="M84 0L642 965V1117H40V1400H924V905L423 0H84ZM322 127H336L791 931V1266H163V1252H778V935L322 127Z" />
<glyph unicode="8" horiz-adv-x="1080" d="M281 0L75 206V633L165 719L75 808V1194L281 1400H799L1005 1194V808L915 717L1005 633V206L799 0H281ZM354 150L226 278V582L358 713H726L858 582V278L730 150H354ZM349 136H735L872 274V586L738 720L872 854V1127L735
1265H349L212 1127V854L346 720L212 586V274L349 136ZM358 727L226 858V1123L354 1251H730L858 1123V858L726 727H358ZM418 283H662L723 344V516L662 577H418L357 516V344L418 283ZM419 860H661L723 926V1056L662 1117H418L357 1056V926L419 860Z" />
<glyph unicode="9" horiz-adv-x="1082" d="M801 1400L1007 1194V206L801 0H287L80 206V419H363V344L424 283H664L725 344V482L695 452H281L75 658V1194L281 1400H801ZM720 1250L858 1113V785L668 599H356L222 730V1119L356 1250H720ZM664 1117H418L357 1056V796L418
735H644L725 815V1056L664 1117ZM725 1264H351L208 1123V726L351 585H673L858 766V275L727 146H361L231 275V323H217V271L356 132H732L872 271V1117L725 1264Z" />
<glyph unicode=":" horiz-adv-x="558" d="M122 787V1081H436V787H122ZM256 924H304V940H256V924ZM122 0V294H436V0H122ZM256 137H304V153H256V137Z" />
<glyph unicode=";" horiz-adv-x="558" d="M120 -160L182 0H134V294H436V19L311 -160H120ZM252 -62H259L311 37V149H248V136H299V37L252 -62ZM122 787V1081H436V787H122ZM256 924H304V940H256V924Z" />
<glyph unicode="&lt;" horiz-adv-x="826" d="M714 -2L112 417V763L714 1186V827L352 590V591L714 358V-2ZM588 253V267L224 511V664L588 911V925L211 669V505L588 253Z" />
<glyph unicode="=" horiz-adv-x="836" d="M102 276V532H734V276H102ZM232 394H616V408H232V394ZM102 676V932H734V676H102ZM232 794H616V808H232V794Z" />
<glyph unicode="&gt;" horiz-adv-x="826" d="M112 -2V358L474 591V590L112 827V1186L714 763V417L112 -2ZM238 253L615 505V669L238 925V911L602 664V511L238 267V253Z" />
<glyph unicode="?" horiz-adv-x="1100" d="M431 379V587L699 854V1056L637 1117H487L425 1056V942H143V1194L349 1400H775L981 1194V735L714 467V379H431ZM552 135H600V149H552V135ZM424 0V283H725V0H424ZM574 484H588V522L845 789V1122L701 1266H432L288 1122V1062H302V1118L437
1252H696L832 1118V793L574 526V484Z" />
<glyph unicode="@" horiz-adv-x="1834" d="M316 -68L102 146V1274L316 1488H1508L1722 1274V502L1508 288H1254L1178 366L1100 288H696L482 502V928L696 1142H1120L1334 928V626L1378 582H1384L1428 626V1130L1364 1194H460L396 1130V290L460 226H1510V-68H316ZM386
71H1390V85H391L257 218V1200L391 1333H1425L1559 1200V571L1425 437H1327L1193 571V854L1054 1013H766L627 874V566L770 423H1050L1186 559L1322 423H1430L1573 566V1204L1430 1347H386L243 1204V214L386 71ZM775 437L641 571V870L771 999H1049L1179 850V571L1045
437H775ZM820 582H996L1040 626V804L996 848H820L776 804V626L820 582Z" />
<glyph unicode="A" horiz-adv-x="1288" d="M115 0V1194L321 1400H967L1173 1194V0H891V412H397V0H115ZM252 140H265V543H1028V140H1041V1136L907 1270H386L252 1136V140ZM397 694H891V1056L830 1117H458L397 1056V694ZM265 556V1132L391 1257H902L1028 1132V556H265Z" />
<glyph unicode="B" horiz-adv-x="1273" d="M125 0V1400H907L1113 1194V837L1024 748L1158 613V206L952 0H125ZM264 131H875L1023 279V561L862 722H811L978 900V1128L841 1272H264V131ZM278 145V708H857L1009 557V283L870 145H278ZM278 722V1258H836L964 1124V904L792
722H278ZM408 283H814L875 344V485L787 573H408V283ZM408 856H731L831 955V1056L770 1117H408V856Z" />
<glyph unicode="C" horiz-adv-x="1244" d="M311 0L105 206V1194L311 1400H932L1139 1194V872H856V1056L795 1117H449L388 1056V344L449 283H795L856 344V528H1139V206L932 0H311ZM380 135H865L1004 274V406H990V278L860 149H385L252 281V1127L385 1258H857L990
1127V998H1004V1131L862 1272H380L238 1131V277L380 135Z" />
<glyph unicode="D" horiz-adv-x="1289" d="M125 0V1400H958L1164 1194V206L958 0H125ZM408 283H821L882 344V1056L821 1117H408V283ZM263 135H886L1030 279V1121L886 1265H263V135ZM277 149V1251H881L1016 1117V283L881 149H277Z" />
<glyph unicode="E" horiz-adv-x="1140" d="M115 0V1400H1025V1117H398V848H956V565H398V283H1025V0H115ZM253 137H905V151H267V700H835V714H267V1254H905V1268H253V137Z" />
<glyph unicode="F" horiz-adv-x="1080" d="M115 0V1400H1005V1117H398V848H967V565H398V0H115ZM249 132H263V704H830V717H263V1254H870V1267H249V132Z" />
<glyph unicode="G" horiz-adv-x="1278" d="M321 0L115 206V1194L321 1400H957L1163 1194V942H881V1056L820 1117H457L397 1054V343L457 283H820L881 344V482H604V764H1163V206L957 0H321ZM393 137H887L1029 279V627H743V613H1015V283L882 151H398L265 283V1125L395
1254H887L1015 1125V1067H1029V1129L892 1268H390L251 1129V279L393 137Z" />
<glyph unicode="H" horiz-adv-x="1295" d="M125 0V1400H408V848H888V1400H1170V0H888V565H408V0H125ZM260 133H273V702H1024V133H1037V1268H1024V716H273V1268H260V133Z" />
<glyph unicode="I" horiz-adv-x="1059" d="M115 0V283H389V1117H115V1400H944V1117H671V283H944V0H115ZM241 134H819V148H532V1254H819V1268H241V1254H518V148H241V134Z" />
<glyph unicode="J" horiz-adv-x="1216" d="M322 0L115 206V563H398V344L459 283H757L818 344V1117H306V1400H1101V206L894 0H322ZM390 141H831L973 282V1268H438V1254H959V287L826 155H395L264 285V435H250V281L390 141Z" />
<glyph unicode="K" horiz-adv-x="1298" d="M125 0V1400H408V848H757L876 967V1400H1159V848L1018 708L1159 565V0H876V447L757 565H408V0H125ZM260 135H274V710H829L1012 520V135H1026V524L842 716L1026 900V1268H1012V904L831 724H274V1268H260V135Z" />
<glyph unicode="L" horiz-adv-x="1091" d="M125 0V1400H408V283H1016V0H125ZM260 134H885V148H274V1268H260V134Z" />
<glyph unicode="M" horiz-adv-x="1741" d="M125 0V1400H678L847 407H895L1064 1400H1616V0H1333V1116H1294L1122 120H620L449 1116H408V0H125ZM258 134H272V1251H548L734 270H1006L1192 1251H1467V134H1481V1267H1179L993 285H748L562 1267H258V134Z" />
<glyph unicode="N" horiz-adv-x="1465" d="M259 132H272V1249H548L908 135H1207V1268H1193V150H919L559 1265H259V132ZM125 0V1400H668L1014 287H1057V1400H1340V0H797L449 1116H408V0H125Z" />
<glyph unicode="O" horiz-adv-x="1306" d="M321 0L115 206V1194L321 1400H985L1191 1194V206L985 0H321ZM459 283H847L908 344V1056L847 1117H459L398 1056V344L459 283ZM392 137H917L1056 276V1129L917 1268H392L253 1129V276L392 137ZM397 151L267 280V1125L397
1254H912L1042 1125V280L912 151H397Z" />
<glyph unicode="P" horiz-adv-x="1258" d="M125 0V1400H956L1162 1194V643L937 418H408V0H125ZM258 125H272V558H878L1035 715V1129L896 1268H258V125ZM408 701H799L880 781V1056L819 1117H408V701ZM272 572V1254H891L1021 1125V719L873 572H272Z" />
<glyph unicode="Q" horiz-adv-x="1343" d="M1036 -242L795 0H321L115 206V1194L321 1400H1011L1217 1194V206L1096 85L1228 -50L1036 -242ZM1058 -78L1068 -68L869 137H942L1085 278V1130L947 1268H389L253 1130V278L394 137H849L1058 -78ZM459 283H873L935 344V1056L873
1117H459L398 1056V344L459 283ZM399 151L267 282V1126L394 1254H942L1071 1126V282L937 151H399Z" />
<glyph unicode="R" horiz-adv-x="1309" d="M125 0V1400H988L1194 1194V760L1072 648L1194 515V0H911V415L811 515H408V0H125ZM261 133H274V657H873L1049 462V133H1062V466L885 664L1055 812V1131L918 1267H261V133ZM408 798H850L911 860V1056L850 1117H408V798ZM274
670V1254H913L1041 1127V817L872 670H274Z" />
<glyph unicode="S" horiz-adv-x="1302" d="M321 0L115 206V458H398V344L459 283H843L904 344V498L843 559H327L121 765V1194L327 1400H962L1168 1194V942H885V1056L824 1117H465L403 1056V903L465 842H981L1187 636V206L981 0H321ZM385 134H903L1047 275V586L928
707H405L270 844V1124L402 1252H897L1018 1129V1065H1032V1133L902 1266H397L256 1128V840L401 693H923L1033 582V279L898 148H390L270 264V336H256V260L385 134Z" />
<glyph unicode="T" horiz-adv-x="1126" d="M422 0V1117H75V1400H1051V1117H704V0H422ZM556 132H570V1254H925V1268H201V1254H556V132Z" />
<glyph unicode="U" horiz-adv-x="1328" d="M321 0L115 206V1400H398V344L459 283H869L930 344V1400H1213V206L1007 0H321ZM389 135H940L1079 270V1268H1065V274L935 149H394L263 275V1268H249V271L389 135Z" />
<glyph unicode="V" horiz-adv-x="1338" d="M501 0L125 376V1400H408V514L612 311H727L930 514V1400H1213V376L837 0H501ZM569 135H770L1079 440V1268H1065V444L765 149H574L273 445V1268H259V441L569 135Z" />
<glyph unicode="W" horiz-adv-x="1738" d="M125 1400H408V284H452L618 1280H1120L1287 284H1330V1400H1613V0H1057L893 993H845L681 0H125V1400ZM258 1266V134H563L745 1116H992L1173 134H1478V1266H1464V150H1186L1005 1131H732L551 150H272V1266H258Z" />
<glyph unicode="X" horiz-adv-x="1353" d="M125 0V515L318 708L125 898V1400H408V1017L577 848H776L945 1017V1400H1228V898L1037 708L1228 515V0H945V397L776 565H577L408 397V0H125ZM260 135H274V444L525 703H829L1080 444V135H1094V448L842 708L1094 960V1268H1080V964L831
717H523L274 964V1268H261V960L513 708L260 448V135Z" />
<glyph unicode="Y" horiz-adv-x="1294" d="M505 0V443L105 825V1400H388V927L656 674H637L906 927V1400H1189V825L788 443V0H505ZM640 132H653V493L1055 869V1268H1041V873L648 505H645L252 873V1268H238V869L640 493V132Z" />
<glyph unicode="Z" horiz-adv-x="1123" d="M255 135H890V149H270V404L882 1005V1268H257V1254H866V1009L255 407V135ZM105 0V448L715 1053V1117H124V1400H1018V956L414 359V283H1018V0H105Z" />
<glyph unicode="[" horiz-adv-x="656" d="M102 -400V1500H594V1206H396V-106H594V-400H102ZM241 -253H458V-239H255V1347H458V1361H241V-253Z" />
<glyph unicode="\" horiz-adv-x="624" d="M574 -201H291L41 1500H324L574 -201ZM423 -77L201 1381H188L410 -77H423Z" />
<glyph unicode="]" horiz-adv-x="656" d="M560 -400H68V-106H266V1206H68V1500H560V-400ZM422 -253V1361H204V1347H408V-239H204V-253H422Z" />
<glyph unicode="^" horiz-adv-x="912" d="M62 980L312 1428H605L849 980H556L458 1199V1199L356 980H62ZM255 1078H269L391 1314H527L649 1078H664L536 1328H383L255 1078Z" />
<glyph unicode="_" horiz-adv-x="1156" d="M102 -256V0H1054V-256H102ZM232 -132H936V-118H232V-132Z" />
<glyph unicode="`" horiz-adv-x="688" d="M590 1112H343L59 1376H346L590 1112ZM406 1180L286 1306H270L391 1180H406Z" />
<glyph unicode="a" horiz-adv-x="1253" d="M316 0L110 206V491L316 697H860V736L799 797H124V1080H937L1143 874V206L937 0H316ZM392 146L264 272V441L375 552H1002V282L864 146H392ZM387 132H869L1016 278V806L877 944H254V930H872L1002 802V566H371L250 446V268L387
132ZM454 283H799L860 344V424H434L392 382V344L454 283Z" />
<glyph unicode="b" horiz-adv-x="1211" d="M332 0L125 206V1500H408V1061L428 1080H894L1101 874V206L894 0H332ZM411 143L273 279V762L448 936H833L951 820V279L813 143H411ZM469 283H757L818 344V736L757 798H488L408 717V344L469 283ZM406 129H818L965 275V824L838
950H443L273 780V1371H259V275L406 129Z" />
<glyph unicode="c" horiz-adv-x="1205" d="M316 0L110 206V874L316 1080H1080V797H454L393 736V344L454 283H1080V0H316ZM395 134H953V148H400L260 285V805L392 935H953V949H387L246 809V278L395 134Z" />
<glyph unicode="d" horiz-adv-x="1211" d="M879 0H317L110 206V874L317 1080H783L803 1061V1500H1086V206L879 0ZM801 143H399L261 279V820L379 936H763L939 762V279L801 143ZM742 283L803 344V717L723 798H454L393 736V344L454 283H742ZM806 129L953 275V1371H939V780L768
950H374L247 824V275L394 129H806Z" />
<glyph unicode="e" horiz-adv-x="1253" d="M937 1080L1143 874V589L937 383H393V344L454 283H1129V0H316L110 206V874L316 1080H937ZM861 934L989 808V639L878 528H251V798L389 934H861ZM866 948H384L237 802V274L376 136H999V150H381L251 278V514H882L1003 634V812L866
948ZM799 797H454L393 736V656H819L861 698V736L799 797Z" />
<glyph unicode="f" horiz-adv-x="983" d="M277 0V798H75V1080H277V1294L483 1500H873V1237H604L560 1192V1080H873V798H560V0H277ZM412 132H425V933H748V947H425V1235L552 1362H748V1376H546L412 1241V947H203V933H412V132Z" />
<glyph unicode="g" horiz-adv-x="1210" d="M160 -400V-118H722L803 -37V20L783 0H316L110 206V874L316 1080H879L1085 874V-194L879 -400H160ZM287 -268H794L957 -96V800L810 949H384L243 808V292L398 136H751L943 323V-92L789 -254H287V-268ZM403 150L257 296V804L389
935H805L943 796V341L746 150H403ZM454 283H703L803 383V737L741 798H454L393 737V344L454 283Z" />
<glyph unicode="h" horiz-adv-x="1210" d="M125 0V1499H408V1061L427 1080H894L1100 874V0H817V736L756 798H488L408 717V0H125ZM264 134H277V768L446 935H833L953 817V134H966V821L838 949H441L277 787V1361H264V134Z" />
<glyph unicode="i" horiz-adv-x="971" d="M337 1237V1500H659V1237H337ZM492 1352H505V1400H492V1352ZM110 0V283H377V797H110V1080H659V283H926V0H110ZM236 134H801V148H518V948H236V934H504V148H236V134Z" />
<glyph unicode="j" horiz-adv-x="724" d="M-15 -400V-118H236L316 -37V798H-15V1080H599V-194L393 -400H-15ZM133 -259H328L465 -115V947H117V934H451V-111L323 -246H133V-259ZM316 1236V1500H599V1236H316ZM452 1352H465V1400H452V1352Z" />
<glyph unicode="k" horiz-adv-x="1139" d="M125 0V1400H408V678H612L731 797V1080H1014V678L873 538L1014 395V0H731V277L612 395H408V0H125ZM260 135H274V533H680L864 343V135H877V347L693 539L878 724V950H864V728L682 547H274V1268H260V135Z" />
<glyph unicode="l" horiz-adv-x="912" d="M45 0V283H315V1217H45V1500H597V283H867V0H45ZM171 134H742V148H458V1368H171V1354H444V148H171V134Z" />
<glyph unicode="m" horiz-adv-x="1613" d="M110 0V874L316 1080H703L807 978L910 1080H1297L1503 874V0H1220V736L1159 797H1009L948 736V60H665V736L604 797H454L393 736V0H110ZM244 134H257V802L391 935H658L800 794V189H814V794L956 935H1223L1357 802V134H1371V806L1228
949H951L807 805L663 949H386L244 806V134Z" />
<glyph unicode="n" horiz-adv-x="1180" d="M110 0V874L316 1080H864L1070 874V0H788V736L727 797H453L392 736V0H110ZM246 134H260V795L399 933H787L924 797V134H938V801L792 947H394L246 799V134Z" />
<glyph unicode="o" horiz-adv-x="1257" d="M316 0L110 206V874L316 1080H941L1147 874V206L941 0H316ZM396 134H873L1012 277V807L873 947H388L248 806V282L396 134ZM401 148L262 286V802L393 933H868L998 803V281L868 148H401ZM454 283H803L864 344V736L803 797H454L393
736V344L454 283Z" />
<glyph unicode="p" horiz-adv-x="1233" d="M125 -378V874L331 1080H917L1123 874V206L917 0H427L408 20V-378H125ZM260 -246H273V315L447 141H853L996 282V810L858 947H407L260 800V-246ZM488 283H779L840 344V736L779 798H469L408 736V363L488 283ZM452 154L273
333V796L412 933H853L983 806V286L848 154H452Z" />
<glyph unicode="q" horiz-adv-x="1233" d="M1108 -378H825V20L806 0H316L110 206V874L316 1080H902L1108 874V-378ZM974 -246V800L826 947H375L237 810V282L380 141H786L960 315V-246H974ZM745 283L825 363V736L764 798H454L393 736V344L454 283H745ZM781 154H385L251
286V806L380 933H821L960 796V333L781 154Z" />
<glyph unicode="r" horiz-adv-x="1148" d="M110 0V282H304V783L289 798H112V1080H365L433 1000L510 1080H899L1118 861L900 649L762 797H648L587 736V281H781V0H110ZM233 135H658V149H452V814L569 931H839L924 836L934 845L844 945H564L444 825L333 945H233V931H327L438
811V149H233V135Z" />
<glyph unicode="s" horiz-adv-x="1203" d="M120 0V283H750L811 344V339L752 399H316L110 605V874L316 1080H1073V797H453L392 736V742L453 681H887L1093 475V206L887 0H120ZM259 138H828L959 269V426L828 552H371L260 663V812L381 933H934V947H376L246 816V659L366
538H823L945 422V273L823 152H259V138Z" />
<glyph unicode="t" horiz-adv-x="935" d="M294 0V798H45V1080H294V1354H577V1080H825V798H577V283H818V0H294ZM429 135H694V148H443V935H700V949H443V1229H429V949H171V936H429V135Z" />
<glyph unicode="u" horiz-adv-x="1202" d="M316 0L110 206V1080H393V344L454 283H748L809 344V1080H1092V206L886 0H316ZM394 135H817L959 288V947H945V292L812 149H399L257 293V947H243V289L394 135Z" />
<glyph unicode="v" horiz-adv-x="1200" d="M283 0L45 1080H354L513 284H690L846 1080H1155L921 0H283ZM400 135H807L985 947H972L796 149H411L236 947H223L400 135Z" />
<glyph unicode="w" horiz-adv-x="1613" d="M110 1080H393V344L454 283H604L665 344V1020H948V344L1009 283H1159L1220 344V1080H1503V206L1297 0H910L807 102L703 0H316L110 206V1080ZM244 946V274L386 131H663L807 275L951 131H1228L1371 274V946H1357V278L1223
145H956L814 286V891H800V286L658 145H391L257 278V946H244Z" />
<glyph unicode="x" horiz-adv-x="1252" d="M110 0V365L292 548L110 728V1080H393V847L551 688H701L859 847V1080H1142V728L961 548L1142 365V0H859V247L701 405H551L393 247V0H110ZM247 134H260V294L499 540H753L992 294V134H1006V298L766 546L1006 786V947H993V790L755
554H497L260 790V947H247V786L486 546L247 298V134Z" />
<glyph unicode="y" horiz-adv-x="1206" d="M316 0L110 206V1080H393V344L454 283H699L799 383V1080H1081V-194L875 -400H160V-118H718L799 -37V20L779 0H316ZM292 -269H790L950 -104V947H936V345L740 150H389L257 284V947H243V280L384 136H745L936 327V-100L785
-255H292V-269Z" />
<glyph unicode="z" horiz-adv-x="1070" d="M273 136H838V150H290V348L802 720V947H254V933H785V724L273 352V136ZM110 0V399L625 767V797H129V1080H960V673L452 315V283H960V0H110Z" />
<glyph unicode="{" horiz-adv-x="822" d="M384 362V-265H594V-251H398V365L240 551L398 737V1351H604V1365H384V740L223 551L384 362ZM544 362V-106H742V-400H250V351L80 551L250 751V1500H742V1206H544V740L383 551L544 362Z" />
<glyph unicode="|" horiz-adv-x="618" d="M162 -428V1500H456V-428H162ZM304 -306H317V1377H304V-306Z" />
<glyph unicode="}" horiz-adv-x="822" d="M438 362L599 551L438 740V1365H218V1351H424V737L583 551L424 365V-251H228V-265H438V362ZM278 362L439 551L278 740V1206H80V1500H572V751L742 551L572 351V-400H80V-106H278V362Z" />
<glyph unicode="~" horiz-adv-x="780" d="M112 509V645L224 757H402L458 701H476V757H668V621L556 509H378L322 565H304V509H112ZM206 579H219V597L279 663H355L422 592H510L581 669V689H568V671L507 606H424L358 676H276L206 599V579Z" />
<glyph unicode="&#xa0;" horiz-adv-x="550" />
<glyph unicode="&#xa1;" horiz-adv-x="558" d="M196 1012H358L420 321V-28H134V321L196 1012ZM277 841L272 350V129H285V350L281 841H277ZM122 1400H436V1106H122V1400ZM256 1264L257 1248H304V1264H256Z" />
<glyph unicode="&#xa2;" horiz-adv-x="1178" d="M440 0V154H348L142 360V1040L348 1246H440V1400H744V1246H832L1038 1040V810H755V902L694 963H486L425 902V498L486 437H694L755 498V590H1038V360L832 154H744V0H440ZM583 96H597V287H754L900 433V470H887V437L749
301H440L293 447V967L432 1105H749L886 969V936H900V973L754 1119H597V1310H584V1119H427L279 971V443L435 287H583V96Z" />
<glyph unicode="&#xa3;" horiz-adv-x="1204" d="M75 0V283H195L256 344V546H97V802H256V1194L462 1400H1089V1117H600L539 1056V802H729V546H539V283H1085V0H75ZM173 136H967V150H279L403 274V663H611V677H403V1126L534 1256H975V1270H528L389 1130V677H227V663H389V278L260
150H173V136Z" />
<glyph unicode="&#xa4;" horiz-adv-x="1240" d="M177 8L-4 189L144 337L130 351V874L144 888L-8 1040L173 1221L325 1069L336 1080H894L907 1067L1061 1221L1242 1040L1088 886L1100 874V351L1092 343L1246 189L1065 8L911 162L894 145H336L325 156L177 8ZM474
428H756L817 489V736L756 797H474L413 736V489L474 428ZM173 180L344 351L416 278H826L899 351L1070 180L1080 190L909 361L966 417V808L905 869L1076 1040L1066 1050L895 879L826 948H408L340 879L168 1050L158 1040L330 869L267 806V427L334 361L163 190L173
180ZM421 292L281 431V802L413 934H821L952 804V421L821 292H421Z" />
<glyph unicode="&#xa5;" horiz-adv-x="1220" d="M468 0V70H295V316H468V347H295V569L105 750V1400H388V852L610 644L832 852V1400H1115V750L927 571V347H751V316H927V70H751V0H468ZM602 122H616V188H802V202H616V455H802V469H628L981 794V1276H967V798L610 469H607L252
798V1276H238V794L590 469H418V455H602V202H418V188H602V122Z" />
<glyph unicode="&#xa6;" horiz-adv-x="618" d="M162 665V1500H456V665H162ZM302 787H316V1377H302V787ZM162 -400V435H456V-400H162ZM302 -278H316V312H302V-278Z" />
<glyph unicode="&#xa7;" horiz-adv-x="1166" d="M135 -189V94H698L757 153L700 210H331L125 416V685L189 749L125 812V1081L331 1287H1021V1004H468L410 946L468 888H835L1041 682V413L978 350L1041 286V17L835 -189H135ZM269 -51H771L909 85V232L782 354L909
481V628L776 757H392L275 870V1019L401 1142H882V1156H396L261 1023V866L383 747L258 622V475L385 348H769L895 228V89L766 -37H269V-51ZM468 492H700L757 549L700 606H466L410 550L468 492ZM390 362L272 479V618L398 743H771L895 624V485L771 362H390Z" />
<glyph unicode="&#xa8;" horiz-adv-x="944" d="M574 1132V1342H786V1132H574ZM158 1132V1342H370V1132H158ZM258 1224H267V1248H258V1224ZM676 1224H685V1248H676V1224Z" />
<glyph unicode="&#xa9;" horiz-adv-x="1618" d="M364 -28L150 186V1214L364 1428H1274L1488 1214V186L1274 -28H364ZM418 119H1222L1359 256V1152L1222 1289H418L281 1152V256L418 119ZM423 133L295 260V1148L423 1275H1217L1345 1148V260L1217 133H423ZM696 407H958L1061
518V550H1047V523L952 421H702L589 534V863L694 967H952L1047 865V838H1061V870L958 981H688L575 868V528L696 407ZM488 266H1150L1214 330V1070L1150 1134H488L424 1070V330L488 266ZM630 300L468 464V934L630 1096H1010L1172 934V746H940V820L898 864H744L700
820V576L744 532H898L940 576V652H1172V464L1010 300H630Z" />
<glyph unicode="&#xaa;" horiz-adv-x="885" d="M243 717L111 850V1033L243 1166H594V1191L554 1230H120V1412H643L776 1280V850L643 717H243ZM292 811L210 892V1001L281 1072H685V899L596 811H292ZM289 802H600L694 896V1236L605 1325H204V1316H601L685 1233V1081H279L201
1004V890L289 802ZM332 899H554L594 939V990H319L292 963V939L332 899Z" />
<glyph unicode="&#xab;" horiz-adv-x="1200" d="M1063 216L615 466V759L1063 1003V710L844 612V612L1063 510V216ZM965 409V423L729 545V681L965 803V818L715 690V537L965 409ZM821 216L373 466V759L821 1003V710L602 612V612L821 510V216ZM723 409V423L487 545V681L723
803V818L473 690V537L723 409Z" />
<glyph unicode="&#xac;" horiz-adv-x="1128" d="M1026 883V335H743V600H102V883H1026ZM895 749H226V735H881V461H895V749Z" />
<glyph unicode="&#xad;" horiz-adv-x="836" d="M102 476V732H734V476H102ZM232 594H616V608H232V594Z" />
<glyph unicode="&#xae;" horiz-adv-x="1382" d="M336 262L122 476V1214L336 1428H1046L1260 1214V476L1046 262H336ZM390 359H994L1131 496V1152L994 1289H390L253 1152V496L390 359ZM395 373L267 500V1148L395 1275H989L1117 1148V500L989 373H395ZM460 546H922L986
610V1080L922 1144H460L396 1080V610L460 546ZM442 602V946L604 1108H814L979 942L792 784L700 876H718L674 832V602H442ZM552 692H565V886L650 969H770L813 926L822 935L774 983H645L552 890V692Z" />
<glyph unicode="&#xaf;" horiz-adv-x="836" d="M102 1119V1375H734V1119H102ZM232 1237H616V1251H232V1237Z" />
<glyph unicode="&#xb0;" horiz-adv-x="884" d="M242 709L110 841V1268L242 1400H642L774 1268V841L642 709H242ZM293 795H599L688 886V1225L599 1315H288L199 1225V889L293 795ZM297 804L208 892V1222L292 1306H596L679 1223V889L596 804H297ZM331 890H554L593
929V1180L554 1219H331L292 1180V929L331 890Z" />
<glyph unicode="&#xb1;" horiz-adv-x="836" d="M290 538V726H102V982H290V1170H546V982H734V726H546V538H290ZM412 660H425V844H616V857H425V1044H412V858H232V844H412V660ZM102 235V491H734V235H102ZM232 353H616V367H232V353Z" />
<glyph unicode="&#xb2;" horiz-adv-x="512" d="M75 830V1068L163 1153H294L314 1173V1257L294 1277H219L199 1257V1195H75V1315L163 1400H349L437 1316V1117L349 1030H219L199 1009V953H436V830H75ZM136 888H375V896H143V1038L197 1092H322L379 1150V1289L321
1344H194L136 1289V1252H143V1286L197 1337H318L371 1286V1152L319 1099H194L136 1040V888Z" />
<glyph unicode="&#xb3;" horiz-adv-x="511" d="M163 830L76 917V1031H199V973L218 953H294L314 973V1034L294 1053H214V1176H294L314 1198V1257L294 1277H218L199 1257V1199H75V1313L163 1400H349L436 1313V1140L411 1115L436 1089V917L349 830H163ZM189 889H322L378
945V1059L323 1115L379 1171V1288L322 1343H188L132 1288V1248H140V1286L191 1336H319L371 1286V1174L317 1119H258V1111H317L371 1058V948L319 897H192L140 948V983H132V945L189 889Z" />
<glyph unicode="&#xb4;" horiz-adv-x="688" d="M82 1112L326 1376H613L329 1112H82ZM267 1180H281L402 1306H387L267 1180Z" />
<glyph unicode="&#xb5;" horiz-adv-x="1142" d="M110 -428V1080H393V344L454 283H688L749 344V1080H1032V206L826 0H393V-428H110ZM244 -306H258V272L394 136H757L899 286V954H885V290L752 150H399L258 290V954H244V-306Z" />
<glyph unicode="&#xb6;" horiz-adv-x="1335" d="M546 -234V418H325L100 643V1194L306 1400H1195V-234H912V1118H830V-234H546ZM681 -113L695 -112V1255H1046V-113L1060 -112V1269H411L270 1132V712L432 550L441 560L284 716V1128L415 1255H681V-113Z" />
<glyph unicode="&#xb7;" horiz-adv-x="558" d="M122 588V882H436V588H122ZM256 725H304V741H256V725Z" />
<glyph unicode="&#xb8;" horiz-adv-x="638" d="M80 -349V-192H285L315 -160L285 -130H151V27H395L558 -160L395 -349H80ZM176 -278H346L450 -160L346 -44H248V-57H339L432 -160L339 -264H176V-278Z" />
<glyph unicode="&#xb9;" horiz-adv-x="466" d="M75 830V953H170V1254L75 1226V1362L213 1400H294V953H391V830H75ZM136 887H328V895H236V1344H230L131 1313V1306L229 1336V895H136V887Z" />
<glyph unicode="&#xba;" horiz-adv-x="884" d="M242 709L110 841V1268L242 1400H642L774 1268V841L642 709H242ZM293 795H599L688 886V1225L599 1315H288L199 1225V889L293 795ZM297 804L208 892V1222L292 1306H596L679 1223V889L596 804H297ZM331 890H554L593
929V1180L554 1219H331L292 1180V929L331 890Z" />
<glyph unicode="&#xbb;" horiz-adv-x="1200" d="M137 216V510L356 612V612L137 710V1003L585 759V466L137 216ZM235 409L485 537V690L235 818V803L471 681V545L235 423V409ZM635 216V510L854 612V612L635 710V1003L1083 759V466L635 216ZM733 409L983 537V690L733
818V803L969 681V545L733 423V409Z" />
<glyph unicode="&#xbc;" horiz-adv-x="1021" d="M75 830V953H170V1254L75 1226V1362L213 1400H294V953H391V830H75ZM136 887H328V895H236V1344H230L131 1313V1306L229 1336V895H136V887ZM61 0L803 1400H957L216 0H61ZM164 53H174L861 1353H851L164 53ZM790 0V128H602V264L717
570H913V252H971V128H913V0H790ZM736 252H790V436H793L736 265V252ZM851 54H857V181H926V189H857V513H754L662 261V182H851V54ZM669 189V260L759 506H850V189H669Z" />
<glyph unicode="&#xbd;" horiz-adv-x="1064" d="M75 830V953H170V1254L75 1226V1362L213 1400H294V953H391V830H75ZM136 887H328V895H236V1344H230L131 1313V1306L229 1336V895H136V887ZM61 0L803 1400H957L216 0H61ZM164 53H174L861 1353H851L164 53ZM627 0V238L715
323H846L866 343V427L846 447H771L751 427V365H627V485L715 570H901L989 486V287L901 200H771L751 179V123H988V0H627ZM688 58H927V66H695V208L749 262H874L931 320V459L873 514H746L688 459V422H695V456L749 507H870L923 456V322L871 269H746L688 210V58Z" />
<glyph unicode="&#xbe;" horiz-adv-x="1066" d="M163 830L76 917V1031H199V973L218 953H294L314 973V1034L294 1053H214V1176H294L314 1198V1257L294 1277H218L199 1257V1199H75V1313L163 1400H349L436 1313V1140L411 1115L436 1089V917L349 830H163ZM189 889H322L378
945V1059L323 1115L379 1171V1288L322 1343H188L132 1288V1248H140V1286L191 1336H319L371 1286V1174L317 1119H258V1111H317L371 1058V948L319 897H192L140 948V983H132V945L189 889ZM106 0L848 1400H1002L261 0H106ZM209 53H219L906 1353H896L209 53ZM835 0V128H647V264L762
570H958V252H1016V128H958V0H835ZM781 252H835V436H838L781 265V252ZM896 54H902V181H971V189H902V513H799L707 261V182H896V54ZM714 189V260L804 506H895V189H714Z" />
<glyph unicode="&#xbf;" horiz-adv-x="1100" d="M687 1021V813L419 546V344L481 283H631L693 344V458H975V206L769 0H343L137 206V665L404 933V1021H687ZM566 1265H518V1251H566V1265ZM694 1400V1117H393V1400H694ZM544 916H530V878L273 611V278L417 134H686L830
278V338H816V282L681 148H422L286 282V607L544 874V916Z" />
<glyph unicode="&#xc0;" horiz-adv-x="1288" d="M115 0V1194L321 1400H967L1173 1194V0H891V412H397V0H115ZM252 140H265V543H1028V140H1041V1136L907 1270H386L252 1136V140ZM397 694H891V1056L830 1117H458L397 1056V694ZM265 556V1132L391 1257H902L1028 1132V556H265ZM790
1432H543L259 1696H546L790 1432ZM606 1500L486 1626H470L591 1500H606Z" />
<glyph unicode="&#xc1;" horiz-adv-x="1311" d="M30 0L399 1400H907L1281 0H956L883 296H427L356 0H30ZM215 121H230L306 416H1009L1086 121H1101L799 1267H510L215 121ZM310 430L520 1253H788L1006 430H310ZM483 552H827L690 1116H613L483 552ZM529 1432L773
1696H1060L776 1432H529ZM714 1500H728L849 1626H834L714 1500Z" />
<glyph unicode="&#xc2;" horiz-adv-x="1311" d="M30 0L399 1400H907L1281 0H956L883 296H427L356 0H30ZM215 121H230L306 416H1009L1086 121H1101L799 1267H510L215 121ZM310 430L520 1253H788L1006 430H310ZM483 552H827L690 1116H613L483 552ZM526 1716H778L1002
1432H725L652 1540L579 1432H302L526 1716ZM591 1638L506 1522H521L598 1627H703L779 1522H795L710 1638H591Z" />
<glyph unicode="&#xc3;" horiz-adv-x="1288" d="M115 0V1194L321 1400H967L1173 1194V0H891V412H397V0H115ZM252 140H265V543H1028V140H1041V1136L907 1270H386L252 1136V140ZM397 694H891V1056L830 1117H458L397 1056V694ZM265 556V1132L391 1257H902L1028 1132V556H265ZM366
1432V1568L478 1680H656L712 1624H730V1680H922V1544L810 1432H632L576 1488H558V1432H366ZM460 1502H473V1520L533 1586H609L676 1515H764L835 1592V1612H822V1594L761 1529H678L612 1599H530L460 1522V1502Z" />
<glyph unicode="&#xc4;" horiz-adv-x="1288" d="M115 0V1194L321 1400H967L1173 1194V0H891V412H397V0H115ZM252 140H265V543H1028V140H1041V1136L907 1270H386L252 1136V140ZM397 694H891V1056L830 1117H458L397 1056V694ZM265 556V1132L391 1257H902L1028 1132V556H265ZM748
1452V1662H960V1452H748ZM332 1452V1662H544V1452H332ZM432 1544H441V1568H432V1544ZM850 1544H859V1568H850V1544Z" />
<glyph unicode="&#xc5;" horiz-adv-x="1288" d="M115 0V1194L321 1400H967L1173 1194V0H891V412H397V0H115ZM252 140H265V543H1028V140H1041V1136L907 1270H386L252 1136V140ZM397 694H891V1056L830 1117H458L397 1056V694ZM265 556V1132L391 1257H902L1028 1132V556H265ZM553
1430L455 1527V1701L553 1799H736L834 1701V1527L736 1430H553ZM591 1510H699L756 1566V1666L699 1723H591L534 1666V1566L591 1510ZM596 1524L549 1571V1662L596 1709H694L742 1662V1571L694 1524H596ZM636 1597H653L662 1607V1622L653 1631H636L627 1622V1607L636
1597Z" />
<glyph unicode="&#xc6;" horiz-adv-x="1934" d="M30 0L625 1400H1772V1117H1222V848H1734V565H1222V283H1772V0H939V412H510L337 0H30ZM197 112H211L399 540H1081V120H1675V133H1094V705H1635V719H1094V1272H1675V1285H714L197 112ZM406 553L724 1272H1081V553H406ZM626
694H939V1117H806L626 694Z" />
<glyph unicode="&#xc7;" horiz-adv-x="1211" d="M417 -349V-192H622L652 -160L622 -130H488V0H331L125 206V1194L331 1400H878L1085 1194V872H802V1056L741 1117H469L408 1056V344L469 283H741L802 344V528H1085V206L878 0H756L895 -160L732 -349H417ZM510 -277H685L788
-160L685 -45H596V135H814L951 272V416H937V276L809 149H400L272 276V1128L400 1255H809L937 1128V988H951V1132L814 1269H395L258 1132V272L395 135H582V-58H679L770 -160L679 -263H510V-277Z" />
<glyph unicode="&#xc8;" horiz-adv-x="1140" d="M115 0V1400H1025V1117H398V848H956V565H398V283H1025V0H115ZM253 137H905V151H267V700H835V714H267V1254H905V1268H253V137ZM707 1432H460L176 1696H463L707 1432ZM523 1500L403 1626H387L508 1500H523Z" />
<glyph unicode="&#xc9;" horiz-adv-x="1140" d="M115 0V1400H1025V1117H398V848H956V565H398V283H1025V0H115ZM253 137H905V151H267V700H835V714H267V1254H905V1268H253V137ZM439 1432L683 1696H970L686 1432H439ZM624 1500H638L759 1626H744L624 1500Z" />
<glyph unicode="&#xca;" horiz-adv-x="1140" d="M115 0V1400H1025V1117H398V848H956V565H398V283H1025V0H115ZM253 137H905V151H267V700H835V714H267V1254H905V1268H253V137ZM436 1716H688L912 1432H635L562 1540L489 1432H212L436 1716ZM501 1638L416 1522H431L508
1627H613L689 1522H705L620 1638H501Z" />
<glyph unicode="&#xcb;" horiz-adv-x="1140" d="M115 0V1400H1025V1117H398V848H956V565H398V283H1025V0H115ZM253 137H905V151H267V700H835V714H267V1254H905V1268H253V137ZM665 1452V1662H877V1452H665ZM249 1452V1662H461V1452H249ZM349 1544H358V1568H349V1544ZM767
1544H776V1568H767V1544Z" />
<glyph unicode="&#xcc;" horiz-adv-x="1059" d="M115 0V283H389V1117H115V1400H944V1117H671V283H944V0H115ZM241 134H819V148H532V1254H819V1268H241V1254H518V148H241V134ZM675 1432H428L144 1696H431L675 1432ZM491 1500L371 1626H355L476 1500H491Z" />
<glyph unicode="&#xcd;" horiz-adv-x="1059" d="M115 0V283H389V1117H115V1400H944V1117H671V283H944V0H115ZM241 134H819V148H532V1254H819V1268H241V1254H518V148H241V134ZM407 1432L651 1696H938L654 1432H407ZM592 1500H606L727 1626H712L592 1500Z" />
<glyph unicode="&#xce;" horiz-adv-x="1059" d="M115 0V283H389V1117H115V1400H944V1117H671V283H944V0H115ZM241 134H819V148H532V1254H819V1268H241V1254H518V148H241V134ZM404 1716H656L880 1432H603L530 1540L457 1432H180L404 1716ZM469 1638L384 1522H399L476
1627H581L657 1522H673L588 1638H469Z" />
<glyph unicode="&#xcf;" horiz-adv-x="1059" d="M115 0V283H389V1117H115V1400H944V1117H671V283H944V0H115ZM241 134H819V148H532V1254H819V1268H241V1254H518V148H241V134ZM633 1452V1662H845V1452H633ZM217 1452V1662H429V1452H217ZM317 1544H326V1568H317V1544ZM735
1544H744V1568H735V1544Z" />
<glyph unicode="&#xd0;" horiz-adv-x="1223" d="M178 0V562H5V818H178V1400H937L1143 1194V206L937 0H178ZM314 135H869L1006 274V1125L869 1265H314V694H140V680H314V135ZM328 149V680H594V694H328V1251H864L992 1121V278L864 149H328ZM461 283H800L861 344V1056L800
1117H461V818H717V562H461V283Z" />
<glyph unicode="&#xd1;" horiz-adv-x="1465" d="M259 132H272V1249H548L908 135H1207V1268H1193V150H919L559 1265H259V132ZM125 0V1400H668L1014 287H1057V1400H1340V0H797L449 1116H408V0H125ZM457 1432V1568L569 1680H747L803 1624H821V1680H1013V1544L901
1432H723L667 1488H649V1432H457ZM551 1502H564V1520L624 1586H700L767 1515H855L926 1592V1612H913V1594L852 1529H769L703 1599H621L551 1522V1502Z" />
<glyph unicode="&#xd2;" horiz-adv-x="1306" d="M321 0L115 206V1194L321 1400H985L1191 1194V206L985 0H321ZM459 283H847L908 344V1056L847 1117H459L398 1056V344L459 283ZM392 137H917L1056 276V1129L917 1268H392L253 1129V276L392 137ZM397 151L267 280V1125L397
1254H912L1042 1125V280L912 151H397ZM798 1432H551L267 1696H554L798 1432ZM614 1500L494 1626H478L599 1500H614Z" />
<glyph unicode="&#xd3;" horiz-adv-x="1306" d="M321 0L115 206V1194L321 1400H985L1191 1194V206L985 0H321ZM459 283H847L908 344V1056L847 1117H459L398 1056V344L459 283ZM392 137H917L1056 276V1129L917 1268H392L253 1129V276L392 137ZM397 151L267 280V1125L397
1254H912L1042 1125V280L912 151H397ZM530 1432L774 1696H1061L777 1432H530ZM715 1500H729L850 1626H835L715 1500Z" />
<glyph unicode="&#xd4;" horiz-adv-x="1306" d="M321 0L115 206V1194L321 1400H985L1191 1194V206L985 0H321ZM459 283H847L908 344V1056L847 1117H459L398 1056V344L459 283ZM392 137H917L1056 276V1129L917 1268H392L253 1129V276L392 137ZM397 151L267 280V1125L397
1254H912L1042 1125V280L912 151H397ZM527 1716H779L1003 1432H726L653 1540L580 1432H303L527 1716ZM592 1638L507 1522H522L599 1627H704L780 1522H796L711 1638H592Z" />
<glyph unicode="&#xd5;" horiz-adv-x="1306" d="M321 0L115 206V1194L321 1400H985L1191 1194V206L985 0H321ZM459 283H847L908 344V1056L847 1117H459L398 1056V344L459 283ZM392 137H917L1056 276V1129L917 1268H392L253 1129V276L392 137ZM397 151L267 280V1125L397
1254H912L1042 1125V280L912 151H397ZM374 1432V1568L486 1680H664L720 1624H738V1680H930V1544L818 1432H640L584 1488H566V1432H374ZM468 1502H481V1520L541 1586H617L684 1515H772L843 1592V1612H830V1594L769 1529H686L620 1599H538L468 1522V1502Z" />
<glyph unicode="&#xd6;" horiz-adv-x="1306" d="M321 0L115 206V1194L321 1400H985L1191 1194V206L985 0H321ZM459 283H847L908 344V1056L847 1117H459L398 1056V344L459 283ZM392 137H917L1056 276V1129L917 1268H392L253 1129V276L392 137ZM397 151L267 280V1125L397
1254H912L1042 1125V280L912 151H397ZM756 1452V1662H968V1452H756ZM340 1452V1662H552V1452H340ZM440 1544H449V1568H440V1544ZM858 1544H867V1568H858V1544Z" />
<glyph unicode="&#xd7;" horiz-adv-x="836" d="M552 278L419 411L287 278L106 459L239 592L106 724L287 905L419 773L552 905L733 724L600 592L733 459L552 278ZM552 450L562 459L432 589L567 724L557 734L422 599L290 731L281 722L413 590L286 463L295 453L422
580L552 450Z" />
<glyph unicode="&#xd8;" horiz-adv-x="1390" d="M304 -53L108 86L181 188L161 206V1194L367 1400H1011L1028 1384L1085 1465L1282 1328L1200 1211L1217 1194V206L1011 0H367L353 15L304 -53ZM542 283H873L934 344V837L542 283ZM428 135L351 210L1042 1188L1085
1144V264L952 135H428ZM256 74L343 199L423 121H957L1099 260V1148L1049 1199L1135 1322L1125 1329L1041 1208L957 1289H423L281 1148V260L334 208L245 82L256 74ZM341 219L295 264V1144L428 1275H952L1033 1197L341 219ZM444 560L838 1118H506L444 1056V560Z"
/>
<glyph unicode="&#xd9;" horiz-adv-x="1328" d="M321 0L115 206V1400H398V344L459 283H869L930 344V1400H1213V206L1007 0H321ZM389 135H940L1079 270V1268H1065V274L935 149H394L263 275V1268H249V271L389 135ZM810 1432H563L279 1696H566L810 1432ZM626 1500L506
1626H490L611 1500H626Z" />
<glyph unicode="&#xda;" horiz-adv-x="1328" d="M321 0L115 206V1400H398V344L459 283H869L930 344V1400H1213V206L1007 0H321ZM389 135H940L1079 270V1268H1065V274L935 149H394L263 275V1268H249V271L389 135ZM542 1432L786 1696H1073L789 1432H542ZM727 1500H741L862
1626H847L727 1500Z" />
<glyph unicode="&#xdb;" horiz-adv-x="1328" d="M321 0L115 206V1400H398V344L459 283H869L930 344V1400H1213V206L1007 0H321ZM389 135H940L1079 270V1268H1065V274L935 149H394L263 275V1268H249V271L389 135ZM539 1716H791L1015 1432H738L665 1540L592 1432H315L539
1716ZM604 1638L519 1522H534L611 1627H716L792 1522H808L723 1638H604Z" />
<glyph unicode="&#xdc;" horiz-adv-x="1328" d="M321 0L115 206V1400H398V344L459 283H869L930 344V1400H1213V206L1007 0H321ZM389 135H940L1079 270V1268H1065V274L935 149H394L263 275V1268H249V271L389 135ZM768 1452V1662H980V1452H768ZM352 1452V1662H564V1452H352ZM452
1544H461V1568H452V1544ZM870 1544H879V1568H870V1544Z" />
<glyph unicode="&#xdd;" horiz-adv-x="1294" d="M505 0V443L105 825V1400H388V927L656 674H637L906 927V1400H1189V825L788 443V0H505ZM640 132H653V493L1055 869V1268H1041V873L648 505H645L252 873V1268H238V869L640 493V132ZM524 1432L768 1696H1055L771 1432H524ZM709
1500H723L844 1626H829L709 1500Z" />
<glyph unicode="&#xde;" horiz-adv-x="1132" d="M105 0V1400H388V1080H820L1027 874V526L820 320H388V0H105ZM239 123H253V458H735L889 610V820L755 952H253V1282H239V123ZM253 472V939H750L876 816V614L730 472H253ZM388 603H683L744 664V736L683 798H388V603Z" />
<glyph unicode="&#xdf;" horiz-adv-x="1306" d="M85 0V1194L291 1400H950L1156 1194V837L1067 748L1221 593V226L995 0H620V283H857L938 364V465L774 629V856L874 955V1056L813 1117H429L368 1056V0H85ZM216 135H229V1148L329 1251H912L1007 1145V892L918 802V684L1069
529V284L929 151H728L729 137H934L1083 277V532L932 689V797L1021 888V1150L919 1265H322L216 1155V135Z" />
<glyph unicode="&#xe0;" horiz-adv-x="1253" d="M316 0L110 206V491L316 697H860V736L799 797H124V1080H937L1143 874V206L937 0H316ZM392 146L264 272V441L375 552H1002V282L864 146H392ZM387 132H869L1016 278V806L877 944H254V930H872L1002 802V566H371L250
446V268L387 132ZM454 283H799L860 344V424H434L392 382V344L454 283ZM773 1112H526L242 1376H529L773 1112ZM589 1180L469 1306H453L574 1180H589Z" />
<glyph unicode="&#xe1;" horiz-adv-x="1253" d="M316 0L110 206V491L316 697H860V736L799 797H124V1080H937L1143 874V206L937 0H316ZM392 146L264 272V441L375 552H1002V282L864 146H392ZM387 132H869L1016 278V806L877 944H254V930H872L1002 802V566H371L250
446V268L387 132ZM454 283H799L860 344V424H434L392 382V344L454 283ZM505 1112L749 1376H1036L752 1112H505ZM690 1180H704L825 1306H810L690 1180Z" />
<glyph unicode="&#xe2;" horiz-adv-x="1253" d="M316 0L110 206V491L316 697H860V736L799 797H124V1080H937L1143 874V206L937 0H316ZM392 146L264 272V441L375 552H1002V282L864 146H392ZM387 132H869L1016 278V806L877 944H254V930H872L1002 802V566H371L250
446V268L387 132ZM454 283H799L860 344V424H434L392 382V344L454 283ZM502 1396H754L978 1112H701L628 1220L555 1112H278L502 1396ZM567 1318L482 1202H497L574 1307H679L755 1202H771L686 1318H567Z" />
<glyph unicode="&#xe3;" horiz-adv-x="1253" d="M316 0L110 206V491L316 697H860V736L799 797H124V1080H937L1143 874V206L937 0H316ZM392 146L264 272V441L375 552H1002V282L864 146H392ZM387 132H869L1016 278V806L877 944H254V930H872L1002 802V566H371L250
446V268L387 132ZM454 283H799L860 344V424H434L392 382V344L454 283ZM349 1112V1248L461 1360H639L695 1304H713V1360H905V1224L793 1112H615L559 1168H541V1112H349ZM443 1182H456V1200L516 1266H592L659 1195H747L818 1272V1292H805V1274L744 1209H661L595 1279H513L443
1202V1182Z" />
<glyph unicode="&#xe4;" horiz-adv-x="1253" d="M316 0L110 206V491L316 697H860V736L799 797H124V1080H937L1143 874V206L937 0H316ZM392 146L264 272V441L375 552H1002V282L864 146H392ZM387 132H869L1016 278V806L877 944H254V930H872L1002 802V566H371L250
446V268L387 132ZM454 283H799L860 344V424H434L392 382V344L454 283ZM731 1132V1342H943V1132H731ZM315 1132V1342H527V1132H315ZM415 1224H424V1248H415V1224ZM833 1224H842V1248H833V1224Z" />
<glyph unicode="&#xe5;" horiz-adv-x="1253" d="M316 0L110 206V491L316 697H860V736L799 797H124V1080H937L1143 874V206L937 0H316ZM392 146L264 272V441L375 552H1002V282L864 146H392ZM387 132H869L1016 278V806L877 944H254V930H872L1002 802V566H371L250
446V268L387 132ZM454 283H799L860 344V424H434L392 382V344L454 283ZM536 1110L438 1207V1381L536 1479H719L817 1381V1207L719 1110H536ZM574 1190H682L739 1246V1346L682 1403H574L517 1346V1246L574 1190ZM579 1204L532 1251V1342L579 1389H677L725 1342V1251L677
1204H579ZM619 1277H636L645 1287V1302L636 1311H619L610 1302V1287L619 1277Z" />
<glyph unicode="&#xe6;" horiz-adv-x="1790" d="M339 0L133 206V486L339 692H681L747 757V736L685 797H478L349 669L121 861L339 1080H824L891 1013L958 1080H1443L1649 874V582L1443 388H1101L1035 323V344L1097 283H1304L1433 411L1661 219L1443 0H958L891 67L824
0H339ZM392 136H749L890 277L1028 136H1398L1488 226L1478 235L1393 150H1033L899 286V326L1088 517H1408L1532 639V803L1393 944H1033L894 803L755 944H380L297 861L307 852L385 930H750L885 794V751L689 561H373L250 441V279L392 136ZM397 150L264 283V436L377
547H694L885 733V290L744 150H397ZM899 344V790L1038 930H1388L1518 801V644L1404 531H1083L899 344ZM478 283H685L747 344V440L728 421H458L416 379V344L478 283ZM1035 640L1054 659H1324L1366 701V736L1304 797H1097L1035 736V640Z" />
<glyph unicode="&#xe7;" horiz-adv-x="1148" d="M385 -349V-192H590L620 -160L590 -130H456V0H333L127 206V874L333 1080H817L1023 874V650H740V736L679 797H471L410 736V344L471 283H679L740 344V430H1023V206L817 0H724L863 -160L700 -349H385ZM478 -277H653L756
-160L653 -45H564V134H750L889 273V315H875V277L745 148H417L277 285V805L409 936H745L875 807V769H889V811L750 950H404L263 809V278L412 134H550V-58H647L738 -160L647 -263H478V-277Z" />
<glyph unicode="&#xe8;" horiz-adv-x="1253" d="M937 1080L1143 874V589L937 383H393V344L454 283H1129V0H316L110 206V874L316 1080H937ZM861 934L989 808V639L878 528H251V798L389 934H861ZM866 948H384L237 802V274L376 136H999V150H381L251 278V514H882L1003
634V812L866 948ZM799 797H454L393 736V656H819L861 698V736L799 797ZM774 1112H527L243 1376H530L774 1112ZM590 1180L470 1306H454L575 1180H590Z" />
<glyph unicode="&#xe9;" horiz-adv-x="1253" d="M937 1080L1143 874V589L937 383H393V344L454 283H1129V0H316L110 206V874L316 1080H937ZM861 934L989 808V639L878 528H251V798L389 934H861ZM866 948H384L237 802V274L376 136H999V150H381L251 278V514H882L1003
634V812L866 948ZM799 797H454L393 736V656H819L861 698V736L799 797ZM506 1112L750 1376H1037L753 1112H506ZM691 1180H705L826 1306H811L691 1180Z" />
<glyph unicode="&#xea;" horiz-adv-x="1253" d="M937 1080L1143 874V589L937 383H393V344L454 283H1129V0H316L110 206V874L316 1080H937ZM861 934L989 808V639L878 528H251V798L389 934H861ZM866 948H384L237 802V274L376 136H999V150H381L251 278V514H882L1003
634V812L866 948ZM799 797H454L393 736V656H819L861 698V736L799 797ZM503 1396H755L979 1112H702L629 1220L556 1112H279L503 1396ZM568 1318L483 1202H498L575 1307H680L756 1202H772L687 1318H568Z" />
<glyph unicode="&#xeb;" horiz-adv-x="1253" d="M937 1080L1143 874V589L937 383H393V344L454 283H1129V0H316L110 206V874L316 1080H937ZM861 934L989 808V639L878 528H251V798L389 934H861ZM866 948H384L237 802V274L376 136H999V150H381L251 278V514H882L1003
634V812L866 948ZM799 797H454L393 736V656H819L861 698V736L799 797ZM732 1132V1342H944V1132H732ZM316 1132V1342H528V1132H316ZM416 1224H425V1248H416V1224ZM834 1224H843V1248H834V1224Z" />
<glyph unicode="&#xec;" horiz-adv-x="990" d="M114 0V283H354V797H114V1080H636V283H876V0H114ZM235 134H756V148H495V948H235V934H481V148H235V134ZM640 1112H393L109 1376H396L640 1112ZM456 1180L336 1306H320L441 1180H456Z" />
<glyph unicode="&#xed;" horiz-adv-x="990" d="M114 0V283H354V797H114V1080H636V283H876V0H114ZM235 134H756V148H495V948H235V934H481V148H235V134ZM372 1112L616 1376H903L619 1112H372ZM557 1180H571L692 1306H677L557 1180Z" />
<glyph unicode="&#xee;" horiz-adv-x="990" d="M114 0V283H354V797H114V1080H636V283H876V0H114ZM235 134H756V148H495V948H235V934H481V148H235V134ZM369 1396H621L845 1112H568L495 1220L422 1112H145L369 1396ZM434 1318L349 1202H364L441 1307H546L622 1202H638L553
1318H434Z" />
<glyph unicode="&#xef;" horiz-adv-x="990" d="M114 0V283H354V797H114V1080H636V283H876V0H114ZM235 134H756V148H495V948H235V934H481V148H235V134ZM598 1132V1342H810V1132H598ZM182 1132V1342H394V1132H182ZM282 1224H291V1248H282V1224ZM700 1224H709V1248H700V1224Z"
/>
<glyph unicode="&#xf0;" horiz-adv-x="1120" d="M325 0L119 206V742L325 948H512L392 1059L493 1159L251 1400H645L690 1355L755 1420L883 1302L810 1230L1001 1034V206L795 0H325ZM400 150L270 279V672L400 801H669L857 618V288L721 150H400ZM462 283H658L719
344V585L638 665H462L401 604V344L462 283ZM395 136H726L871 284V969L659 1194L740 1276L730 1286L649 1205L562 1295H544L640 1195L546 1102L556 1092L650 1185L857 965V637L674 815H395L256 676V275L395 136ZM719 908V936L616 1037L527 948H679L719 908Z" />
<glyph unicode="&#xf1;" horiz-adv-x="1180" d="M110 0V874L316 1080H864L1070 874V0H788V736L727 797H453L392 736V0H110ZM246 134H260V795L399 933H787L924 797V134H938V801L792 947H394L246 799V134ZM318 1112V1248L430 1360H608L664 1304H682V1360H874V1224L762
1112H584L528 1168H510V1112H318ZM412 1182H425V1200L485 1266H561L628 1195H716L787 1272V1292H774V1274L713 1209H630L564 1279H482L412 1202V1182Z" />
<glyph unicode="&#xf2;" horiz-adv-x="1257" d="M316 0L110 206V874L316 1080H941L1147 874V206L941 0H316ZM396 134H873L1012 277V807L873 947H388L248 806V282L396 134ZM401 148L262 286V802L393 933H868L998 803V281L868 148H401ZM454 283H803L864 344V736L803
797H454L393 736V344L454 283ZM773 1112H526L242 1376H529L773 1112ZM589 1180L469 1306H453L574 1180H589Z" />
<glyph unicode="&#xf3;" horiz-adv-x="1257" d="M316 0L110 206V874L316 1080H941L1147 874V206L941 0H316ZM396 134H873L1012 277V807L873 947H388L248 806V282L396 134ZM401 148L262 286V802L393 933H868L998 803V281L868 148H401ZM454 283H803L864 344V736L803
797H454L393 736V344L454 283ZM505 1112L749 1376H1036L752 1112H505ZM690 1180H704L825 1306H810L690 1180Z" />
<glyph unicode="&#xf4;" horiz-adv-x="1257" d="M316 0L110 206V874L316 1080H941L1147 874V206L941 0H316ZM396 134H873L1012 277V807L873 947H388L248 806V282L396 134ZM401 148L262 286V802L393 933H868L998 803V281L868 148H401ZM454 283H803L864 344V736L803
797H454L393 736V344L454 283ZM502 1396H754L978 1112H701L628 1220L555 1112H278L502 1396ZM567 1318L482 1202H497L574 1307H679L755 1202H771L686 1318H567Z" />
<glyph unicode="&#xf5;" horiz-adv-x="1257" d="M316 0L110 206V874L316 1080H941L1147 874V206L941 0H316ZM396 134H873L1012 277V807L873 947H388L248 806V282L396 134ZM401 148L262 286V802L393 933H868L998 803V281L868 148H401ZM454 283H803L864 344V736L803
797H454L393 736V344L454 283ZM349 1112V1248L461 1360H639L695 1304H713V1360H905V1224L793 1112H615L559 1168H541V1112H349ZM443 1182H456V1200L516 1266H592L659 1195H747L818 1272V1292H805V1274L744 1209H661L595 1279H513L443 1202V1182Z" />
<glyph unicode="&#xf6;" horiz-adv-x="1257" d="M316 0L110 206V874L316 1080H941L1147 874V206L941 0H316ZM396 134H873L1012 277V807L873 947H388L248 806V282L396 134ZM401 148L262 286V802L393 933H868L998 803V281L868 148H401ZM454 283H803L864 344V736L803
797H454L393 736V344L454 283ZM731 1132V1342H943V1132H731ZM315 1132V1342H527V1132H315ZM415 1224H424V1248H415V1224ZM833 1224H842V1248H833V1224Z" />
<glyph unicode="&#xf7;" horiz-adv-x="836" d="M102 476V732H734V476H102ZM232 594H616V608H232V594ZM309 159V369H521V159H309ZM409 249H418V277H409V249ZM309 839V1049H521V839H309ZM409 929H418V957H409V929Z" />
<glyph unicode="&#xf8;" horiz-adv-x="1158" d="M300 -53L104 86L162 166L122 206V874L328 1080H813H818L858 1137L1054 1000L987 906L1018 874V206L813 0H338L334 -5L300 -53ZM538 283H674L736 344V551L538 283ZM254 74L335 189L394 131H752L880 257V828L824
881L908 1001L898 1008L815 890L757 950H401L263 821V262L325 199L243 82L254 74ZM399 145L343 200L817 870L866 824V261L747 145H399ZM333 210L277 266V817L406 936H752L808 879L333 210ZM405 510L618 798H467L405 736V510Z" />
<glyph unicode="&#xf9;" horiz-adv-x="1202" d="M316 0L110 206V1080H393V344L454 283H748L809 344V1080H1092V206L886 0H316ZM394 135H817L959 288V947H945V292L812 149H399L257 293V947H243V289L394 135ZM748 1112H501L217 1376H504L748 1112ZM564 1180L444
1306H428L549 1180H564Z" />
<glyph unicode="&#xfa;" horiz-adv-x="1202" d="M316 0L110 206V1080H393V344L454 283H748L809 344V1080H1092V206L886 0H316ZM394 135H817L959 288V947H945V292L812 149H399L257 293V947H243V289L394 135ZM480 1112L724 1376H1011L727 1112H480ZM665 1180H679L800
1306H785L665 1180Z" />
<glyph unicode="&#xfb;" horiz-adv-x="1202" d="M316 0L110 206V1080H393V344L454 283H748L809 344V1080H1092V206L886 0H316ZM394 135H817L959 288V947H945V292L812 149H399L257 293V947H243V289L394 135ZM477 1396H729L953 1112H676L603 1220L530 1112H253L477
1396ZM542 1318L457 1202H472L549 1307H654L730 1202H746L661 1318H542Z" />
<glyph unicode="&#xfc;" horiz-adv-x="1202" d="M316 0L110 206V1080H393V344L454 283H748L809 344V1080H1092V206L886 0H316ZM394 135H817L959 288V947H945V292L812 149H399L257 293V947H243V289L394 135ZM706 1132V1342H918V1132H706ZM290 1132V1342H502V1132H290ZM390
1224H399V1248H390V1224ZM808 1224H817V1248H808V1224Z" />
<glyph unicode="&#xfd;" horiz-adv-x="1206" d="M316 0L110 206V1080H393V344L454 283H699L799 383V1080H1081V-194L875 -400H160V-118H718L799 -37V20L779 0H316ZM292 -269H790L950 -104V947H936V345L740 150H389L257 284V947H243V280L384 136H745L936 327V-100L785
-255H292V-269ZM470 1112L714 1376H1001L717 1112H470ZM655 1180H669L790 1306H775L655 1180Z" />
<glyph unicode="&#xfe;" horiz-adv-x="1132" d="M105 -400V1500H388V1061L408 1080H820L1027 874V206L820 0H408L388 19V-400H105ZM468 282H683L744 344V736L683 798H468L388 717V363L468 282ZM242 -248H256V311L427 140H758L894 276V817L758 953H427L256 782V1363H242V-248ZM432
154L256 329V764L432 939H753L880 813V280L753 154H432Z" />
<glyph unicode="&#xff;" horiz-adv-x="1206" d="M316 0L110 206V1080H393V344L454 283H699L799 383V1080H1081V-194L875 -400H160V-118H718L799 -37V20L779 0H316ZM292 -269H790L950 -104V947H936V345L740 150H389L257 284V947H243V280L384 136H745L936 327V-100L785
-255H292V-269ZM696 1132V1342H908V1132H696ZM280 1132V1342H492V1132H280ZM380 1224H389V1248H380V1224ZM798 1224H807V1248H798V1224Z" />
<glyph unicode="&#x2013;" horiz-adv-x="962" d="M102 476V732H860V476H102ZM232 594H742V608H232V594Z" />
<glyph unicode="&#x2014;" horiz-adv-x="1141" d="M102 476V732H1039V476H102ZM232 594H921V608H232V594Z" />
<glyph unicode="&#x2018;" horiz-adv-x="558" d="M469 1400L355 942H84L243 1400H469ZM331 1294H324L249 1074H268L331 1294Z" />
<glyph unicode="&#x2019;" horiz-adv-x="558" d="M82 942L196 1400H467L308 942H82ZM221 1048H227L302 1268H284L221 1048Z" />
<glyph unicode="&#x201a;" horiz-adv-x="534" d="M162 -184L116 -12V270H418V-12L370 -184H162ZM266 -76H273L277 -7V143H264V-7L266 -76Z" />
<glyph unicode="&#x201c;" horiz-adv-x="848" d="M772 1400L658 942H387L546 1400H772ZM634 1294H627L552 1074H571L634 1294ZM452 1400L338 942H67L226 1400H452ZM314 1294H307L232 1074H251L314 1294Z" />
<glyph unicode="&#x201d;" horiz-adv-x="848" d="M82 942L196 1400H467L308 942H82ZM221 1048H227L302 1268H284L221 1048ZM402 942L516 1400H787L628 942H402ZM541 1048H547L622 1268H604L541 1048Z" />
<glyph unicode="&#x201e;" horiz-adv-x="909" d="M537 -184L491 -12V270H793V-12L745 -184H537ZM641 -76H648L652 -7V143H639V-7L641 -76ZM162 -184L116 -12V270H418V-12L370 -184H162ZM266 -76H273L277 -7V143H264V-7L266 -76Z" />
<glyph unicode="&#x2022;" horiz-adv-x="856" d="M311 346L82 562V854L311 1070H545L774 854V562L545 346H311ZM423 689H435L447 700V716L435 728L423 727L412 716V700L423 689Z" />
<glyph unicode="&#x2039;" horiz-adv-x="912" d="M645 216L197 466V759L645 1003V710L426 612V612L645 510V216ZM547 409V423L311 545V681L547 803V818L297 690V537L547 409Z" />
<glyph unicode="&#x203a;" horiz-adv-x="912" d="M267 216V510L486 612V612L267 710V1003L715 759V466L267 216ZM365 409L615 537V690L365 818V803L601 681V545L365 423V409Z" />
</font>
</defs>
</svg>
