<?xml version="1.0" standalone="no"?>
<!DOCTYPE svg PUBLIC "-//W3C//DTD SVG 1.1//EN" "http://www.w3.org/Graphics/SVG/1.1/DTD/svg11.dtd">
<svg xmlns="http://www.w3.org/2000/svg">
<defs >
<font id="Tourney" horiz-adv-x="1181" ><font-face
    font-family="Tourney Thin"
    units-per-em="2000"
    panose-1="0 0 0 0 0 0 0 0 0 0"
    ascent="1800"
    descent="-400"
    alphabetic="0" />
<glyph unicode=" " horiz-adv-x="550" />
<glyph unicode="!" horiz-adv-x="558" d="M85 388L170 1079L245 1428H531L456 1079L247 388H85ZM158 480H218L377 1065L436 1342H307L248 1065L158 480ZM-73 0L-11 294H303L241 0H-73ZM25 80H178L206 215H53L25 80Z" />
<glyph unicode="&quot;" horiz-adv-x="860" d="M246 946L236 1118L296 1400H598L538 1118L454 946H246ZM321 1014H412L460 1128L501 1325H364L323 1128L321 1014ZM576 946L566 1118L626 1400H928L868 1118L784 946H576ZM651 1014H742L790 1128L831 1325H694L653
1128L651 1014Z" />
<glyph unicode="#" horiz-adv-x="1344" d="M82 0L177 298H15L67 544H255L350 846H187L239 1092H427L526 1400H811L712 1092H875L974 1400H1259L1160 1092H1327L1275 846H1083L988 544H1155L1103 298H909L814 0H530L625 298H461L366 0H82ZM433 475L576 918H905L763
475H433ZM540 544H704L798 846H635L540 544ZM176 70H304L398 365H728L634 70H761L855 365H1055L1079 475H890L1033 918H1230L1253 1028H1068L1167 1335H1040L941 1028H611L710 1335H583L484 1028H294L271 918H448L305 475H119L96 365H271L176 70Z" />
<glyph unicode="$" horiz-adv-x="1282" d="M319 -96L339 0H189L27 206L81 458H364L339 344L387 283H697L771 344L807 514L759 575H317L155 781L243 1194L493 1400H637L657 1496H938L918 1400H1054L1216 1194L1162 942H879L904 1056L856 1117H571L496 1056L467
919L516 858H958L1120 652L1025 206L775 0H620L600 -96H319ZM406 -42H534L559 77H754L957 244L1036 615L904 783H461L379 885L424 1096L546 1196H907L988 1096L971 1016H1099L1130 1158L998 1325H824L849 1444H722L696 1325H511L309 1158L238 823L366 654H814L894
554L841 306L719 205H339L258 306L276 390H148L117 244L248 77H431L406 -42Z" />
<glyph unicode="%" horiz-adv-x="1556" d="M35 0L1338 1400H1561L258 0H35ZM161 69H257L1432 1328H1336L161 69ZM249 709L145 841L236 1268L396 1400H753L857 1268L766 841L606 709H249ZM291 761H591L719 868L799 1242L715 1349H413L284 1241L205 871L291 761ZM344
837L289 906L353 1206L434 1273H662L715 1207L651 903L570 837H344ZM376 890H556L603 929L656 1180L626 1219H446L398 1180L345 929L376 890ZM786 -79L682 53L773 480L933 612H1290L1394 480L1303 53L1143 -79H786ZM828 -27H1127L1256 80L1335 454L1252 561H950L820
453L741 83L828 -27ZM880 49L825 118L889 418L970 485H1199L1252 419L1187 115L1106 49H880ZM912 102H1092L1140 141L1193 392L1162 431H982L935 392L882 141L912 102Z" />
<glyph unicode="&amp;" horiz-adv-x="1282" d="M199 -1L37 205L114 567L411 814L296 970L343 1193L593 1399H827L989 1193L942 970L757 809L882 634L898 708H1142L1061 327L764 -1H199ZM358 282H641L730 371L544 628L356 470L325 324L358 282ZM324 208L248 300L290
493L565 734L826 370L675 208H324ZM253 79H731L1003 379L1058 640H950L920 500L900 476L659 812L868 992L906 1170L782 1326H606L416 1170L378 992L506 815L180 535L118 245L253 79ZM601 898L507 1035L526 1122L622 1202H714L776 1122L758 1035L601 898ZM625 1002L697
1068L701 1083L674 1124H629L586 1083L582 1068L625 1002Z" />
<glyph unicode="&apos;" horiz-adv-x="534" d="M246 946L236 1118L296 1400H598L538 1118L454 946H246ZM321 1014H412L460 1128L501 1325H364L323 1128L321 1014Z" />
<glyph unicode="(" horiz-adv-x="784" d="M162 -400L-6 -186L306 1286L566 1500H953L583 1202L305 -102L549 -400H162ZM210 -318H380L219 -120L505 1229L751 1427H581L380 1262L79 -153L210 -318Z" />
<glyph unicode=")" horiz-adv-x="784" d="M226 -400H-161L209 -102L487 1202L243 1500H630L798 1286L486 -186L226 -400ZM214 -318L415 -153L716 1262L585 1427H415L575 1229L289 -120L44 -318H214Z" />
<glyph unicode="*" horiz-adv-x="804" d="M227 896L251 1009L132 939L53 1116L213 1208L91 1304L243 1479L335 1407L361 1528H579L554 1408L675 1479L753 1304L589 1208L711 1116L556 939L468 1007L445 896H227ZM305 968H398L432 1124L553 1029L619 1104L482 1210L662
1317L629 1391L468 1296L502 1458H409L375 1294L255 1389L190 1314L322 1210L144 1106L178 1031L339 1126L305 968Z" />
<glyph unicode="+" horiz-adv-x="836" d="M223 288L263 476H75L129 732H317L357 920H613L573 732H761L707 476H519L479 288H223ZM310 363H424L463 545H649L673 659H487L526 843H412L373 659H193L169 545H349L310 363Z" />
<glyph unicode="," horiz-adv-x="558" d="M72 -160L168 0H120L182 294H484L426 19L263 -160H72ZM173 -97H246L362 40L398 211H236L208 78H265L257 40L173 -97Z" />
<glyph unicode="-" horiz-adv-x="836" d="M75 476L129 732H761L707 476H75ZM169 545H649L673 659H193L169 545Z" />
<glyph unicode="." horiz-adv-x="558" d="M91 0L153 294H467L405 0H91ZM189 80H342L370 215H217L189 80Z" />
<glyph unicode="/" horiz-adv-x="624" d="M-143 -201L469 1500H752L140 -201H-143ZM-39 -125H89L651 1427H522L-39 -125Z" />
<glyph unicode="0" horiz-adv-x="1125" d="M132 0L-30 206L180 1194L430 1400H993L1155 1194L945 206L695 0H132ZM370 283H637L711 344L816 838L370 283ZM282 208L263 250L894 1055L927 1030L774 309L651 208H282ZM182 80H676L879 247L1073 1158L941 1325H446L244
1158L50 247L182 80ZM199 384L350 1096L472 1196H834L853 1155L229 360L199 384ZM314 584L742 1117H489L414 1056L314 584Z" />
<glyph unicode="1" horiz-adv-x="969" d="M-73 0L-13 283H253L420 1069L138 994L205 1305L585 1400H773L535 283H805L745 0H-73ZM27 75H676L704 203H443L681 1323H588L268 1240L238 1098L521 1176L314 203H55L27 75Z" />
<glyph unicode="2" horiz-adv-x="1080" d="M-74 0L49 577L299 783H680L754 844L799 1056L751 1117H507L433 1056L402 913H120L180 1194L430 1400H948L1110 1194L1006 706L756 500H375L302 439L268 283H916L856 0H-74ZM23 77H789L816 205H179L237 480L360 581H734L940
750L1027 1160L895 1327H456L253 1160L217 989H345L368 1098L491 1199H805L885 1098L824 812L699 709H325L121 542L23 77Z" />
<glyph unicode="3" horiz-adv-x="1073" d="M132 0L-30 206L28 477H310L281 344L329 283H566L640 344L673 497L625 558H409L469 840H684L760 907L792 1056L744 1117H507L433 1056L404 923H122L180 1194L430 1400H941L1103 1194L1011 763L935 700L984 635L893 206L643
0H132ZM187 80H623L826 247L900 595L817 699L944 805L1020 1158L887 1325H451L249 1158L213 991H342L364 1096L486 1196H797L878 1096L830 869L704 764H517L490 636H677L758 533L711 309L588 208H277L197 309L218 410H90L55 247L187 80Z" />
<glyph unicode="4" horiz-adv-x="1088" d="M440 0L508 321H-31L39 648L590 1400H1021L852 604H1018L957 321H791L723 0H440ZM535 70H664L732 392H908L936 521H760L930 1325H625L117 642L64 392H604L535 70ZM234 521L261 649L659 1184H772L631 521H234ZM341 604H569L672
1091H663L350 649L341 604Z" />
<glyph unicode="5" horiz-adv-x="1086" d="M132 0L-30 206L24 458H306L281 344L329 283H579L653 344L717 643L669 704H429L322 608H55L224 1400H1155L1095 1117H446L412 957L448 987H866L1028 780L906 206L656 0H132ZM192 76H634L838 244L944 744L812 913H441L339
829H309L387 1196H1034L1062 1325H286L150 685H311L428 784H722L803 683L723 306L599 204H282L196 311L215 397H87L55 249L192 76Z" />
<glyph unicode="6" horiz-adv-x="1082" d="M132 0L-30 206L180 1194L430 1400H944L1107 1194L1062 981H779L795 1056L747 1117H507L433 1056L403 918L440 948H854L1016 742L902 206L652 0H132ZM281 207L197 311L260 604L431 743H709L790 642L719 308L596 207H281ZM329
283H575L649 344L705 604L657 665H431L333 585L281 344L329 283ZM191 78H631L834 246L932 704L799 872H439L291 751L364 1096L488 1196H799L879 1096L867 1040H996L1021 1158L889 1325H453L250 1158L56 249L191 78Z" />
<glyph unicode="7" horiz-adv-x="984" d="M-65 0L698 965L731 1117H129L189 1400H1073L967 905L274 0H-65ZM87 70H238L894 921L980 1323H248L220 1194H824L771 947L87 70Z" />
<glyph unicode="8" horiz-adv-x="1080" d="M132 0L-30 206L61 633L169 719L98 808L180 1194L430 1400H948L1110 1194L1028 808L919 717L991 633L900 206L650 0H132ZM279 207L198 308L250 553L376 655H688L769 553L717 308L595 207H279ZM189 79H630L832 246L909
606L817 719L958 835L1026 1155L894 1322H453L250 1155L182 835L274 720L133 606L56 246L189 79ZM403 784L322 889L365 1093L488 1194H804L884 1093L841 889L715 784H403ZM329 283H573L647 344L684 516L636 577H392L318 516L281 344L329 283ZM453 860H695L771 926L799
1056L751 1117H507L433 1056L405 926L453 860Z" />
<glyph unicode="9" horiz-adv-x="1082" d="M950 1400L1112 1194L902 206L652 0H138L-25 206L20 419H303L287 344L335 283H575L649 344L679 482L642 452H228L66 658L180 1194L430 1400H950ZM801 1193L885 1089L822 796L651 657H373L292 758L363 1092L486 1193H801ZM753
1117H507L433 1056L377 796L425 735H651L749 815L801 1056L753 1117ZM891 1322H451L248 1154L150 696L283 528H643L791 649L718 304L594 204H283L203 304L215 360H86L61 242L193 75H629L832 242L1026 1151L891 1322Z" />
<glyph unicode=":" horiz-adv-x="558" d="M151 787L213 1081H527L465 787H151ZM249 867H402L430 1002H277L249 867ZM239 0L301 294H615L553 0H239ZM337 80H490L518 215H365L337 80Z" />
<glyph unicode=";" horiz-adv-x="558" d="M205 -160L301 0H253L315 294H617L559 19L396 -160H205ZM306 -97H379L495 40L531 211H369L341 78H398L390 40L306 -97ZM151 787L213 1081H527L465 787H151ZM249 867H402L430 1002H277L249 867Z" />
<glyph unicode="&lt;" horiz-adv-x="826" d="M588 -2L75 417L148 763L840 1186L764 827L352 590V590L664 358L588 -2ZM543 151L577 309L268 541L289 637L697 873L731 1031L198 711L146 466L543 151Z" />
<glyph unicode="=" horiz-adv-x="836" d="M75 276L129 532H761L707 276H75ZM169 345H649L673 459H193L169 345ZM75 676L129 932H761L707 676H75ZM169 745H649L673 859H193L169 745Z" />
<glyph unicode="&gt;" horiz-adv-x="826" d="M-14 -2L62 358L474 590V590L162 827L238 1186L750 763L677 417L-14 -2ZM95 151L626 466L678 711L283 1031L249 873L557 637L536 541L129 309L95 151Z" />
<glyph unicode="?" horiz-adv-x="1100" d="M363 379L407 587L732 854L775 1056L726 1117H576L501 1056L476 942H194L248 1194L498 1400H924L1086 1194L988 735L664 467L646 379H363ZM369 78H517L545 206H396L369 78ZM275 0L335 283H636L576 0H275ZM456 445H585L596
498L919 767L1001 1156L870 1323H524L321 1156L291 1016H420L436 1094L559 1195H780L859 1094L801 819L478 550L456 445Z" />
<glyph unicode="@" horiz-adv-x="1834" d="M151 -68L-18 146L222 1274L481 1488H1673L1842 1274L1678 502L1418 288H1164L1105 366L1010 288H606L438 502L528 928L788 1142H1212L1380 928L1316 626L1351 582H1357L1410 626L1517 1130L1467 1194H563L485 1130L307
290L357 226H1407L1345 -68H151ZM209 12H1288L1316 145H302L218 250L414 1169L542 1274H1518L1602 1169L1480 595L1363 499H1304L1229 595L1291 885L1157 1067H813L605 895L529 540L666 366H996L1133 479L1221 366H1390L1601 540L1748 1233L1611 1407H505L294 1233L72
186L209 12ZM749 499L674 595L726 841L840 934H1074L1146 831L1096 595L979 499H749ZM793 582H969L1022 626L1060 804L1025 848H849L796 804L758 626L793 582Z" />
<glyph unicode="A" horiz-adv-x="1288" d="M-34 0L220 1194L470 1400H1116L1278 1194L1024 0H742L830 412H336L248 0H-34ZM64 83H192L277 487H923L837 83H966L1195 1160L1062 1327H495L293 1160L64 83ZM396 694H890L967 1056L919 1117H547L473 1056L396 694ZM305
616L407 1098L530 1199H973L1053 1098L950 616H305Z" />
<glyph unicode="B" horiz-adv-x="1273" d="M-24 0L274 1400H1056L1218 1194L1142 837L1034 748L1140 613L1053 206L803 0H-24ZM73 76H779L984 245L1057 584L935 740H917L1071 867L1133 1160L1001 1327H339L73 76ZM229 204L324 652H817L916 527L869 307L744 204H229ZM351
781L440 1198H911L991 1098L953 919L784 781H351ZM319 283H725L799 344L829 485L760 573H381L319 283ZM441 856H764L885 955L907 1056L859 1117H497L441 856Z" />
<glyph unicode="C" horiz-adv-x="1244" d="M162 0L0 206L210 1194L460 1400H1081L1244 1194L1176 872H893L932 1056L884 1117H538L464 1056L312 344L360 283H706L780 344L819 528H1102L1034 206L783 0H162ZM216 78H762L965 245L1011 459H883L850 307L727 206H307L227
307L394 1096L517 1196H937L1018 1096L985 944H1114L1160 1158L1027 1325H481L279 1158L85 245L216 78Z" />
<glyph unicode="D" horiz-adv-x="1289" d="M-24 0L274 1400H1107L1269 1194L1059 206L809 0H-24ZM319 283H732L806 344L958 1056L910 1117H497L319 283ZM71 77H786L989 244L1183 1155L1051 1322H335L71 77ZM227 206L436 1194H961L1041 1093L874 306L751 206H227Z" />
<glyph unicode="E" horiz-adv-x="1140" d="M-34 0L264 1400H1174L1114 1117H487L429 848H987L927 565H369L309 283H936L876 0H-34ZM62 80H825L852 208H218L311 643H875L902 771H338L428 1196H1062L1089 1325H327L62 80Z" />
<glyph unicode="F" horiz-adv-x="1080" d="M-34 0L264 1400H1154L1094 1117H487L429 848H998L938 565H369L249 0H-34ZM59 75H188L309 644H878L906 773H336L426 1196H1035L1062 1325H325L59 75Z" />
<glyph unicode="G" horiz-adv-x="1278" d="M172 0L10 206L220 1194L470 1400H1106L1268 1194L1214 942H932L957 1056L909 1117H546L472 1054L321 343L368 283H731L805 344L835 482H558L618 764H1177L1058 206L808 0H172ZM228 80H787L990 247L1084 686H679L651
557H928L875 309L752 208H319L238 307L405 1096L528 1196H962L1042 1096L1025 1016H1154L1184 1158L1052 1325H493L291 1158L97 247L228 80Z" />
<glyph unicode="H" horiz-adv-x="1295" d="M-24 0L274 1400H557L439 848H919L1037 1400H1319L1021 0H739L859 565H379L259 0H-24ZM70 76H199L319 644H954L833 76H961L1226 1325H1098L981 773H347L464 1325H335L70 76Z" />
<glyph unicode="I" horiz-adv-x="1059" d="M-34 0L26 283H300L478 1117H204L264 1400H1093L1033 1117H760L582 283H855L795 0H-34ZM59 77H736L763 205H484L694 1196H973L1001 1325H324L297 1196H566L356 205H87L59 77Z" />
<glyph unicode="J" horiz-adv-x="1216" d="M173 0L10 206L86 563H369L322 344L370 283H668L742 344L907 1117H395L455 1400H1250L996 206L745 0H173ZM229 81H728L930 248L1159 1325H513L485 1196H1003L815 310L693 209H319L238 310L276 488H147L96 248L229 81Z" />
<glyph unicode="K" horiz-adv-x="1298" d="M-24 0L274 1400H557L439 848H788L933 967L1025 1400H1308L1190 848L1020 708L1130 565L1010 0H727L822 447L728 565H379L259 0H-24ZM70 78H198L320 648H785L909 488L821 78H950L1048 540L918 712L1120 879L1215 1325H1086L1003
931L815 777H347L463 1325H335L70 78Z" />
<glyph unicode="L" horiz-adv-x="1091" d="M-24 0L274 1400H557L319 283H927L867 0H-24ZM70 76H807L835 205H226L464 1325H335L70 76Z" />
<glyph unicode="M" horiz-adv-x="1741" d="M-24 0L274 1400H822L780 407H828L1208 1400H1765L1467 0H1184L1421 1116H1382L999 120H497L537 1116H496L259 0H-24ZM69 77H198L435 1194H611L578 205H947L1340 1194H1515L1278 77H1406L1671 1324H1261L870 336H708L741
1324H334L69 77Z" />
<glyph unicode="N" horiz-adv-x="1465" d="M69 75H197L435 1192H616L728 77H1132L1397 1325H1268L1031 208H850L739 1322H334L69 75ZM-24 0L274 1400H817L916 287H969L1206 1400H1489L1191 0H648L547 1116H496L259 0H-24Z" />
<glyph unicode="O" horiz-adv-x="1306" d="M172 0L10 206L220 1194L470 1400H1134L1296 1194L1086 206L836 0H172ZM370 283H758L832 344L984 1056L936 1117H548L474 1056L322 344L370 283ZM229 80H814L1017 247L1211 1158L1079 1325H493L291 1158L97 247L229 80ZM319
208L239 309L406 1096L529 1196H989L1069 1096L902 309L779 208H319Z" />
<glyph unicode="P" horiz-adv-x="1258" d="M-24 0L274 1400H1105L1267 1194L1150 643L877 418H348L259 0H-24ZM67 68H195L287 498H860L1085 684L1186 1158L1054 1325H334L67 68ZM408 701H799L897 781L956 1056L908 1117H497L408 701ZM314 626L435 1196H964L1044
1096L970 745L824 626H314Z" />
<glyph unicode="Q" horiz-adv-x="1342" d="M835 -242L646 0H172L10 206L220 1194L470 1400H1160L1322 1194L1112 206L965 85L1068 -50L835 -242ZM868 -147L973 -60L844 108H876L1044 247L1238 1158L1106 1325H493L291 1158L97 247L229 80H692L868 -147ZM370 283H784L859
344L1010 1056L961 1117H547L473 1056L322 344L370 283ZM319 208L239 309L406 1096L529 1196H1016L1096 1096L929 309L806 208H319Z" />
<glyph unicode="R" horiz-adv-x="1309" d="M-24 0L274 1400H1137L1299 1194L1207 760L1061 648L1155 515L1045 0H762L850 415L772 515H369L259 0H-24ZM70 76H199L309 596H822L936 443L858 76H986L1073 485L953 656L1134 790L1212 1157L1080 1324H335L70 76ZM429
798H871L945 860L987 1056L939 1117H497L429 798ZM336 725L436 1196H990L1070 1095L1014 833L868 725H336Z" />
<glyph unicode="S" horiz-adv-x="1302" d="M172 0L10 206L64 458H347L322 344L370 283H754L828 344L861 498L813 559H297L135 765L226 1194L476 1400H1111L1273 1194L1219 942H936L961 1056L913 1117H554L479 1056L446 903L495 842H1011L1173 636L1082 206L832
0H172ZM225 77H807L1010 244L1087 608L964 766H443L362 867L410 1094L533 1194H970L1046 1099L1028 1013H1157L1188 1161L1061 1323H498L295 1156L221 806L354 636H873L946 548L894 306L772 205H315L239 301L257 387H129L97 239L225 77Z" />
<glyph unicode="T" horiz-adv-x="1126" d="M273 0L511 1117H164L224 1400H1200L1140 1117H793L555 0H273ZM366 75H494L732 1196H1082L1110 1325H282L254 1196H604L366 75Z" />
<glyph unicode="U" horiz-adv-x="1328" d="M172 0L10 206L264 1400H547L322 344L370 283H780L854 344L1079 1400H1362L1108 206L858 0H172ZM228 77H837L1039 243L1269 1325H1140L924 305L801 206H318L237 305L453 1325H325L95 243L228 77Z" />
<glyph unicode="V" horiz-adv-x="1338" d="M352 0L56 376L274 1400H557L368 514L529 311H644L890 514L1079 1400H1362L1144 376L688 0H352ZM408 77H667L1075 413L1269 1325H1140L960 475L645 217H490L283 475L463 1325H335L141 413L408 77Z" />
<glyph unicode="W" horiz-adv-x="1738" d="M274 1400H557L320 284H364L741 1280H1243L1199 284H1242L1479 1400H1762L1464 0H913L960 993H912L537 0H-24L274 1400ZM334 1324L69 77H483L867 1065H1033L999 77H1403L1668 1324H1540L1302 207H1128L1161 1196H790L406
207H225L463 1324H334Z" />
<glyph unicode="X" horiz-adv-x="1353" d="M-24 0L86 515L320 708L167 898L274 1400H557L476 1017L608 848H807L1012 1017L1094 1400H1377L1270 898L1039 708L1188 515L1079 0H796L880 397L747 565H548L344 397L259 0H-24ZM70 77H199L273 424L537 644H792L963
424L890 77H1018L1103 476L926 709L1200 935L1283 1325H1155L1083 987L822 773H563L392 987L464 1325H335L253 935L433 708L156 476L70 77Z" />
<glyph unicode="Y" horiz-adv-x="1294" d="M356 0L450 443L132 825L254 1400H537L436 927L650 674H631L954 927L1055 1400H1338L1216 825L733 443L639 0H356ZM449 75H578L662 474L1144 854L1244 1325H1116L1024 896L623 581H619L352 897L443 1325H314L214 852L533
472L449 75Z" />
<glyph unicode="Z" horiz-adv-x="1123" d="M57 78H811L838 206H227L265 385L1001 987L1073 1325H335L308 1196H907L871 1027L131 422L57 78ZM-44 0L52 448L790 1053L804 1117H214L274 1400H1167L1072 956L342 359L326 283H929L869 0H-44Z" />
<glyph unicode="[" horiz-adv-x="656" d="M-100 -400L304 1500H796L733 1206H535L257 -106H455L392 -400H-100ZM-2 -315H328L357 -182H160L471 1286H668L697 1419H367L-2 -315Z" />
<glyph unicode="\" horiz-adv-x="624" d="M391 -201H108L220 1500H503L391 -201ZM321 -125L418 1427H290L192 -125H321Z" />
<glyph unicode="]" horiz-adv-x="656" d="M358 -400H-134L-71 -106H127L405 1206H207L270 1500H762L358 -400ZM296 -315L665 1419H335L306 1286H503L192 -182H-5L-34 -315H296Z" />
<glyph unicode="^" horiz-adv-x="912" d="M14 980L360 1428H653L801 980H508L457 1199V1199L308 980H14ZM148 1043H277L446 1283H505L570 1043H699L596 1364H389L148 1043Z" />
<glyph unicode="_" horiz-adv-x="1156" d="M75 -256L129 0H1081L1027 -256H75ZM170 -183H970L994 -69H194L170 -183Z" />
<glyph unicode="`" horiz-adv-x="688" d="M562 1112H315L87 1376H374L562 1112ZM451 1160L330 1327H212L350 1160H451Z" />
<glyph unicode="a" horiz-adv-x="1253" d="M201 0L39 206L100 491L349 697H893L902 736L854 797H179L239 1080H1052L1214 874L1072 206L822 0H201ZM348 205L267 307L289 413L394 500H934L895 312L765 205H348ZM258 77H800L1010 250L1135 835L1001 1004H304L277
876H911L993 773L961 623H369L171 461L125 245L258 77ZM399 283H744L818 344L835 424H409L358 382L350 344L399 283Z" />
<glyph unicode="b" horiz-adv-x="1166" d="M173 0L9 206L284 1500H567L474 1061L498 1080H964L1127 874L985 206L735 0H173ZM321 203L236 310L329 744L493 878H824L901 782L800 310L670 203H321ZM370 283H658L732 344L815 736L767 798H498L401 717L322 344L370
283ZM232 75H705L916 248L1042 844L913 1007H496L361 896L474 1425H345L95 248L232 75Z" />
<glyph unicode="c" horiz-adv-x="1250" d="M201 0L39 206L181 874L431 1080H1195L1135 797H509L435 736L351 344L399 283H1025L965 0H201ZM263 77H905L932 206H353L268 312L366 774L492 877H1075L1102 1005H456L251 836L126 248L263 77Z" />
<glyph unicode="d" horiz-adv-x="1256" d="M765 0H203L39 206L181 874L432 1080H898L914 1061L1007 1500H1290L1015 206L765 0ZM702 203H354L269 310L370 782L488 878H819L925 744L832 310L702 203ZM688 283L762 344L841 717L778 798H509L435 736L352 344L400
283H688ZM738 75L948 248L1198 1425H1070L957 896L870 1007H452L254 844L128 248L264 75H738Z" />
<glyph unicode="e" horiz-adv-x="1253" d="M1052 1080L1214 874L1153 589L904 383H360L351 344L399 283H1074L1014 0H201L39 206L181 874L431 1080H1052ZM905 875L986 773L964 667L859 580H319L358 768L488 875H905ZM995 1003H453L243 830L118 245L252 76H949L976
204H342L260 307L292 457H884L1082 619L1128 835L995 1003ZM854 797H509L435 736L418 656H844L895 698L903 736L854 797Z" />
<glyph unicode="f" horiz-adv-x="950" d="M129 0L298 798H96L156 1080H358L404 1294L653 1500H1043L988 1237H719L665 1192L641 1080H954L894 798H581L412 0H129ZM222 75H350L520 875H837L864 1004H547L593 1218L705 1310H930L955 1429H675L474 1264L419 1004H217L190
875H392L222 75Z" />
<glyph unicode="g" horiz-adv-x="1255" d="M-40 -400L20 -118H582L680 -37L692 20L668 0H201L39 206L181 874L430 1080H993L1156 874L928 -194L679 -400H-40ZM53 -325H646L866 -140L1073 833L937 1006H454L250 838L126 252L262 78H664L810 198L753 -69L601 -196H80L53
-325ZM353 207L267 314L366 776L489 878H847L932 771L844 359L658 207H353ZM399 283H648L769 383L844 737L795 798H508L434 737L351 344L399 283Z" />
<glyph unicode="h" horiz-adv-x="1166" d="M-34 0L284 1499H567L474 1061L497 1080H964L1126 874L941 0H658L814 736L766 798H498L401 717L249 0H-34ZM60 77H189L332 747L489 876H825L902 780L752 77H880L1043 842L915 1005H492L364 900L476 1424H347L60 77Z" />
<glyph unicode="i" horiz-adv-x="972" d="M486 1237L541 1500H863L808 1237H486ZM588 1308H736L763 1437H615L588 1308ZM-4 0L56 283H323L432 797H165L225 1080H774L605 283H872L812 0H-4ZM88 77H752L779 205H506L676 1005H286L259 876H521L378 205H116L88 77Z" />
<glyph unicode="j" horiz-adv-x="767" d="M-217 -400L-157 -118H94L191 -37L369 798H38L98 1080H712L441 -194L191 -400H-217ZM-119 -319H171L373 -150L619 1004H156L129 876H463L260 -79L126 -191H-92L-119 -319ZM462 1236L518 1500H801L745 1236H462ZM555 1308H683L711
1437H582L555 1308Z" />
<glyph unicode="k" horiz-adv-x="1139" d="M-24 0L274 1400H557L403 678H607L752 797L812 1080H1095L1009 678L839 538L949 395L865 0H582L641 277L547 395H343L259 0H-24ZM70 78H198L283 475H602L726 315L675 78H804L865 367L735 539L937 706L1001 1006H873L820
758L632 603H310L463 1325H335L70 78Z" />
<glyph unicode="l" horiz-adv-x="913" d="M-69 0L-9 283H261L459 1217H189L249 1500H801L543 283H813L753 0H-69ZM23 77H693L720 205H447L706 1425H310L283 1296H551L319 205H51L23 77Z" />
<glyph unicode="m" horiz-adv-x="1613" d="M-5 0L181 874L431 1080H818L900 978L1025 1080H1412L1574 874L1388 0H1105L1262 736L1214 797H1064L990 736L846 60H563L707 736L659 797H509L435 736L278 0H-5ZM89 77H218L366 775L491 877H706L792 770L656 132H785L920
770L1051 877H1266L1348 775L1199 77H1328L1489 837L1356 1006H1035L879 877L777 1006H456L251 837L89 77Z" />
<glyph unicode="n" horiz-adv-x="1180" d="M-5 0L181 874L431 1080H979L1141 874L955 0H673L830 736L782 797H508L434 736L277 0H-5ZM90 77H218L366 773L491 875H834L915 774L767 77H895L1056 836L924 1004H456L251 835L90 77Z" />
<glyph unicode="o" horiz-adv-x="1257" d="M201 0L39 206L181 874L431 1080H1056L1218 874L1076 206L826 0H201ZM263 77H803L1007 245L1133 836L1000 1004H456L252 835L127 250L263 77ZM354 205L269 312L367 773L492 875H910L991 774L892 307L768 205H354ZM399
283H748L822 344L906 736L858 797H509L435 736L351 344L399 283Z" />
<glyph unicode="p" horiz-adv-x="1188" d="M-115 -378L151 874L401 1080H987L1149 874L1007 206L757 0H267L253 20L168 -378H-115ZM-22 -301H107L212 194L299 83H740L944 251L1068 836L936 1004H428L219 831L-22 -301ZM389 283H680L754 344L837 736L789 798H479L405
736L326 363L389 283ZM351 211L244 345L334 769L464 875H846L926 774L828 313L705 211H351Z" />
<glyph unicode="q" horiz-adv-x="1278" d="M913 -378H630L715 20L691 0H201L39 206L181 874L431 1080H1017L1179 874L913 -378ZM853 -301L1094 831L957 1004H450L246 836L122 251L254 83H696L830 194L725 -301H853ZM691 283L788 363L867 736L819 798H509L435 736L352
344L400 283H691ZM699 211H345L263 313L361 774L486 875H867L952 769L862 345L699 211Z" />
<glyph unicode="r" horiz-adv-x="1148" d="M-5 0L55 282H249L356 783L344 798H167L227 1080H480L531 1000L625 1080H1014L1186 861L923 649L817 797H703L629 736L532 281H726L666 0H-5ZM85 77H610L637 205H438L561 780L673 873H877L958 759L1077 856L967 1001H638L513
897L441 1001H282L255 873H385L437 800L310 205H112L85 77Z" />
<glyph unicode="s" horiz-adv-x="1203" d="M5 0L65 283H695L769 344L768 339L722 399H286L124 605L181 874L431 1080H1188L1128 797H508L434 736L435 742L483 681H917L1079 475L1022 206L772 0H5ZM98 79H755L953 243L996 445L866 607H423L352 698L369 779L485
875H1069L1096 1004H451L252 840L208 638L334 479H777L853 385L836 304L719 208H125L98 79Z" />
<glyph unicode="t" horiz-adv-x="935" d="M179 0L349 798H100L160 1080H409L467 1354H750L692 1080H940L880 798H632L522 283H763L703 0H179ZM273 77H644L671 205H429L571 877H821L848 1005H599L657 1278H528L470 1005H220L192 877H443L273 77Z" />
<glyph unicode="u" horiz-adv-x="1202" d="M201 0L39 206L225 1080H508L351 344L399 283H693L767 344L924 1080H1207L1021 206L771 0H201ZM261 78H749L954 251L1114 1004H986L839 313L714 206H352L267 313L414 1004H285L125 251L261 78Z" />
<glyph unicode="v" horiz-adv-x="1200" d="M168 0L160 1080H469L459 284H636L961 1080H1270L806 0H168ZM251 78H757L1155 1004H1017L681 209H384L386 1004H247L251 78Z" />
<glyph unicode="w" horiz-adv-x="1613" d="M225 1080H508L351 344L399 283H549L623 344L767 1020H1050L906 344L954 283H1104L1178 344L1335 1080H1618L1432 206L1182 0H795L714 102L588 0H201L39 206L225 1080ZM286 1004L125 244L258 75H579L736 203L837 75H1158L1363
244L1525 1004H1396L1248 306L1123 203H908L822 311L958 949H829L694 311L563 203H348L266 306L415 1004H286Z" />
<glyph unicode="x" horiz-adv-x="1252" d="M-5 0L73 365L294 548L150 728L225 1080H508L459 847L582 688H732L924 847L974 1080H1257L1181 728L963 548L1104 365L1027 0H744L796 247L672 405H522L331 247L278 0H-5ZM90 77H218L261 274L511 483H718L879 274L837
77H966L1018 326L850 548L1111 763L1163 1004H1034L993 815L747 612H536L375 815L415 1004H287L236 763L407 547L143 326L90 77Z" />
<glyph unicode="y" horiz-adv-x="1251" d="M202 0L40 206L225 1080H508L352 344L400 283H645L766 383L914 1080H1196L925 -194L676 -400H-39L21 -118H579L677 -37L689 20L665 0H202ZM64 -325H646L860 -145L1105 1004H977L839 359L653 207H346L267 308L415 1004H287L125
246L256 78H659L805 198L747 -74L601 -196H91L64 -325Z" />
<glyph unicode="z" horiz-adv-x="1070" d="M103 79H789L816 207H292L320 340L906 701L971 1004H301L274 875H785L757 739L166 373L103 79ZM-5 0L80 399L673 767L680 797H184L244 1080H1075L988 673L404 315L397 283H905L845 0H-5Z" />
<glyph unicode="{" horiz-adv-x="822" d="M289 362L143 -322H474L502 -189H305L421 360L299 551L503 743L619 1289H816L845 1422H514L369 740L168 551L289 362ZM504 362L405 -106H603L540 -400H48L208 351L80 551L293 751L452 1500H944L881 1206H683L584 740L383
551L504 362Z" />
<glyph unicode="|" horiz-adv-x="618" d="M-43 -428L367 1500H661L251 -428H-43ZM54 -353H187L565 1425H432L54 -353Z" />
<glyph unicode="}" horiz-adv-x="822" d="M454 362L655 551L534 740L679 1422H349L320 1289H518L402 743L524 551L320 360L204 -189H6L-22 -322H308L454 362ZM238 362L439 551L318 740L417 1206H219L282 1500H774L615 751L742 551L530 351L370 -400H-122L-59 -106H139L238
362Z" />
<glyph unicode="~" horiz-adv-x="780" d="M86 509L115 645L250 757H428L472 701H490L502 757H694L665 621L530 509H352L308 565H290L278 509H86ZM155 558H237L242 586L285 624H341L391 562H512L617 651L629 709H547L542 681L499 644H439L389 705H271L167 616L155 558Z" />
<glyph unicode="&#xa0;" horiz-adv-x="550" />
<glyph unicode="&#xa1;" horiz-adv-x="558" d="M265 1012H427L342 321L268 -28H-18L56 321L265 1012ZM298 920L140 335L81 58H210L269 335L358 920H298ZM274 1400H588L525 1106H211L274 1400ZM338 1321L309 1186H462L491 1321H338Z" />
<glyph unicode="&#xa2;" horiz-adv-x="1178" d="M291 0L324 154H232L70 360L214 1040L464 1246H556L589 1400H893L860 1246H948L1110 1040L1061 810H778L798 902L750 963H542L468 902L382 498L430 437H638L712 498L732 590H1015L966 360L716 154H628L595 0H291ZM386
62H525L561 232H691L894 400L919 517H791L779 462L655 360H384L299 467L400 941L525 1043H800L881 942L869 887H998L1023 1004L890 1172H761L797 1342H658L622 1172H489L285 1003L157 405L294 232H422L386 62Z" />
<glyph unicode="&#xa3;" horiz-adv-x="1204" d="M-74 0L-14 283H106L180 344L223 546H64L119 802H278L361 1194L611 1400H1238L1178 1117H689L615 1056L561 802H751L696 546H506L450 283H996L936 0H-74ZM5 78H880L908 206H298L369 264L443 615H638L663 729H468L545
1096L669 1196H1124L1151 1325H632L430 1158L339 729H183L158 615H315L249 307L126 206H33L5 78Z" />
<glyph unicode="&#xa4;" horiz-adv-x="1240" d="M48 8L-94 189L85 337L74 351L185 874L202 888L82 1040L302 1221L422 1069L435 1080H993L1003 1067L1190 1221L1332 1040L1146 886L1155 874L1044 351L1034 343L1156 189L936 8L815 162L794 145H236L228 156L48
8ZM434 428H716L790 489L843 736L795 797H513L439 736L386 489L434 428ZM71 113L260 268L299 222H771L832 270L959 112L1057 192L930 352L975 389L1069 834L1038 877L1234 1038L1169 1120L972 957L934 1004H460L407 960L280 1118L182 1038L309 878L255 834L162
397L198 350L9 192L71 113ZM389 350L304 457L371 773L497 875H847L928 774L860 452L736 350H389Z" />
<glyph unicode="&#xa5;" horiz-adv-x="1220" d="M319 0L334 70H161L213 316H386L393 347H220L267 569L116 750L254 1400H537L420 852L598 644L864 852L981 1400H1264L1126 750L900 571L852 347H676L669 316H845L793 70H617L602 0H319ZM412 75H541L554 139H732L755
249H578L612 409H789L814 527H735L1054 778L1170 1325H1042L935 821L578 542H574L336 821L443 1325H314L198 778L410 527H333L308 409H483L449 249H275L251 139H426L412 75Z" />
<glyph unicode="&#xa6;" horiz-adv-x="619" d="M190 665L368 1500H662L484 665H190ZM287 740H421L567 1425H433L287 740ZM-36 -400L142 435H436L258 -400H-36ZM61 -325H195L340 360H206L61 -325Z" />
<glyph unicode="&#xa7;" horiz-adv-x="1166" d="M-54 -189L6 94H569L641 153L596 210H227L65 416L122 685L200 749L149 812L206 1081L456 1287H1146L1086 1004H533L462 946L508 888H875L1037 682L980 413L904 350L953 286L896 17L646 -189H-54ZM39 -110H629L827
54L870 256L792 352L911 450L954 652L824 814H448L377 905L394 986L510 1082H1027L1054 1211H476L277 1047L233 845L310 748L193 651L149 449L275 290H651L727 196L709 115L593 19H66L39 -110ZM424 492H656L725 549L680 606H446L378 550L424 492ZM364 418L293 509L310
590L426 686H735L811 592L794 511L681 418H364Z" />
<glyph unicode="&#xa8;" horiz-adv-x="944" d="M552 1132L596 1342H808L764 1132H552ZM136 1132L180 1342H392L348 1132H136ZM210 1191H298L317 1282H229L210 1191ZM627 1191H715L734 1282H646L627 1191Z" />
<glyph unicode="&#xa9;" horiz-adv-x="1618" d="M209 -28L41 186L259 1214L519 1428H1429L1597 1214L1379 186L1119 -28H209ZM260 56H1105L1313 227L1515 1177L1380 1348H535L328 1177L126 227L260 56ZM344 189L262 291L437 1113L562 1215H1297L1378 1113L1203
291L1079 189H344ZM598 364H907L1063 497L1082 587H980L971 546L878 466H670L603 552L665 845L764 926H976L1035 846L1027 806H1129L1148 896L1048 1028H735L574 895L490 502L598 364ZM396 266H1058L1135 330L1293 1070L1242 1134H580L503 1070L345 330L396 266ZM545
300L418 464L518 934L714 1096H1094L1222 934L1182 746H950L966 820L933 864H779L726 820L674 576L708 532H862L914 576L930 652H1162L1122 464L925 300H545Z" />
<glyph unicode="&#xaa;" horiz-adv-x="885" d="M280 717L176 850L215 1033L376 1166H726L732 1191L701 1230H266L305 1412H828L933 1280L841 850L680 717H280ZM375 849L323 915L337 983L405 1039H752L727 918L644 849H375ZM317 767H666L801 878L882 1255L796 1363H347L329
1281H738L790 1215L770 1118H389L261 1014L231 875L317 767ZM408 899H630L678 939L689 990H414L382 963L376 939L408 899Z" />
<glyph unicode="&#xab;" horiz-adv-x="1200" d="M979 216L584 466L647 759L1147 1003L1084 710L845 612V612L1042 510L979 216ZM942 336L970 465L755 583L767 642L1032 758L1059 887L702 716L658 509L942 336ZM737 216L342 466L405 759L905 1003L842 710L603 612V612L800
510L737 216ZM700 336L728 465L513 583L525 642L790 758L817 887L460 716L416 509L700 336Z" />
<glyph unicode="&#xac;" horiz-adv-x="1128" d="M1085 883L969 335H686L742 600H101L161 883H1085ZM993 806H221L193 677H837L781 412H909L993 806Z" />
<glyph unicode="&#xad;" horiz-adv-x="836" d="M75 476L129 732H761L707 476H75ZM169 545H649L673 659H193L169 545Z" />
<glyph unicode="&#xae;" horiz-adv-x="1382" d="M212 262L44 476L200 1214L460 1428H1170L1338 1214L1182 476L922 262H212ZM258 321H903L1110 492L1256 1177L1121 1348H476L269 1177L123 492L258 321ZM340 449L259 551L380 1118L504 1220H1039L1121 1118L1000
551L875 449H340ZM396 546H858L936 610L1036 1080L986 1144H524L446 1080L346 610L396 546ZM390 602L463 946L660 1108H870L1000 942L779 784L707 876H725L671 832L622 602H390ZM468 661H570L613 864L698 933H759L807 872L904 942L831 1035H670L522 913L468 661Z"
/>
<glyph unicode="&#xaf;" horiz-adv-x="836" d="M75 1119L129 1375H761L707 1119H75ZM169 1188H649L673 1302H193L169 1188Z" />
<glyph unicode="&#xb0;" horiz-adv-x="884" d="M278 709L174 841L265 1268L425 1400H825L929 1268L838 841L678 709H278ZM317 758H663L793 866L874 1244L789 1352H441L310 1243L230 869L317 758ZM376 840L321 909L384 1204L464 1269H731L783 1204L720 905L641
840H376ZM404 890H628L675 929L729 1180L698 1219H475L427 1180L374 929L404 890Z" />
<glyph unicode="&#xb1;" horiz-adv-x="940" d="M276 538L316 726H128L182 982H370L410 1170H666L626 982H814L760 726H572L532 538H276ZM363 613H477L516 795H702L726 909H540L579 1093H465L426 909H246L222 795H402L363 613ZM128 235L182 491H814L760 235H128ZM222
304H702L726 418H246L222 304Z" />
<glyph unicode="&#xb2;" horiz-adv-x="513" d="M103 830L154 1068L260 1153H391L415 1173L433 1257L417 1277H342L318 1257L305 1195H181L207 1315L313 1400H499L569 1316L526 1117L420 1030H290L265 1009L254 953H491L464 830H103ZM148 865H434L445 918H212L235
1026L284 1067H411L495 1136L530 1299L475 1367H323L240 1299L225 1231H279L288 1274L337 1314H440L471 1274L447 1160L398 1120H271L187 1052L148 865Z" />
<glyph unicode="&#xb3;" horiz-adv-x="511" d="M190 830L122 917L146 1031H269L257 973L272 953H348L372 973L385 1034L369 1053H289L315 1176H395L420 1198L432 1257L416 1277H340L317 1257L305 1199H181L205 1313L312 1400H498L566 1313L529 1140L499 1115L518
1089L482 917L376 830H190ZM214 866H368L451 935L480 1072L447 1115L499 1158L529 1297L474 1366H320L237 1297L222 1232H276L286 1274L333 1313H439L470 1274L451 1183L402 1142H338L326 1088H390L422 1049L403 959L355 919H250L218 959L227 999H173L159 935L214
866Z" />
<glyph unicode="&#xb4;" horiz-adv-x="688" d="M54 1112L354 1376H641L301 1112H54ZM186 1160H287L495 1327H377L186 1160Z" />
<glyph unicode="&#xb5;" horiz-adv-x="1142" d="M-95 -428L225 1080H508L352 344L400 283H634L708 344L864 1080H1147L961 206L712 0H279L188 -428H-95ZM-2 -353H126L231 142L301 78H690L895 251L1055 1004H926L779 313L654 206H352L267 313L414 1004H286L-2 -353Z" />
<glyph unicode="&#xb6;" horiz-adv-x="1335" d="M372 -234L511 418H290L113 643L230 1194L480 1400H1369L1021 -234H738L1026 1118H944L656 -234H372ZM466 -159H594L883 1197H1120L832 -159H959L1275 1324H520L318 1158L216 684L363 498L478 508L425 611L530 1108L611
1197H755L466 -159Z" />
<glyph unicode="&#xb7;" horiz-adv-x="558" d="M91 588L153 882H467L405 588H91ZM189 668H342L370 803H217L189 668Z" />
<glyph unicode="&#xb8;" horiz-adv-x="638" d="M40 -349L73 -192H278L315 -160L292 -130H158L191 27H435L558 -160L355 -349H40ZM106 -303H333L490 -160L393 -19H238L224 -84H331L385 -160L299 -238H120L106 -303Z" />
<glyph unicode="&#xb9;" horiz-adv-x="467" d="M103 830L130 953H225L289 1254L188 1226L217 1362L363 1400H444L349 953H446L419 830H103ZM149 864H387L399 917H306L402 1366H364L247 1334L234 1275L335 1305L253 917H161L149 864Z" />
<glyph unicode="&#xba;" horiz-adv-x="884" d="M278 709L174 841L265 1268L425 1400H825L929 1268L838 841L678 709H278ZM317 758H663L793 866L874 1244L789 1352H441L310 1243L230 869L317 758ZM376 840L321 909L384 1204L464 1269H731L783 1204L720 905L641
840H376ZM404 890H628L675 929L729 1180L698 1219H475L427 1180L374 929L404 890Z" />
<glyph unicode="&#xbb;" horiz-adv-x="1200" d="M53 216L116 510L357 612V612L158 710L221 1003L617 759L554 466L53 216ZM142 336L500 509L544 716L259 887L232 758L447 642L435 583L170 465L142 336ZM551 216L614 510L855 612V612L656 710L719 1003L1115 759L1052
466L551 216ZM640 336L998 509L1042 716L757 887L730 758L945 642L933 583L668 465L640 336Z" />
<glyph unicode="&#xbc;" horiz-adv-x="1022" d="M103 830L130 953H225L289 1254L188 1226L217 1362L363 1400H444L349 953H446L419 830H103ZM149 864H387L399 917H306L402 1366H364L247 1334L234 1275L335 1305L253 917H161L149 864ZM-87 0L953 1400H1107L68 0H-87ZM-17
35H53L1043 1369H973L-17 35ZM642 0L670 128H482L511 264L691 570H887L819 252H877L851 128H793L765 0H642ZM642 252H696L735 436H738L645 265L642 252ZM686 31H738L766 161H828L839 215H777L845 536H707L546 259L525 162H713L686 31ZM595 215L605 264L727 478H780L724
215H595Z" />
<glyph unicode="&#xbd;" horiz-adv-x="1066" d="M103 830L130 953H225L289 1254L188 1226L217 1362L363 1400H444L349 953H446L419 830H103ZM149 864H387L399 917H306L402 1366H364L247 1334L234 1275L335 1305L253 917H161L149 864ZM-87 0L953 1400H1107L68 0H-87ZM-17
35H53L1043 1369H973L-17 35ZM480 0L531 238L637 323H768L792 343L810 427L794 447H719L695 427L682 365H558L584 485L690 570H876L946 486L903 287L797 200H667L642 179L631 123H868L841 0H480ZM525 35H811L822 88H589L612 196L661 237H788L872 306L907 469L852
537H700L617 469L602 401H656L665 444L714 484H817L848 444L824 330L775 290H648L564 222L525 35Z" />
<glyph unicode="&#xbe;" horiz-adv-x="1066" d="M190 830L122 917L146 1031H269L257 973L272 953H348L372 973L385 1034L369 1053H289L315 1176H395L420 1198L432 1257L416 1277H340L317 1257L305 1199H181L205 1313L312 1400H498L566 1313L529 1140L499 1115L518
1089L482 917L376 830H190ZM214 866H368L451 935L480 1072L447 1115L499 1158L529 1297L474 1366H320L237 1297L222 1232H276L286 1274L333 1313H439L470 1274L451 1183L402 1142H338L326 1088H390L422 1049L403 959L355 919H250L218 959L227 999H173L159 935L214
866ZM-43 0L997 1400H1151L112 0H-43ZM27 35H97L1087 1369H1017L27 35ZM686 0L714 128H526L555 264L735 570H931L863 252H921L895 128H837L809 0H686ZM686 252H740L779 436H782L689 265L686 252ZM730 31H782L810 161H872L883 215H821L889 536H751L590 259L569 162H757L730
31ZM639 215L649 264L771 478H824L768 215H639Z" />
<glyph unicode="&#xbf;" horiz-adv-x="1100" d="M755 1021L711 813L386 546L343 344L392 283H542L617 344L642 458H924L870 206L620 0H194L32 206L130 665L454 933L472 1021H755ZM749 1322H601L573 1194H722L749 1322ZM843 1400L783 1117H482L542 1400H843ZM662
955H533L522 902L199 633L117 244L248 77H594L797 244L827 384H698L682 306L559 205H338L259 306L317 581L640 850L662 955Z" />
<glyph unicode="&#xc0;" horiz-adv-x="1288" d="M-34 0L220 1194L470 1400H1116L1278 1194L1024 0H742L830 412H336L248 0H-34ZM64 83H192L277 487H923L837 83H966L1195 1160L1062 1327H495L293 1160L64 83ZM396 694H890L967 1056L919 1117H547L473 1056L396 694ZM305
616L407 1098L530 1199H973L1053 1098L950 616H305ZM923 1432H676L448 1696H735L923 1432ZM812 1480L691 1647H573L711 1480H812Z" />
<glyph unicode="&#xc1;" horiz-adv-x="1311" d="M-94 0L573 1400H1081L1157 0H832L822 296H366L232 0H-94ZM30 74H177L313 368H909L922 74H1068L1003 1323H620L30 74ZM362 482L688 1196H878L909 482H362ZM477 552H821L803 1116H726L477 552ZM719 1432L1019 1696H1306L966
1432H719ZM851 1480H952L1160 1647H1042L851 1480Z" />
<glyph unicode="&#xc2;" horiz-adv-x="1311" d="M-94 0L573 1400H1081L1157 0H832L822 296H366L232 0H-94ZM30 74H177L313 368H909L922 74H1068L1003 1323H620L30 74ZM362 482L688 1196H878L909 482H362ZM477 552H821L803 1116H726L477 552ZM765 1716H1017L1181
1432H904L854 1540L758 1432H481L765 1716ZM792 1663L623 1491H741L842 1603H890L945 1491H1062L966 1663H792Z" />
<glyph unicode="&#xc3;" horiz-adv-x="1288" d="M-34 0L220 1194L470 1400H1116L1278 1194L1024 0H742L830 412H336L248 0H-34ZM64 83H192L277 487H923L837 83H966L1195 1160L1062 1327H495L293 1160L64 83ZM396 694H890L967 1056L919 1117H547L473 1056L396 694ZM305
616L407 1098L530 1199H973L1053 1098L950 616H305ZM524 1432L553 1568L688 1680H866L910 1624H928L940 1680H1132L1103 1544L968 1432H790L746 1488H728L716 1432H524ZM593 1481H675L680 1509L723 1547H779L829 1485H950L1055 1574L1067 1632H985L980 1604L937
1567H877L827 1628H709L605 1539L593 1481Z" />
<glyph unicode="&#xc4;" horiz-adv-x="1288" d="M-34 0L220 1194L470 1400H1116L1278 1194L1024 0H742L830 412H336L248 0H-34ZM64 83H192L277 487H923L837 83H966L1195 1160L1062 1327H495L293 1160L64 83ZM396 694H890L967 1056L919 1117H547L473 1056L396 694ZM305
616L407 1098L530 1199H973L1053 1098L950 616H305ZM905 1452L949 1662H1161L1117 1452H905ZM489 1452L533 1662H745L701 1452H489ZM563 1511H651L670 1602H582L563 1511ZM980 1511H1068L1087 1602H999L980 1511Z" />
<glyph unicode="&#xc5;" horiz-adv-x="1288" d="M-34 0L220 1194L470 1400H1116L1278 1194L1024 0H742L830 412H336L248 0H-34ZM64 83H192L277 487H923L837 83H966L1195 1160L1062 1327H495L293 1160L64 83ZM396 694H890L967 1056L919 1117H547L473 1056L396 694ZM305
616L407 1098L530 1199H973L1053 1098L950 616H305ZM710 1430L632 1527L669 1701L788 1799H971L1048 1701L1011 1527L893 1430H710ZM747 1482H880L967 1554L993 1678L936 1750H803L716 1678L690 1554L747 1482ZM797 1555L772 1587L784 1645L822 1676H886L911 1645L898
1587L861 1555H797ZM829 1598H846L855 1607L859 1623L853 1631H836L826 1623L822 1607L829 1598Z" />
<glyph unicode="&#xc6;" horiz-adv-x="1934" d="M-119 0L774 1400H1921L1861 1117H1311L1253 848H1765L1705 565H1193L1133 283H1683L1623 0H790L878 412H449L188 0H-119ZM-4 70H135L402 485H971L883 70H1576L1604 198H1039L1134 644H1659L1687 773H1161L1253
1206H1818L1845 1335H812L-4 70ZM483 614L866 1206H1125L999 614H483ZM625 694H938L1028 1117H895L625 694Z" />
<glyph unicode="&#xc7;" horiz-adv-x="1211" d="M231 -349L264 -192H469L506 -160L483 -130H349L376 0H219L57 206L267 1194L517 1400H1064L1227 1194L1159 872H876L915 1056L867 1117H595L521 1056L369 344L417 283H689L763 344L803 528H1086L1017 206L766 0H644L749
-160L546 -349H231ZM297 -303H524L681 -160L585 -19H543L564 78H746L948 245L994 459H866L833 307L710 206H364L284 307L451 1096L574 1196H921L1001 1096L968 944H1097L1143 1158L1011 1325H539L336 1158L142 245L274 78H450L415 -84H522L576 -160L490 -238H311L297
-303Z" />
<glyph unicode="&#xc8;" horiz-adv-x="1140" d="M-34 0L264 1400H1174L1114 1117H487L429 848H987L927 565H369L309 283H936L876 0H-34ZM62 80H825L852 208H218L311 643H875L902 771H338L428 1196H1062L1089 1325H327L62 80ZM840 1432H593L365 1696H652L840 1432ZM729
1480L608 1647H490L628 1480H729Z" />
<glyph unicode="&#xc9;" horiz-adv-x="1140" d="M-34 0L264 1400H1174L1114 1117H487L429 848H987L927 565H369L309 283H936L876 0H-34ZM62 80H825L852 208H218L311 643H875L902 771H338L428 1196H1062L1089 1325H327L62 80ZM601 1432L901 1696H1188L848 1432H601ZM733
1480H834L1042 1647H924L733 1480Z" />
<glyph unicode="&#xca;" horiz-adv-x="1140" d="M-34 0L264 1400H1174L1114 1117H487L429 848H987L927 565H369L309 283H936L876 0H-34ZM62 80H825L852 208H218L311 643H875L902 771H338L428 1196H1062L1089 1325H327L62 80ZM647 1716H899L1063 1432H786L736 1540L640
1432H363L647 1716ZM674 1663L505 1491H623L724 1603H772L827 1491H944L848 1663H674Z" />
<glyph unicode="&#xcb;" horiz-adv-x="1140" d="M-34 0L264 1400H1174L1114 1117H487L429 848H987L927 565H369L309 283H936L876 0H-34ZM62 80H825L852 208H218L311 643H875L902 771H338L428 1196H1062L1089 1325H327L62 80ZM822 1452L866 1662H1078L1034 1452H822ZM406
1452L450 1662H662L618 1452H406ZM480 1511H568L587 1602H499L480 1511ZM897 1511H985L1004 1602H916L897 1511Z" />
<glyph unicode="&#xcc;" horiz-adv-x="1059" d="M-34 0L26 283H300L478 1117H204L264 1400H1093L1033 1117H760L582 283H855L795 0H-34ZM59 77H736L763 205H484L694 1196H973L1001 1325H324L297 1196H566L356 205H87L59 77ZM808 1432H561L333 1696H620L808 1432ZM697
1480L576 1647H458L596 1480H697Z" />
<glyph unicode="&#xcd;" horiz-adv-x="1059" d="M-34 0L26 283H300L478 1117H204L264 1400H1093L1033 1117H760L582 283H855L795 0H-34ZM59 77H736L763 205H484L694 1196H973L1001 1325H324L297 1196H566L356 205H87L59 77ZM569 1432L869 1696H1156L816 1432H569ZM701
1480H802L1010 1647H892L701 1480Z" />
<glyph unicode="&#xce;" horiz-adv-x="1059" d="M-34 0L26 283H300L478 1117H204L264 1400H1093L1033 1117H760L582 283H855L795 0H-34ZM59 77H736L763 205H484L694 1196H973L1001 1325H324L297 1196H566L356 205H87L59 77ZM615 1716H867L1031 1432H754L704 1540L608
1432H331L615 1716ZM642 1663L473 1491H591L692 1603H740L795 1491H912L816 1663H642Z" />
<glyph unicode="&#xcf;" horiz-adv-x="1059" d="M-34 0L26 283H300L478 1117H204L264 1400H1093L1033 1117H760L582 283H855L795 0H-34ZM59 77H736L763 205H484L694 1196H973L1001 1325H324L297 1196H566L356 205H87L59 77ZM790 1452L834 1662H1046L1002 1452H790ZM374
1452L418 1662H630L586 1452H374ZM448 1511H536L555 1602H467L448 1511ZM865 1511H953L972 1602H884L865 1511Z" />
<glyph unicode="&#xd0;" horiz-adv-x="1223" d="M29 0L149 562H-24L30 818H203L327 1400H1086L1248 1194L1038 206L788 0H29ZM124 77H765L968 244L1162 1155L1030 1322H388L266 746H93L69 631H241L124 77ZM280 206L370 631H630L654 746H394L489 1194H940L1020
1093L853 306L730 206H280ZM372 283H711L785 344L937 1056L889 1117H550L486 818H742L688 562H432L372 283Z" />
<glyph unicode="&#xd1;" horiz-adv-x="1465" d="M69 75H197L435 1192H616L728 77H1132L1397 1325H1268L1031 208H850L739 1322H334L69 75ZM-24 0L274 1400H817L916 287H969L1206 1400H1489L1191 0H648L547 1116H496L259 0H-24ZM642 1432L671 1568L806 1680H984L1028
1624H1046L1058 1680H1250L1221 1544L1086 1432H908L864 1488H846L834 1432H642ZM711 1481H793L798 1509L841 1547H897L947 1485H1068L1173 1574L1185 1632H1103L1098 1604L1055 1567H995L945 1628H827L723 1539L711 1481Z" />
<glyph unicode="&#xd2;" horiz-adv-x="1306" d="M172 0L10 206L220 1194L470 1400H1134L1296 1194L1086 206L836 0H172ZM370 283H758L832 344L984 1056L936 1117H548L474 1056L322 344L370 283ZM229 80H814L1017 247L1211 1158L1079 1325H493L291 1158L97 247L229
80ZM319 208L239 309L406 1096L529 1196H989L1069 1096L902 309L779 208H319ZM931 1432H684L456 1696H743L931 1432ZM820 1480L699 1647H581L719 1480H820Z" />
<glyph unicode="&#xd3;" horiz-adv-x="1306" d="M172 0L10 206L220 1194L470 1400H1134L1296 1194L1086 206L836 0H172ZM370 283H758L832 344L984 1056L936 1117H548L474 1056L322 344L370 283ZM229 80H814L1017 247L1211 1158L1079 1325H493L291 1158L97 247L229
80ZM319 208L239 309L406 1096L529 1196H989L1069 1096L902 309L779 208H319ZM692 1432L992 1696H1279L939 1432H692ZM824 1480H925L1133 1647H1015L824 1480Z" />
<glyph unicode="&#xd4;" horiz-adv-x="1306" d="M172 0L10 206L220 1194L470 1400H1134L1296 1194L1086 206L836 0H172ZM370 283H758L832 344L984 1056L936 1117H548L474 1056L322 344L370 283ZM229 80H814L1017 247L1211 1158L1079 1325H493L291 1158L97 247L229
80ZM319 208L239 309L406 1096L529 1196H989L1069 1096L902 309L779 208H319ZM738 1716H990L1154 1432H877L827 1540L731 1432H454L738 1716ZM765 1663L596 1491H714L815 1603H863L918 1491H1035L939 1663H765Z" />
<glyph unicode="&#xd5;" horiz-adv-x="1306" d="M172 0L10 206L220 1194L470 1400H1134L1296 1194L1086 206L836 0H172ZM370 283H758L832 344L984 1056L936 1117H548L474 1056L322 344L370 283ZM229 80H814L1017 247L1211 1158L1079 1325H493L291 1158L97 247L229
80ZM319 208L239 309L406 1096L529 1196H989L1069 1096L902 309L779 208H319ZM532 1432L561 1568L696 1680H874L918 1624H936L948 1680H1140L1111 1544L976 1432H798L754 1488H736L724 1432H532ZM601 1481H683L688 1509L731 1547H787L837 1485H958L1063 1574L1075
1632H993L988 1604L945 1567H885L835 1628H717L613 1539L601 1481Z" />
<glyph unicode="&#xd6;" horiz-adv-x="1306" d="M172 0L10 206L220 1194L470 1400H1134L1296 1194L1086 206L836 0H172ZM370 283H758L832 344L984 1056L936 1117H548L474 1056L322 344L370 283ZM229 80H814L1017 247L1211 1158L1079 1325H493L291 1158L97 247L229
80ZM319 208L239 309L406 1096L529 1196H989L1069 1096L902 309L779 208H319ZM913 1452L957 1662H1169L1125 1452H913ZM497 1452L541 1662H753L709 1452H497ZM571 1511H659L678 1602H590L571 1511ZM988 1511H1076L1095 1602H1007L988 1511Z" />
<glyph unicode="&#xd7;" horiz-adv-x="836" d="M486 278L381 411L220 278L77 459L239 592L134 724L353 905L458 773L619 905L762 724L601 592L705 459L486 278ZM505 381L603 462L502 591L661 722L598 803L438 671L336 801L238 720L340 591L186 463L249 382L404
510L505 381Z" />
<glyph unicode="&#xd8;" horiz-adv-x="1390" d="M143 -53L-24 86L71 188L55 206L265 1194L515 1400H1159L1172 1384L1246 1465L1414 1328L1307 1211L1321 1194L1111 206L861 0H217L206 15L143 -53ZM452 283H783L857 344L962 837L452 283ZM374 198L322 233L1076
1053L1085 1012L933 299L810 198H374ZM134 26L223 123L264 70H846L1048 237L1246 1168L1216 1205L1325 1323L1252 1383L1158 1280L1115 1335H532L329 1168L131 237L162 199L60 88L134 26ZM302 349L293 392L445 1106L567 1206H1005L1058 1171L302 349ZM413 560L926
1118H594L518 1056L413 560Z" />
<glyph unicode="&#xd9;" horiz-adv-x="1328" d="M172 0L10 206L264 1400H547L322 344L370 283H780L854 344L1079 1400H1362L1108 206L858 0H172ZM228 77H837L1039 243L1269 1325H1140L924 305L801 206H318L237 305L453 1325H325L95 243L228 77ZM943 1432H696L468
1696H755L943 1432ZM832 1480L711 1647H593L731 1480H832Z" />
<glyph unicode="&#xda;" horiz-adv-x="1328" d="M172 0L10 206L264 1400H547L322 344L370 283H780L854 344L1079 1400H1362L1108 206L858 0H172ZM228 77H837L1039 243L1269 1325H1140L924 305L801 206H318L237 305L453 1325H325L95 243L228 77ZM704 1432L1004
1696H1291L951 1432H704ZM836 1480H937L1145 1647H1027L836 1480Z" />
<glyph unicode="&#xdb;" horiz-adv-x="1328" d="M172 0L10 206L264 1400H547L322 344L370 283H780L854 344L1079 1400H1362L1108 206L858 0H172ZM228 77H837L1039 243L1269 1325H1140L924 305L801 206H318L237 305L453 1325H325L95 243L228 77ZM750 1716H1002L1166
1432H889L839 1540L743 1432H466L750 1716ZM777 1663L608 1491H726L827 1603H875L930 1491H1047L951 1663H777Z" />
<glyph unicode="&#xdc;" horiz-adv-x="1328" d="M172 0L10 206L264 1400H547L322 344L370 283H780L854 344L1079 1400H1362L1108 206L858 0H172ZM228 77H837L1039 243L1269 1325H1140L924 305L801 206H318L237 305L453 1325H325L95 243L228 77ZM925 1452L969 1662H1181L1137
1452H925ZM509 1452L553 1662H765L721 1452H509ZM583 1511H671L690 1602H602L583 1511ZM1000 1511H1088L1107 1602H1019L1000 1511Z" />
<glyph unicode="&#xdd;" horiz-adv-x="1294" d="M356 0L450 443L132 825L254 1400H537L436 927L650 674H631L954 927L1055 1400H1338L1216 825L733 443L639 0H356ZM449 75H578L662 474L1144 854L1244 1325H1116L1024 896L623 581H619L352 897L443 1325H314L214
852L533 472L449 75ZM686 1432L986 1696H1273L933 1432H686ZM818 1480H919L1127 1647H1009L818 1480Z" />
<glyph unicode="&#xde;" horiz-adv-x="1132" d="M-44 0L254 1400H537L469 1080H901L1064 874L990 526L739 320H307L239 0H-44ZM49 75H177L246 399H711L921 572L979 844L850 1007H375L444 1328H315L49 75ZM274 527L348 878H760L837 782L806 634L676 527H274ZM367
603H662L736 664L752 736L704 798H409L367 603Z" />
<glyph unicode="&#xdf;" horiz-adv-x="1306" d="M-39 0L215 1194L465 1400H1124L1286 1194L1210 837L1102 748L1223 593L1145 226L871 0H496L556 283H793L892 364L913 465L784 629L832 856L953 955L975 1056L927 1117H543L469 1056L244 0H-39ZM53 78H181L400 1104L507
1194H994L1061 1103L1023 920L909 826L873 659L996 501L958 322L815 207H608L581 79H852L1073 257L1137 557L1013 719L1024 773L1140 868L1204 1167L1086 1322H469L285 1169L53 78Z" />
<glyph unicode="&#xe0;" horiz-adv-x="1253" d="M201 0L39 206L100 491L349 697H893L902 736L854 797H179L239 1080H1052L1214 874L1072 206L822 0H201ZM348 205L267 307L289 413L394 500H934L895 312L765 205H348ZM258 77H800L1010 250L1135 835L1001 1004H304L277
876H911L993 773L961 623H369L171 461L125 245L258 77ZM399 283H744L818 344L835 424H409L358 382L350 344L399 283ZM872 1112H625L397 1376H684L872 1112ZM761 1160L640 1327H522L660 1160H761Z" />
<glyph unicode="&#xe1;" horiz-adv-x="1253" d="M201 0L39 206L100 491L349 697H893L902 736L854 797H179L239 1080H1052L1214 874L1072 206L822 0H201ZM348 205L267 307L289 413L394 500H934L895 312L765 205H348ZM258 77H800L1010 250L1135 835L1001 1004H304L277
876H911L993 773L961 623H369L171 461L125 245L258 77ZM399 283H744L818 344L835 424H409L358 382L350 344L399 283ZM633 1112L933 1376H1220L880 1112H633ZM765 1160H866L1074 1327H956L765 1160Z" />
<glyph unicode="&#xe2;" horiz-adv-x="1253" d="M201 0L39 206L100 491L349 697H893L902 736L854 797H179L239 1080H1052L1214 874L1072 206L822 0H201ZM348 205L267 307L289 413L394 500H934L895 312L765 205H348ZM258 77H800L1010 250L1135 835L1001 1004H304L277
876H911L993 773L961 623H369L171 461L125 245L258 77ZM399 283H744L818 344L835 424H409L358 382L350 344L399 283ZM679 1396H931L1095 1112H818L768 1220L672 1112H395L679 1396ZM706 1343L537 1171H655L756 1283H804L859 1171H976L880 1343H706Z" />
<glyph unicode="&#xe3;" horiz-adv-x="1253" d="M201 0L39 206L100 491L349 697H893L902 736L854 797H179L239 1080H1052L1214 874L1072 206L822 0H201ZM348 205L267 307L289 413L394 500H934L895 312L765 205H348ZM258 77H800L1010 250L1135 835L1001 1004H304L277
876H911L993 773L961 623H369L171 461L125 245L258 77ZM399 283H744L818 344L835 424H409L358 382L350 344L399 283ZM473 1112L502 1248L637 1360H815L859 1304H877L889 1360H1081L1052 1224L917 1112H739L695 1168H677L665 1112H473ZM542 1161H624L629 1189L672
1227H728L778 1165H899L1004 1254L1016 1312H934L929 1284L886 1247H826L776 1308H658L554 1219L542 1161Z" />
<glyph unicode="&#xe4;" horiz-adv-x="1253" d="M201 0L39 206L100 491L349 697H893L902 736L854 797H179L239 1080H1052L1214 874L1072 206L822 0H201ZM348 205L267 307L289 413L394 500H934L895 312L765 205H348ZM258 77H800L1010 250L1135 835L1001 1004H304L277
876H911L993 773L961 623H369L171 461L125 245L258 77ZM399 283H744L818 344L835 424H409L358 382L350 344L399 283ZM854 1132L898 1342H1110L1066 1132H854ZM438 1132L482 1342H694L650 1132H438ZM512 1191H600L619 1282H531L512 1191ZM929 1191H1017L1036 1282H948L929
1191Z" />
<glyph unicode="&#xe5;" horiz-adv-x="1253" d="M201 0L39 206L100 491L349 697H893L902 736L854 797H179L239 1080H1052L1214 874L1072 206L822 0H201ZM348 205L267 307L289 413L394 500H934L895 312L765 205H348ZM258 77H800L1010 250L1135 835L1001 1004H304L277
876H911L993 773L961 623H369L171 461L125 245L258 77ZM399 283H744L818 344L835 424H409L358 382L350 344L399 283ZM659 1110L581 1207L618 1381L737 1479H920L997 1381L960 1207L842 1110H659ZM696 1162H829L916 1234L942 1358L885 1430H752L665 1358L639 1234L696
1162ZM746 1235L721 1267L733 1325L771 1356H835L860 1325L847 1267L810 1235H746ZM778 1278H795L804 1287L808 1303L802 1311H785L775 1303L771 1287L778 1278Z" />
<glyph unicode="&#xe6;" horiz-adv-x="1790" d="M224 0L62 206L122 486L371 692H713L793 757L789 736L740 797H533L376 669L189 861L454 1080H939L992 1013L1073 1080H1558L1720 874L1658 582L1411 388H1069L989 323L993 344L1042 283H1249L1406 411L1593 219L1328
0H843L790 67L709 0H224ZM272 80H683L815 188L900 80H1320L1490 220L1406 308L1285 208H990L908 311L912 330L1075 464H1406L1596 615L1643 831L1510 1001H1100L968 893L883 1001H462L292 861L377 773L497 873H793L875 770L870 750L708 617H377L185 459L139 248L272
80ZM362 208L281 310L303 412L402 494H698L841 612L778 315L648 208H362ZM941 468L1005 766L1135 873H1420L1501 771L1480 668L1380 586H1085L941 468ZM423 283H630L705 344L726 440L703 421H433L382 379L374 344L423 283ZM1056 640L1079 659H1349L1400 701L1408
736L1359 797H1152L1077 736L1056 640Z" />
<glyph unicode="&#xe7;" horiz-adv-x="1148" d="M233 -349L266 -192H471L508 -160L485 -130H351L378 0H255L93 206L235 874L485 1080H969L1131 874L1083 650H800L819 736L771 797H563L489 736L405 344L453 283H661L735 344L754 430H1037L989 206L739 0H646L751
-160L548 -349H233ZM299 -303H526L683 -160L587 -19H545L566 77H717L920 245L946 364H817L805 307L681 206H407L322 312L421 774L546 877H824L905 775L893 718H1021L1047 837L914 1005H510L305 836L180 248L317 77H452L417 -84H524L578 -160L492 -238H313L299 -303Z"
/>
<glyph unicode="&#xe8;" horiz-adv-x="1253" d="M1052 1080L1214 874L1153 589L904 383H360L351 344L399 283H1074L1014 0H201L39 206L181 874L431 1080H1052ZM905 875L986 773L964 667L859 580H319L358 768L488 875H905ZM995 1003H453L243 830L118 245L252 76H949L976
204H342L260 307L292 457H884L1082 619L1128 835L995 1003ZM854 797H509L435 736L418 656H844L895 698L903 736L854 797ZM876 1112H629L401 1376H688L876 1112ZM765 1160L644 1327H526L664 1160H765Z" />
<glyph unicode="&#xe9;" horiz-adv-x="1253" d="M1052 1080L1214 874L1153 589L904 383H360L351 344L399 283H1074L1014 0H201L39 206L181 874L431 1080H1052ZM905 875L986 773L964 667L859 580H319L358 768L488 875H905ZM995 1003H453L243 830L118 245L252 76H949L976
204H342L260 307L292 457H884L1082 619L1128 835L995 1003ZM854 797H509L435 736L418 656H844L895 698L903 736L854 797ZM637 1112L937 1376H1224L884 1112H637ZM769 1160H870L1078 1327H960L769 1160Z" />
<glyph unicode="&#xea;" horiz-adv-x="1253" d="M1052 1080L1214 874L1153 589L904 383H360L351 344L399 283H1074L1014 0H201L39 206L181 874L431 1080H1052ZM905 875L986 773L964 667L859 580H319L358 768L488 875H905ZM995 1003H453L243 830L118 245L252 76H949L976
204H342L260 307L292 457H884L1082 619L1128 835L995 1003ZM854 797H509L435 736L418 656H844L895 698L903 736L854 797ZM683 1396H935L1099 1112H822L772 1220L676 1112H399L683 1396ZM710 1343L541 1171H659L760 1283H808L863 1171H980L884 1343H710Z" />
<glyph unicode="&#xeb;" horiz-adv-x="1253" d="M1052 1080L1214 874L1153 589L904 383H360L351 344L399 283H1074L1014 0H201L39 206L181 874L431 1080H1052ZM905 875L986 773L964 667L859 580H319L358 768L488 875H905ZM995 1003H453L243 830L118 245L252 76H949L976
204H342L260 307L292 457H884L1082 619L1128 835L995 1003ZM854 797H509L435 736L418 656H844L895 698L903 736L854 797ZM858 1132L902 1342H1114L1070 1132H858ZM442 1132L486 1342H698L654 1132H442ZM516 1191H604L623 1282H535L516 1191ZM933 1191H1021L1040
1282H952L933 1191Z" />
<glyph unicode="&#xec;" horiz-adv-x="990" d="M-1 0L59 283H299L409 797H169L229 1080H751L581 283H821L761 0H-1ZM87 77H707L734 205H483L653 1005H284L257 876H497L355 205H115L87 77ZM739 1112H492L264 1376H551L739 1112ZM628 1160L507 1327H389L527 1160H628Z" />
<glyph unicode="&#xed;" horiz-adv-x="990" d="M-1 0L59 283H299L409 797H169L229 1080H751L581 283H821L761 0H-1ZM87 77H707L734 205H483L653 1005H284L257 876H497L355 205H115L87 77ZM500 1112L800 1376H1087L747 1112H500ZM632 1160H733L941 1327H823L632 1160Z" />
<glyph unicode="&#xee;" horiz-adv-x="990" d="M-1 0L59 283H299L409 797H169L229 1080H751L581 283H821L761 0H-1ZM87 77H707L734 205H483L653 1005H284L257 876H497L355 205H115L87 77ZM546 1396H798L962 1112H685L635 1220L539 1112H262L546 1396ZM573 1343L404
1171H522L623 1283H671L726 1171H843L747 1343H573Z" />
<glyph unicode="&#xef;" horiz-adv-x="990" d="M-1 0L59 283H299L409 797H169L229 1080H751L581 283H821L761 0H-1ZM87 77H707L734 205H483L653 1005H284L257 876H497L355 205H115L87 77ZM721 1132L765 1342H977L933 1132H721ZM305 1132L349 1342H561L517 1132H305ZM379
1191H467L486 1282H398L379 1191ZM796 1191H884L903 1282H815L796 1191Z" />
<glyph unicode="&#xf0;" horiz-adv-x="1120" d="M174 0L12 206L126 742L376 948H563L466 1059L588 1159L398 1400H792L827 1355L906 1420L1009 1302L921 1230L1070 1034L894 206L644 0H174ZM321 207L240 308L311 642L435 743H664L776 604L713 311L585 207H321ZM371
283H567L641 344L692 585L628 665H452L378 604L323 344L371 283ZM232 78H621L828 249L988 999L829 1211L923 1289L878 1342L787 1268L735 1337H555L680 1178L561 1081L607 1029L723 1124L850 957L806 747L706 872H400L196 704L99 246L232 78ZM761 908L767 936L686
1037L578 948H730L761 908Z" />
<glyph unicode="&#xf1;" horiz-adv-x="1180" d="M-5 0L181 874L431 1080H979L1141 874L955 0H673L830 736L782 797H508L434 736L277 0H-5ZM90 77H218L366 773L491 875H834L915 774L767 77H895L1056 836L924 1004H456L251 835L90 77ZM442 1112L471 1248L606 1360H784L828
1304H846L858 1360H1050L1021 1224L886 1112H708L664 1168H646L634 1112H442ZM511 1161H593L598 1189L641 1227H697L747 1165H868L973 1254L985 1312H903L898 1284L855 1247H795L745 1308H627L523 1219L511 1161Z" />
<glyph unicode="&#xf2;" horiz-adv-x="1257" d="M201 0L39 206L181 874L431 1080H1056L1218 874L1076 206L826 0H201ZM263 77H803L1007 245L1133 836L1000 1004H456L252 835L127 250L263 77ZM354 205L269 312L367 773L492 875H910L991 774L892 307L768 205H354ZM399
283H748L822 344L906 736L858 797H509L435 736L351 344L399 283ZM873 1112H626L398 1376H685L873 1112ZM762 1160L641 1327H523L661 1160H762Z" />
<glyph unicode="&#xf3;" horiz-adv-x="1257" d="M201 0L39 206L181 874L431 1080H1056L1218 874L1076 206L826 0H201ZM263 77H803L1007 245L1133 836L1000 1004H456L252 835L127 250L263 77ZM354 205L269 312L367 773L492 875H910L991 774L892 307L768 205H354ZM399
283H748L822 344L906 736L858 797H509L435 736L351 344L399 283ZM634 1112L934 1376H1221L881 1112H634ZM766 1160H867L1075 1327H957L766 1160Z" />
<glyph unicode="&#xf4;" horiz-adv-x="1257" d="M201 0L39 206L181 874L431 1080H1056L1218 874L1076 206L826 0H201ZM263 77H803L1007 245L1133 836L1000 1004H456L252 835L127 250L263 77ZM354 205L269 312L367 773L492 875H910L991 774L892 307L768 205H354ZM399
283H748L822 344L906 736L858 797H509L435 736L351 344L399 283ZM680 1396H932L1096 1112H819L769 1220L673 1112H396L680 1396ZM707 1343L538 1171H656L757 1283H805L860 1171H977L881 1343H707Z" />
<glyph unicode="&#xf5;" horiz-adv-x="1257" d="M201 0L39 206L181 874L431 1080H1056L1218 874L1076 206L826 0H201ZM263 77H803L1007 245L1133 836L1000 1004H456L252 835L127 250L263 77ZM354 205L269 312L367 773L492 875H910L991 774L892 307L768 205H354ZM399
283H748L822 344L906 736L858 797H509L435 736L351 344L399 283ZM474 1112L503 1248L638 1360H816L860 1304H878L890 1360H1082L1053 1224L918 1112H740L696 1168H678L666 1112H474ZM543 1161H625L630 1189L673 1227H729L779 1165H900L1005 1254L1017 1312H935L930
1284L887 1247H827L777 1308H659L555 1219L543 1161Z" />
<glyph unicode="&#xf6;" horiz-adv-x="1257" d="M201 0L39 206L181 874L431 1080H1056L1218 874L1076 206L826 0H201ZM263 77H803L1007 245L1133 836L1000 1004H456L252 835L127 250L263 77ZM354 205L269 312L367 773L492 875H910L991 774L892 307L768 205H354ZM399
283H748L822 344L906 736L858 797H509L435 736L351 344L399 283ZM855 1132L899 1342H1111L1067 1132H855ZM439 1132L483 1342H695L651 1132H439ZM513 1191H601L620 1282H532L513 1191ZM930 1191H1018L1037 1282H949L930 1191Z" />
<glyph unicode="&#xf7;" horiz-adv-x="836" d="M75 476L129 732H761L707 476H75ZM169 545H649L673 659H193L169 545ZM287 159L331 369H543L499 159H287ZM361 218H449L468 309H380L361 218ZM287 839L331 1049H543L499 839H287ZM361 898H449L468 989H380L361 898Z" />
<glyph unicode="&#xf8;" horiz-adv-x="1158" d="M174 -53L7 86L82 166L51 206L193 874L442 1080H927H932L984 1137L1151 1000L1064 906L1089 874L947 206L698 0H223L218 -5L174 -53ZM483 283H619L694 344L738 551L483 283ZM166 26L241 107L268 74H681L875 235L1005
846L967 894L1064 998L990 1058L908 968L879 1006H470L265 845L137 240L181 183L92 87L166 26ZM393 203L352 228L835 749L845 697L760 297L645 203H393ZM309 322L296 382L381 783L505 878H757L801 852L309 322ZM398 510L672 798H521L446 736L398 510Z" />
<glyph unicode="&#xf9;" horiz-adv-x="1202" d="M201 0L39 206L225 1080H508L351 344L399 283H693L767 344L924 1080H1207L1021 206L771 0H201ZM261 78H749L954 251L1114 1004H986L839 313L714 206H352L267 313L414 1004H285L125 251L261 78ZM847 1112H600L372
1376H659L847 1112ZM736 1160L615 1327H497L635 1160H736Z" />
<glyph unicode="&#xfa;" horiz-adv-x="1202" d="M201 0L39 206L225 1080H508L351 344L399 283H693L767 344L924 1080H1207L1021 206L771 0H201ZM261 78H749L954 251L1114 1004H986L839 313L714 206H352L267 313L414 1004H285L125 251L261 78ZM608 1112L908 1376H1195L855
1112H608ZM740 1160H841L1049 1327H931L740 1160Z" />
<glyph unicode="&#xfb;" horiz-adv-x="1202" d="M201 0L39 206L225 1080H508L351 344L399 283H693L767 344L924 1080H1207L1021 206L771 0H201ZM261 78H749L954 251L1114 1004H986L839 313L714 206H352L267 313L414 1004H285L125 251L261 78ZM654 1396H906L1070
1112H793L743 1220L647 1112H370L654 1396ZM681 1343L512 1171H630L731 1283H779L834 1171H951L855 1343H681Z" />
<glyph unicode="&#xfc;" horiz-adv-x="1202" d="M201 0L39 206L225 1080H508L351 344L399 283H693L767 344L924 1080H1207L1021 206L771 0H201ZM261 78H749L954 251L1114 1004H986L839 313L714 206H352L267 313L414 1004H285L125 251L261 78ZM829 1132L873 1342H1085L1041
1132H829ZM413 1132L457 1342H669L625 1132H413ZM487 1191H575L594 1282H506L487 1191ZM904 1191H992L1011 1282H923L904 1191Z" />
<glyph unicode="&#xfd;" horiz-adv-x="1251" d="M202 0L40 206L225 1080H508L352 344L400 283H645L766 383L914 1080H1196L925 -194L676 -400H-39L21 -118H579L677 -37L689 20L665 0H202ZM64 -325H646L860 -145L1105 1004H977L839 359L653 207H346L267 308L415
1004H287L125 246L256 78H659L805 198L747 -74L601 -196H91L64 -325ZM598 1112L898 1376H1185L845 1112H598ZM730 1160H831L1039 1327H921L730 1160Z" />
<glyph unicode="&#xfe;" horiz-adv-x="1132" d="M-97 -400L307 1500H590L497 1061L521 1080H933L1096 874L954 206L703 0H291L275 19L186 -400H-97ZM411 282H626L700 344L784 736L736 798H521L423 717L348 363L411 282ZM-1 -318H128L236 191L323 80H687L885 243L1013
844L884 1007H520L386 896L498 1425H370L-1 -318ZM375 209L268 343L354 744L517 878H794L871 782L770 305L652 209H375Z" />
<glyph unicode="&#xff;" horiz-adv-x="1251" d="M202 0L40 206L225 1080H508L352 344L400 283H645L766 383L914 1080H1196L925 -194L676 -400H-39L21 -118H579L677 -37L689 20L665 0H202ZM64 -325H646L860 -145L1105 1004H977L839 359L653 207H346L267 308L415
1004H287L125 246L256 78H659L805 198L747 -74L601 -196H91L64 -325ZM819 1132L863 1342H1075L1031 1132H819ZM403 1132L447 1342H659L615 1132H403ZM477 1191H565L584 1282H496L477 1191ZM894 1191H982L1001 1282H913L894 1191Z" />
<glyph unicode="&#x2013;" horiz-adv-x="962" d="M75 476L129 732H887L833 476H75ZM169 545H775L799 659H193L169 545Z" />
<glyph unicode="&#x2014;" horiz-adv-x="1141" d="M75 476L129 732H1066L1012 476H75ZM169 545H954L978 659H193L169 545Z" />
<glyph unicode="&#x2018;" horiz-adv-x="558" d="M652 1400L440 942H169L426 1400H652ZM553 1333H461L283 1022H407L553 1333Z" />
<glyph unicode="&#x2019;" horiz-adv-x="558" d="M165 942L377 1400H648L391 942H165ZM265 1009H357L534 1320H410L265 1009Z" />
<glyph unicode="&#x201a;" horiz-adv-x="534" d="M246 -184L236 -12L296 270H598L538 -12L454 -184H246ZM321 -116H412L460 -2L501 195H364L323 -2L321 -116Z" />
<glyph unicode="&#x201c;" horiz-adv-x="859" d="M956 1400L744 942H473L730 1400H956ZM857 1333H765L587 1022H711L857 1333ZM636 1400L424 942H153L410 1400H636ZM537 1333H445L267 1022H391L537 1333Z" />
<glyph unicode="&#x201d;" horiz-adv-x="859" d="M165 942L377 1400H648L391 942H165ZM265 1009H357L534 1320H410L265 1009ZM485 942L697 1400H968L711 942H485ZM585 1009H677L854 1320H730L585 1009Z" />
<glyph unicode="&#x201e;" horiz-adv-x="909" d="M621 -184L611 -12L671 270H973L913 -12L829 -184H621ZM696 -116H787L835 -2L876 195H739L698 -2L696 -116ZM246 -184L236 -12L296 270H598L538 -12L454 -184H246ZM321 -116H412L460 -2L501 195H364L323 -2L321 -116Z" />
<glyph unicode="&#x2022;" horiz-adv-x="856" d="M234 346L51 562L113 854L388 1070H622L805 854L743 562L468 346H234ZM330 522H448L589 633L621 783L526 894H409L267 783L236 634L330 522Z" />
<glyph unicode="&#x2039;" horiz-adv-x="912" d="M561 216L166 466L229 759L729 1003L666 710L427 612V612L624 510L561 216ZM524 336L552 465L337 583L349 642L614 758L641 887L284 716L240 509L524 336Z" />
<glyph unicode="&#x203a;" horiz-adv-x="912" d="M183 216L246 510L487 612V612L288 710L351 1003L747 759L684 466L183 216ZM272 336L630 509L674 716L389 887L362 758L577 642L565 583L300 465L272 336Z" />
</font>
</defs>
</svg>
